<svg width="64" height="98" viewBox="0 0 64 98" fill="none" xmlns="http://www.w3.org/2000/svg">
<path d="M21.9602 0.938148L24.0826 7.5117H30.957L25.3908 11.5813L27.5191 18.154L21.9602 14.0954L16.3941 18.154L18.5254 11.5813L12.9648 7.5117H19.8396L21.9602 0.938148Z" fill="#9F8C50"/>
<path d="M41.1217 0.938148L43.2428 7.5117H50.115L44.5549 11.5813L46.6866 18.154L41.1217 14.0954L35.5611 18.154L37.6894 11.5813L32.125 7.5117H39.0015L41.1217 0.938148Z" fill="#9F8C50"/>
<path fill-rule="evenodd" clip-rule="evenodd" d="M50.9147 66.7849C50.6398 77.7136 45.985 86.274 35.7124 89.4955C33.0296 90.3227 30.1335 90.0794 27.2408 89.3588C32.9319 82.0986 36.9301 70.7233 40.2311 58.7952C34.3565 57.7695 30.9247 54.9223 29.0725 51.3511C30.037 50.4601 30.9846 49.524 31.8972 48.5574C33.828 46.4886 35.6061 44.2668 37.047 41.9898C46.7409 45.6677 51.2138 55.0247 50.9147 66.7849ZM27.2502 42.7423C27.2565 41.9634 27.3058 41.1846 27.3929 40.4236C28.5095 40.3493 29.6657 40.3709 30.8248 40.5073C31.7358 40.6097 32.617 40.7597 33.4676 40.9399C32.4364 42.7147 31.1316 44.1963 29.6385 45.496C29.0011 46.0471 28.3273 46.5667 27.6236 47.0609C27.3865 45.8266 27.2693 44.5689 27.2472 43.304C27.2443 43.1179 27.2473 42.9301 27.2502 42.7423ZM34.1024 29.0037C35.5161 29.4375 35.8041 31.5081 35.3198 36.1131C33.1103 35.6979 30.8184 35.4766 28.4696 35.4613C29.8616 31.2841 32.1772 28.4131 34.1024 29.0037ZM15.2567 93.1561C14.8029 93.2419 14.3317 93.2891 13.8413 93.2891C12.9617 93.0609 10.8678 93.1998 10.705 90.4831C11.105 89.0172 12.5775 88.5978 14.1481 88.5305C15.2775 88.4886 17.2052 89.4574 19.5999 90.7524C18.4153 91.9608 16.9711 92.8442 15.2567 93.1561ZM63.0348 66.3324C62.4956 52.76 52.9236 41.338 39.5283 37.1591C40.3429 35.0874 40.8115 33.0139 40.8018 31.0156C40.7877 26.2287 38.5464 21.8166 34.7789 21.5974C27.8131 21.6165 24.4212 29.0738 23.2617 35.822C2.49936 38.8621 -5.73781 60.4608 4.27228 68.8933C12.3481 72.3982 18.5611 68.2156 19.0085 62.3571C13.9408 62.9787 12.25 59.7886 12.2739 55.7037C12.3055 48.8136 16.7281 43.4756 22.779 41.3665C22.7854 42.1075 22.8185 42.7916 22.8805 43.4077C22.9167 43.7565 22.9579 44.0981 22.9876 44.4448C23.1792 46.2315 23.353 47.9281 23.5209 49.5648C21.5217 50.6525 19.3913 51.6804 17.2243 52.7838L17.2877 59.4168C19.3594 58.5352 21.7083 57.1581 24.1076 55.4288C24.2134 56.556 24.326 57.6743 24.4212 58.7978C25.0679 65.7711 24.9872 72.0634 23.7167 81.5573C23.4546 83.4918 22.8313 85.6655 21.8238 87.6129C17.8477 86.1176 14.1481 84.458 11.3312 84.4033C8.67096 84.2652 4.87346 85.5661 4.32607 89.2877C3.51779 94.7621 9.11841 97.7109 14.1829 97.3136C15.0085 97.2498 15.815 97.1183 16.5968 96.9295C19.2473 96.2824 21.6369 94.9312 23.8119 93.0256C27.8722 95.1453 32.5375 97.1836 36.7542 97.0323C52.5424 96.4864 63.5506 83.0214 63.0348 66.3324Z" fill="#2350A9"/>
</svg>
