<svg width="122" height="107" viewBox="0 0 122 107" fill="none" xmlns="http://www.w3.org/2000/svg">
<g clip-path="url(#clip0_1258_1856)">
<path fill-rule="evenodd" clip-rule="evenodd" d="M17.4635 29.3337C15.481 26.7052 14.6027 23.4955 14.5525 20.0584C14.4772 14.3719 15.1297 8.98873 16.6354 3.50445L17.4133 0.77494L20.1737 1.43204C28.0033 3.30226 35.7577 5.39994 43.1858 8.50854C55.2062 0.21893 68.6069 -0.0338022 82.1832 4.79338C88.9087 2.89789 96.4371 2.49352 102.134 7.24488C106.927 11.0611 113.201 17.1014 112.397 23.8999C113.778 25.4921 115.183 27.0591 116.538 28.6766C117.366 29.6622 118.27 30.7237 118.947 31.8104L118.972 31.861C122.31 37.598 121.783 44.5481 119.374 50.5126C116.463 57.766 110.892 63.8821 104.568 68.2797L99.6242 71.7168L99.9504 65.6765C100.076 63.6294 100.176 61.5823 100.277 59.5099C99.7496 59.434 99.2226 59.3582 98.796 59.3329C95.8097 63.0987 93.9778 67.3951 94.3041 72.3486V72.4245C94.3291 73.1068 94.3793 73.7892 94.4546 74.4716L96.3116 71.8179L98.52 76.3671C100.101 79.6526 100.528 83.3678 100.352 86.9566C101.983 90.5706 100.904 95.1198 99.5991 98.6833L99.5238 98.8602L99.4485 99.0371C97.5664 102.778 92.9991 104.521 89.2098 105.482L89.1345 105.507L89.0592 105.532C84.1908 106.543 79.1969 106.088 74.73 103.864C73.4251 103.232 71.7939 101.944 70.6647 101.059C68.7324 99.5679 66.8251 98.0009 64.9681 96.434C62.9103 94.6902 60.8526 92.8958 58.8952 91.0255C54.1773 86.8302 49.4595 82.6096 44.7165 78.3889C38.1919 75.3056 31.6672 72.2223 25.1676 69.1389L18.0156 65.7523L25.6193 63.6041L27.5014 63.0734C26.598 62.2141 25.6444 61.3548 24.741 60.4955C18.116 59.0297 11.5411 57.5133 4.91605 56.0474L0.775391 55.1376L3.10922 51.5741C7.90234 44.1185 12.6955 36.7387 17.4635 29.3337Z" fill="white"/>
<path fill-rule="evenodd" clip-rule="evenodd" d="M26.1964 57.766C12.4695 54.6827 5.56836 53.141 5.56836 53.141C15.9827 37.0673 21.1774 29.0304 21.1774 29.0304C18.7934 26.9327 17.5888 23.9252 17.5135 20.0584C17.4884 14.4477 18.0656 9.49419 19.496 4.31319C27.6519 6.23395 35.7575 8.43272 43.562 11.8951C54.4281 3.75718 67.2516 2.4177 82.0576 7.92725C90.3891 5.42521 96.2864 6.23395 100.251 9.57001C107.529 15.3576 110.515 20.4375 109.16 24.7845C113.903 30.1929 115.584 32.0884 116.387 33.4026C121.507 42.2483 116.362 56.5023 102.836 65.904C103.137 60.0659 103.313 57.1342 103.313 57.1342C100.352 56.5276 98.3442 56.3254 97.2651 56.5782C92.9237 61.6328 90.9412 66.9907 91.3176 72.6519C91.4682 75.8111 92.0453 79.0966 93.0993 82.4832C93.9024 80.7899 94.8309 79.1977 95.8096 77.7824C97.1145 80.4361 97.5913 83.7469 97.2902 87.74C98.6202 89.8882 98.4194 93.2496 96.7632 97.7988C95.6841 99.947 92.8986 101.59 88.4317 102.702C84.2157 103.561 79.8994 103.232 75.9595 101.286C74.0774 100.402 65.244 93.1485 60.8022 88.9026C51.1156 80.2844 46.2723 75.9627 46.2723 75.9627C32.9971 69.695 26.3469 66.5358 26.3469 66.5358C30.9393 65.2216 33.248 64.5898 33.248 64.5898C28.5553 60.0153 26.1964 57.766 26.1964 57.766Z" fill="#12335E"/>
<path fill-rule="evenodd" clip-rule="evenodd" d="M67.4776 44.447L57.515 44.5987C52.7218 44.9778 50.3127 45.1547 50.3127 45.1547C46.7242 41.6923 42.9348 40.4033 38.9698 41.2626C36.3098 41.8944 32.5706 43.4361 27.8026 45.8623C26.4224 46.5194 25.1677 46.6711 24.1137 46.3678C21.1525 42.2735 19.6719 40.2011 19.6719 40.2011C22.5327 32.973 23.938 29.3842 23.938 29.3842C26.7235 31.4061 28.8315 32.5686 30.2619 32.8972C27.3258 37.2694 25.8452 39.4682 25.8452 39.4682C31.9935 36.764 36.1592 34.6663 38.3676 33.1246C36.7364 26.4272 35.9083 23.0912 35.9083 23.0912C28.0787 23.3439 24.1388 23.4197 24.1388 23.4197C22.4323 21.3979 22.1563 16.6465 23.2855 9.11509C30.6634 10.5304 37.414 12.527 43.5622 15.0543C55.4572 6.66359 68.2556 5.37466 81.9825 11.0864C89.8372 8.78654 95.5839 9.24146 99.1474 12.5017C102.485 15.5345 103.966 17.3289 103.865 17.1014C102.585 22.2319 101.908 24.7592 101.782 24.6076C103.514 22.2319 104.744 20.4628 105.496 19.1991C106.676 20.6649 107.278 21.3979 107.278 21.3979C106.375 24.0263 105.271 26.6547 103.941 29.2578C105.07 28.6765 106.124 27.9184 107.052 27.0085C111.343 31.8104 113.477 34.2367 113.477 34.2367C109.763 35.5003 107.906 36.1069 107.906 36.1069C99.1223 33.1499 91.1421 30.3699 91.1421 30.3699C91.7695 28.5755 92.0957 27.6656 92.0957 27.6656C98.8462 29.2831 102.259 30.0919 102.259 30.0919C95.1573 26.6294 91.6189 24.9361 91.6189 24.9361C88.1558 27.5898 86.4494 28.9546 86.4494 28.9546C83.6137 26.3261 82.2334 25.0119 82.2334 25.0119C69.9118 21.9792 63.7385 20.4375 63.7385 20.4375C66.4989 27.1096 70.489 30.4709 75.6837 30.6226C70.1879 39.8726 67.4776 44.447 67.4776 44.447Z" fill="#00ABD6"/>
<path fill-rule="evenodd" clip-rule="evenodd" d="M103.84 41.0857C102.837 44.9778 102.335 46.8985 102.335 46.8985C87.9553 46.4689 77.2649 50.5884 72.4718 57.4375C64.2908 67.85 60.2004 73.031 60.2004 73.031C63.8391 71.4135 65.6962 70.6048 65.6962 70.6048C72.522 83.5194 78.3189 90.5454 83.0367 91.6827C86.9766 92.7947 91.4184 92.2134 96.4374 89.9641C97.0899 94.9176 95.3332 98.0262 91.2177 99.2646C85.2953 101.261 79.1721 100.629 75.9098 98.0515C74.9562 97.6977 68.5068 90.0146 56.5867 75.0529L48.1548 71.2619C50.5138 70.2004 51.6932 69.6444 51.6932 69.6444C47.1761 68.2797 44.9427 67.6226 44.9427 67.6226C48.1297 65.626 49.7107 64.6151 49.7107 64.6151C43.0606 61.1526 39.748 59.434 39.748 59.434C45.8712 59.3582 51.3419 58.1704 56.2354 55.8705C61.0285 53.5201 65.4703 52.8377 69.5357 53.7476C69.2596 51.0181 68.2809 48.8193 66.5243 47.1513C67.9045 45.7612 68.6072 45.0789 68.6072 45.0789L52.8727 44.8514C64.6422 43.7141 70.5395 43.1581 70.5395 43.1581C72.2459 41.1868 73.0741 40.1759 73.0741 40.1759C56.6369 40.0748 48.4058 40.0495 48.4058 40.0495C60.2506 39.1649 75.5083 37.876 75.5083 37.876C76.7128 36.3849 77.3151 35.6267 77.3151 35.6267C65.5456 35.5256 59.6734 35.5003 59.6734 35.5003C69.4604 34.4388 80.0504 33.1499 80.0504 33.1499C81.3805 31.6588 82.0078 30.8753 82.0078 30.8753C88.131 30.3699 91.1675 30.0919 91.1675 30.0919C95.3583 31.7852 97.4412 32.6192 97.4412 32.6192C93.9279 34.8179 92.1713 35.93 92.1713 35.93C95.5842 35.9047 97.2655 35.8794 97.2655 35.8794C101.406 39.2913 103.84 41.0857 103.84 41.0857Z" fill="white"/>
<path fill-rule="evenodd" clip-rule="evenodd" d="M49.7617 40.0242L91.1683 41.1868L93.4268 39.0133L49.7617 40.0242ZM54.2286 44.8009L82.2596 46.014L83.9911 44.0174L54.2286 44.8009ZM61.1799 35.4498L87.5044 36.4354L86.4505 34.7927L61.1799 35.4498Z" fill="#12335E"/>
<path fill-rule="evenodd" clip-rule="evenodd" d="M74.2531 24.9614C74.0775 26.1998 73.6258 27.1096 72.9231 27.6909C70.8904 26.7558 69.2843 25.2394 68.0547 23.1417C70.1878 23.9505 72.2455 24.557 74.2531 24.9614ZM77.0136 25.5932C77.6158 25.6185 78.193 25.7701 78.6949 25.9976C78.3185 28.1711 76.6622 28.9293 73.7261 28.2469C75.4075 27.792 76.4866 26.9074 77.0136 25.5932ZM111.569 51.5741C109.963 49.9566 107.73 48.5666 104.919 47.404C106.324 43.5625 107.052 41.667 107.052 41.667C110.666 39.3671 112.473 38.2298 112.473 38.2298C113.702 38.6595 114.305 38.8869 114.305 38.8869C114.631 40.1759 114.832 40.8077 114.832 40.8077C113.577 41.5659 112.975 41.9197 112.975 41.9197C114.104 41.8944 114.656 41.8944 114.656 41.8944C114.781 43.1581 114.857 43.7899 114.857 43.7899C112.799 44.2196 111.77 44.447 111.77 44.447C113.652 45.3821 114.581 45.8371 114.581 45.8371C113.928 46.9996 113.627 47.5809 113.627 47.5809C112.397 47.3282 111.795 47.2524 111.795 47.2524C112.724 48.0864 113.175 48.516 113.175 48.516C112.096 50.5379 111.569 51.5741 111.569 51.5741ZM95.2325 81.447C95.8096 82.9634 95.7343 85.3896 95.0066 88.7004C89.2348 91.3036 84.0652 90.697 79.4729 87.462C81.0036 84.682 82.5093 82.4074 84.015 80.6635C84.4417 82.3821 84.5671 84.3029 84.3413 86.4258C86.5245 87.2346 89.3603 87.3104 92.8233 86.7038C93.4758 85.8193 94.2538 84.0754 95.2325 81.447ZM75.5079 82.3063C75.6083 83.393 76.3862 84.682 77.8417 86.1731C78.3185 85.516 78.9961 84.5051 79.9999 83.4436C78.8706 83.57 78.1177 83.848 77.5907 84.0501C76.8128 83.5194 76.1101 82.9381 75.5079 82.3063ZM87.5283 55.4156C87.6789 53.5201 87.7542 52.585 87.7542 52.585C87.1268 51.9784 86.8006 51.7004 86.8006 51.7004C84.5169 52.5345 82.3588 53.6718 80.2759 55.1123C81.3801 55.2387 82.685 55.6178 84.1907 56.2749C84.4166 55.4662 84.5922 54.9101 84.7679 54.5816C85.6462 54.7585 86.5496 55.0618 87.5283 55.4156ZM93.4005 50.2599C92.3716 50.1335 91.3678 50.2093 90.4142 50.4873C89.4355 51.7257 88.9587 52.3323 88.9587 52.3323C89.2097 55.3145 89.4857 59.2066 89.4857 63.8063C91.8697 59.6615 93.3001 55.9716 93.802 52.7872C94.4294 54.6069 94.7306 55.4914 94.7306 55.4914C95.9351 54.0003 96.5374 53.2168 96.5374 53.2168C99.6993 52.7619 102.41 52.9388 105.295 53.9498C105.17 55.542 105.095 56.3507 105.095 56.3507C105.797 55.7694 106.349 55.1123 106.751 54.3794C106.299 57.766 105.747 60.2428 105.045 61.835C107.905 59.2824 109.888 56.654 111.042 53.9498C110.942 53.419 110.892 53.1663 110.892 53.1663C110.465 52.3323 109.712 51.8521 108.633 51.751C107.855 52.4586 107.454 52.8125 107.454 52.8125C107.403 51.751 107.378 51.195 107.378 51.195C103.413 49.4006 99.1222 48.9962 94.5298 49.9566C94.0781 51.0433 93.8522 51.5741 93.8522 51.5741C93.526 50.6895 93.4005 50.2599 93.4005 50.2599Z" fill="white"/>
<path fill-rule="evenodd" clip-rule="evenodd" d="M85.0689 76.3165C83.513 78.3131 81.9321 80.5372 80.326 82.9634C78.494 81.9777 77.2142 79.779 76.4363 76.3924C76.0598 72.5508 74.0272 70.4026 70.3382 69.9477C71.6933 69.0631 73.8264 68.2797 76.7123 67.6478C78.3435 68.4566 79.8492 69.7455 81.2796 71.4388C80.9534 70.0741 80.326 68.7599 79.4477 67.4709C83.0111 67.5973 85.6963 68.684 86.4742 70.5037C87.3275 72.3992 88.005 74.6991 88.4316 77.4033C89.0088 80.7646 89.8871 83.1909 91.1168 84.7073C89.7617 85.0611 88.1807 85.0358 86.3487 84.682C86.1731 80.9163 85.7214 78.1109 85.0689 76.3165ZM24.3142 53.6212C18.8937 53.6212 15.1295 51.8268 13.0215 48.2886C18.9941 51.7257 25.9704 50.8917 33.9506 45.8623C37.213 43.9921 40.0236 43.2592 42.4076 43.5877C45.4692 44.0427 47.3764 45.3063 48.1292 47.3282C48.7064 48.9709 48.7315 50.4621 48.2296 51.8015C53.7254 49.3753 57.9413 48.2633 60.9025 48.3897C64.6417 48.6424 67.0006 49.9313 67.9542 52.2565C64.7421 50.3357 60.6516 50.5379 55.7079 52.9136C50.9148 55.4409 46.1718 56.5276 41.5042 56.2243C38.3171 55.7947 36.0586 54.6321 34.7788 52.7619C37.1126 53.7223 39.346 53.7981 41.5293 52.9894C43.2357 52.2817 44.0639 51.1192 43.2106 49.5017C42.4076 47.9853 40.3749 47.8589 37.8403 49.4006C34.051 52.0037 29.5339 53.3938 24.3142 53.6212Z" fill="#B3905F"/>
<path fill-rule="evenodd" clip-rule="evenodd" d="M46.2486 17.3794L49.2349 22.2066L51.4182 19.5277L49.4608 16.6212L46.2486 17.3794ZM60.5527 27.5898L64.066 28.0447L63.4386 24.4559L60.8539 25.1383L60.5527 27.5898ZM72.247 17.8596L74.2294 16.7223L68.8591 11.4655L67.0523 14.3972L72.247 17.8596ZM78.069 21.5495L85.9488 19.3507L80.0013 13.083L78.069 21.5495ZM84.6187 15.1048C86.2499 16.1411 87.078 16.6718 87.078 16.6718C87.0529 14.473 87.0278 13.3863 87.0278 13.3863C85.6225 13.2599 84.9199 13.1841 84.9199 13.1841C85.0202 13.8917 84.945 14.5488 84.6187 15.1048ZM94.2552 19.9068C91.2187 17.9102 89.6879 16.9245 89.6879 16.9245C90.6164 16.6212 91.3693 16.2169 91.9213 15.7367C93.4772 18.4915 94.2552 19.9068 94.2552 19.9068ZM45.8722 24.835C46.5749 25.4163 47.0768 25.7449 47.3528 25.8207C47.654 25.8965 48.0053 25.9218 48.3817 25.8712C48.7581 25.8207 49.1847 25.7449 49.6365 25.5932C50.0882 25.4416 50.565 25.3658 51.1171 25.3405C51.644 25.3152 52.1961 25.3658 52.7231 25.5174C53.2501 25.669 53.8022 25.8712 54.3543 26.2251C54.8813 26.5283 55.3079 26.8822 55.6341 27.2107C55.9353 27.5393 56.1611 27.8173 56.3619 28.0195C56.5376 28.2469 56.7383 28.3986 56.9893 28.5249C57.2402 28.6513 57.441 28.7271 57.6417 28.7271C57.8425 28.7524 58.0683 28.7524 58.3193 28.7271H58.7459C58.7961 28.7271 58.6706 28.8029 58.4197 28.9798C58.1436 29.1568 57.9178 29.3084 57.6919 29.5106C57.4661 29.7128 57.3406 29.9149 57.2904 30.193C57.2151 30.471 57.0896 30.9764 56.9391 31.7093C56.7383 32.4675 56.663 32.8466 56.663 32.8972C56.663 32.9477 56.5626 32.9477 56.387 32.8972C56.2113 32.8466 54.3543 32.3412 50.8159 31.4061C47.2775 30.471 45.5209 29.9908 45.4958 29.9655C45.4958 29.9402 45.4707 29.9149 45.4707 29.8644C45.4707 29.8391 45.6213 29.3842 45.9475 28.5249C46.2737 27.6656 46.4745 27.1349 46.5247 26.9074C46.5749 26.68 46.5749 26.4778 46.5247 26.2503C46.4745 26.0229 46.349 25.7449 46.2235 25.391M59.1474 11.7688C59.047 12.0721 58.8714 12.3501 58.6204 12.5775C58.3695 12.805 58.0432 13.0324 57.6919 13.2599C57.3406 13.4874 56.914 13.8159 56.4623 14.2961C56.0106 14.7763 55.6592 15.2312 55.3832 15.6861C55.1071 16.1411 54.9566 16.596 54.8562 17.0509C54.7558 17.4805 54.6805 17.9102 54.7056 18.3398C54.7056 18.7442 54.7558 19.0222 54.806 19.1486C54.8562 19.3002 54.9064 19.376 54.9315 19.4013C54.9566 19.4266 55.5338 19.3002 56.663 19.0727C57.7923 18.82 59.0721 18.5673 60.5276 18.264C61.9831 17.9607 63.2128 17.7333 64.2668 17.5058C65.2957 17.3036 65.8478 17.2025 65.8478 17.1773C65.8729 17.152 65.8729 17.152 65.8729 17.1014C65.8729 17.0762 65.7976 16.8234 65.6721 16.3938C65.5466 15.9641 65.2706 15.4334 64.844 14.8521C64.4173 14.2708 63.9405 13.8159 63.4386 13.4621C62.9367 13.1335 62.4348 12.8808 61.933 12.7544C61.4311 12.6281 61.0044 12.5017 60.628 12.4259C60.2767 12.3248 59.8752 12.1479 59.4737 11.8952" fill="#12335E"/>
<path fill-rule="evenodd" clip-rule="evenodd" d="M90.7165 22.8132L86.0488 24.9867L90.315 20.0584L100.453 26.124L90.7165 22.8132Z" fill="#0F2D53"/>
</g>
<defs>
<clipPath id="clip0_1258_1856">
<rect width="120.455" height="105.263" fill="white" transform="translate(0.826172 0.77494)"/>
</clipPath>
</defs>
</svg>
