<svg width="167" height="107" viewBox="0 0 167 107" fill="none" xmlns="http://www.w3.org/2000/svg">
<path fill-rule="evenodd" clip-rule="evenodd" d="M35.0464 43.4469L44.2315 33.0544L37.6097 25.4765C42.7363 19.6307 48.0764 13.7849 53.203 7.93914L59.8248 15.517L73.0684 0.577774L166.842 106.235H0.228516L29.4927 73.3254L27.3566 70.7272C28.211 69.6447 29.0654 68.7787 30.1335 67.6961L27.3566 64.6649L29.4927 62.0668L26.2885 58.3861L37.3961 45.8285L35.0464 43.4469Z" fill="white"/>
<path fill-rule="evenodd" clip-rule="evenodd" d="M132.665 102.771L52.9896 13.1352L48.5039 18.115L123.907 102.771H132.665Z" fill="#CBA349"/>
<path fill-rule="evenodd" clip-rule="evenodd" d="M119.422 102.771L46.3686 20.4966L41.8828 25.6929L110.451 102.771H119.422Z" fill="#CBA349"/>
<path fill-rule="evenodd" clip-rule="evenodd" d="M159.365 102.77H150.607L68.582 10.5368L73.0678 5.55707L159.365 102.77Z" fill="#13007C"/>
<path fill-rule="evenodd" clip-rule="evenodd" d="M61.9609 18.115L137.151 102.771H146.122L66.4467 13.1352L61.9609 18.115Z" fill="#13007C"/>
<path fill-rule="evenodd" clip-rule="evenodd" d="M61.1074 102.771H105.965L83.5361 77.4388L61.1074 102.771Z" fill="#008837"/>
<path fill-rule="evenodd" clip-rule="evenodd" d="M20.9473 102.77H29.9188L46.7937 83.934H37.8222L20.9473 102.77Z" fill="#0E0E6B"/>
<path fill-rule="evenodd" clip-rule="evenodd" d="M7.70508 102.77H16.463L33.3379 83.934H24.58L7.70508 102.77Z" fill="#0E0E6B"/>
<path fill-rule="evenodd" clip-rule="evenodd" d="M34.4057 102.771H43.3772L74.7774 67.4794C65.1651 56.8704 55.7664 46.2614 46.3677 35.6524L39.5323 43.4468L41.6684 46.0449L32.9105 56.0044L31.2016 57.953L30.7744 58.386L33.9785 62.0667L31.8424 64.6648L34.6193 67.9125L31.8424 70.9436L33.9785 73.3252L27.5703 80.6866C36.5418 80.6866 45.2997 80.6866 54.2712 80.6866L34.4057 102.771Z" fill="#CBA349"/>
<path fill-rule="evenodd" clip-rule="evenodd" d="M47.6484 102.771H56.6199L69.4363 88.2649L81.3983 75.0577L76.9126 70.078L47.6484 102.771Z" fill="#CBA349"/>
<path fill-rule="evenodd" clip-rule="evenodd" d="M55.765 73.7583H44.4438C44.4438 67.9126 44.4438 62.0668 44.4438 56.221C49.9976 53.6228 55.3378 51.0247 60.8915 48.4266L58.7555 46.045C52.9881 48.8596 47.0071 51.6743 41.2397 54.7054V65.5309L38.4628 62.4998L36.3268 65.0979L41.2397 70.7272V74.1914H38.0356L35.0451 77.6555H57.2602L70.2902 62.9328L70.5038 62.4998L69.4358 58.8191L55.765 73.7583ZM46.7935 39.9827H53.4153V43.4468H43.803L46.7935 39.9827ZM44.4438 46.6945V49.5091L50.2112 46.6945H44.4438ZM37.822 59.2521V56.0045L34.4043 57.7366L36.5404 59.9017L37.822 59.2521Z" fill="white"/>
</svg>
