<svg width="137" height="95" viewBox="0 0 137 95" fill="none" xmlns="http://www.w3.org/2000/svg">
<path d="M55.9728 37.2477H61.5221L58.7902 46.8094L63.1442 45.6996L65.62 37.2477H70.8277L66.6445 51.5903L73.5597 42.3701L75.0964 37.1623H79.8773L76.8892 47.3217C76.8038 47.6632 76.1208 49.8829 76.6331 49.8829C77.1453 49.8829 78.5113 47.5778 79.9626 44.8459C81.5847 41.9432 82.9507 38.8698 83.6337 37.1623H88.6707L86.1948 45.785L92.5978 37.1623H136.992L29.9341 83.0076L32.0684 75.7509L116.161 41.3456H99.7691L98.1471 46.7241L92.9393 48.3462L95.0736 41.3456H92.5124L85.2558 50.7366L80.731 52.2733C80.9871 49.9682 81.3286 47.7485 81.9262 45.5289L79.7919 49.456C78.0844 52.5294 76.7185 55.0052 74.1573 55.0052C72.2791 55.0052 71.4253 53.2978 71.4253 50.9927C71.4253 50.2244 71.5107 49.2853 71.7668 48.4315L64.937 57.5664L59.3024 59.4446L61.9489 49.6267L57.6803 50.7366L54.6923 61.0667L48.5454 63.1157L51.2773 53.5539L45.0451 61.4936C42.3986 64.9085 39.6666 66.7013 37.5323 66.7013C33.349 66.7013 32.7514 59.7861 33.1783 57.0542C30.8732 58.0787 30.1049 58.5055 29.3365 58.9324C30.361 73.7019 15.25 94.106 5.68821 94.106C2.70016 94.106 0.480469 91.801 0.480469 86.6786C0.480469 78.995 6.20045 67.8965 21.6529 59.1031C21.2261 56.1151 20.2016 53.5539 18.3234 51.9318V51.5903C23.5311 47.5778 27.5437 43.053 27.5437 39.0405C27.5437 37.1623 26.0923 36.4793 24.5556 36.4793C21.6529 36.4793 17.8112 40.065 15.7622 43.053H14.6524L16.3598 37.2477C20.287 32.0399 26.6046 30.1617 30.0195 30.1617C33.5198 30.1617 36.5078 31.5277 36.5078 35.711C36.5078 40.6626 32.1538 45.8703 25.7508 49.7975C27.2022 51.505 28.2267 53.3832 28.7389 55.4321C30.2756 54.6637 31.8977 53.81 33.6051 53.0417C35.4834 43.9921 41.9717 36.9916 47.6917 36.9916C50.5944 36.9916 51.875 38.699 51.875 41.0895C51.875 46.5533 46.9233 50.7366 39.8374 54.4076C39.6666 55.6882 39.6666 56.3712 39.6666 57.1396C39.6666 59.6154 40.1789 60.8106 41.118 60.8106C41.7156 60.8106 42.4839 60.213 43.3377 59.2739L52.814 48.0047L55.9728 37.2477ZM7.73716 84.9711C7.73716 86.1663 8.07866 88.0445 9.44462 88.0445C14.7377 88.0445 21.4822 73.958 21.7383 62.9449C12.4327 69.2625 7.73716 78.4828 7.73716 84.9711ZM46.155 42.1139C46.155 41.2602 45.8135 40.6626 45.3012 40.6626C43.8499 40.6626 41.8009 45.1874 40.6057 50.3097C44.4475 47.9193 46.155 44.6751 46.155 42.1139Z" fill="#009EE1"/>
<path d="M114.601 69.1326L114.761 67.4513H118.924V65.1295H112.679L112.039 71.4543C112.76 71.2142 113.64 71.054 114.201 71.054C115.802 71.054 116.763 71.7746 116.763 72.7353C116.763 73.4559 116.042 74.2565 114.761 74.2565C113.8 74.2565 112.679 73.8562 111.879 73.1356L111.559 75.6976C112.439 76.258 113.64 76.7384 114.921 76.7384C117.883 76.7384 119.565 74.977 119.565 72.7353C119.565 70.0132 117.003 68.5721 114.601 69.1326Z" fill="#009EE1"/>
<path d="M110.52 68.492C110.52 66.5706 108.998 64.8893 106.276 64.8893C103.714 64.8893 102.033 66.4905 102.033 69.0525V69.1325H104.755V68.9724C104.755 67.7715 105.316 67.131 106.276 67.131C107.077 67.131 107.637 67.6914 107.637 68.492C107.637 69.0525 107.317 69.6129 106.757 70.3334L101.633 76.4181H110.359V74.0163H106.837L108.918 71.7745C109.959 70.5736 110.52 69.6929 110.52 68.492Z" fill="#009EE1"/>
<path d="M86.1797 67.6915H88.6616V76.4181H91.4637V65.1295H87.5407L86.1797 67.6915Z" fill="#009EE1"/>
<path d="M96.9854 64.8092C94.2633 64.8092 92.582 66.6506 92.582 68.9724C92.582 71.134 94.2633 72.5751 96.1047 72.5751C96.505 72.5751 96.7452 72.5751 97.1455 72.4951L94.5035 76.4181H97.706L99.3072 74.0162C100.588 72.0948 101.309 70.6537 101.309 68.9724C101.309 66.5705 99.7075 64.8092 96.9854 64.8092ZM96.9854 70.6537C96.0247 70.6537 95.2241 70.0132 95.2241 68.8923C95.2241 67.9316 95.8645 67.131 96.9854 67.131C98.0262 67.131 98.7468 67.9316 98.7468 68.8923C98.6667 69.9331 98.0262 70.6537 96.9854 70.6537Z" fill="#009EE1"/>
<path d="M67.054 0.181259L70.7538 11.6633H82.7461L73.0502 18.68L76.7499 30.162L67.054 23.1453L57.2305 30.162L60.9303 18.68L51.2344 11.6633H63.2267L67.054 0.181259Z" fill="#D0AF2C"/>
</svg>
