<svg width="102" height="105" viewBox="0 0 102 105" fill="none" xmlns="http://www.w3.org/2000/svg">
<g clip-path="url(#clip0_1038_80)">
<path d="M89.4349 0.995663C87.5292 0.971052 78.6549 1.1785 70.329 6.74782L59.0532 0.499908L51.1106 3.05252L43.1469 0.499908L31.8712 6.74782C23.5488 1.18202 14.6745 0.971052 12.7653 0.995663H0.269531V19.6304L0.325778 20.1121C1.04109 25.7438 3.38622 31.0439 7.07295 35.3609L4.72076 40.8564V78.7376L17.8459 78.8466L23.795 88.9339H26.9031L35.9603 104.309H66.2294L75.2865 88.9339H78.3947L84.3437 78.8466L97.4689 78.7376V40.8599L95.1167 35.3644C98.8029 31.0488 101.147 25.7497 101.86 20.1191L101.92 19.6339V0.999183L89.4349 0.995663Z" fill="#17243E"/>
<path d="M89.4122 5.04623C88.2378 5.02865 78.6462 5.09193 70.6368 11.5473L58.6262 4.89153L51.1091 7.307L43.5778 4.89153L31.5637 11.5473C23.5613 5.09897 13.9838 5.02865 12.7919 5.04623H4.33594V19.3809L4.36759 19.6235C5.28878 27.2778 9.72244 32.4568 11.8461 34.5383L8.7907 41.6828V74.733L20.186 74.8279L26.1245 84.8977H29.2326L38.2722 100.249H63.9108L72.9679 84.8766H76.0725L82.011 74.8068L93.4099 74.7119V41.6617L90.3545 34.5137C92.4641 32.4357 96.9118 27.2567 97.833 19.6024L97.8646 19.3598V5.0181L89.4122 5.04623Z" fill="#FAB513"/>
<path d="M87.008 32.1537C88.0628 31.1938 92.9465 26.4824 93.829 19.1445V9.08178H89.3778C89.3778 9.08178 78.64 8.84621 71.2072 16.4653L58.198 9.25407L51.1098 11.5465L44.0075 9.26812L30.9984 16.4794C23.5656 8.84621 12.8278 9.09584 12.8278 9.09584H8.35547V19.1586C9.2415 26.4964 14.1076 31.2079 15.18 32.1677L15.3909 32.3506C15.8234 32.7268 16.2629 33.0749 16.7094 33.4054L12.8102 42.5293V53.668C13.4871 53.7949 14.1749 53.8549 14.8635 53.8473C16.2564 53.8852 17.6392 53.6 18.9034 53.014C19.2972 52.8523 19.7191 52.6835 20.1973 52.5323C20.7368 52.36 21.2895 52.2318 21.8498 52.1491H21.892C22.5162 52.0606 23.1461 52.0183 23.7766 52.0225C25.4547 51.988 27.1194 52.3279 28.6497 53.0175C29.9137 53.5991 31.2954 53.8796 32.6861 53.8367C34.079 53.8751 35.4618 53.5898 36.7259 53.0034C37.9683 52.4435 39.3032 52.1169 40.6638 52.0401L39.7391 55.6686L37.2076 65.5977H35.3125L35.9454 63.1365L37.7772 56.0026L38.1499 54.5505C37.9565 54.6243 37.7596 54.7052 37.5627 54.786C36.0326 55.4761 34.3678 55.816 32.6896 55.7811C31.0115 55.8151 29.3469 55.4752 27.8164 54.786C26.5699 54.207 25.207 53.9219 23.8328 53.9528H23.7801C22.3871 53.9144 21.0043 54.1997 19.7402 54.786C18.2102 55.4764 16.5453 55.8164 14.8671 55.7811C13.3496 55.8176 11.841 55.5387 10.4369 54.9618V57.7746L10.8272 57.9364C12.0919 58.5159 13.4729 58.7974 14.8635 58.7591C16.256 58.7962 17.6383 58.5123 18.9034 57.9293C20.433 57.2376 22.0982 56.8976 23.7766 56.9343C25.4548 56.8983 27.1199 57.2383 28.6497 57.9293C29.9134 58.5128 31.2947 58.7967 32.6861 58.7591C32.9603 58.7591 33.2135 58.7591 33.449 58.738L32.9498 60.6894H32.6861C31.0091 60.7239 29.3455 60.384 27.8164 59.6944C26.5522 59.1084 25.1695 58.8231 23.7766 58.8611C22.3836 58.8228 21.0008 59.108 19.7367 59.6944C18.2065 60.3844 16.5417 60.7243 14.8635 60.6894C13.3464 60.725 11.8383 60.4473 10.4334 59.8737V62.6865L10.8237 62.8482C12.0886 63.4319 13.4708 63.717 14.8635 63.6815C16.256 63.7186 17.6383 63.4347 18.9034 62.8517C20.433 62.16 22.0982 61.82 23.7766 61.8567C25.4548 61.8207 27.1199 62.1607 28.6497 62.8517C29.7589 63.3692 30.9632 63.6517 32.1868 63.6815L31.6981 65.5942C30.3616 65.5073 29.0516 65.181 27.8305 64.6308C26.5663 64.0448 25.1835 63.7596 23.7906 63.7975C22.3977 63.7592 21.0148 64.0444 19.7508 64.6308C18.2206 65.3208 16.5558 65.6608 14.8776 65.6258C14.1904 65.6299 13.5039 65.5805 12.8243 65.4782V70.7135L22.5003 70.7908L28.4282 80.843H31.5399L40.597 96.2149H61.6191L70.6763 80.843H73.7879L79.7123 70.7908H80.2362L89.3778 70.717V65.4852C88.7063 65.5861 88.028 65.6343 87.3491 65.6293C85.6712 65.665 84.0064 65.3263 82.4759 64.6378C81.2118 64.0515 79.829 63.7662 78.436 63.8046C77.0432 63.767 75.6605 64.0522 74.3962 64.6378C73.1754 65.1883 71.8651 65.5134 70.5286 65.5977L70.0258 63.6815C71.2489 63.6541 72.4532 63.374 73.5629 62.8587C75.0936 62.1707 76.7582 61.832 78.436 61.8672C80.1139 61.8315 81.7786 62.1703 83.3092 62.8587C84.5734 63.4448 85.9562 63.73 87.3491 63.692C88.7419 63.7296 90.1246 63.4444 91.3889 62.8587L91.7792 62.7005V59.8877C90.3749 60.4635 88.8663 60.7412 87.3491 60.7034C85.6712 60.7391 84.0064 60.4004 82.4759 59.7119C81.2118 59.1256 79.829 58.8403 78.436 58.8787C77.0432 58.8411 75.6605 59.1263 74.3962 59.7119C72.8669 60.4005 71.2033 60.7392 69.5265 60.7034H69.2628L68.7636 58.7521C68.9991 58.7521 69.2523 58.7732 69.5265 58.7732C70.9184 58.8116 72.3001 58.5263 73.5629 57.9399C75.0936 57.2519 76.7582 56.9132 78.436 56.9484C80.1139 56.9127 81.7786 57.2514 83.3092 57.9399C84.5734 58.5259 85.9562 58.8111 87.3491 58.7732C88.7419 58.8107 90.1246 58.5255 91.3889 57.9399L91.7792 57.7817V54.9689C90.3748 55.5443 88.8663 55.8221 87.3491 55.7846C85.6707 55.8213 84.0055 55.4813 82.4759 54.7896C81.2109 54.2062 79.8285 53.9223 78.436 53.9598H78.3833C77.0096 53.9297 75.6471 54.2135 74.3997 54.7896C72.8699 55.4806 71.2048 55.8206 69.5265 55.7846C67.8483 55.8206 66.1832 55.4806 64.6534 54.7896C64.4565 54.7122 64.2631 54.6313 64.0662 54.5575L64.4389 56.0096L66.2707 63.1435L66.9036 65.6047H65.0085L62.477 55.6721L61.5523 52.0436C62.9132 52.1213 64.2481 52.449 65.4902 53.0105C66.7538 53.5939 68.1353 53.8767 69.5265 53.8367C70.9194 53.8747 72.3022 53.5895 73.5664 53.0034C75.0947 52.3117 76.7588 51.9716 78.436 52.0084C79.0663 52.0049 79.6961 52.0461 80.3206 52.1315H80.3628C80.9228 52.2145 81.4753 52.3415 82.0153 52.5112C82.4935 52.6659 82.9154 52.8347 83.3092 52.9964C84.5728 53.5848 85.9556 53.8725 87.3491 53.8367C88.0294 53.845 88.709 53.7861 89.3778 53.6609V42.5153L85.4786 33.3913C85.9251 33.0608 86.3646 32.7127 86.797 32.3365L87.008 32.1537ZM51.1098 65.4711L58.1418 59.8139L59.5025 65.4852H42.6715L44.0286 59.8139L51.1098 65.4711ZM46.539 57.4266V49.3785H55.6806V57.4266H46.539ZM26.7933 34.4144L19.1144 40.4127L23.0206 31.8091C21.2893 31.165 19.6937 30.2026 18.3162 28.9717L20.8477 25.8073H15.5034C14.654 24.5248 13.9567 23.1478 13.4255 21.7042L15.95 19.1797H12.8208V13.4346C15.1976 13.3818 18.6643 13.9831 21.8744 15.3895V18.8632L24.1668 16.5708C25.1844 17.1784 26.1282 17.9017 26.9796 18.7261C28.0458 19.7557 28.9747 20.9185 29.7432 22.1859L43.9899 14.31L51.1098 20.6212V44.6635L26.7933 34.4144ZM65.0366 76.3707H66.9317L58.4406 90.7159H43.7473L35.2562 76.3707H37.1619L43.452 86.7604H58.736L65.0366 76.3707ZM81.8395 25.8143L83.8788 28.9787C82.459 30.2531 80.8035 31.2373 79.0056 31.8759L72.4905 22.1226C73.2511 20.8856 74.1642 19.7493 75.2084 18.7402C76.0597 17.9157 77.0036 17.1925 78.0212 16.5849L80.3101 18.8773V15.4035C83.5237 13.9971 86.9904 13.3959 89.3672 13.4486V19.1937H86.238L88.7625 21.7182C88.2313 23.1619 87.534 24.5389 86.6845 25.8214L81.8395 25.8143ZM46.2332 24.0845L49.4257 27.8817H43.0231L46.2332 24.0845ZM37.5873 24.0845L40.7799 27.8817H34.3913L37.5873 24.0845ZM46.2332 29.5096L49.4257 33.3069H43.0231L46.2332 29.5096Z" fill="#17243E"/>
<path d="M51.0716 20.5888L43.9904 14.3163L51.0927 16.6298L58.1985 14.3163L51.1103 20.6205L51.0716 20.5888ZM34.8207 49.216L31.8497 43.1896L27.4794 39.9514L29.923 46.02L32.7815 49.3777H41.0757L37.8796 45.5805L34.8207 49.216ZM51.0822 44.6663H58.8455L75.4092 34.4137L51.1103 44.6593L26.8008 34.4137L43.3646 44.6663H51.0822ZM44.0291 59.785H58.1423L55.6459 49.3636V57.4117H46.5044V49.3636L44.0291 59.785ZM67.3647 49.2019L64.3058 45.5664L61.1133 49.3636H69.3934L72.2519 46.0059L74.6955 39.9373L70.3251 43.1755L67.3647 49.2019ZM42.2184 70.7795C42.2184 70.7795 42.4118 73.1774 45.2105 75.6702L45.5621 73.0614H56.6163L56.9679 75.6702C59.7807 73.1774 59.96 70.7795 59.96 70.7795L51.0822 70.8287L42.2184 70.7795ZM51.2685 81.1059H47.2146L46.2055 79.5378V83.0186H55.9834V79.5448L54.9779 81.12L51.2685 81.1059Z" fill="white"/>
<path d="M59.3729 27.8831H52.9844L56.1804 24.0859L59.3729 27.8831Z" fill="#FAB513"/>
<path d="M68.0174 27.8831H61.6289L64.8249 24.0859L68.0174 27.8831Z" fill="#FAB513"/>
<path d="M59.3729 33.3069H52.9844L56.1804 29.5097L59.3729 33.3069Z" fill="#FAB513"/>
</g>
<defs>
<clipPath id="clip0_1038_80">
<rect width="101.651" height="103.813" fill="white" transform="translate(0.269531 0.499924)"/>
</clipPath>
</defs>
</svg>
