<svg width="103" height="105" viewBox="0 0 103 105" fill="none" xmlns="http://www.w3.org/2000/svg">
<g clip-path="url(#clip0_1239_289)">
<path d="M0.349609 39.5753C1.3173 39.7213 2.10326 40.3113 2.97051 40.6857C7.51564 42.6304 12.2569 43.8217 17.1479 44.472C18.0343 44.5894 18.1204 44.4895 17.9833 43.6075C17.7808 42.3084 17.7808 42.3036 16.4991 41.9912C11.904 40.8617 7.49755 39.0762 3.41689 36.69C2.79099 36.3484 2.29651 35.8101 2.01079 35.1592C0.663669 32.1692 0.480332 29.1522 1.71107 26.086C2.01716 25.3246 2.06021 25.3262 2.59746 25.9559C6.74244 30.8193 11.7467 34.5882 17.4492 37.4704C18.0216 37.7607 18.1874 37.6782 18.2926 37.0342C18.5827 35.2512 18.6114 35.2623 17.0953 34.244C13.4047 31.7583 10.0903 28.8841 7.22708 25.4499C5.23909 23.0705 5.34909 20.5325 6.02504 17.847C6.52647 15.8562 7.61197 14.0589 9.14334 12.6839C9.50364 12.3539 9.75393 12.1271 9.96118 12.8568C11.7148 18.9733 15.0276 24.2126 19.1423 29.0015C19.4867 29.4028 19.8422 29.7946 20.1913 30.1927C20.4209 30.4529 20.6122 30.4672 20.8083 30.1436C20.9778 29.8752 21.1619 29.6162 21.3599 29.3679C21.5528 29.1188 21.7632 28.892 21.945 28.6652C22.2335 28.6858 22.1857 28.8904 22.2271 29.0237C23.4005 32.764 25.6914 35.7097 28.7937 38.051C29.331 38.457 29.2545 38.6854 28.9388 39.1613C27.504 41.3234 27.1134 43.6028 28.1242 46.0821C28.5211 47.0528 28.1242 48.0649 28.0205 49.0515C27.9806 49.473 27.8813 49.8868 27.7256 50.2808C27.5295 50.7567 27.7368 50.8931 28.1481 50.9391L28.5945 50.9819C30.2429 50.9994 31.869 51.2421 33.4935 51.4927C33.4935 54.6113 33.4935 57.7298 33.5174 60.8515C33.5174 61.4226 33.3309 61.4701 32.8797 61.2893C32.1639 61.0054 31.4242 60.7817 30.7259 60.4645C30.1871 60.2218 29.9384 60.3154 29.7375 60.888C28.9101 63.2674 27.8245 65.5261 26.7515 67.7976C26.5028 68.3259 26.2015 68.6177 25.5925 68.6844C23.5695 68.9033 21.6245 68.743 19.7864 67.7865C19.2842 67.5264 19.2667 67.3535 19.6604 66.9522C22.1335 64.4829 24.416 61.8317 26.4885 59.021C26.7181 58.7037 27.0576 58.3976 26.4885 58.0693C26.0389 57.8075 25.7105 57.3015 25.1159 58.0058C23.096 60.3978 20.762 62.479 18.3468 64.4713C18.1443 64.6394 17.9562 64.8314 17.6597 64.8282C15.3098 64.7997 13.1959 64.1937 11.616 62.3315C10.9193 61.5114 10.9432 61.4606 11.9189 61.0514C15.5931 59.5187 19.1157 57.6483 22.4408 55.4646C22.6847 55.306 23.2554 55.1474 22.8329 54.7429C22.4599 54.3844 22.4121 53.4184 21.4316 53.9292C18.0381 55.685 14.4859 57.1189 10.8221 58.212C10.5199 58.3079 10.196 58.3129 9.89103 58.2263C6.87317 57.4189 5.03343 55.4615 4.15183 52.5158C3.98284 51.948 4.0785 51.7751 4.69227 51.8068C7.23723 51.933 9.78809 51.8709 12.3238 51.6212C14.6472 51.3989 16.9525 51.0184 19.2236 50.4823C19.7019 50.3681 19.9554 50.1983 19.6413 49.6892C19.602 49.62 19.5725 49.5458 19.5536 49.4687C19.34 48.7184 19.0004 48.4424 18.0869 48.5851C13.7825 49.2577 9.46378 49.0229 5.16097 48.417C4.71274 48.3631 4.2917 48.1744 3.95415 47.8761C2.22123 46.3628 1.04788 44.5339 0.619034 42.2561C0.580772 42.0467 0.650911 41.7564 0.352791 41.6469L0.349609 39.5753Z" fill="#FAC520"/>
<path d="M74.904 41.62C74.7573 40.6238 74.2663 39.7815 73.6987 38.9789C73.4995 38.6997 73.3655 38.4872 73.7482 38.2064C77.0402 35.7779 79.4204 32.6847 80.6272 28.7508C80.6272 28.7302 80.6671 28.7175 80.7372 28.6604C81.241 29.03 81.5519 29.5788 81.8962 30.088C82.1465 30.4545 82.3426 30.4624 82.6296 30.1404C87.1412 25.093 90.8255 19.5602 92.7688 13.009C93.0255 12.1429 93.0128 12.1445 93.6473 12.7441C96.5567 15.4915 97.4479 18.9225 97.0812 22.7771C97.0398 23.2133 96.7544 23.5512 96.5296 23.9049C94.5241 27.0472 91.8378 29.5503 88.9475 31.8599C87.5778 32.9474 86.1488 33.9588 84.667 34.8896C84.2413 35.1608 84.0883 35.4289 84.2445 35.919C84.3706 36.3231 84.4487 36.7405 84.4773 37.1627C84.5187 37.7369 84.7499 37.7274 85.1899 37.5116C89.2423 35.518 92.9899 32.9625 96.3208 29.9215C97.7379 28.6424 99.0613 27.2642 100.281 25.7973C100.6 25.4166 100.759 25.3833 100.96 25.875C102.385 29.3092 102.076 32.6339 100.37 35.8826C100.228 36.107 100.025 36.2869 99.785 36.4013C95.4243 39.0453 90.6641 40.9734 85.6873 42.1117C85.0496 42.2576 84.828 42.5336 84.7961 43.1602C84.726 44.5783 84.6957 44.5656 86.1225 44.3769C91.5014 43.6615 96.6683 42.237 101.55 39.8418C101.799 39.7197 102.047 39.5039 102.347 39.7355V41.9563C102.092 42.0467 102.111 42.2894 102.07 42.4829C101.591 44.6544 100.475 46.4104 98.787 47.8618C97.9517 48.582 96.9441 48.482 96.0019 48.5978C92.0371 49.0737 88.0659 49.1736 84.1058 48.5042C83.5239 48.4059 83.4681 48.8532 83.3199 49.2006C82.7619 50.4696 82.7571 50.2745 84.0134 50.5679C88.5633 51.6259 93.1754 51.9844 97.8369 51.8084C98.7934 51.7719 98.7934 51.7973 98.5208 52.6951C97.6695 55.4853 95.8744 57.3316 93.0446 58.166C92.6408 58.2914 92.2077 58.288 91.8059 58.1565C88.2251 57.0685 84.7461 55.6726 81.4084 53.9847C81.1757 53.8673 80.9174 53.5358 80.6352 53.8372C80.2986 54.1709 80.0152 54.5539 79.7951 54.9729C79.693 55.1855 80.082 55.3028 80.2733 55.4266C83.6601 57.6611 87.2578 59.562 91.0152 61.1021C91.6959 61.3813 91.7294 61.5923 91.3022 62.1316C89.7079 64.135 87.5494 64.7774 85.1118 64.8187C84.7531 64.8187 84.5347 64.5728 84.2971 64.3729C81.9233 62.3759 79.6006 60.3249 77.6014 57.9503C77.037 57.2793 76.7023 57.817 76.2782 58.055C75.7075 58.3722 76.0486 58.6895 76.2782 59.0067C78.314 61.8207 80.6209 64.3999 83.0441 66.8903C83.5016 67.3662 83.465 67.5422 82.9022 67.8214C80.9461 68.797 78.8959 68.9318 76.7724 68.6145C76.377 68.5543 76.2543 68.2798 76.1204 68.0007C75.0044 65.6641 73.8773 63.3292 73.026 60.88C72.8331 60.3217 72.6258 60.1821 72.0694 60.4597C71.4796 60.7516 70.8323 60.9245 70.209 61.1497C70.209 57.881 70.209 54.6112 70.209 51.3404C71.47 51.1818 72.7358 51.066 73.9921 50.8788C74.668 50.7773 75.3663 50.9471 76.0215 50.6837C76.0438 50.2507 75.8446 49.87 75.733 49.4687C75.1559 47.4208 75.057 45.3682 75.6931 43.3141C76.0486 42.1165 76.055 42.1181 74.904 41.62Z" fill="#FAC520"/>
<path d="M51.8268 0.40638C53.488 1.30895 53.4912 1.31054 52.5889 2.96023C52.2142 3.64707 51.8236 4.32439 51.3581 5.15082C50.6965 3.94845 50.1082 2.87298 49.5136 1.80069C49.3542 1.51992 49.555 1.37558 49.7049 1.1884C50.0126 0.802947 50.502 0.712523 50.8719 0.40638H51.8268Z" fill="#FAC624"/>
<path d="M4.34107 72.5088C4.37614 71.3984 4.71731 70.8591 5.61645 70.5577C5.86674 70.4736 5.91138 70.3721 5.97993 70.1484C6.22863 69.3379 6.93646 68.9302 7.893 68.9873C7.82444 69.2633 7.60763 69.4854 7.6172 69.7804C7.62995 70.2452 7.76706 70.6766 8.27084 70.7322C8.77461 70.7877 9.10939 70.4451 9.15881 69.9232C9.199 69.3689 9.16307 68.8118 9.052 68.2672C8.89258 67.3678 9.03446 67.2424 9.86984 67.5121C12.3696 68.3195 13.578 71.6649 12.1607 73.8571C11.6617 74.6296 11.7159 75.1958 12.3887 75.8589C13.6912 77.1421 15.0128 78.3969 16.3057 79.6944C16.6437 80.0338 16.8446 80.0576 17.1873 79.6801C18.0721 78.7125 18.8724 78.7078 19.8433 79.6531C20.6197 80.4082 21.2781 81.2949 22.1868 81.9024C24.1477 83.2 26.268 83.2206 28.4585 82.6543C30.6489 82.088 30.6457 82.1007 29.5744 80.1719C29.2556 79.6087 29.0723 79.4342 28.5143 79.9117C28.3032 80.108 28.0342 80.2315 27.7472 80.2641C27.4601 80.2966 27.1701 80.2365 26.9201 80.0925C27.4557 79.6357 27.6135 79.0393 27.5944 78.3857C27.5498 76.8566 27.4621 75.3275 27.4493 73.7984C27.4254 70.8781 28.7008 69.2205 31.5178 68.4305C33.4994 67.8738 33.4994 67.8738 33.4994 69.8581C33.4994 71.4158 33.4994 72.9751 33.4994 74.5328C33.4994 75.7399 33.4994 76.9121 33.0897 78.1129C32.5971 79.5294 32.79 81.0411 33.0594 82.502C33.1471 82.9779 33.069 83.1175 32.5811 83.2206C29.5776 83.8551 27.1831 85.6 24.8444 87.4511C24.441 87.7683 24.7041 87.9777 24.94 88.2077C26.039 89.2811 27.1358 90.3565 28.2305 91.4341C28.5227 91.7034 28.7736 92.0139 28.975 92.3557C29.1015 92.5451 29.1537 92.7742 29.1216 92.9993C29.0896 93.2245 28.9756 93.4301 28.8012 93.5771C28.4362 93.9356 28.0041 94.007 27.5737 93.7358C27.3065 93.5651 27.0594 93.365 26.8372 93.1393C25.5729 91.8561 24.3087 90.5744 23.0684 89.2673C22.9279 89.0971 22.7545 88.9568 22.5584 88.8546C22.3623 88.7524 22.1476 88.6905 21.9269 88.6725C20.3949 88.5504 18.8597 88.4076 17.4376 87.7334C16.0156 87.0593 15.067 86.1187 15.3332 84.4023C15.3763 84.1248 15.2312 83.9677 15.0829 83.7679C14.4022 82.8811 14.3687 82.3926 15.0144 81.4853C15.2232 81.1918 15.1738 81.0475 14.9618 80.8254C13.6864 79.512 12.4397 78.1827 11.1643 76.8741C10.5825 76.2777 10.0117 76.2396 9.28476 76.7043C7.00343 78.1446 3.60454 76.8741 2.85685 74.3012C2.65757 73.6207 2.76438 73.4938 3.45946 73.589C3.93773 73.654 4.40325 73.7476 4.87832 73.7809C5.3534 73.8142 5.79501 73.7159 6.03892 73.2606C6.12691 73.1235 6.1586 72.958 6.12745 72.7983C6.0963 72.6386 6.00467 72.4969 5.87152 72.4025C5.46978 72.0852 5.04094 72.1122 4.61209 72.3676C4.53876 72.4263 4.46542 72.4516 4.34107 72.5088Z" fill="#FAC522"/>
<path d="M70.1902 68.2275C72.4636 68.586 74.3767 69.4457 75.1419 71.8394C75.5038 72.9688 75.3954 74.1346 75.338 75.2942C75.2886 76.2697 75.2391 77.2453 75.2232 78.2208C75.212 78.8823 75.2567 79.5485 75.8402 80.0592C75.0813 80.4923 74.5329 80.1322 74.0403 79.742C73.6959 79.4723 73.5716 79.558 73.4026 79.8895C73.1491 80.3828 72.8701 80.8635 72.5752 81.333C72.3504 81.6899 72.3759 81.8612 72.8271 81.9881C74.5402 82.4594 76.2258 83.025 77.876 83.6822C78.4961 83.9344 78.3845 83.4459 78.4403 83.1556C78.6013 82.2558 78.9537 81.4007 79.4739 80.6476C79.9941 79.8944 80.6701 79.2606 81.4566 78.7887C81.9795 78.4603 82.2011 78.5555 82.4737 79.0805C83.164 80.4114 83.9165 81.7089 84.7232 83.1651C85.5075 81.7454 86.252 80.478 86.9089 79.1694C87.2277 78.5238 87.5035 78.4746 88.1013 78.8521C89.3641 79.6331 90.3104 80.8311 90.7748 82.2365C91.2391 83.6418 91.1917 85.1649 90.6409 86.539C90.5357 86.8055 90.405 87.0593 90.4114 87.3686C90.456 89.5893 88.6035 91.2105 86.3764 90.879C86.04 90.8282 85.8694 90.879 85.6478 91.1391C84.7551 92.1892 83.7858 92.4255 82.4387 91.9481C81.0649 91.4877 79.8952 90.5657 79.1306 89.3403C77.0438 85.9759 74.061 83.9471 70.1711 83.2111C69.9049 83.1619 69.6259 83.1587 69.6211 82.786C70.144 80.8825 70.1823 78.9457 70.1711 76.9931C70.1568 74.0712 70.1823 71.1494 70.1902 68.2275Z" fill="#FAC521"/>
<path d="M70.1902 68.2275C70.1902 71.1494 70.1567 74.0712 70.1742 76.9931C70.1854 78.9457 70.1471 80.8873 69.6242 82.786C68.8574 84.645 67.5948 86.014 65.6849 86.7516C64.0907 87.2274 62.455 87.2275 60.8225 87.3179C60.1506 87.2055 59.4651 87.2002 58.7915 87.302C57.3184 87.2417 55.8788 87.3353 54.6178 88.2252C53.9339 88.5107 53.4891 89.031 53.183 89.6861C52.8323 90.3809 52.4815 91.0773 52.1069 91.8228L51.6797 91.1883C51.1902 89.4085 50.2066 88.0904 48.3095 87.6288C46.9018 87.1339 45.4399 87.2655 43.9939 87.2972C43.3235 87.21 42.6445 87.21 41.974 87.2972C40.4324 87.1814 38.9083 86.98 37.4831 86.3265C34.5242 84.4848 34.0683 81.5551 34.0603 78.454C34.0444 71.1954 34.0603 63.9351 34.0603 56.6765C34.0603 54.8809 34.0459 53.0869 34.0396 51.2929C34.0954 50.5505 34.2357 49.8065 33.9551 49.0721C34.3233 48.5645 34.9116 48.6518 35.4281 48.5153C35.4281 58.4484 35.4329 68.3814 35.4425 78.3144C35.4374 79.1591 35.4826 80.0034 35.578 80.8428C35.9893 84.2548 37.7988 85.9283 41.2391 86.0774C42.8333 86.1425 44.4275 86.144 46.0218 86.1631C48.2664 86.1916 50.2799 86.7548 51.7211 88.6091C51.9921 88.9565 52.1356 88.8835 52.3588 88.5884C53.6214 86.9673 55.3575 86.2884 57.3535 86.2091C59.1821 86.1345 61.0202 86.1536 62.844 86.0774C66.219 85.9362 67.9997 84.2882 68.47 80.9809C68.5724 80.089 68.6113 79.1911 68.5864 78.2938C68.596 68.3608 68.6018 58.4277 68.6039 48.4947C69.1555 48.5677 69.6976 48.6692 70.1854 48.9563C70.1105 49.7538 70.1153 50.5566 70.1997 51.3531C70.1997 54.6239 70.1997 57.8937 70.1997 61.1624C70.1009 63.5069 70.1137 65.8672 70.1902 68.2275Z" fill="#09497D"/>
<path d="M51.6813 91.1851L52.1086 91.8196C52.4832 91.0741 52.8339 90.3777 53.1847 89.683C53.985 93.4233 54.7874 97.1636 55.5919 100.904C55.6281 101.043 55.6258 101.189 55.5851 101.327C55.5443 101.465 55.4668 101.589 55.3608 101.686C54.3436 102.768 53.136 103.656 51.7977 104.305C51.6577 104.378 51.5012 104.414 51.3432 104.409C51.1852 104.405 51.031 104.36 50.8954 104.279C49.5847 103.636 48.3976 102.768 47.3881 101.716C47.2748 101.61 47.194 101.474 47.1551 101.323C47.1162 101.173 47.1207 101.015 47.1681 100.868C47.9843 97.0479 48.7798 93.2234 49.5865 89.4022C49.6263 89.215 49.5482 88.9263 49.8336 88.8898C50.0408 88.8676 50.1046 89.1151 50.2082 89.261C50.6116 89.8273 50.8236 90.4872 51.1074 91.1106C51.2684 91.4738 51.4326 91.5674 51.6813 91.1851Z" fill="#FAC521"/>
<path d="M43.9972 87.2941C45.4479 87.2624 46.905 87.1354 48.3127 87.6256C47.082 91.6927 45.8523 95.7603 44.6237 99.8285C44.586 99.9803 44.5112 100.12 44.4061 100.237C44.301 100.353 44.1688 100.441 44.0211 100.495C42.9827 100.895 41.9231 101.239 40.847 101.524C40.7802 101.553 40.7084 101.568 40.6357 101.569C40.563 101.57 40.4909 101.557 40.4234 101.53C40.3559 101.503 40.2943 101.463 40.2423 101.413C40.1902 101.362 40.1487 101.302 40.12 101.236C39.8315 100.729 39.5174 100.241 39.2209 99.7413C38.5991 98.6959 38.5385 97.7442 39.1842 96.5831C40.8773 93.5359 42.4045 90.3968 43.9972 87.2941Z" fill="#FAC521"/>
<path d="M54.6172 88.2188C55.8782 87.329 57.3178 87.2354 58.7909 87.2957C59.3441 88.6693 60.0886 89.951 60.7581 91.2612C61.788 93.2853 62.8338 95.3019 63.8956 97.3112C64.0137 97.5145 64.0831 97.7423 64.0984 97.9767C64.1136 98.2111 64.0742 98.4458 63.9832 98.6626C63.6373 99.5874 63.1048 100.407 62.609 101.247C62.4289 101.55 62.1993 101.61 61.8725 101.516C60.8216 101.241 59.7879 100.905 58.7765 100.509C58.4752 100.384 58.2377 100.238 58.1309 99.8745C56.9692 95.9904 55.798 92.1051 54.6172 88.2188Z" fill="#FAC521"/>
<path d="M37.485 86.3154C38.9103 86.9721 40.4344 87.1704 41.976 87.2861C40.149 90.1868 38.3241 93.0896 36.5014 95.9946C36.3037 96.3118 36.0582 96.3895 35.7043 96.3927C34.6713 96.3874 33.6406 96.2966 32.6227 96.1215C32.2289 96.0596 32.0232 95.901 31.9993 95.4727C31.9579 94.7129 31.8399 93.9547 31.8016 93.1949C31.7679 92.7793 31.833 92.3617 31.9917 91.9759C32.1504 91.5901 32.3982 91.2469 32.7151 90.9741C34.3604 89.472 35.9036 87.8715 37.485 86.3154Z" fill="#FAC521"/>
<path d="M60.8223 87.3115C62.4548 87.2227 64.0968 87.2211 65.6846 86.7452C67.2087 88.2522 68.7137 89.7765 70.268 91.2581C70.4868 91.4486 70.6583 91.6869 70.769 91.9544C70.8796 92.2219 70.9264 92.5113 70.9057 92.7999C70.8627 93.6676 70.8053 94.5448 70.7654 95.4061C70.7447 95.8391 70.5454 96.0898 70.0991 96.1247C70.0199 96.1323 69.9411 96.1439 69.8631 96.1595C68.8412 96.334 67.7508 96.6132 66.7895 96.3182C65.7676 96.0152 65.5348 94.7843 64.98 93.9515C63.66 91.9735 62.4133 89.9463 61.1427 87.9349C61.0253 87.7327 60.9184 87.5246 60.8223 87.3115Z" fill="#FAC521"/>
<path d="M84.7286 79.19C84.016 77.9051 83.3831 76.7551 82.7406 75.6114C82.6322 75.4179 82.6784 75.2942 82.8012 75.1165C83.6684 73.9173 85.7218 73.8983 86.613 75.0753C86.6908 75.1632 86.7369 75.2745 86.7439 75.3915C86.7508 75.5085 86.7182 75.6245 86.6512 75.7209C86.0374 76.8233 85.4285 77.9289 84.7286 79.19Z" fill="#FAC624"/>
<path d="M33.9518 49.0658C34.2324 49.7954 34.0921 50.5394 34.0363 51.2865L33.5038 51.2976C32.0451 50.9804 30.5545 50.9248 29.0767 50.7884L28.3848 50.6948C30.1323 49.8369 32.0157 49.2858 33.9518 49.0658Z" fill="#B3272C"/>
<path d="M29.0718 50.7837C30.5513 50.9201 32.0419 50.9756 33.5006 51.2928C33.5006 51.3611 33.4894 51.4277 33.483 51.4943C31.8585 51.2437 30.2324 51.001 28.584 50.9835C28.6796 50.7535 28.9299 50.8915 29.0718 50.7837Z" fill="#FCEBEB"/>
<path d="M40.6615 38.76C40.5339 36.5964 39.8979 34.6199 38.5316 32.8909C38.259 32.5467 37.9704 32.3738 37.5256 32.3992C36.6026 32.4515 35.6668 32.2977 34.7517 32.5483C34.4461 32.6347 34.1526 32.7588 33.8781 32.9179C33.6612 33.0416 33.6134 33.4905 33.2978 33.3335C33.0315 33.2002 33.0347 32.8417 33.0267 32.5404C33.0267 32.4135 32.998 32.2866 32.9837 32.1533C29.6135 33.1511 28.3605 32.9623 27.6303 31.2968C28.7686 31.7393 29.7873 31.3919 30.8187 31.0128C32.2328 30.4909 33.5799 29.7708 35.096 29.5408C35.5249 29.4773 35.4962 29.2965 35.2555 29.0284C35.1611 28.9359 35.0471 28.8655 34.9219 28.8225C34.7967 28.7794 34.6634 28.7647 34.5317 28.7794C33.4157 28.7794 32.2998 28.8095 31.1838 28.7699C30.6593 28.7524 30.4027 29.0871 30.1619 29.4044C29.8702 29.8057 29.6295 29.8184 29.2724 29.4964C28.2882 28.6113 27.2939 27.7372 26.2896 26.8743C26.0281 26.6475 26.001 26.4556 26.2672 26.2319C26.2888 26.2165 26.3072 26.1971 26.3214 26.1748C27.278 24.5552 28.6745 23.87 30.5621 24.1999C30.9702 24.2697 31.4006 24.2094 31.9188 24.2094C31.4995 23.4163 30.7486 23.0467 30.3245 22.3837C30.5684 22.1061 30.8793 22.2346 31.144 22.2346C35.0737 22.2235 39.0051 22.2346 42.9412 22.2251C44.057 22.2438 45.1711 22.1314 46.2604 21.8904C47.1133 21.6873 47.869 21.3495 48.2787 20.4897C48.9562 21.562 48.674 22.9151 47.641 23.7336C47.0655 24.1888 46.3863 24.4046 45.6913 24.5949C45.5079 24.6457 45.197 24.5457 45.1747 24.8344C45.1572 25.0517 45.4059 25.1707 45.5701 25.296C46.0659 25.6843 46.6489 25.9471 47.2692 26.0621C47.8895 26.177 48.5286 26.1405 49.1316 25.9559C49.087 26.7712 48.5832 27.2011 47.9232 27.4501C47.472 27.6199 47.4784 27.7674 47.7526 28.1068C48.9733 29.5708 50.0757 31.1286 51.0494 32.7656C51.2742 33.1558 51.448 33.2018 51.6999 32.7751C52.6829 31.1433 53.7859 29.5861 54.9999 28.1163C55.2646 27.788 55.2741 27.6103 54.8198 27.4485C54.4847 27.348 54.1881 27.1488 53.969 26.8773C53.7499 26.6058 53.6185 26.2746 53.5922 25.9273C54.9553 26.4968 56.0856 25.9797 57.176 25.2928C57.3482 25.185 57.5969 25.0613 57.5794 24.8392C57.5571 24.5521 57.2478 24.6473 57.0613 24.5949C56.3407 24.3966 55.6376 24.1682 55.0557 23.6717C54.0785 22.8358 53.8489 21.6826 54.4499 20.412C55.0876 21.7635 56.363 21.9031 57.581 22.0807C58.3712 22.1823 59.1676 22.2284 59.9643 22.2187C63.8144 22.233 67.6644 22.2187 71.5161 22.2298C71.7951 22.2298 72.0916 22.1553 72.4599 22.3615L70.6807 24.2269C71.9433 24.2269 73.0131 24.2459 74.0828 24.2269C74.2787 24.2074 74.4763 24.2391 74.6561 24.319C74.8359 24.3988 74.9916 24.524 75.1079 24.6822C75.5083 25.2035 75.9412 25.6993 76.404 26.1669C76.7483 26.5127 76.6479 26.7173 76.3322 26.9885C75.3279 27.8514 74.3347 28.727 73.3526 29.6153C73.0928 29.8517 72.9126 29.866 72.7261 29.5678C72.2765 28.8508 71.6101 28.7239 70.813 28.7746C69.9936 28.8302 69.1678 28.7746 68.3452 28.7889C68.1343 28.7778 67.9231 28.8019 67.7202 28.8603C67.5273 28.9317 67.3137 29.0935 67.3073 29.306C67.2994 29.6233 67.6102 29.5186 67.7856 29.5551C69.2204 29.8485 70.5436 30.4941 71.9051 31.0128C72.9301 31.403 73.9505 31.7615 75.0935 31.2872C74.3889 32.9845 72.9046 33.2177 69.7895 32.1628C69.6205 32.5483 69.7895 33.067 69.3511 33.4096C68.0997 31.982 66.4098 32.4769 64.8379 32.4246C64.5079 32.4135 64.3453 32.7101 64.1699 32.9353C62.8834 34.5961 62.1612 36.4599 62.1325 38.5712C59.7906 38.1271 57.412 37.9748 55.0414 37.8749C50.2302 37.6731 45.411 37.9697 40.6615 38.76ZM33.3488 24.4839C33.9323 24.9851 34.2272 25.7132 34.7613 25.6244C35.9697 25.4213 37.1398 24.9899 38.3259 24.6568L38.2829 24.4839H33.3488ZM64.4186 24.4839L64.3724 24.6425L67.1623 25.4769C68.1905 25.783 68.6704 25.5482 69.1518 24.487L64.4186 24.4839Z" fill="#FAC520"/>
<path d="M40.6617 38.76C45.4131 37.9726 50.2339 37.6791 55.0464 37.8844C57.417 37.9843 59.7956 38.1366 62.1375 38.5808C66.2381 39.2025 70.2781 40.1704 74.2137 41.4741C74.4406 41.5367 74.6711 41.5854 74.904 41.62C76.055 42.1181 76.0487 42.1165 75.6772 43.3125C75.0395 45.3746 75.14 47.4193 75.7171 49.4671C75.8287 49.8684 76.0359 50.2491 76.0056 50.6822C75.3839 50.4633 74.7573 50.2539 74.1388 50.0191C72.8538 49.5337 71.4812 49.3672 70.1787 48.942C69.6909 48.6549 69.1489 48.5534 68.5973 48.4805C68.2849 48.3387 67.9457 48.2652 67.6025 48.2647C67.4822 48.2151 67.3593 48.1722 67.2342 48.1362C62.8838 47.1615 58.4474 46.6159 53.9894 46.5072C53.8961 46.4608 53.7945 46.4335 53.6904 46.4269C53.5863 46.4204 53.482 46.4347 53.3836 46.4691C51.2107 46.5167 49.0361 46.4993 46.8648 46.6753C43.002 46.9926 39.1759 47.5113 35.4247 48.509C34.9145 48.6454 34.3199 48.5582 33.9516 49.0658C32.0158 49.2843 30.1324 49.8338 28.3846 50.6901C28.3339 50.7 28.2847 50.716 28.2379 50.7377C28.0673 50.4728 28.2379 50.2221 28.2953 49.9826C28.933 47.5319 28.9537 45.0827 28.2331 42.651C28.0737 42.1165 28.332 42.0419 28.7114 41.9071C32.3733 40.5996 36.1409 39.6062 39.973 38.9377C40.2057 38.898 40.4321 38.8203 40.6617 38.76ZM48.4845 39.9005C47.8628 39.9179 47.6428 40.2003 47.6874 40.8427C47.7544 41.7342 47.6874 42.6368 47.7145 43.5393C47.7145 43.8106 47.5089 44.2182 47.9871 44.3325C48.4351 44.4324 48.5674 44.0739 48.7301 43.7693C49.076 43.1221 49.4283 42.4766 49.7775 41.831C49.9101 42.4564 49.9637 43.0958 49.9369 43.7344C49.9369 44.0168 49.9369 44.2674 50.3338 44.2642C50.7308 44.2611 50.734 44.0152 50.7324 43.7297C50.7324 42.7272 50.6846 41.7215 50.7467 40.7158C50.7898 40.0353 50.5538 39.8037 49.9082 39.9132C49.787 39.8196 49.8715 39.7546 49.9273 39.6626C50.058 39.4564 50.3578 39.2359 50.0867 38.9932C49.8986 38.8346 49.6499 38.9408 49.4698 39.1518C49.2896 39.3628 49.1047 39.3215 48.9325 39.1248C48.9012 39.0814 48.8615 39.0446 48.8159 39.0165C48.7702 38.9884 48.7194 38.9695 48.6663 38.9609C48.6133 38.9524 48.5591 38.9543 48.5069 38.9667C48.4546 38.979 48.4053 39.0015 48.3618 39.0328C48.1242 39.2026 48.29 39.404 48.3905 39.588C48.4447 39.6784 48.6153 39.7466 48.4845 39.9005ZM72.1843 44.6592L72.3628 44.7401C72.3628 45.4206 72.3772 46.1027 72.3628 46.7832C72.3517 47.1337 72.5557 47.2591 72.8411 47.2924C73.2508 47.3336 73.1328 46.9942 73.1344 46.7927C73.1488 45.7379 73.1424 44.683 73.1344 43.6202C73.1344 43.3331 73.1823 43.0317 72.7933 42.9159C72.4043 42.8001 72.2943 43.0904 72.1253 43.322C71.7538 43.8296 71.5402 44.4562 70.9663 44.9574C70.9663 44.1532 70.9567 43.4695 70.9663 42.7859C70.9663 42.4464 70.7941 42.2989 70.488 42.2799C70.0879 42.2561 70.1883 42.5749 70.1867 42.7843C70.1755 43.8661 70.1867 44.9479 70.1867 46.0297C70.1867 46.3073 70.1963 46.5405 70.5326 46.6452C70.869 46.7499 71.0029 46.5262 71.1448 46.2978C71.486 45.7521 71.8367 45.2017 72.1843 44.656V44.6592ZM68.4362 43.7075L68.6148 43.7471C68.6148 44.4165 68.6148 45.0859 68.6148 45.7553C68.6148 46.0884 68.7742 46.2423 69.0931 46.2502C69.5028 46.2613 69.38 45.9441 69.3832 45.741C69.3944 44.6862 69.3832 43.6297 69.3832 42.5686C69.3832 42.291 69.4629 41.9848 69.0373 41.8881C68.6116 41.7913 68.5415 42.099 68.3996 42.3322C68.0552 42.8747 67.7204 43.4219 67.3825 43.9676C67.2437 43.305 67.1902 42.6275 67.223 41.9515C67.231 41.5914 67.0923 41.39 66.7304 41.3868C66.3255 41.3868 66.4578 41.7041 66.4546 41.9103C66.4419 42.9937 66.4467 44.0755 66.4546 45.1589C66.4546 45.3921 66.418 45.6443 66.7384 45.7331C67.0588 45.8219 67.2167 45.6728 67.3761 45.4158C67.7141 44.8448 68.0791 44.2801 68.4362 43.7106V43.7075ZM56.4333 42.1434H56.4636C56.4636 42.5384 56.4078 42.9366 56.4748 43.3268C56.6039 44.085 57.138 44.4371 57.8777 44.4831C58.5266 44.5196 59.067 44.2817 59.1929 43.6012C59.3642 42.7726 59.3566 41.9172 59.1706 41.0918C58.9953 40.3764 58.238 39.9513 57.4935 40.0813C56.749 40.2114 56.4286 40.7031 56.4333 41.4312C56.4349 41.6723 56.4333 41.9103 56.4333 42.1466V42.1434ZM36.9838 43.7297C36.9838 43.4933 36.9838 43.2538 36.9838 43.019C36.9535 41.8405 36.15 41.3646 35.1138 41.9087C34.8599 42.0273 34.643 42.2123 34.4864 42.4439C34.3297 42.6754 34.2391 42.9449 34.2242 43.2237C34.1788 43.8801 34.1788 44.5389 34.2242 45.1954C34.2864 46.0027 34.8189 46.3359 35.6128 46.1376C36.6538 45.8806 36.9886 45.2953 36.9886 43.7281L36.9838 43.7297ZM44.5468 42.4385C44.5468 42.9921 44.5468 43.5489 44.5468 44.0993C44.5468 44.3071 44.5197 44.5751 44.8226 44.5751C45.5097 44.5418 46.1952 44.4673 46.8792 44.3975C47.1247 44.3737 47.1438 44.177 47.1358 43.9819C47.1263 43.736 46.9668 43.6821 46.7564 43.6948C46.4647 43.7138 46.1729 43.7154 45.8844 43.7487C45.5528 43.7899 45.312 43.7693 45.3184 43.3347C45.3184 42.9651 45.3184 42.6352 45.8206 42.6352C46.0597 42.6352 46.2989 42.5971 46.5348 42.586C46.8122 42.5733 46.8903 42.4179 46.8776 42.1672C46.8648 41.9166 46.7038 41.8706 46.4981 41.8849C46.3387 41.896 46.1793 41.9214 46.0199 41.9261C45.701 41.9388 45.3152 42.1149 45.3104 41.5153C45.3104 41.0569 45.4189 40.8189 45.921 40.8443C46.213 40.8471 46.5047 40.8253 46.7931 40.7793C47.1709 40.7349 47.2634 40.3351 47.0784 40.2257C46.4503 39.8513 45.7568 40.2257 45.0873 40.2146C44.8513 40.2146 44.5883 40.2146 44.5516 40.5477C44.5412 40.6791 44.538 40.8109 44.542 40.9427C44.5473 41.4386 44.5505 41.9367 44.5516 42.4369L44.5468 42.4385ZM41.1033 42.8382C41.1033 43.3918 41.1033 43.9486 41.1033 44.499C41.1033 44.7179 41.0315 45.0003 41.4221 44.9907C41.7681 44.9812 41.8845 44.8051 41.8765 44.4895C41.8765 44.1992 41.8765 43.9089 41.8765 43.6186C41.8845 43.3664 41.8143 43.0746 42.2208 43.0365C42.57 43.0032 42.7804 43.138 42.8761 43.4648C42.943 43.6932 43.0052 43.9216 43.0706 44.15C43.1646 44.4831 43.23 44.8543 43.7322 44.6894C44.2343 44.5244 43.9235 44.1754 43.8342 43.9882C43.3559 42.9699 43.3049 41.9753 43.8039 40.9506C43.8804 40.792 44.0925 40.4747 43.6955 40.3764C43.4069 40.3097 43.1949 40.4446 43.1072 40.7602C43.0012 41.1677 42.8713 41.5686 42.7182 41.961C42.6706 42.0873 42.5768 42.1911 42.4557 42.2517C42.3345 42.3122 42.1949 42.3251 42.0646 42.2878C41.7713 42.218 41.9052 41.9452 41.8797 41.7548C41.8542 41.5645 41.8797 41.3852 41.8797 41.2012C41.8637 40.9538 41.953 40.6381 41.5194 40.6508C41.1623 40.6619 41.0921 40.8729 41.0969 41.1758C41.116 41.7278 41.1081 42.283 41.1081 42.8366L41.1033 42.8382ZM37.6646 43.4045C37.6646 44.012 37.6646 44.6196 37.6646 45.2271C37.6646 45.4222 37.6916 45.6141 37.9579 45.5935C38.1715 45.5761 38.4011 45.5554 38.4362 45.2763C38.429 45.1174 38.4348 44.9583 38.4537 44.8004C38.578 44.3943 38.1014 43.736 38.8012 43.5948C39.6286 43.4283 39.4533 44.2452 39.6446 44.6703C39.7737 44.9622 39.7785 45.3159 40.2568 45.1747C40.735 45.0336 40.523 44.6893 40.4162 44.4784C40.1704 44.0236 40.0358 43.5176 40.0233 43.0014C40.0109 42.4852 40.1209 41.9733 40.3444 41.5074C40.4242 41.3297 40.7111 40.9823 40.2743 40.8634C39.9459 40.7714 39.7498 40.9823 39.6653 41.325C39.5659 41.7346 39.432 42.1352 39.2651 42.5225C39.2158 42.6486 39.1223 42.7527 39.0019 42.8157C38.8815 42.8786 38.7423 42.8962 38.6099 42.8652C38.323 42.7922 38.476 42.5114 38.4505 42.3227C38.425 42.1339 38.4649 41.9499 38.4393 41.7691C38.4091 41.547 38.5876 41.1774 38.1109 41.2203C37.7443 41.252 37.6327 41.4661 37.6518 41.8151C37.6805 42.3465 37.6677 42.8747 37.6693 43.4029L37.6646 43.4045ZM32.3207 43.79C32.2091 43.6107 32.1166 43.4822 32.0465 43.3426C31.8871 43.0159 31.699 42.6954 31.2701 42.9334C30.7663 43.2126 31.2095 43.5203 31.353 43.6964C31.9461 44.426 32.0098 45.1398 31.4806 45.9171C31.3396 46.1416 31.2322 46.3852 31.1617 46.6404C31.0995 46.8466 30.7871 47.1242 31.0645 47.2559C31.3419 47.3875 31.6575 47.1988 31.8201 46.8625C32.0194 46.4469 32.1007 45.9694 32.4578 45.5729C32.6571 45.9139 32.8293 46.2074 33.0046 46.5024C33.18 46.7975 33.408 46.6864 33.6312 46.5944C33.9644 46.458 33.7746 46.2613 33.6774 46.0884C33.5476 45.828 33.3973 45.5781 33.2278 45.3413C32.8293 44.848 32.8181 44.3784 33.1401 43.828C33.4096 43.368 33.5802 42.8509 33.8177 42.3068C32.6555 42.2259 32.8851 43.3077 32.3255 43.7884L32.3207 43.79ZM53.205 42.0641V43.7281C53.2066 43.7545 53.2066 43.781 53.205 43.8074C53.1843 44.1056 53.3198 44.2452 53.6243 44.242C53.9017 44.242 53.9974 44.0945 53.9894 43.8423C53.9974 43.6838 53.9974 43.525 53.9894 43.3664C53.9161 42.8128 54.0643 42.5733 54.7084 42.5924C55.5709 42.6209 56.0188 42.0736 55.9838 41.2298C55.9407 40.2304 55.3142 39.8704 53.7901 39.8878C52.7889 39.8989 53.3246 40.6254 53.2274 41.0362C53.1445 41.3598 53.2114 41.712 53.2114 42.0625L53.205 42.0641ZM63.1307 42.9239H63.1498C63.1267 43.2937 63.1294 43.6647 63.1578 44.0342C63.3172 45.1176 64.752 45.787 65.5268 45.1446C65.699 45.0034 65.9556 44.8147 65.742 44.564C65.5826 44.38 65.3849 44.2357 65.0581 44.4276C64.4076 44.8067 63.9629 44.5355 63.9182 43.7773C63.8943 43.3823 63.9023 42.9842 63.9182 42.5908C63.9294 42.264 63.7986 41.85 64.2227 41.693C64.5989 41.5549 64.8748 41.7754 65.082 42.0911C65.2558 42.3544 65.5108 42.2957 65.7101 42.1593C65.9795 41.9737 65.7468 41.7691 65.64 41.6231C65.2048 41.0362 64.6085 40.7904 63.8959 40.9807C63.2359 41.1568 63.1147 41.6961 63.1339 42.2941C63.1434 42.5051 63.137 42.7113 63.137 42.9223L63.1307 42.9239ZM60.6963 42.421C60.7632 42.1307 60.4476 41.5629 60.9402 41.252C61.4328 40.9411 61.6815 41.4011 61.9892 41.6882C62.1247 41.8167 62.3463 41.6882 62.5089 41.6073C62.6157 41.5565 62.6094 41.4376 62.5615 41.3313C62.2762 40.6968 61.7373 40.4382 61.0917 40.4335C60.4699 40.4335 59.9869 40.7349 59.9374 41.3947C59.8729 42.1304 59.8729 42.8703 59.9374 43.6059C60.0379 44.5894 61.283 45.1922 62.1327 44.7163C62.3782 44.5783 62.7082 44.3705 62.5376 44.0549C62.3909 43.7884 62.1199 43.6694 61.7565 43.9692C61.3244 44.3261 60.7999 44.0787 60.7043 43.5203C60.6596 43.2157 60.7027 42.8921 60.7027 42.4194L60.6963 42.421Z" fill="#E52429"/>
<path d="M51.3906 13.423C50.1424 13.423 48.8957 13.404 47.649 13.4341C47.453 13.452 47.256 13.4125 47.0821 13.3207C46.9083 13.2289 46.7651 13.0886 46.6702 12.917C46.0628 11.9811 45.5 11.0262 45.1843 9.95236C44.5578 7.82839 45.2194 6.43409 47.2568 5.53628C48.9882 4.77488 49.0232 4.78599 49.967 6.35002C50.3225 6.93851 50.6972 7.51589 51.0272 8.11866C51.2918 8.59453 51.4735 8.52157 51.7159 8.10439C52.218 7.23514 52.7649 6.38967 53.2511 5.51248C53.4855 5.08895 53.7533 4.93826 54.2076 5.12861C54.3766 5.19841 54.5647 5.22537 54.7417 5.28724C57.5188 6.1438 58.351 7.8046 57.3562 10.5075C57.3196 10.6059 57.2797 10.7026 57.2399 10.801C56.2594 13.2406 55.9804 13.4294 53.3834 13.4294L51.3906 13.423Z" fill="#FAC520"/>
<path d="M31.2194 20.7292C30.8346 20.7032 30.4603 20.5932 30.1231 20.4071C29.7859 20.2209 29.4939 19.9632 29.2681 19.6522C28.4901 18.6338 28.2462 17.4679 28.4407 16.2085C28.4805 15.9483 28.5236 15.6882 28.5841 15.4312C28.9397 13.9243 28.2653 13.8545 27.0553 14.0845C25.9266 14.3002 25.0274 14.9903 24.3913 15.9579C23.8987 16.7097 23.9752 17.2554 24.6464 17.8502C25.1247 18.269 25.6364 18.6434 26.129 19.0415C26.4073 19.2506 26.6166 19.5375 26.7302 19.8655C26.8438 20.1936 26.8565 20.5479 26.7667 20.8831C26.3889 22.5629 25.5232 23.897 23.9226 24.6742C23.6803 24.7916 23.3025 25.0391 23.3009 24.5045C23.3009 23.4036 22.6632 22.7723 21.6206 22.2742C22.169 21.9697 22.6297 21.7857 22.9868 21.451C23.4954 20.9751 23.5751 20.4723 23.1112 19.9219C22.6188 19.3681 22.0713 18.8653 21.4771 18.4213C20.0104 17.2586 20.0997 16.1307 21.8135 15.3868C23.3742 14.7095 24.5731 13.6229 25.6699 12.3952C26.263 11.7305 26.8975 11.5497 27.7201 11.905C28.455 12.2223 29.2458 12.3301 30.0397 12.4206C31.0759 12.5379 31.508 13.1613 31.331 14.1876C31.1429 15.2837 30.5945 16.2735 30.4191 17.3791C30.239 18.5529 30.3218 19.6379 31.2194 20.7292Z" fill="#FAC624"/>
<path d="M81.1281 22.2663C80.068 22.7771 79.392 23.3894 79.4462 24.5077C79.4622 24.8249 79.239 24.8598 78.9472 24.7646C77.4471 24.2729 75.8401 21.938 75.9086 20.3438C75.9373 19.7093 76.3088 19.2699 76.7647 18.8892C77.2207 18.5085 77.7324 18.1484 78.19 17.7471C78.6906 17.3093 78.8149 16.743 78.4562 16.1783C77.6336 14.884 76.5224 14.0306 74.8947 14.0131C74.257 14.0131 74.0514 14.2891 74.0976 14.8903C74.1518 15.7056 74.4164 16.4972 74.3319 17.3284C74.2028 18.6624 73.7182 19.7823 72.4842 20.4628C72.2371 20.5992 71.9821 20.7705 71.6106 20.6595C72.7584 19.1446 72.4635 17.5504 71.9295 15.9356C71.7098 15.3135 71.5314 14.6776 71.3954 14.0322C71.236 13.1772 71.6792 12.5332 72.5257 12.4459C73.4745 12.353 74.408 12.1425 75.3044 11.8194C75.974 11.5719 76.5065 11.7797 76.9417 12.281C78.1533 13.6768 79.5387 14.8189 81.2668 15.5629C82.4736 16.0863 82.5932 17.1095 81.659 18.039C81.1807 18.5149 80.6036 18.9225 80.1046 19.3952C78.9472 20.4913 79.0477 21.1639 80.457 21.9411C80.6148 22.03 80.7854 22.1029 81.1281 22.2663Z" fill="#FAC624"/>
<path d="M37.9753 20.339C37.1001 20.339 36.2217 20.2914 35.3528 20.3549C34.6737 20.4041 34.2831 20.1487 33.9595 19.5792C33.4812 18.7496 33.0157 17.9264 32.8611 16.9715C32.6379 15.5867 33.0954 14.6984 34.3405 14.0464C34.5274 13.9469 34.7195 13.8574 34.916 13.7784C36.1531 13.3025 36.1547 13.3025 36.8291 14.4129C37.1479 14.9321 37.4593 15.4529 37.7633 15.9753C37.9785 16.3417 38.1475 16.337 38.3611 15.961C38.7677 15.252 39.2172 14.5667 39.619 13.8545C39.8023 13.5277 39.9856 13.4183 40.3746 13.5277C40.9925 13.6764 41.5839 13.9182 42.1283 14.2447C43.096 14.8713 43.4722 15.7723 43.2697 16.8937C43.0673 18.0152 42.5268 19.0288 41.8939 19.9805C41.6899 20.2867 41.4157 20.3485 41.0761 20.3454C40.043 20.3311 39.0084 20.339 37.9753 20.339Z" fill="#FAC624"/>
<path d="M64.622 20.339C63.6415 20.339 62.6595 20.32 61.679 20.3485C61.4966 20.3642 61.3135 20.3265 61.1523 20.24C60.9911 20.1534 60.8589 20.0219 60.7719 19.8616C60.1741 18.9479 59.656 18.0057 59.4758 16.9143C59.2733 15.7167 59.6352 14.8713 60.6587 14.2177C60.7703 14.1479 60.8851 14.0782 61.0015 14.0179C62.5606 13.2137 62.7695 13.2723 63.6399 14.746C64.657 16.4718 64.657 16.4718 65.6789 14.7935C66.5558 13.3564 66.5558 13.3564 67.635 13.7228C69.2181 14.2622 70.1093 15.3424 69.9467 16.5479C69.7729 17.8328 69.2054 18.9558 68.48 20.0139C68.2855 20.2962 68.032 20.3406 67.7259 20.3311C66.6944 20.3343 65.6582 20.339 64.622 20.339Z" fill="#FAC624"/>
<path d="M44.4062 20.2201C46.0005 19.0002 46.6972 17.4997 46.9809 15.7786C47.0495 15.3598 47.2232 15.1885 47.6553 15.2076C48.2627 15.2345 48.8749 15.2171 49.4838 15.2076C49.7836 15.2076 49.9494 15.2773 49.8027 15.6247C48.8669 17.8867 47.3938 19.5776 44.9148 20.2074C44.7459 20.2253 44.5758 20.2295 44.4062 20.2201Z" fill="#FAC624"/>
<path d="M58.125 20.182C56.4479 20.0234 55.2426 19.0954 54.2159 17.8851C53.7371 17.2889 53.3423 16.6303 53.0426 15.9277C52.7684 15.3313 52.9709 15.1822 53.5528 15.2123C54.1904 15.2425 54.9078 15.0442 55.4323 15.2853C56.0142 15.555 55.8118 16.4036 56.011 16.981C56.4213 18.214 57.1503 19.318 58.125 20.182Z" fill="#FAC624"/>
<path d="M38.0609 13.6848C37.5826 12.8314 37.1952 12.116 36.7935 11.4053C36.6771 11.1976 36.65 11.0294 36.8525 10.8486C37.3563 10.3949 37.8983 10.1284 38.5886 10.3981C39.4176 10.7153 39.5356 11.0516 39.1035 11.8146C38.7799 12.3856 38.4642 12.9599 38.0609 13.6848Z" fill="#FAC624"/>
<path d="M64.6001 13.5595C64.2079 12.8472 63.8237 12.1319 63.4204 11.4196C63.2817 11.1722 63.2896 10.9882 63.5112 10.7962C64.0039 10.3711 64.5379 10.1475 65.1915 10.3902C66.0205 10.6979 66.1481 11.0342 65.7288 11.7987C65.4227 12.3529 65.1124 12.9049 64.7978 13.4548C64.7818 13.4928 64.7085 13.5039 64.6001 13.5595Z" fill="#FAC624"/>
<path d="M28.2379 50.7377C28.2847 50.716 28.3339 50.7 28.3845 50.6901L29.0764 50.7837C28.9298 50.8915 28.6795 50.7503 28.587 50.9835L28.1406 50.9407C28.1725 50.8725 28.206 50.8059 28.2379 50.7377Z" fill="#FAC624"/>
<path d="M70.1778 48.942C71.4803 49.3671 72.8529 49.5337 74.1379 50.0191C74.7564 50.2539 75.383 50.4633 76.0047 50.6822C75.3495 50.9455 74.6512 50.7757 73.9753 50.8773C72.719 51.0644 71.4532 51.1945 70.1922 51.3388C70.1077 50.5423 70.1029 49.7395 70.1778 48.942Z" fill="#B3272C"/>
<path d="M35.4239 48.509C39.1751 47.5113 43.0013 46.9894 46.8641 46.6753C49.0354 46.4992 51.2099 46.5167 53.3813 46.4691L53.681 46.5674C51.8955 47.0544 50.0844 47.4542 48.3499 48.1251C44.248 49.7114 40.6976 52.0304 38.2346 55.7486C37.4103 56.9938 36.4809 58.2517 36.4713 59.8379C36.449 66.1273 36.4602 72.4168 36.4713 78.7141C36.4695 80.0903 36.7146 81.4558 37.1951 82.7463C37.6877 84.1438 38.8451 84.6673 40.1667 84.9226C42.0591 85.2907 43.9801 85.0955 45.8884 85.1304C48.0422 85.1701 50.0589 85.5984 51.7057 87.0974C51.9624 87.3305 52.1139 87.3099 52.3594 87.0879C53.9632 85.6349 55.9241 85.1844 58.0221 85.1368C59.6673 85.1051 61.3173 85.1574 62.9641 85.0543C65.7923 84.8782 67.133 83.5712 67.4726 80.7715C67.5536 80.1162 67.5957 79.4568 67.5986 78.7966C67.6081 72.403 67.6081 66.0089 67.5986 59.6142C67.5986 59.3509 67.5651 59.0892 67.5475 58.8211C67.5651 58.5356 67.597 58.2485 67.597 57.9614C67.6044 54.7286 67.6092 51.4959 67.6113 48.2631C67.9546 48.2636 68.2938 48.3371 68.6061 48.4789C68.6061 58.4119 68.6003 68.3449 68.5886 78.2779C68.6134 79.1752 68.5746 80.0731 68.4722 80.965C67.9939 84.2723 66.2211 85.9204 62.8462 86.0616C61.0176 86.1377 59.1795 86.1187 57.3557 86.1932C55.3597 86.2741 53.6236 86.953 52.361 88.5726C52.133 88.8676 51.9895 88.9406 51.7233 88.5932C50.2885 86.7389 48.2686 86.1758 46.0239 86.1472C44.4297 86.1282 42.8355 86.1266 41.2413 86.0616C37.8009 85.9188 35.9915 84.2453 35.5802 80.827C35.4848 79.9876 35.4395 79.1433 35.4447 78.2985C35.4298 68.3719 35.4229 58.442 35.4239 48.509Z" fill="#F6F5F7"/>
<path d="M67.602 48.2647C67.602 51.4975 67.5972 54.7302 67.5876 57.963C67.5876 58.2501 67.5557 58.5372 67.5382 58.8243C67.2194 58.8814 66.9149 58.9353 66.604 58.9972C63.237 59.6729 60.0868 60.9388 57.0387 62.4711C56.3197 61.9793 55.996 61.1799 55.4715 60.5454C55.1128 60.1107 54.9407 59.7824 55.0204 59.251C55.2452 57.7694 54.778 56.5449 53.5856 55.6026C53.2109 55.3092 52.8825 54.9317 52.4696 54.7128C51.3664 54.1274 50.9057 53.3201 51.3425 52.0955C51.3925 51.9416 51.3997 51.7772 51.3632 51.6196C51.2038 50.9296 51.0699 50.2221 50.6825 49.6225C50.4051 49.1927 49.8854 49.5099 49.4916 49.3894C49.3377 49.3502 49.1878 49.2971 49.0436 49.2307C48.4793 48.9325 48.044 49.1467 47.5977 49.5115C47.2353 49.8029 46.9476 50.1757 46.7583 50.5993C46.569 51.0228 46.4835 51.4851 46.5088 51.948C46.52 52.5301 46.3079 52.6475 45.7771 52.6237C44.8444 52.5825 44.0075 52.8125 43.357 53.5755C42.9441 54.0513 42.4866 54.5018 42.1311 55.0284C41.3435 56.1927 40.4954 57.3443 41.2957 58.8544C41.3192 58.9305 41.331 59.0096 41.3308 59.0892C41.4289 59.903 41.4171 60.7261 41.2957 61.5368C41.0773 63.1912 42.1901 64.5728 43.0493 65.9386C43.2256 66.1707 43.453 66.3595 43.7141 66.4906C44.3614 66.8697 44.5001 67.3678 44.0967 68.0054C43.7572 68.5416 43.4033 69.0698 43.0892 69.6186C42.9521 69.8598 42.7831 70.1548 43.0637 70.4118C43.3443 70.6687 43.263 70.8749 43.019 71.1319C42.5711 71.6078 42.8134 71.879 43.3475 72.0091C43.577 72.0646 43.8146 72.0868 44.0489 72.1233C41.1251 75.2482 38.6636 78.6697 37.1938 82.7241C36.7132 81.4336 36.4681 80.0681 36.47 78.6919C36.47 72.4025 36.454 66.1131 36.47 59.8157C36.47 58.2295 37.409 56.9716 38.2332 55.7264C40.6947 52.0082 44.2466 49.6987 48.3485 48.1029C50.0831 47.432 51.8941 47.0322 53.6796 46.5468L53.9873 46.485C58.4453 46.5937 62.8817 47.1393 67.2321 48.114C67.3582 48.1572 67.4817 48.2075 67.602 48.2647Z" fill="#15489E"/>
<path d="M49.9122 39.9005C50.5499 39.791 50.7938 40.0226 50.7507 40.7031C50.6886 41.7025 50.7316 42.7081 50.7364 43.717C50.7364 44.0025 50.7252 44.2468 50.3378 44.2516C49.9504 44.2563 49.9377 44.0041 49.9409 43.7218C49.9676 43.0831 49.9141 42.4437 49.7814 41.8183C49.4323 42.4639 49.08 43.1095 48.734 43.7566C48.5746 44.0612 48.4391 44.4197 47.9911 44.3198C47.5129 44.2119 47.7265 43.8042 47.7185 43.5266C47.6914 42.6304 47.7584 41.7278 47.6914 40.83C47.642 40.1955 47.862 39.9053 48.4885 39.8878L48.479 39.8751V42.4004C49.0433 41.5597 49.6619 40.8142 49.9249 39.8767L49.9122 39.9005Z" fill="#FCEBEB"/>
<path d="M72.1831 44.656C71.8355 45.2049 71.4848 45.7521 71.1389 46.3025C70.997 46.531 70.8838 46.761 70.5267 46.6499C70.1696 46.5389 70.1791 46.3121 70.1807 46.0345C70.1807 44.9527 70.1807 43.8709 70.1807 42.789C70.1807 42.5797 70.0819 42.2608 70.482 42.2846C70.7833 42.3036 70.9603 42.4512 70.9603 42.7906C70.9476 43.4743 70.9603 44.158 70.9603 44.9622C71.5342 44.4609 71.7479 43.8344 72.1193 43.3268C72.2883 43.0952 72.3951 42.8017 72.7873 42.9207C73.1795 43.0397 73.1284 43.3379 73.1284 43.625C73.1284 44.6798 73.1364 45.7347 73.1284 46.7975C73.1284 46.9989 73.2448 47.3384 72.8351 47.2971C72.5561 47.2701 72.3568 47.1385 72.3568 46.7879C72.376 46.1074 72.3568 45.4254 72.3568 44.7449L72.1831 44.656Z" fill="#FCEBEB"/>
<path d="M68.4357 43.7106C68.0786 44.2801 67.7135 44.8448 67.3707 45.4238C67.2113 45.6807 67.0519 45.8283 66.733 45.741C66.4142 45.6538 66.4493 45.4 66.4493 45.1668C66.4493 44.0834 66.4413 43.0016 66.4493 41.9182C66.4493 41.7183 66.3201 41.3916 66.7251 41.3947C67.087 41.3947 67.2257 41.5994 67.2177 41.9594C67.1848 42.6355 67.2384 43.3129 67.3771 43.9755C67.7151 43.4299 68.0499 42.8826 68.3942 42.3401C68.5425 42.1069 68.627 41.8024 69.0319 41.896C69.4368 41.9896 69.3779 42.2989 69.3779 42.5765C69.3779 43.6329 69.3779 44.6893 69.3779 45.7489C69.3779 45.952 69.4974 46.2692 69.0877 46.2581C68.7689 46.2502 68.6094 46.0995 68.6094 45.7632C68.6094 45.0938 68.6094 44.4244 68.6094 43.7551L68.4357 43.7106Z" fill="#FCEBEB"/>
<path d="M56.4336 42.1466C56.4336 41.9103 56.4336 41.6707 56.4336 41.4344C56.4336 40.7063 56.7524 40.2162 57.4938 40.0845C58.2351 39.9528 58.9955 40.3795 59.1709 41.0949C59.3568 41.9204 59.3644 42.7758 59.1932 43.6044C59.0673 44.2849 58.5268 44.5228 57.878 44.4863C57.1382 44.4435 56.6026 44.0882 56.475 43.3299C56.4081 42.9461 56.4639 42.5368 56.4639 42.1466H56.4336ZM58.4742 42.375H58.5029C58.4939 42.008 58.4614 41.6419 58.4056 41.2789C58.3403 40.9617 58.0868 40.8031 57.7504 40.8158C57.4794 40.8158 57.2562 40.9474 57.2466 41.2187C57.2169 41.9032 57.2222 42.5888 57.2626 43.2728C57.2897 43.6456 57.6165 43.7868 57.9656 43.7646C58.3148 43.7424 58.4646 43.4997 58.4726 43.1697C58.479 42.9032 58.4742 42.6399 58.4742 42.375Z" fill="#FCEBEB"/>
<path d="M36.9883 43.7281C36.9883 45.2953 36.6535 45.8806 35.614 46.1392C34.8169 46.3374 34.2877 46.0043 34.2255 45.1969C34.18 44.5405 34.18 43.8817 34.2255 43.2252C34.2404 42.9465 34.331 42.677 34.4876 42.4454C34.6443 42.2139 34.8611 42.0289 35.1151 41.9102C36.1513 41.363 36.9548 41.8389 36.9851 43.0206C36.9931 43.2538 36.9883 43.4917 36.9883 43.7281ZM36.1912 43.7979H36.2023C36.2095 43.6663 36.2095 43.5345 36.2023 43.4029C36.1641 43.0397 36.3617 42.494 35.7719 42.467C35.182 42.4401 34.9748 42.8953 34.9636 43.4314C34.9636 43.8534 34.9636 44.2753 34.9636 44.7004C34.9636 45.0399 34.9333 45.4507 35.4419 45.4428C35.6317 45.4463 35.8154 45.3757 35.9537 45.2461C36.0919 45.1166 36.1737 44.9384 36.1816 44.7496C36.2037 44.4328 36.2059 44.1149 36.188 43.7979H36.1912Z" fill="#FCEBEB"/>
<path d="M44.5485 42.4369V40.9347C44.5445 40.803 44.5477 40.6711 44.5581 40.5398C44.5948 40.2114 44.8578 40.2019 45.0938 40.2066C45.7633 40.2225 46.4568 39.8434 47.085 40.2177C47.2699 40.3272 47.1774 40.7269 46.7996 40.7713C46.5113 40.8174 46.2195 40.8391 45.9275 40.8364C45.4254 40.811 45.3122 41.0489 45.317 41.5074C45.317 42.1069 45.7075 41.9309 46.0264 41.9182C46.1858 41.9182 46.3452 41.8881 46.5047 41.877C46.7103 41.8627 46.8713 41.9039 46.8841 42.1593C46.8968 42.4147 46.8187 42.5654 46.5413 42.5781C46.3022 42.5892 46.0631 42.6272 45.8271 42.6272C45.3201 42.6272 45.3297 42.9572 45.3249 43.3268C45.3249 43.7614 45.5593 43.782 45.8909 43.7408C46.1794 43.7075 46.4712 43.7059 46.7629 43.6868C46.9734 43.6741 47.1328 43.7281 47.1423 43.974C47.1423 44.1691 47.1312 44.3658 46.8857 44.3895C46.2018 44.4593 45.5162 44.5339 44.8291 44.5672C44.5262 44.5815 44.5549 44.3055 44.5533 44.0913C44.5469 43.5441 44.5501 42.9905 44.5485 42.4369Z" fill="#FCEBEB"/>
<path d="M41.1071 42.8366C41.1071 42.283 41.1071 41.7263 41.1071 41.1742C41.1071 40.8713 41.1724 40.6603 41.5295 40.6492C41.9632 40.6365 41.8739 40.9522 41.8898 41.1996C41.8994 41.3836 41.8771 41.5708 41.8898 41.7532C41.9026 41.9356 41.7814 42.2164 42.0748 42.2862C42.205 42.3235 42.3447 42.3106 42.4658 42.2501C42.587 42.1895 42.6807 42.0857 42.7284 41.9594C42.8814 41.5671 43.0113 41.1661 43.1174 40.7586C43.2051 40.4414 43.4171 40.3082 43.7056 40.3748C44.1026 40.4668 43.8906 40.7904 43.8141 40.949C43.3151 41.9737 43.3645 42.9683 43.8443 43.9866C43.9336 44.1738 44.2477 44.5244 43.7423 44.6878C43.237 44.8511 43.1748 44.4815 43.0807 44.1484C43.0154 43.92 42.9532 43.6916 42.8862 43.4632C42.7906 43.1364 42.5801 43.0016 42.231 43.0349C41.8245 43.073 41.8946 43.3648 41.8866 43.6171C41.8866 43.9073 41.8866 44.1976 41.8866 44.4879C41.8946 44.8051 41.7782 44.9796 41.4323 44.9891C41.0369 44.9987 41.1134 44.7163 41.1134 44.4974C41.1007 43.9438 41.1071 43.3902 41.1071 42.8366Z" fill="#FCEBEB"/>
<path d="M37.6692 43.4029C37.6692 42.8747 37.6852 42.3449 37.6692 41.8167C37.6549 41.4677 37.7617 41.2536 38.1284 41.2218C38.6066 41.179 38.4265 41.5486 38.4568 41.7707C38.4823 41.9515 38.444 42.1419 38.4679 42.3243C38.4918 42.5067 38.3388 42.8001 38.6273 42.8668C38.7597 42.8978 38.8989 42.8802 39.0193 42.8173C39.1397 42.7543 39.2332 42.6502 39.2826 42.5241C39.4494 42.1368 39.5833 41.7362 39.6827 41.3265C39.7672 40.9839 39.9633 40.7729 40.2917 40.8649C40.7285 40.9839 40.4416 41.3313 40.3619 41.5089C40.1383 41.9749 40.0283 42.4868 40.0408 43.003C40.0532 43.5192 40.1878 44.0252 40.4336 44.48C40.5404 44.6909 40.7524 45.0336 40.2742 45.1763C39.7959 45.3191 39.7959 44.9638 39.662 44.6719C39.4707 44.2468 39.6461 43.4299 38.8187 43.5964C38.1188 43.7376 38.5955 44.3896 38.4711 44.802C38.4522 44.9599 38.4464 45.119 38.4536 45.2778C38.4169 45.5538 38.1873 45.5745 37.9753 45.5951C37.7091 45.6157 37.682 45.4238 37.682 45.2287C37.6676 44.618 37.6692 44.0104 37.6692 43.4029Z" fill="#FCEBEB"/>
<path d="M32.3248 43.7884C32.8843 43.3125 32.6548 42.2259 33.8233 42.31C33.5858 42.8541 33.4152 43.3712 33.1458 43.8312C32.8269 44.3816 32.8349 44.8512 33.2335 45.3445C33.4029 45.5813 33.5532 45.8311 33.683 46.0916C33.7803 46.2645 33.97 46.4612 33.6368 46.5976C33.4136 46.6896 33.1793 46.7879 33.0103 46.5056C32.8413 46.2232 32.6627 45.9171 32.4635 45.5761C32.1064 45.9726 32.0251 46.4501 31.8258 46.8657C31.6664 47.2019 31.3475 47.3939 31.0701 47.259C30.7927 47.1242 31.1052 46.8498 31.1674 46.6436C31.2378 46.3884 31.3452 46.1447 31.4862 45.9203C32.0155 45.1383 31.9517 44.4245 31.3587 43.6995C31.2152 43.5235 30.772 43.2237 31.2758 42.9366C31.7046 42.6986 31.8895 43.0191 32.0522 43.3458C32.1207 43.4806 32.2132 43.6155 32.3248 43.7884Z" fill="#FCEBEB"/>
<path d="M53.2116 42.0625C53.2116 41.7183 53.1495 41.3598 53.2276 41.0347C53.3248 40.6238 52.7892 39.8973 53.7903 39.8862C55.3144 39.8688 55.941 40.2288 55.984 41.2282C56.0223 42.072 55.5743 42.6193 54.7086 42.5908C54.0709 42.5686 53.9115 42.8112 53.9896 43.3648C53.9976 43.5234 53.9976 43.6822 53.9896 43.8407C53.9896 44.0929 53.9019 44.2388 53.6246 44.2404C53.3201 44.2404 53.1845 44.104 53.2053 43.8058C53.2069 43.7794 53.2069 43.7529 53.2053 43.7265L53.2116 42.0625ZM53.988 41.2425C53.9482 41.6152 53.9482 41.9404 54.4791 41.9134C54.9031 41.8912 55.1996 41.777 55.1949 41.2789C55.1949 40.7539 54.8537 40.6444 54.4121 40.6127C53.8733 40.581 53.9992 40.9553 53.988 41.2361V41.2425Z" fill="#FCEBEB"/>
<path d="M63.1366 42.9223C63.1366 42.7113 63.1366 42.5003 63.1366 42.2878C63.1175 41.6898 63.2386 41.1505 63.8987 40.9744C64.6113 40.784 65.2075 41.0299 65.6427 41.6168C65.7495 41.7627 65.9823 41.9674 65.7129 42.153C65.5136 42.2894 65.2585 42.3481 65.0848 42.0847C64.8775 41.7675 64.6065 41.5486 64.2255 41.6866C63.8014 41.8452 63.9321 42.2576 63.921 42.5844C63.9082 42.9794 63.9002 43.3775 63.921 43.7709C63.9656 44.5291 64.4104 44.8004 65.0608 44.4213C65.3877 44.2293 65.5885 44.3737 65.7448 44.5577C65.9584 44.8083 65.7017 44.9971 65.5295 45.1383C64.7547 45.7727 63.3136 45.1097 63.1605 44.0279C63.1321 43.6584 63.1295 43.2874 63.1526 42.9175L63.1366 42.9223Z" fill="#FCEBEB"/>
<path d="M60.7022 42.4194C60.7022 42.8953 60.6591 43.2125 60.7117 43.5298C60.8074 44.0882 61.3319 44.3356 61.7639 43.9787C62.1274 43.6789 62.4016 43.7979 62.5451 44.0644C62.7157 44.3816 62.3857 44.5878 62.1402 44.7258C61.2904 45.2017 60.0453 44.5958 59.9449 43.6155C59.8803 42.8798 59.8803 42.1399 59.9449 41.4043C59.9943 40.7444 60.4774 40.4382 61.0991 40.443C61.7448 40.443 62.2836 40.7111 62.569 41.3408C62.6168 41.4471 62.6232 41.566 62.5164 41.6168C62.357 41.6945 62.1322 41.8262 61.9967 41.6977C61.689 41.4106 61.4228 40.9617 60.9477 41.2615C60.4726 41.5613 60.7691 42.1291 60.7022 42.4194Z" fill="#FCEBEB"/>
<path d="M48.4844 39.9005C48.6152 39.7419 48.4446 39.6784 48.3888 39.5832C48.2883 39.3992 48.1225 39.1978 48.3601 39.0281C48.4036 38.9967 48.4529 38.9743 48.5052 38.9619C48.5574 38.9496 48.6116 38.9476 48.6646 38.9562C48.7177 38.9647 48.7685 38.9836 48.8141 39.0117C48.8598 39.0398 48.8995 39.0767 48.9308 39.1201C49.103 39.3168 49.2991 39.3485 49.4681 39.147C49.637 38.9456 49.8969 38.8187 50.085 38.9884C50.3624 39.2311 50.0627 39.4516 49.9256 39.6578C49.8698 39.7451 49.7853 39.8164 49.9065 39.9084V39.8973H48.4605L48.4844 39.9005Z" fill="#FCEBEB"/>
<path d="M53.9883 46.5072L53.6806 46.569L53.3809 46.4691C53.4795 46.4347 53.5841 46.4203 53.6884 46.4269C53.7928 46.4334 53.8947 46.4607 53.9883 46.5072Z" fill="#FAC624"/>
<path d="M37.1895 82.7384C38.6593 78.684 41.1208 75.2625 44.0446 72.1376C44.2822 72.3597 44.1482 72.6372 44.1403 72.8847C44.1036 74.0204 44.0478 75.1546 43.9936 76.2888C43.9043 78.1616 43.8124 80.0349 43.7178 81.9088C43.7082 82.0801 43.78 82.3133 43.5584 82.3847C43.3368 82.456 43.2252 82.2578 43.1136 82.1229C42.8282 81.7756 42.562 81.4123 42.283 81.0586C42.1889 80.9396 42.1076 80.7651 41.9147 80.827C41.7218 80.8888 41.7553 81.0824 41.741 81.2299C41.6549 82.0976 41.8143 82.8669 42.6353 83.357C43.0403 83.5997 43.4579 84.0233 43.9266 83.8329C44.3953 83.6426 44.2455 83.0398 44.2742 82.6163C44.4655 79.2677 44.6249 75.916 44.8003 72.5659C44.8114 72.3612 44.8003 72.0345 44.9023 71.9742C45.8588 71.4618 46.4838 70.618 47.1342 69.7884C47.402 70.0755 47.3526 70.3562 47.3845 70.6085C47.4757 71.4144 47.7823 72.1812 48.2725 72.8292C48.7826 73.5303 49.4761 73.9919 49.9974 74.6391C51.386 76.3681 53.0727 77.6624 55.2584 78.2414C55.3229 78.2537 55.3839 78.2803 55.4366 78.3193C55.4893 78.3583 55.5325 78.4087 55.5629 78.4667C55.8674 79.0678 56.5513 79.3867 56.7314 80.0989C56.8207 80.4479 57.197 80.6271 57.5525 80.6335C58.2268 80.6461 58.7736 80.9237 59.2838 81.3187C59.3173 81.3806 59.3492 81.4631 59.4337 81.3996C59.4496 81.3869 59.4002 81.2838 59.3794 81.2235C59.2838 80.7667 58.9219 80.3844 59.0271 79.8689C59.1866 79.0885 58.8151 78.5111 58.3193 77.948C57.3213 76.8106 56.2803 75.7082 55.4704 74.4138C54.9427 73.5684 54.4055 72.7007 53.3979 72.293C53.2863 72.2236 53.2001 72.1201 53.1524 71.998C52.6502 70.9796 52.5418 69.8661 52.3999 68.7637C52.3999 68.7415 52.4717 68.7097 52.5291 68.6685C52.9053 69.4219 53.272 70.1754 53.6578 70.9209C53.7773 71.1509 53.8794 71.4111 54.1281 71.5443C55.3174 72.1788 56.0906 73.2892 56.8016 74.3202C57.6162 75.4956 58.3958 76.6679 59.3906 77.7069C59.8689 78.2034 60.3902 78.6681 60.666 79.309C61.0853 80.2607 62.0019 80.7778 62.6221 81.5535C62.6827 81.6228 62.7585 81.6775 62.8436 81.7132C62.9287 81.7489 63.0209 81.7648 63.1131 81.7597C63.8528 81.5773 64.4347 81.9627 65.0549 82.226L65.1346 82.3228L65.1505 82.253L65.0405 82.2435C65.1442 81.7533 64.5479 81.4234 64.7217 80.919C64.9991 80.137 64.6069 79.6722 63.9772 79.2994C63.2231 78.8505 62.7735 78.2351 62.5185 77.3452C62.053 75.7304 61.4599 74.1537 60.5018 72.7245C59.6808 71.4983 58.9665 70.1865 59.3125 68.6003C59.3667 68.3465 59.2152 68.1419 59.1116 67.9325C58.2521 66.1786 57.5531 64.3513 57.0232 62.4726C60.0745 60.9403 63.2247 59.6745 66.5885 58.9988C66.9074 58.9369 67.2103 58.883 67.5227 58.8259C67.5403 59.0876 67.5738 59.3493 67.5738 59.619C67.5738 66.0137 67.5738 72.4078 67.5738 78.8013C67.5709 79.4615 67.5288 80.121 67.4478 80.7762C67.1082 83.5712 65.7675 84.8782 62.9394 85.0591C61.2989 85.1622 59.6489 85.1098 57.9973 85.1415C55.8993 85.1812 53.9384 85.6396 52.3346 87.0926C52.0891 87.3147 51.9376 87.3353 51.6809 87.1021C50.0341 85.6031 48.0142 85.1749 45.8636 85.1352C43.9506 85.1003 42.0375 85.2938 40.142 84.9274C38.8395 84.6593 37.6805 84.1359 37.1895 82.7384Z" fill="#E52127"/>
<path d="M59.278 81.3203C58.7678 80.9253 58.221 80.6477 57.5467 80.635C57.1912 80.635 56.8149 80.4495 56.7256 80.1005C56.5455 79.3883 55.8616 79.0694 55.5571 78.4682C55.5267 78.4103 55.4835 78.3599 55.4308 78.3209C55.3781 78.2819 55.3171 78.2552 55.2526 78.243C53.0717 77.664 51.385 76.3696 49.9916 74.6406C49.4703 73.9935 48.7768 73.5303 48.2667 72.8308C47.7765 72.1828 47.4699 71.4159 47.3787 70.61C47.3468 70.3578 47.3963 70.0771 47.1284 69.7899C46.4732 70.6195 45.8435 71.4634 44.8965 71.9758C44.7865 72.0361 44.8056 72.3628 44.7945 72.5674C44.6191 75.9176 44.4597 79.2693 44.2684 82.6178C44.2445 83.0398 44.4103 83.6362 43.9208 83.8345C43.4314 84.0328 43.0345 83.5997 42.6295 83.3586C41.8085 82.8685 41.6491 82.0991 41.7352 81.2315C41.7495 81.0839 41.7208 80.8888 41.9089 80.8286C42.0971 80.7683 42.1831 80.9412 42.2772 81.0602C42.5562 81.4139 42.8224 81.7771 43.1078 82.1245C43.2194 82.2593 43.3374 82.4592 43.5526 82.3863C43.7678 82.3133 43.712 82.069 43.712 81.9104C43.8077 80.0365 43.8996 78.1632 43.9878 76.2903C44.042 75.1562 44.0978 74.022 44.1345 72.8863C44.1424 72.6388 44.2764 72.3612 44.0388 72.1392C43.8045 72.1027 43.5605 72.0805 43.3374 72.0249C42.8033 71.8949 42.561 71.6173 43.0089 71.1478C43.2529 70.8908 43.3453 70.6989 43.0536 70.4276C42.7618 70.1564 42.942 69.8693 43.0791 69.6345C43.3979 69.0857 43.7471 68.5574 44.0866 68.0213C44.49 67.3868 44.3513 66.8856 43.704 66.5064C43.4429 66.3754 43.2155 66.1866 43.0392 65.9544C42.1815 64.5887 41.0688 63.2071 41.2856 61.5526C41.407 60.742 41.4188 59.9188 41.3207 59.1051C41.3209 59.0255 41.309 58.9464 41.2856 58.8703C40.4885 57.3602 41.3334 56.2086 42.121 55.0443C42.4765 54.5177 42.934 54.0719 43.3469 53.5913C43.9974 52.8347 44.8343 52.6047 45.7669 52.6396C46.2978 52.6634 46.5099 52.546 46.4987 51.9638C46.4734 51.5009 46.5589 51.0387 46.7482 50.6151C46.9375 50.1915 47.2252 49.8187 47.5876 49.5274C48.0339 49.1625 48.4692 48.9484 49.0335 49.2466C49.1777 49.3129 49.3276 49.366 49.4815 49.4052C49.8737 49.5258 50.395 49.2085 50.6724 49.6384C51.0598 50.238 51.2001 50.9455 51.3531 51.6355C51.3896 51.793 51.3824 51.9575 51.3324 52.1113C50.8956 53.3359 51.3563 54.1433 52.4595 54.7286C52.8724 54.9475 53.2008 55.3251 53.5755 55.6185C54.7679 56.5544 55.235 57.779 55.0103 59.2669C54.9306 59.7982 55.1027 60.1266 55.4614 60.5612C55.9859 61.1957 56.3095 61.9888 57.0285 62.4869C57.5585 64.3656 58.2574 66.1929 59.117 67.9467C59.2206 68.1561 59.372 68.3607 59.3178 68.6145C58.9719 70.2008 59.6861 71.5158 60.5071 72.7388C61.4637 74.1664 62.0583 75.7526 62.5238 77.3595C62.7789 78.2493 63.2285 78.8648 63.9825 79.3137C64.6202 79.6865 65.0044 80.1512 64.727 80.9333C64.5469 81.4377 65.1431 81.7676 65.0459 82.2578L65.0602 82.2403C64.4401 81.977 63.8582 81.5915 63.1185 81.774C63.0262 81.7791 62.9341 81.7632 62.8489 81.7275C62.7638 81.6917 62.6881 81.6371 62.6275 81.5677C62.0073 80.7921 61.0906 80.2765 60.6713 79.3232C60.3892 78.6887 59.8615 78.2129 59.396 77.7211C58.4091 76.6821 57.6216 75.5099 56.8069 74.3345C56.0959 73.3066 55.3227 72.1963 54.1334 71.5586C53.8847 71.4254 53.7827 71.1652 53.6631 70.9352C53.2773 70.1897 52.9107 69.4362 52.5344 68.6828C52.477 68.724 52.4037 68.7557 52.4053 68.7779C52.5472 69.8883 52.6556 70.9987 53.1578 72.0123C53.2055 72.1344 53.2916 72.2379 53.4033 72.3073C54.406 72.715 54.9433 73.5763 55.4758 74.4281C56.2856 75.7225 57.3267 76.8249 58.3246 77.9622C58.8205 78.5254 59.1919 79.1027 59.0325 79.8832C58.9273 80.3987 59.2892 80.781 59.3848 81.2378L59.278 81.3203ZM44.6111 60.3439L44.3513 60.4121C44.2492 61.6256 44.6924 62.6471 45.6522 63.6972C45.2616 62.452 44.9332 61.3987 44.6064 60.3439H44.6111Z" fill="#FDFBFC"/>
<path d="M48.4746 39.8878H49.9206C49.6575 40.8221 49.039 41.5708 48.4746 42.4115V39.8878Z" fill="#E52429"/>
<path d="M58.4734 42.375C58.4734 42.6399 58.4734 42.9033 58.4734 43.1682C58.4734 43.4981 58.314 43.7408 57.9665 43.763C57.6189 43.7852 57.2905 43.644 57.2634 43.2712C57.223 42.5872 57.2177 41.9016 57.2475 41.2171C57.257 40.9458 57.4802 40.8205 57.7512 40.8142C58.0844 40.8142 58.3411 40.9601 58.4065 41.2774C58.4622 41.6403 58.4947 42.0064 58.5037 42.3734L58.4734 42.375Z" fill="#E52429"/>
<path d="M36.1887 43.7979C36.2087 44.1148 36.2087 44.4327 36.1887 44.7496C36.1808 44.9384 36.099 45.1166 35.9607 45.2461C35.8225 45.3757 35.6388 45.4463 35.4489 45.4428C34.9388 45.4428 34.9707 45.0399 34.9707 44.7004C34.9595 44.2769 34.9611 43.855 34.9707 43.4314C34.9802 42.8953 35.1875 42.4385 35.7789 42.467C36.3704 42.4956 36.1711 43.0397 36.2094 43.4029C36.2166 43.5345 36.2166 43.6663 36.2094 43.7979H36.1887Z" fill="#E52429"/>
<path d="M53.9873 41.2361C53.9985 40.949 53.8726 40.5746 54.4114 40.6143C54.853 40.646 55.1878 40.7555 55.1942 41.2805C55.1942 41.7707 54.9024 41.8849 54.4784 41.915C53.9411 41.9404 53.9411 41.6152 53.9873 41.2361Z" fill="#E52429"/>
<path d="M59.375 81.2251C59.3957 81.2854 59.4451 81.3837 59.4292 81.4012C59.3447 81.4646 59.3128 81.3822 59.2793 81.3203L59.375 81.2251Z" fill="#FDFBFC"/>
<path d="M65.0469 82.2452L65.1569 82.2548L65.1409 82.325L65.0612 82.2276L65.0469 82.2452Z" fill="#FDFBFC"/>
<path d="M44.6062 60.3439C44.925 61.3988 45.2614 62.452 45.6472 63.6972C44.6906 62.6471 44.2443 61.6256 44.3463 60.4121L44.6062 60.3439Z" fill="#15489E"/>
</g>
<defs>
<clipPath id="clip0_1239_289">
<rect width="102" height="104" fill="white" transform="translate(0.349609 0.406387)"/>
</clipPath>
</defs>
</svg>
