<svg width="148" height="100" viewBox="0 0 148 100" fill="none" xmlns="http://www.w3.org/2000/svg">
<path d="M138.258 59.2753L74.2749 94.4776L10.2461 59.2817L74.2298 24.0472L138.258 59.2753Z" fill="white"/>
<path d="M37.2402 38.9455C17.0073 50.0711 0.457031 59.185 0.457031 59.2045C0.463221 59.2303 73.908 99.632 74.0494 99.6834C74.1136 99.7092 147.706 59.2557 147.706 59.1983C147.706 59.1468 74.2418 18.751 74.12 18.7319C74.0627 18.7188 57.4672 27.8134 37.2402 38.9455ZM106.257 41.6386C123.855 51.318 138.258 59.2557 138.258 59.275C138.258 59.3072 74.4031 94.4453 74.2749 94.4773C74.1975 94.4962 10.2654 59.3583 10.2461 59.2814C10.2333 59.249 74.14 24.0535 74.2298 24.0469C74.2422 24.0471 88.6526 31.9654 106.257 41.6386Z" fill="#DB1E2C"/>
<path d="M46.9585 44.389C32.0792 52.5711 19.8931 59.2874 19.8867 59.3132C19.874 59.3519 33.9754 67.1484 37.5168 69.0637L37.8575 69.2437L43.9056 65.9208C47.2347 64.0955 49.9664 62.6107 49.9729 62.6235C49.9793 62.6298 50.0822 63.0735 50.1978 63.607C51.1105 67.7783 53.1929 71.0753 56.6508 73.8392C57.6599 74.6426 59.2153 75.684 60.2435 76.2495L60.9892 76.6607L58.5916 77.9781C57.274 78.698 56.2135 79.3085 56.2392 79.3343C56.2906 79.3921 74.0429 89.1552 74.0878 89.1552C74.1071 89.1552 127.994 59.5385 128.315 59.3521C128.36 59.3263 111.379 49.936 110.653 49.5823C110.46 49.4925 110.453 49.4925 98.9613 55.8108L87.4697 62.1288L87.2895 62.8358C86.6917 65.1752 85.4447 67.2966 83.6195 69.0703C81.852 70.7927 79.8916 71.8983 77.552 72.496C76.3244 72.8109 75.5147 72.9137 74.1776 72.9137C72.8405 72.9137 72.0306 72.8109 70.8034 72.496C68.4638 71.8983 66.5036 70.7927 64.7357 69.0703C62.5825 66.9749 61.3291 64.5842 60.7701 61.486C60.603 60.5734 60.603 58.1567 60.7701 57.244C61.3356 54.1396 62.5953 51.7361 64.7677 49.6216C66.8309 47.6224 69.3827 46.3694 72.281 45.926C73.2322 45.7844 75.1218 45.7844 76.0731 45.926C78.0656 46.2279 80.058 46.9864 81.6584 48.0532C83.2202 49.0946 84.7435 50.6628 85.7011 52.2119L85.9708 52.6491H87.3078H88.6382V46.9996V41.35L90.3735 40.3988C91.3311 39.8782 92.1088 39.4347 92.1088 39.4154C92.1088 39.3639 74.2475 29.5494 74.1191 29.5238C74.0628 29.5164 61.8444 36.2007 46.9585 44.389ZM74.6924 41.0211C78.2534 41.3489 81.8718 42.6087 84.6738 44.4983C84.9888 44.7103 85.2523 44.871 85.2588 44.8581C85.2716 44.8452 85.3617 44.5948 85.4645 44.2926L85.651 43.7462L86.5059 43.3092L87.3544 42.8721V47.1202V51.3622H86.9749H86.5955L86.0427 50.6361C85.0592 49.3249 83.5812 47.8914 82.3665 47.0753C81.8137 46.7025 80.8946 46.2139 80.0271 45.8479C77.7006 44.8516 75.3543 44.421 73.2142 44.6074C69.9814 44.8901 67.0056 46.1112 64.6853 48.1103C61.8188 50.5783 59.9676 54.004 59.5241 57.6612C59.3572 59.0366 59.4856 61.0805 59.8198 62.4818C60.5846 65.6955 62.4548 68.8897 64.5053 70.4837C67.102 72.5083 69.3257 73.537 71.9931 73.9609C72.8351 74.096 74.9753 74.1151 75.8496 73.9933C78.6521 73.6138 81.3578 72.4829 83.3695 70.8569C84.205 70.182 85.3361 68.9415 86.326 67.6044L86.7437 67.0453H87.3093H87.8684V69.3269V71.6148L87.2834 72.1932C85.3103 74.1345 82.5339 75.7346 79.3521 76.7694C77.1669 77.4764 75.3927 77.7721 72.9245 77.8236C66.671 77.9652 61.8695 76.397 57.3064 72.7331C53.8356 69.9504 51.8302 66.4087 51.1232 61.8392C50.9816 60.9136 50.9627 58.2078 51.0909 57.2757C51.6822 53.0592 53.2119 49.8328 55.7957 47.3584C59.0413 44.2477 62.4991 42.3516 66.4906 41.4968C68.9788 40.9633 72.1215 40.7769 74.6924 41.0211Z" fill="#DB1E2C"/>
<path d="M73.0541 48.8562C70.5345 49.081 67.9701 50.4051 66.2603 52.3655C63.8693 55.1035 63.0403 58.9344 64.0944 62.3855C64.6599 64.224 65.7719 65.9464 67.2181 67.2125C69.712 69.3913 73.0348 70.2847 76.2356 69.6421C77.5079 69.385 78.8964 68.8 80.0599 68.0288C80.9147 67.4571 82.3545 66.0298 82.8877 65.2135C84.4946 62.7712 85.0347 60.0267 84.4559 57.1989C83.8774 54.3322 82.1807 51.9155 79.6418 50.3347C77.7716 49.1646 75.4386 48.6442 73.0541 48.8562ZM75.9848 49.6532C76.7305 49.7883 77.6239 50.084 78.3242 50.4306C78.8064 50.675 78.9734 50.797 79.3396 51.2081L79.7767 51.6906L78.9477 52.571C77.733 53.8566 77.8936 53.747 77.3599 53.6379C76.82 53.5286 74.6412 53.4259 73.7927 53.4708L73.1759 53.4966L71.9099 52.3586C71.2155 51.7355 70.6438 51.2018 70.6438 51.176C70.6438 51.1501 70.9716 50.8097 71.3697 50.4177C72.1409 49.6528 72.0958 49.6785 72.9575 49.5565C73.491 49.4794 75.3613 49.5441 75.9848 49.6532ZM71.7234 52.4361C72.4178 53.0593 72.9959 53.5866 73.0092 53.6121C73.0155 53.6313 72.6942 54.5635 72.2956 55.6754L71.563 57.6933L69.5254 58.6447L67.4815 59.5897L66.7295 58.8891C66.3183 58.5032 65.7973 57.9955 65.5726 57.7644L65.1613 57.3465L65.2385 56.9741C65.4891 55.8558 66.3632 53.6253 66.7938 53.0211C66.9031 52.8732 67.1733 52.7063 67.803 52.4041C68.6257 52.012 70.2972 51.305 70.4063 51.2987C70.4381 51.2987 71.0293 51.8064 71.7234 52.4361ZM80.696 52.1983C81.4995 52.6418 82.2707 53.5866 82.9712 55.0006C83.5561 56.164 83.948 57.6357 83.948 58.632V58.9791L83.3761 59.551C83.0613 59.8658 82.7784 60.11 82.7528 60.0974C82.7206 60.0847 82.3607 59.853 81.9557 59.5834C81.5508 59.3133 80.8311 58.8698 80.3617 58.5871L79.5133 58.0792L79.2816 57.3398C78.9925 56.4146 78.2536 54.3578 78.0989 54.0621L77.9833 53.8374L78.9474 52.8282C80.0404 51.6842 79.8669 51.742 80.696 52.1983ZM66.1126 53.9465C65.8041 54.5957 65.3349 55.926 65.11 56.7745C64.9685 57.3209 64.4606 58.3363 64.4219 58.1497C64.3833 57.9697 64.6085 56.9287 64.8269 56.2731C65.084 55.5019 65.5853 54.4733 66.029 53.8241C66.2023 53.567 66.3501 53.3551 66.3696 53.3551C66.3823 53.3551 66.2668 53.6253 66.1126 53.9465ZM73.478 59.3326C74.481 60.0847 75.3229 60.721 75.3484 60.7402C75.3998 60.7852 75.1814 65.3614 75.13 65.4128C75.1109 65.4257 74.2109 65.7985 73.1248 66.2355L71.1451 67.0325L70.8172 66.9232C69.6667 66.5248 68.2076 65.4514 67.4621 64.4487L67.2757 64.1981V62.842C67.2821 61.6336 67.4043 60.1556 67.5263 59.8339C67.5714 59.7183 71.4084 57.9122 71.5499 57.9441C71.6079 57.9572 72.4753 58.5805 73.478 59.3326ZM80.5225 58.8891C81.1204 59.2488 81.8528 59.7116 82.1616 59.924L82.7144 60.3035L82.7593 60.8303C82.8044 61.3831 82.7015 63.4719 82.6051 64.1018C82.5024 64.6931 82.2772 64.9693 81.2167 65.7341C80.4712 66.2804 78.8128 67.2382 78.6199 67.2382C78.5559 67.2382 75.4771 65.5285 75.3807 65.4447C75.3229 65.387 75.554 60.8944 75.6186 60.8235C75.6635 60.7784 79.4041 58.2461 79.43 58.2399C79.4429 58.2399 79.9309 58.5356 80.5225 58.8891ZM67.5201 64.7958C68.1947 65.6185 69.1461 66.3513 70.117 66.795C70.4254 66.9365 70.747 67.0907 70.824 67.1292C70.9458 67.1871 71.0295 67.3734 71.2287 67.9777C71.364 68.3954 71.4666 68.7553 71.4535 68.7621C71.4086 68.8071 70.3483 68.3827 69.7826 68.1001C68.6257 67.5149 67.6552 66.7697 66.826 65.8441C66.3823 65.3364 65.8873 64.6615 65.8873 64.552C65.8873 64.5198 66.0994 64.462 66.3565 64.4301C67.1666 64.3202 67.1086 64.3009 67.5201 64.7958ZM80.9787 66.3706C80.6316 66.7048 80.143 67.1225 79.886 67.3027C79.3396 67.6884 78.3627 68.2348 78.3113 68.1832C78.2924 68.1641 78.3628 67.9904 78.4657 67.8039C78.6326 67.4891 78.6972 67.4376 79.2881 67.1223C80.0213 66.7303 81.0622 66.094 81.3449 65.8625C81.4542 65.7789 81.5506 65.7212 81.5699 65.7405C81.5892 65.76 81.3195 66.0427 80.9787 66.3706Z" fill="#DB1E2C"/>
<path d="M54.5335 2.19186C54.0878 3.06774 53.7108 3.79914 53.6956 3.81435C53.6691 3.84476 50.3212 4.3705 50.1535 4.37422C50.1233 4.37422 50.6791 4.9569 51.3914 5.66903L52.6825 6.96012L52.3969 8.74265C52.237 9.72145 52.1113 10.5328 52.1189 10.5367C52.1226 10.5441 52.8462 10.1823 53.7223 9.72905C54.6022 9.27599 55.3333 8.9064 55.3524 8.9064C55.3715 8.9064 56.1027 9.27582 56.9825 9.72905C57.8585 10.1823 58.5822 10.5441 58.5859 10.5367C58.5935 10.5328 58.4677 9.72162 58.3081 8.74265L58.0223 6.96012L59.3134 5.66903C60.0255 4.9569 60.5893 4.37422 60.5663 4.37422C60.4977 4.37422 57.0012 3.80657 56.9901 3.79543C56.9864 3.78782 56.6166 3.06791 56.1711 2.19203C55.7294 1.31987 55.3598 0.603851 55.3524 0.603851C55.3446 0.603675 54.9752 1.31969 54.5335 2.19186Z" fill="#FDCB08"/>
<path d="M67.0642 2.22263C66.2909 3.75369 66.2377 3.84123 66.1312 3.86032C65.876 3.90613 62.7264 4.37439 62.6767 4.37439C62.65 4.37439 63.2137 4.96097 63.9296 5.67698L65.2322 6.98329L64.9466 8.75061C64.7904 9.7218 64.6684 10.5216 64.676 10.5292C64.6836 10.5368 65.4035 10.175 66.2757 9.72569C67.1518 9.27635 67.8791 8.90693 67.9021 8.90693C67.9249 8.90693 68.6524 9.27635 69.5285 9.72569C70.4006 10.1752 71.1204 10.537 71.1281 10.5292C71.1356 10.5216 71.0139 9.7218 70.8576 8.75061L70.572 6.98329L71.8746 5.67698C72.5906 4.96097 73.1505 4.37439 73.12 4.37439C73.0171 4.37439 69.5854 3.81452 69.555 3.79171C69.5361 3.78039 69.1628 3.0566 68.7208 2.18832C68.2828 1.31616 67.9136 0.603851 67.9021 0.603851C67.8909 0.603851 67.5137 1.33525 67.0642 2.22263Z" fill="#FDCB08"/>
<path d="M79.5956 2.19186C79.1502 3.06774 78.7731 3.79914 78.7579 3.81435C78.7316 3.84476 75.3835 4.3705 75.216 4.37422C75.1855 4.37422 75.7416 4.9569 76.4536 5.66903L77.745 6.96012L77.4594 8.74265C77.2994 9.72145 77.1736 10.5328 77.1814 10.5367C77.1851 10.5441 77.9088 10.1823 78.7848 9.72905C79.6646 9.27599 80.3958 8.9064 80.4151 8.9064C80.4338 8.9064 81.1652 9.27582 82.045 9.72905C82.9211 10.1823 83.6449 10.5441 83.6484 10.5367C83.6562 10.5328 83.5304 9.72162 83.3704 8.74265L83.0848 6.96012L84.3763 5.66903C85.0882 4.9569 85.652 4.37422 85.6292 4.37422C85.5605 4.37422 82.0641 3.80657 82.0528 3.79543C82.0491 3.78782 81.6793 3.06791 81.2339 2.19203C80.7921 1.31987 80.4227 0.603851 80.4151 0.603851C80.4071 0.603675 80.0374 1.31969 79.5956 2.19186Z" fill="#FDCB08"/>
<path d="M92.1267 2.22263C91.3534 3.75369 91.3002 3.84123 91.1935 3.86032C90.9385 3.90613 87.7887 4.37439 87.7392 4.37439C87.7127 4.37439 88.2762 4.96097 88.9924 5.67698L90.2947 6.98329L90.0091 8.75061C89.8529 9.7218 89.7313 10.5216 89.7389 10.5292C89.7465 10.5368 90.4664 10.175 91.3384 9.72569C92.2144 9.27635 92.9418 8.90693 92.9647 8.90693C92.9877 8.90693 93.7149 9.27635 94.5909 9.72569C95.4633 10.1752 96.1832 10.537 96.1908 10.5292C96.1984 10.5216 96.0764 9.7218 95.9204 8.75061L95.6346 6.98329L96.9372 5.67698C97.6533 4.96097 98.2133 4.37439 98.1827 4.37439C98.0801 4.37439 94.6484 3.81452 94.6176 3.79171C94.5989 3.78039 94.2254 3.0566 93.7837 2.18832C93.3457 1.31616 92.9762 0.603851 92.9649 0.603851C92.9531 0.604028 92.5762 1.33525 92.1267 2.22263Z" fill="#FDCB08"/>
</svg>
