<svg width="84" height="102" viewBox="0 0 84 102" fill="none" xmlns="http://www.w3.org/2000/svg">
<path fill-rule="evenodd" clip-rule="evenodd" d="M83.6294 0.950821V70.4598L42.1702 101.862L0.710938 70.4598V0.950821H83.6294Z" fill="#1A1B1D"/>
<path fill-rule="evenodd" clip-rule="evenodd" d="M83.6294 0.950821V70.4598L42.1702 101.862L0.710938 70.4598L3.88745 68.8208L42.1702 98.2684L80.4529 68.8208V3.64037L83.6294 0.950821Z" fill="#444645"/>
<path fill-rule="evenodd" clip-rule="evenodd" d="M0.710938 0.950821H83.6294L80.4529 3.64037H3.88745V68.8208L0.710938 70.4598V0.950821Z" fill="#D4D2DD"/>
<path fill-rule="evenodd" clip-rule="evenodd" d="M66.0233 59.7981V62.9205L42.293 81.0485L25.5605 68.401L27.7428 67.9366L42.2862 79.0397L64.4452 61.9421V60.1385L66.0233 59.8026V59.7981ZM18.3125 17.1891H66.0233V20.4242L64.4452 20.7669V18.792H19.8906V30.4227L18.3125 30.7654V17.1891Z" fill="#4D4F4E"/>
<path fill-rule="evenodd" clip-rule="evenodd" d="M75.555 57.7717V67.2539L42.2366 92.3143L13.6863 70.9264L21.5769 69.2468L42.302 84.5297L69.0599 64.5891V59.1514L75.546 57.7717H75.555ZM8.78516 8.30922H75.555V18.346L69.069 19.7505V14.27H15.2712V31.424L8.78516 32.8308V8.30922Z" fill="#E7E8EC"/>
<path fill-rule="evenodd" clip-rule="evenodd" d="M74.0128 18.6842L72.4257 19.0291V11.4204L70.7935 12.8384H13.0166V31.9132L11.5625 32.2289V11.382H72.4663L74.0128 9.91664V18.6842Z" fill="#CFD0D5"/>
<path fill-rule="evenodd" clip-rule="evenodd" d="M15.7422 70.4893L17.6494 70.0835L41.9997 88.3265L72.4933 65.3898V58.4235L74.0376 58.0944V66.0616L41.9997 90.1593L15.7422 70.4893Z" fill="#CFD0D5"/>
<path fill-rule="evenodd" clip-rule="evenodd" d="M22.93 35.9529L27.7184 39.9455V46.2287L26.244 48.6184L28.4985 50.9562V57.5617L25.5542 62.3344L8.34375 65.9911V39.1272L22.93 35.9529ZM36.1884 33.0672L41.7546 40.6692L47.3637 30.6279L53.6626 29.2752L44.8905 44.9617L53.3019 56.4593L48.1662 57.5505L42.3205 49.5675L36.4589 60.0349L30.1825 61.3672L39.1845 45.266L31.0685 34.1809L36.1884 33.0672ZM54.0909 52.4825L55.8607 50.4129C57.184 48.8641 57.4929 47.2161 57.7499 45.7214L60.8588 27.6971L75.5374 24.5026V51.4161L75.6569 51.6934L75.5374 51.7182L70.4446 52.8004L70.3342 52.9762V30.7654L65.3744 31.8543L62.8562 47.1259C62.5022 49.2564 61.3818 51.8603 59.8961 53.4384L57.0893 56.3984L54.1022 52.487L54.0909 52.4825ZM21.424 41.1764L13.547 42.8492V48.3726L21.6427 46.6097L22.5017 45.1916L22.5152 42.0737L21.4308 41.1719L21.424 41.1764ZM21.6878 51.1636L13.547 52.9672V60.0754L22.2762 58.1795L23.2704 56.5247V52.5569L21.6878 51.1636Z" fill="white"/>
</svg>
