<svg width="82" height="98" viewBox="0 0 82 98" fill="none" xmlns="http://www.w3.org/2000/svg">
<path d="M43.1768 40.0917C39.5689 40.5749 36.1221 41.0259 33.4806 41.3802L39.5045 29.2036L43.1768 40.0917ZM76.8718 61.3525L70.1715 41.7024C69.7205 40.3172 68.5608 38.8998 66.7891 38.0945L54.0004 0.823761L52.1321 1.37139C49.0718 2.20893 45.4961 2.94984 41.8238 3.49746C37.9582 4.04509 34.1893 4.33501 30.9035 4.33501H30.4203H28.9385L26.9735 9.9079L26.3292 11.8407L28.262 12.5172C29.1962 12.8715 30.6458 13.6446 31.0646 14.1923C31.4511 14.7721 31.3223 15.964 30.8069 17.1881L11.6078 57.2936C10.1904 60.2572 8.9663 61.3847 7.06571 61.5457C6.58252 61.578 4.00545 61.7712 4.00545 61.7712L2.6525 61.9001L0.461996 68.1172C0.461996 68.1172 0.333143 68.9548 0.526423 70.2433C0.945195 73.0137 2.74914 77.7168 10.1582 79.9395L10.5125 80.3583C11.8011 81.9689 14.0882 83.9662 17.535 84.7393L17.8894 85.1581C19.1779 86.7687 21.465 88.7659 24.9119 89.5391L25.2662 89.9578C27.0379 92.1161 30.2593 94.661 35.3812 94.661H36.2509C37.2817 97.077 38.9891 97.4635 39.9877 97.4635H41.2118C42.2104 97.4635 43.8533 97.0448 44.9485 94.661H45.9149C51.1012 94.661 54.2904 92.0839 56.0299 89.9578L56.3842 89.5391C59.831 88.7337 62.086 86.7365 63.4067 85.1581L63.7611 84.7393C67.2079 83.934 69.4628 81.9367 70.7835 80.3583L71.1379 79.9395C76.1954 78.7798 78.9979 74.7854 79.9643 72.7237C80.3509 71.854 80.6086 70.952 80.7696 70.2755C81.0274 69.0192 81.0274 68.1172 81.0274 68.1172L76.8718 61.3525Z" fill="#E6E7E8"/>
<path d="M30.389 6.36452L28.9394 10.5845C28.9394 10.5845 31.7097 11.6153 32.7405 13.0327C33.7391 14.4823 33.3526 16.5117 32.6117 18.0901L13.4448 58.1634C12.0918 60.966 10.4489 63.3498 7.22762 63.6075C6.74442 63.6397 4.16736 63.833 4.16736 63.833L2.68555 68.0529H26.4589C26.1046 66.7966 25.9113 65.4758 25.9113 64.1551C25.9113 64.0262 25.9113 63.9296 25.9113 63.8008C25.1382 63.6397 24.3006 63.4142 23.6886 63.1565C21.8524 62.3189 21.4337 61.0948 22.3356 59.1943L39.8596 23.6952L45.2715 39.7697L64.3095 37.3215L52.6483 3.36868C49.6203 4.20623 46.0124 4.97935 42.1146 5.52697C37.7658 6.13902 33.7391 6.39673 30.389 6.36452Z" fill="url(#paint0_linear_1262_1979)"/>
<path d="M54.1935 70.2115L53.8392 70.8557C52.5507 73.4328 50.5534 75.5266 48.0408 76.944C45.9147 78.1681 43.5954 78.8124 41.1794 78.9413C41.1794 78.9413 40.9539 78.9413 40.6962 78.9413C40.5029 78.9413 40.4385 78.9413 40.1163 78.9413C35.0589 78.748 30.4201 75.9454 27.8753 71.5322C27.7464 71.3067 27.6176 71.0812 27.4887 70.8557L27.1344 70.2115H2.58789C2.58789 70.2115 2.78117 71.6611 4.45626 73.8516C5.64815 75.43 7.80644 77.4594 11.3177 78.0393L12.123 79.0379C13.3793 80.5841 15.4732 82.2914 18.6945 82.8391L19.4999 83.8377C20.7562 85.3839 22.85 87.0912 26.0714 87.6388L26.8767 88.6374C28.3585 90.4414 31.0644 92.5997 35.4454 92.5997H37.797C38.1835 94.2425 38.86 95.4022 40.0197 95.4022H41.2438C42.4035 95.4022 43.0477 94.2425 43.4665 92.5997H45.9147C50.2957 92.5997 52.9694 90.4414 54.4835 88.6374L55.2888 87.6388C58.5101 87.0912 60.5718 85.3517 61.8603 83.8377L62.6656 82.8391C65.8869 82.2914 67.9486 80.5519 69.2371 79.0379L70.0425 78.0393C74.198 77.3628 76.4207 74.6569 77.4515 73.0784C78.4179 71.5966 78.74 70.2437 78.74 70.2437H54.2257V70.2115H54.1935Z" fill="#231F20"/>
<path d="M13.2825 76.9436H23.2042C23.5585 76.9436 23.8484 77.2013 23.8484 77.5878C23.8484 77.9422 23.5263 78.2321 23.2042 78.2321H13.0248C14.3133 79.8105 16.6971 81.7756 20.6271 81.7756H28.0684C28.4227 81.7756 28.7126 82.0333 28.7126 82.4198C28.7126 82.7742 28.3905 83.0641 28.0684 83.0641H20.4338C21.7223 84.6425 24.1061 86.6075 28.0361 86.6075H39.343C39.6973 86.6075 39.9873 86.8652 39.9873 87.2518C39.9873 87.6062 39.6651 87.8961 39.343 87.8961H38.5055C38.5699 91.1818 39.0853 93.7589 39.794 94.1777H40.1805C40.8892 93.7267 41.4691 90.7631 41.4691 87.2196C41.4691 83.4507 40.857 80.3904 40.0517 80.2293C34.7687 80.0038 29.679 77.1691 26.8443 72.2082C26.6832 71.9827 26.5865 71.725 26.4255 71.4673H4.42383C4.61711 71.9183 6.96868 76.9436 13.2825 76.9436Z" fill="url(#paint1_linear_1262_1979)"/>
<path d="M37.5389 91.4073C37.3779 90.2798 37.3135 89.0557 37.2812 87.8638H27.8105C29.0991 89.4422 31.4829 91.4073 35.4129 91.4073H37.5389Z" fill="url(#paint2_linear_1262_1979)"/>
<path d="M53.4546 87.8316H48.3649C48.0105 87.8316 47.7206 87.5739 47.7206 87.1874C47.7206 86.833 48.0427 86.5431 48.3649 86.5431H53.2291C57.1269 86.5431 59.5107 84.5781 60.8314 82.9997H53.1969C52.8425 82.9997 52.5526 82.7419 52.5526 82.3554C52.5526 82.001 52.8747 81.7111 53.1969 81.7111H60.6059C64.5037 81.7111 66.8875 79.7461 68.2082 78.1677H57.9966C57.6423 78.1677 57.3524 77.91 57.3524 77.5234C57.3524 77.1691 57.6745 76.8791 57.9966 76.8791H68.015C74.1677 76.8791 76.5837 72.0794 76.8736 71.4351H55.0008H54.9686C53.6156 74.1088 51.4896 76.4281 48.7192 78.071C46.8508 79.1341 44.8214 79.8428 42.7598 80.1005C43.6295 81.6789 43.8872 84.6425 43.8872 87.1874C43.8872 88.5725 43.8228 90.0544 43.6295 91.3751H45.8522C49.75 91.3751 52.1338 89.4101 53.4546 87.8316Z" fill="url(#paint3_linear_1262_1979)"/>
<path d="M68.1088 42.4115C67.7544 41.3807 66.5303 39.8666 64.2432 39.6411H63.4056C63.2445 39.6734 63.0835 39.6734 62.8902 39.6734C59.8622 40.0277 40.5342 42.637 32.3842 43.7L24.2665 60.161C24.0732 60.5475 24.041 60.773 24.041 60.8375C24.1054 60.8697 24.2665 61.0307 24.5886 61.1918C24.943 61.3529 25.5228 61.5462 26.1671 61.6428C26.908 57.4551 29.3884 53.6217 33.3506 51.3346C35.6378 49.9816 38.1504 49.3695 40.6308 49.3373H40.7919C45.8494 49.3695 50.8102 52.011 53.5161 56.7464C54.8691 59.0335 55.4812 61.5784 55.5134 64.0588V64.2199C55.5134 65.5084 55.3201 66.8291 54.9657 68.0855H78.6103L75.0668 62.6092L68.1088 42.4115ZM37.2485 45.9227L59.4112 43.3135L59.8299 45.9227H37.2485ZM63.8566 42.3471C64.7264 42.186 65.9183 43.2168 66.5303 44.7308C67.1101 46.2126 66.8846 47.5656 65.9827 47.7267C65.9183 47.7267 65.8538 47.7267 65.7894 47.7267H65.725C64.8874 47.6945 63.8566 46.6958 63.309 45.3429C62.7291 43.8611 62.9546 42.5081 63.8566 42.3471ZM66.6592 61.9005C66.5947 61.9327 66.4981 61.9327 66.4337 61.9327C65.8538 61.9649 65.1773 61.3529 64.7908 60.4187C64.372 59.3879 64.5653 58.357 65.1773 58.1638C65.7894 57.9383 66.6269 58.6148 67.0457 59.6456C67.4645 60.6764 67.2712 61.7072 66.6592 61.9005ZM67.7544 55.8122L63.1479 51.5278L67.4967 53.5251L68.6564 51.1735L68.9141 55.78L67.7544 55.8122ZM72.1032 61.5462C72.0388 61.5784 71.9421 61.5784 71.8777 61.5784C71.3945 61.6428 70.7825 61.063 70.4603 60.2576C70.0738 59.3234 70.2348 58.4215 70.8147 58.2282C71.3623 58.0349 72.1032 58.6148 72.4575 59.5167C72.8441 60.4509 72.683 61.3207 72.1032 61.5462Z" fill="url(#paint4_linear_1262_1979)"/>
<path d="M41.5344 51.2056H39.8593C33.1267 51.6566 27.7793 57.2939 27.7793 64.1553C27.7793 71.0168 33.1589 76.6541 39.8271 77.1051H41.5666C48.2991 76.6541 53.6788 71.0168 53.6788 64.1553C53.6465 57.2939 48.2669 51.6566 41.5344 51.2056Z" fill="url(#paint5_radial_1262_1979)"/>
<path d="M34.125 54.1364C33.964 54.1686 33.6741 54.4908 33.2875 54.7163C32.2889 55.5538 31.9345 55.9082 30.6782 57.5832C30.5494 57.7765 29.9051 58.7751 29.8085 59.1939C30.1628 59.1617 30.6782 59.0006 30.8393 58.9362C32.8687 58.1309 34.1895 56.9712 34.125 54.1364ZM48.9109 65.0889L48.9431 62.8984C50.1995 62.8984 51.2303 62.5119 52.4222 61.5455C52.4544 61.2233 52.1 60.2569 51.939 59.7737C51.0048 57.4222 49.1686 55.1673 46.6882 53.6854C45.6896 53.9432 44.4655 55.5216 44.24 56.6491C44.0467 57.3255 44.0789 57.9054 44.0789 58.7751L42.275 59.0328C42.1139 58.8073 41.8562 58.4208 41.7274 58.3564C41.0831 57.551 39.9234 56.9068 38.5705 56.7457L38.5383 55.7793C38.8604 55.8115 39.3436 55.9082 39.7624 55.9082C41.9851 55.7471 43.177 54.6518 44.0145 53.17C44.3366 52.5902 43.789 52.4935 42.7582 52.3325C42.275 52.2681 41.7918 52.2036 41.373 52.1714H39.9879C38.957 52.2681 37.9584 52.4936 36.7343 52.9123C36.2833 53.0734 35.7035 53.2989 35.3491 53.5244C35.8001 54.6518 36.4766 55.0706 37.5074 55.6505L37.5719 56.8746C34.8015 57.2933 32.9009 59.6127 33.2231 62.7374L32.2889 62.8662C31.8379 62.1897 31.6768 61.8998 31.2581 61.5133C30.646 61.0301 30.2272 60.7079 29.2931 60.5469C28.6166 62.8018 28.4877 65.4111 29.2931 67.8593C29.4863 68.4069 29.9051 69.4699 30.0984 69.6632C31.9023 68.7935 32.9009 67.2794 32.8687 65.0567C32.8365 64.6702 32.7399 64.2192 32.6432 63.6716L33.4486 63.5427C33.9318 64.5735 34.3183 65.1212 34.9948 65.6688C35.4136 66.0231 35.8646 66.2486 36.38 66.4419L36.1223 68.117C35.2525 68.117 34.2861 68.278 33.5774 68.6002C32.1922 69.3411 30.9037 70.6296 30.9037 70.9517C31.1292 71.4994 32.2567 72.5946 32.6754 72.9812C34.0284 74.2053 35.4458 75.1395 37.2497 75.6227C38.3772 75.9448 39.0537 76.0414 39.408 76.0737H39.7301C40.3422 75.4294 40.761 73.8832 40.7288 72.7557L42.8548 72.4336C43.3058 73.11 43.9179 73.5932 44.1112 73.6899C44.7232 74.1409 46.1406 74.6885 46.656 74.5596C47.4613 74.1086 48.8465 73.0134 49.2975 72.5302C50.135 71.6604 51.2625 70.2753 51.7779 68.9223C51.7457 66.8929 50.1995 65.6688 48.9109 65.0889ZM47.719 64.8312C47.0426 64.6379 45.6896 64.8634 45.0453 65.1534C42.7582 66.1842 41.5985 68.2136 42.1139 71.145L40.3422 71.4672C40.0201 70.533 39.3114 69.631 38.6671 69.0834C38.2483 68.7612 37.9262 68.6002 37.1209 68.3103L37.3142 66.6996C37.5396 66.6996 37.7651 66.7318 37.9906 66.7318C38.3772 66.7318 38.7638 66.6674 39.1825 66.5707C40.6643 66.2486 42.7904 64.9923 43.0159 61.8998C43.0481 61.5133 42.9515 60.4824 42.7582 60.0959L44.4011 59.8382C45.2064 61.6421 46.0117 62.1897 47.7835 62.8662L47.719 64.8312Z" fill="url(#paint6_radial_1262_1979)"/>
<defs>
<linearGradient id="paint0_linear_1262_1979" x1="2.69466" y1="35.7152" x2="64.2982" y2="35.7152" gradientUnits="userSpaceOnUse">
<stop stop-color="#C3161C"/>
<stop offset="1" stop-color="#EC1C24"/>
</linearGradient>
<linearGradient id="paint1_linear_1262_1979" x1="4.4142" y1="82.8273" x2="41.4652" y2="82.8273" gradientUnits="userSpaceOnUse">
<stop stop-color="white"/>
<stop offset="1" stop-color="#A6A8AB"/>
</linearGradient>
<linearGradient id="paint2_linear_1262_1979" x1="27.8112" y1="89.6381" x2="37.5364" y2="89.6381" gradientUnits="userSpaceOnUse">
<stop stop-color="white"/>
<stop offset="1" stop-color="#A6A8AB"/>
</linearGradient>
<linearGradient id="paint3_linear_1262_1979" x1="42.7556" y1="81.4104" x2="76.8582" y2="81.4104" gradientUnits="userSpaceOnUse">
<stop stop-color="#A6A8AB"/>
<stop offset="1" stop-color="white"/>
</linearGradient>
<linearGradient id="paint4_linear_1262_1979" x1="24.0429" y1="53.8617" x2="78.5942" y2="53.8617" gradientUnits="userSpaceOnUse">
<stop stop-color="#00813D"/>
<stop offset="1" stop-color="#00A84F"/>
</linearGradient>
<radialGradient id="paint5_radial_1262_1979" cx="0" cy="0" r="1" gradientUnits="userSpaceOnUse" gradientTransform="translate(40.6929 64.1665) scale(12.9293 12.9293)">
<stop stop-color="#58595B"/>
<stop offset="1" stop-color="#231F20"/>
</radialGradient>
<radialGradient id="paint6_radial_1262_1979" cx="0" cy="0" r="1" gradientUnits="userSpaceOnUse" gradientTransform="translate(40.659 64.1333) scale(11.965 11.965)">
<stop stop-color="white"/>
<stop offset="1" stop-color="#D0D2D3"/>
</radialGradient>
</defs>
</svg>
