<svg width="121" height="111" viewBox="0 0 121 111" fill="none" xmlns="http://www.w3.org/2000/svg">
<path d="M38.789 20.1258C44.3756 10.1747 57.1013 9.18283 63.9835 10.2672C65.3011 5.98071 62.9016 4.55642 61.8346 3.68294C60.6401 2.70516 61.0734 1.2657 61.3966 0.885903C59.942 1.68355 59.9283 3.83436 61.8346 7.40502C62.4999 8.65127 61.6391 8.8654 61.3966 8.88437C61.3966 3.98517 58.2324 3.59939 55.3231 2.51696C52.9956 1.65102 52.7199 0.53683 53.4876 0.289939C52.5179 0.44188 51.264 1.40039 54.0764 3.36015C57.5918 5.80986 58.0161 6.37956 58.501 7.91743C58.8889 9.14772 58.3394 9.26578 58.0161 9.17103C58.804 5.46792 53.9493 4.10076 51.5855 3.36015C49.6944 2.76767 49.1941 1.70803 49.4163 1.25227C48.2041 3.645 52.5611 5.18319 54.0764 5.98071C55.1589 6.55046 53.4113 6.86568 52.441 6.1207C50.6643 4.75658 48.0496 3.4127 47.3807 2.70516C46.6049 1.88457 46.6414 0.544877 47.1061 0.0702972C44.4392 1.66546 45.7435 4.09805 46.7133 5.46542C47.683 6.83279 49.5305 8.54414 49.0457 9.17103C48.5608 9.79792 47.8267 7.28502 44.978 4.49349C42.699 2.26027 39.392 2.54334 38.6041 2.90411C41.6104 3.45102 42.5085 6.40686 45.7121 10.4218C43.2877 10.7496 43.9543 9.45562 41.1056 7.91743C38.2569 6.37924 35.6803 6.61943 33.4983 8.10065C31.7527 9.28562 26.9096 11.4831 25.5559 12.0528C34.2992 9.73171 39.3581 12.3801 40.7419 14.0702C39.2226 13.4815 34.756 12.3497 29.044 12.532C23.3321 12.7143 22.0172 16.33 22.0738 18.1151C22.6193 15.5514 28.2561 15.4945 30.2562 15.7224C31.8564 15.9047 36.2971 16.406 38.3175 16.6339C35.3003 17.5733 25.4074 15.9502 23.9941 18.1151C22.8635 19.847 25.0843 21.3226 26.563 21.6029L25.9529 21.1915C24.4982 20.28 25.2512 18.1672 28.0011 19.7997C31.7732 22.039 34.3091 19.8095 36.184 19.2208C33.1679 24.0063 25.7434 22.8435 22.4081 21.5046C19.8709 20.8232 18.4812 23.5394 18.1035 24.9826C19.7347 22.1434 21.6529 23.5339 22.4081 24.5276C24.0997 27.0829 30.2562 27.4618 31.9233 24.9826C30.5944 28.9575 26.8719 28.8912 23.9941 26.8755C24.2962 30.3961 30.2562 31.22 31.9233 29.5254C30.413 32.5349 26.9377 31.5791 25.2512 30.7747C26.6587 32.1732 27.971 32.9554 29.1642 33.2991C35.0517 34.9952 35.7897 25.4684 38.789 20.1258Z" fill="black"/>
<path d="M60.9306 18.3952C61.6121 17.6906 61.4988 15.539 61.3569 14.5513C63.8788 14.5513 64.7363 13.3236 64.8498 12.7097C64.4742 9.38124 66.397 7.38939 68.0497 6.44501C68.6322 6.11216 69.2799 6.57972 69.2799 7.25061V14.5513C69.6888 11.4762 73.71 11.1347 75.6695 11.3483C73.0285 11.6686 71.069 17.4342 71.495 19.5963C71.921 21.7584 71.6654 23.6802 71.069 24.481C70.4726 25.2818 70.3022 30.5669 70.1319 33.9301C69.9615 37.2933 66.6389 37.5336 64.8498 37.4535C63.0607 37.3734 62.8051 33.3696 62.7199 31.5278C62.6517 30.0544 60.6468 27.4438 59.6529 26.3228C55.9895 21.4381 60.0789 19.276 60.9306 18.3952Z" fill="black"/>
<path d="M64.2835 11.1755C62.1725 12.6874 56.2617 16.8073 54.3314 19.2262L61.2603 13.8862C61.1932 15.0516 60.3831 18.0356 58.4529 18.5648C56.5228 19.0939 55.5711 20.0451 55.3365 20.4546C54.9344 23.2578 54.5122 29.2989 56.0402 31.0375C57.9503 33.2108 62.5743 34.7227 63.0771 39.4472C63.5799 44.1718 61.7018 47.1162 57.5802 47.3052C53.7919 47.4789 51.6748 45.165 51.7476 44.1293C51.4569 45.4831 52.3894 48.2863 56.0402 49.1551C60.6555 50.2535 64.9609 47.3052 64.2837 43.2269C66.8975 47.6679 73.921 55.806 77.2734 56.2561C82.2745 56.9277 87.8076 55.0382 91.4267 59.4793C95.0458 63.9203 96.3527 69.1173 97.0564 73.9363C97.4703 76.771 99.3799 79.1806 101.353 80.8959C103.589 82.84 107.366 85.5414 105.099 87.4485C103.189 89.0548 99.9717 93.9684 100.575 95.1022C101.178 96.2361 102.485 97.2755 101.078 98.3149C99.6701 99.3543 98.9664 99.8268 99.268 101.244C99.5696 102.661 98.2627 102.473 98.3633 103.323C98.4638 104.173 98.9664 105.685 98.3633 106.063C97.9606 106.315 94.8697 106.585 92.6308 106.741C92.0053 106.784 91.505 106.243 91.6657 105.637C92.204 103.608 93.5858 100.655 96.3527 99.3543C95.984 99.2913 95.1865 98.9953 94.9452 98.3149C94.6437 97.4645 98.5643 90.9446 99.268 89.5273C99.9717 88.1099 99.6313 86.8295 98.7265 85.9791C97.9141 85.2154 85.1367 80.913 81.8091 76.8274C81.224 76.109 80.4225 75.4437 79.4966 75.4133C70.1074 75.105 52.809 72.8536 47.7968 65.7156C46.8134 64.7759 45.4597 63.1596 44.5496 61.3287C42.7376 57.6835 45.5319 53.9069 48.7019 51.3531C50.1093 50.2192 51.0141 46.0616 48.7019 43.8883C47.1278 42.4088 43.2582 37.5856 40.7356 34.3563C40.2365 33.7174 39.2227 33.9017 38.9829 34.6762L37.3554 39.9322C35.3443 28.5303 39.1102 7.32024 64.2835 11.1755Z" fill="black"/>
<path d="M54.9746 15.892L55.3209 12.2598L59.3581 11.8262L54.9746 15.892Z" fill="white"/>
<path d="M56.5373 57.1996C53.4854 56.2728 54.2836 51.9479 57.4149 50.1479C51.2375 51.0328 50.4934 57.648 54.8469 59.362C59.2005 61.0761 62.6374 57.0456 60.1526 55.0813C58.2917 53.6102 56.8707 55.1048 56.5373 56.008C58.1843 55.0251 58.7703 57.8777 56.5373 57.1996Z" fill="white"/>
<path d="M66.2527 68.6129C64.5524 66.5955 61.1107 68.4875 60.5144 71.3792C59.4219 66.4709 64.8287 63.9353 67.5878 66.6962C70.3469 69.457 67.9439 73.2448 65.5301 71.9636C63.7224 71.0041 64.5697 69.4893 65.2388 68.9688C64.8943 70.5006 67.4968 70.089 66.2527 68.6129Z" fill="white"/>
<path d="M93.6418 77.2295C93.757 75.3019 90.8239 74.752 88.9572 76.0949C90.9453 72.8303 95.3216 73.9391 95.4063 76.7794C95.491 79.6196 92.136 80.6194 91.461 78.7707C90.9554 77.3862 92.2334 76.9332 92.8844 76.9545C91.8795 77.6525 93.5574 78.6399 93.6418 77.2295Z" fill="white"/>
<path d="M63.5385 52.7628C60.3129 50.3627 57.6648 52.0132 56.8809 53.0132C65.0116 51.6869 67.9964 58.6713 68.4725 62.3294C68.2205 59.4082 67.5705 55.7629 63.5385 52.7628Z" fill="white"/>
<path d="M70.3608 59.2102C70.2088 62.4003 71.5613 69.8374 78.1872 74.0655C74.4892 72.8275 67.7468 68.1234 70.3608 59.2102Z" fill="white"/>
<path d="M31.4428 39.7924C35.1508 40.0244 36.0761 34.5117 35.8711 31.4669C33.657 38.1729 30.3529 37.1389 29.7554 36.4368C28.8576 35.382 30.1625 34.4022 31.1671 34.3252C30.5315 33.9398 29.3392 33.6638 28.5519 34.5888C27.5678 35.745 27.7346 39.5605 31.4428 39.7924Z" fill="black"/>
<path d="M80.2283 76.8885C72.6959 77.5758 66.973 75.7429 65.0531 74.7405C65.8739 76.1056 64.982 79.4054 64.2131 81.4979C63.9946 82.0928 63.8047 82.7137 63.8783 83.3432C64.2234 86.295 67.432 87.5487 70.6886 87.9695C73.8626 88.3797 78.579 89.2413 76.9304 91.9844C75.8152 93.8398 73.2567 95.6535 72.275 96.4791C70.5382 97.9398 71.4523 99.1427 72.275 100.432C73.0598 101.661 71.4523 103.292 71.4523 104.75V109.402C71.4523 110.071 72.0993 110.552 72.7169 110.296C76.8001 108.602 77.4857 105.598 77.4857 104.814C77.4857 103.485 75.5977 102.626 75.9522 101.346C76.0556 100.973 76.2473 100.643 76.5716 100.432C77.7599 99.6582 77.6685 99.7442 77.4857 96.4791C77.3029 93.214 84.2504 91.1518 85.0731 89.5193C85.8959 87.8867 83.8847 87.3712 79.4968 84.5357C75.9865 82.2673 78.5219 78.4924 80.2283 76.8885Z" fill="black"/>
<path d="M42.3381 61.3985C41.7806 59.2295 40.8029 57.394 39.9711 56.1764C39.488 55.4693 38.658 55.1338 37.8091 55.0205C33.4453 54.438 30.3471 51.2126 30.0595 50.8747C29.7433 50.503 25.8693 49.0168 24.6043 50.8747C22.9114 53.3609 26.4668 55.9621 28.4635 58.2116C32.2056 62.4277 36.5791 69.0009 37.1754 70.1217C37.8079 71.3107 38.7565 71.0135 39.1518 70.7162L42.5117 73.1335C44.2238 74.3652 46.389 73.7763 45.9829 71.7066C45.6815 70.171 44.989 68.592 44.2119 67.6694C43.0102 66.2426 40.3378 66.5795 39.1518 66.9263C39.5735 66.2327 39.9109 64.6524 37.8869 63.8794C35.8629 63.1065 34.3027 59.2968 33.7756 57.4885C35.2709 60.6237 37.5389 62.5521 39.5336 63.6509C41.1405 64.536 42.7949 63.1753 42.3381 61.3985Z" fill="black"/>
<path d="M5.21293 49.8523L3.40314 51.7019C1.84841 53.2908 2.09486 55.2006 4.30705 55.42C6.56976 55.6445 9.25862 55.579 10.3095 55.2234C11.7985 54.7195 11.2277 52.1208 10.7562 50.8845H12.9154C14.1067 50.8845 14.4045 49.6948 14.9257 48.5751C15.4469 47.4554 20.2119 44.5862 23.6368 44.7261C27.0617 44.8661 32.1649 49.2449 37.2277 52.3241C42.2906 55.4032 45.7826 52.9281 47.3589 50.8845C49.1402 48.5751 47.7238 44.6851 46.3569 43.0108C45.2958 41.7112 42.8845 37.2828 40.2786 36.9329C37.6727 36.583 38.1129 40.3254 39.902 40.4596C40.7521 40.5234 41.1414 39.7539 41.1662 39.474C39.5695 40.4575 39.3772 38.4202 40.0928 38.3081C42.7326 37.8946 40.6161 42.6529 38.073 43.4729C32.6048 45.2361 26.1041 40.1169 25.1259 39.1974C24.1729 38.3017 23.3886 38.5443 23.1156 38.7776C20.1016 42.0409 16.1325 44.1193 12.8989 45.3146C10.081 46.3561 7.31398 47.705 5.21293 49.8523Z" fill="black"/>
<path d="M97.0601 53.3564C93.6375 55.5566 90.7975 56.6921 89.5449 56.8148C103.388 59.8847 102.834 67.022 102.221 68.2635C101.607 69.505 99.8147 69.0616 99.7675 67.9531C99.7297 67.0663 100.852 67.5836 101.419 67.9531C101.172 67.3459 100.768 66.7591 100.13 66.6082C97.8906 66.0781 96.1041 69.128 98.7856 71.2602C101.419 73.3538 104.018 71.5099 105.223 70.2066C104.649 70.9913 103.578 73.3369 103.897 76.4422C104.295 80.3237 108.673 81.7424 111.061 83.1765C112.972 84.3239 112.83 87.0633 112.521 88.2896C117.616 83.9497 116.001 78.583 114.491 76.4422C116.484 77.2121 119.461 77.3148 120.089 74.902C120.582 73.0085 118.926 72.5611 118.039 72.5606C119.324 73.4133 118.228 74.2911 116.976 73.8496C115.723 73.4081 115.534 66.38 114.36 58.4334C113.186 50.4869 101.181 50.7072 97.0601 53.3564Z" fill="black"/>
<path d="M49.7137 62.8498C44.9114 57.0219 48.9792 52.0894 51.6134 50.3516C47.3582 54.8083 48.9793 58.3029 50.3217 59.4932L49.7137 62.8498Z" fill="white"/>
<path d="M77.9477 64.1662C77.4682 66.3747 77.3148 71.4541 80.5372 74.1044C78.3314 72.7523 74.7253 68.8719 77.9477 64.1662Z" fill="white"/>
<path d="M75.5742 65.7886C76.5333 63.9632 80.1317 60.1095 84.4935 60.1095C81.88 59.8391 76.8623 60.3997 75.5742 65.7886Z" fill="white"/>
<path d="M65.9348 60.3229L64.6716 58.153C64.2773 57.4757 63.2926 57.4946 62.9245 58.1864L61.7701 60.3563C61.4158 61.0224 61.8985 61.826 62.653 61.826H65.0706C65.842 61.826 66.3229 60.9896 65.9348 60.3229Z" fill="white"/>
<path d="M80.2227 57.1014C83.4647 56.7514 90.8688 57.8922 94.5489 65.255C92.1831 62.8665 86.0057 57.8919 80.2227 57.1014Z" fill="white"/>
<path d="M82.6226 63.5139C82.0268 62.6736 80.1802 63.5173 80.1077 64.3337C79.7835 63.7047 81.0081 61.4062 86.9995 62.1303C92.9908 62.8544 95.1548 70.214 95.6824 73.6282C94.4698 72.2953 92.8 71.4107 91.6767 71.4107C91.2202 65.9398 88.1881 64.1169 84.8784 64.5642C81.5687 65.0116 82.1393 68.1574 84.0034 69.0871C85.8675 70.0168 87.3758 67.8742 86.2726 67.0161C85.39 66.3295 84.6127 67.1758 84.6635 67.9863C83.7124 67.2712 83.9316 65.8461 85.7261 65.8461C87.8513 65.8461 88.7317 69.299 86.06 70.6972C82.3176 72.6559 79.5935 68.4546 79.1074 66.4453C81.7891 66.9354 83.3673 64.5642 82.6226 63.5139Z" fill="white"/>
<path d="M57.8723 67.0199L58.1136 70.8077C55.056 69.2891 51.4016 64.5582 54.4154 62.1677C56.7641 60.3046 58.72 62.7302 58.5262 63.5501C58.3865 64.1411 57.8723 65.0347 56.529 64.4965C56.9579 64.3705 57.6492 64.064 57.6171 63.5501C57.5769 62.9076 55.3051 62.1535 55.3051 64.4965C55.3051 66.371 57.0414 67.0072 57.8723 67.0199Z" fill="white"/>
<path d="M85.1012 74.789C85.5749 74.9602 85.8176 75.4853 85.6409 75.957C85.3774 76.6609 84.4204 76.7551 84.0246 76.1162C83.5729 75.3871 84.2946 74.4974 85.1012 74.789Z" fill="white"/>
<path d="M72.4867 74.095C71.9038 74.0731 71.3341 74.0143 70.8158 73.9391C70.0135 73.8226 69.8015 72.8496 70.4347 72.3431L70.989 71.8997C71.3717 71.5936 71.9198 71.6099 72.2836 71.9382L73.0138 72.597C73.635 73.1576 73.3229 74.1265 72.4867 74.095Z" fill="white"/>
<path d="M100.541 81.6473C99.3174 80.9397 98.0182 78.5021 97.5215 77.3718C97.5215 79.0228 97.9658 81.426 98.188 82.4212C98.7211 82.5096 99.9786 81.9421 100.541 81.6473Z" fill="white"/>
<path d="M50.7908 25.1265L50.129 25.692C49.7417 26.023 49.6683 26.5921 49.9365 27.0252C54.1977 33.9068 52.1938 39.653 49.1893 39.653C46.0759 39.653 48.1593 32.6628 49.4487 32.6115C50.7381 32.5602 50.8244 35.7741 49.4487 35.9731C48.8983 36.0527 48.8575 34.9208 48.869 34.4076C48.6506 36.3063 48.9499 36.9265 50.0628 36.5673C51.1756 36.2081 51.8519 33.0432 50.3603 31.6817C49.1225 30.5519 47.529 32.0468 46.7612 34.717C45.9935 37.3871 45.9091 41.4171 49.4485 41.4171C53.3644 41.4171 53.9043 33.8844 53.4367 31.0184C53.1528 29.2779 52.731 27.1986 52.3644 25.6278C52.1983 24.916 51.3465 24.6517 50.7908 25.1265Z" fill="white"/>
<path d="M64.8965 46.5154C66.0838 47.5739 68.4094 50.5566 68.2129 54.02C67.8035 52.3074 66.567 48.4088 64.8965 46.5154Z" fill="white"/>
<path d="M71.3262 53.3862C72.2214 54.6737 73.7515 58.0805 72.7095 61.4077C72.7318 59.6525 72.4864 55.5909 71.3262 53.3862Z" fill="white"/>
<path d="M69.4824 53.0338C70.3777 54.3213 71.9077 57.7282 70.8657 61.0554C70.8881 59.3002 70.6427 55.2385 69.4824 53.0338Z" fill="white"/>
<path d="M59.4785 48.8711C61.0714 48.1041 64.6883 47.7862 66.4135 52.6506C65.7143 51.3907 63.3484 48.8711 59.4785 48.8711Z" fill="white"/>
<path d="M45.3163 37.8058V35.1763L43.8594 35.9433L45.3163 37.8058Z" fill="white"/>
<path d="M61.6431 37.9999C60.874 35.1994 57.5545 34.3181 55.5146 33.8068L55.2232 36.1076C63.1492 36.3268 61.0456 42.1965 58.936 42.9486C57.0033 43.6377 54.6404 41.202 55.5146 38.9561C56.3888 36.7102 59.4833 38.8466 58.5665 40.4742C58.1469 41.2192 56.8219 40.7846 56.6083 40.4742C57.0447 43.1195 60.1529 41.8495 59.4536 39.2749C58.7542 36.7003 55.8684 37.1476 55.2235 37.9999C54.444 39.03 54.1945 43.3941 57.663 44.2477C61.2336 45.1264 62.5953 41.4668 61.6431 37.9999Z" fill="white"/>
<path d="M108.484 64.3583C108.167 59.4369 101.351 58.4946 98.2773 58.7742C107.698 60.079 107.468 65.7539 106.21 70.1455C105.655 72.0842 105.979 75.1786 106.21 76.4835C106.012 75.1786 108.881 70.5099 108.484 64.3583Z" fill="white"/>
<path d="M110.016 77.856C107.836 76.8055 108.562 73.6377 108.663 72.2692C106.964 76.5462 108.091 78.9321 109.425 79.5602C111.381 80.4812 112.772 81.609 113.48 82.1412C113.116 80.0313 112.312 78.962 110.016 77.856Z" fill="white"/>
<path d="M107.613 56.1027C103.64 53.6127 97.3634 55.6375 95.0332 56.9343C104.323 53.9948 107.074 57.4166 108.092 58.5558C111.598 62.4808 109.553 69.359 109.29 71.286C108.716 75.4858 111.041 76.4442 112.477 77.8867C115.11 80.533 114.84 81.4013 114.901 82.6981C115.913 80.1044 114.028 76.9277 112.477 75.4858C110.481 73.6316 112.548 68.2593 112.79 65.9152C113.103 62.8733 112.58 59.215 107.613 56.1027Z" fill="white"/>
<path d="M101.662 53.3452C105.326 53.0202 112.584 52.8246 113.206 62.7015C112.792 59.5827 109.902 53.3452 101.662 53.3452Z" fill="white"/>
<path d="M114.535 65.7068C114.22 67.4701 113.911 71.405 115.204 73.039C114.034 72.6724 112.262 70.6927 114.535 65.7068Z" fill="white"/>
<path d="M101.01 61.2589C102.67 62.9649 105.26 66.9761 102.338 69.3729C104.241 68.4574 106.641 65.553 101.01 61.2589Z" fill="white"/>
<path d="M44.546 24.8099L43.0609 23.1281C41.2256 26.5221 41.7613 32.3864 44.9949 32.3864C47.7708 32.3864 48.8279 27.2995 46.2628 26.8077C44.5808 26.4852 44.4671 27.9813 44.546 28.8159C44.546 27.7031 45.6546 27.9685 45.8893 28.2696C46.1867 28.6511 46.4404 30.742 44.546 30.4081C43.0305 30.1411 43.0189 25.7394 44.546 24.8099Z" fill="white"/>
<path d="M46.803 17.8833C46.6345 18.2575 46.8309 18.6948 47.2225 18.8175C47.8941 19.0279 48.4079 18.2097 47.9266 17.6962C47.5926 17.3398 47.0035 17.4379 46.803 17.8833Z" fill="white"/>
<path d="M50.9043 14.7124L49.1331 15.801C52.0819 19.6211 48.8982 22.9329 47.9127 23.0055C45.9284 23.1517 45.7341 21.1112 46.7743 20.3813C47.649 19.7676 47.7155 21.1181 47.5508 21.472C47.4191 21.755 46.892 21.5383 46.7743 21.2508C47.0439 22.1881 48.1299 23.0195 48.3979 21.0518C48.7329 18.5921 46.1609 19.0364 45.6756 19.6211C44.4883 21.0518 45.2351 24.5406 47.9123 23.9943C52.0872 23.1423 51.3885 17.772 50.9043 14.7124Z" fill="white"/>
<path d="M77.0053 57.4387C74.5358 56.9015 74.2678 59.628 74.2676 60.7222C76.5657 56.3535 77.2574 60.0717 76.5021 60.8997C75.8812 61.5802 75.6369 60.7262 75.4629 60.0717C75.3062 60.6934 75.3292 61.7328 76.0296 61.9934C77.1428 62.4075 80.4045 58.1781 77.0053 57.4387Z" fill="white"/>
<path d="M46.3697 57.5062C46.3697 59.6262 47.4089 64.3658 51.5653 66.3645C49.2293 65.6264 44.9197 62.8213 46.3697 57.5062Z" fill="white"/>
<path d="M79.3066 59.8317C79.7594 59.1509 79.4953 58.3776 79.3066 58.076L81.7403 58.9805L79.3066 59.8317Z" fill="white"/>
<path d="M95.7881 79.7654C94.2415 81.2645 92.5258 80.8444 91.8613 80.4469C92.6829 82.355 95.1438 82.5668 96.2715 82.4342L95.7881 79.7654Z" fill="white"/>
<path d="M96.4022 96.0128C97.0188 95.5531 98.1249 93.6691 99.0781 91.8736C99.5178 91.0455 100.42 91.2491 100.043 92.1073C99.2673 93.8687 97.5444 95.3081 96.4022 96.0128C96.3558 96.0474 96.3121 96.0739 96.2715 96.0917C96.3141 96.0665 96.3577 96.0402 96.4022 96.0128Z" fill="white"/>
<path d="M72.9414 109.199V105.041C73.7228 106.51 75.642 106.157 76.504 105.797C75.4007 107.784 73.6692 108.893 72.9414 109.199Z" fill="white"/>
<path d="M72.6934 97.181C74.5549 95.938 78.3513 92.927 78.6451 90.8274C79.2329 92.1395 78.8655 95.2471 72.6934 97.181Z" fill="white"/>
<path d="M78.326 88.0276C78.6141 88.3091 79.0742 88.3091 79.3623 88.0276C79.8375 87.5631 79.5086 86.7563 78.8441 86.7563C78.1797 86.7563 77.8508 87.5631 78.326 88.0276Z" fill="white"/>
<path d="M67.758 85.5941C65.9628 84.0746 65.7676 81.4866 66.729 79.7352C65.9001 84.0643 70.2604 85.8438 71.641 84.9615C73.0215 84.0791 71.382 82.1846 70.1119 82.5661C69.0958 82.8712 70.1837 83.6205 71.0304 84.0643C69.7412 84.4824 67.5828 82.9185 68.7218 81.9128C70.2509 80.5626 72.9891 82.0481 73.9578 84.0643C75.1542 86.5544 69.8667 87.379 67.758 85.5941Z" fill="white"/>
<path d="M72.4043 103.752C73.3269 102.817 75.1315 101.766 74.9696 105.041C74.8121 104.182 74.0785 102.721 72.4043 103.752Z" fill="white"/>
<path d="M76.2279 80.3763C76.4773 80.8787 76.6061 81.3599 76.6421 81.8291C76.7087 82.6972 75.5439 82.7836 74.8952 82.2028C73.9482 81.3549 72.6803 80.8888 70.97 80.5359C68.2984 79.9847 69.3694 76.8511 71.2591 76.9736C72.7709 77.0716 72.8902 78.0964 72.521 78.566C72.8042 77.3251 69.6239 77.9172 70.97 79.1176C71.8546 79.9064 73.3433 80.008 74.3957 79.8112C75.0311 79.6924 75.9404 79.7974 76.2279 80.3763Z" fill="white"/>
<path d="M99.2344 82.8069V84.5143C100.563 83.265 103.355 83.7061 103.444 84.8304C103.532 85.9547 102.58 86.3834 102.114 86.233C101.05 85.8891 101.474 84.9198 101.76 84.5143C101.095 84.9168 100.138 86.0586 101.556 86.8581C102.843 87.5837 105.038 86.388 104.196 84.2227C103.523 82.4904 100.608 82.5571 99.2344 82.8069Z" fill="white"/>
<path d="M41.2676 67.894C42.1831 67.6481 44.1241 68.248 44.5635 72.6144C43.7002 72.221 41.8324 70.7262 41.2676 67.894Z" fill="white"/>
<path d="M27.709 51.4949C29.6682 51.8239 33.6705 54.6718 34.0063 63.432C33.3067 60.6696 31.0676 54.4149 27.709 51.4949Z" fill="white"/>
<path d="M37.2936 55.8595C39.1937 55.3239 39.9865 58.0179 39.9866 59.6269C39.4568 57.4516 38.3098 56.9355 37.7586 57.8773C37.2074 58.8191 38.4379 61.5664 41.1138 62.6286C37.4815 61.7457 34.4974 56.6476 37.2936 55.8595Z" fill="white"/>
<path d="M9.65144 53.2167H4.65039C4.65039 53.5728 5.02928 54.3418 6.54483 54.5698C8.06039 54.7977 9.24738 53.7627 9.65144 53.2167Z" fill="white"/>
<path d="M31.8629 44.4981C33.3511 44.6018 33.7278 45.8871 33.4438 47.0683C32.6029 45.2679 31.7168 47.7272 33.6613 48.1367C35.0583 48.4309 36.0574 47.375 36.191 46.7471C36.3564 45.9699 35.8554 44.9743 35.5109 44.7368L44.606 44.961C48.7401 46.1915 46.7362 51.2759 43.5036 52.039C39.3005 53.0312 38.267 48.7522 39.3005 47.0683C40.3341 45.3844 42.7457 46.0554 43.5036 47.7393C43.9862 48.8115 43.0326 49.6683 42.2179 49.8536C42.0762 49.9108 41.8989 49.921 41.6821 49.866C41.6696 49.863 41.6573 49.8597 41.6452 49.8561C41.6576 49.8596 41.6699 49.8629 41.6821 49.866C41.8388 49.9038 42.0244 49.8977 42.2179 49.8536C42.9509 49.5582 42.732 48.0083 42.1026 47.7393C41.3447 47.4154 40.4719 47.964 40.4719 49.1946C40.4719 50.4252 41.7795 50.7835 42.5952 50.6168C44.18 50.293 44.9505 48.7658 44.606 47.2763C44.2615 45.7867 42.3841 45.5564 40.4719 45.5564C38.8856 45.5564 38.1027 47.1512 37.0003 49.0292C35.8978 50.9072 34.3476 49.1407 32.0737 48.1045C29.7998 47.0682 30.0026 44.3686 31.8629 44.4981Z" fill="white"/>
<path d="M14.9648 47.7204C15.2982 46.519 17.082 43.881 21.5507 42.9406C19.6889 43.907 15.7652 46.2159 14.9648 47.7204Z" fill="white"/>
<path d="M7.4499 51.6926C6.9274 51.2771 8.44066 50.4986 9.21103 50.2153C6.90001 49.1764 4.57745 51.6244 6.88846 52.5216C7.94072 52.9301 9.21107 51.9625 9.21103 51.2542C8.87608 51.5375 7.9724 52.1082 7.4499 51.6926Z" fill="white"/>
<path d="M10.5254 47.4476L10.9842 49.4812C10.9842 48.3964 12.5578 47.6735 13.3446 47.4476H10.5254Z" fill="white"/>
<path d="M23.745 40.3933C21.4674 40.6163 21.79 42.3715 22.5214 43.1705C22.2685 42.7429 22.045 41.9506 23.174 41.4605C24.303 40.9704 26.4914 43.6353 27.4445 45.1217L27.4356 45.0911C26.9582 43.4454 26.0083 40.1717 23.745 40.3933Z" fill="white"/>
<path d="M75.9561 96.8925C74.302 96.5524 74.0178 98.2488 74.0825 99.1395C74.3194 98.45 74.8035 97.5848 75.6719 98.1383C76.5402 98.6918 75.5685 100.355 74.7931 100.779C77.7744 100.041 78.0238 97.3176 75.9561 96.8925Z" fill="white"/>
<path d="M80.45 88.0148C81.7315 86.7748 82.5609 88.3798 82.6394 89.2802C81.8385 88.0403 81.1024 88.4831 81.1024 89.2802C81.1024 90.0774 82.6676 90.5164 83.2518 89.8026C83.8852 89.0288 83.7433 87.4544 82.6394 86.7563C83.8172 87.1105 85.3358 89.4647 83.252 90.6032C81.1029 91.7773 78.8481 89.5647 80.45 88.0148Z" fill="white"/>
<path d="M13.992 47.8453C13.9602 47.1409 14.2887 45.7141 15.8574 45.6423C14.837 45.4475 13.0354 45.6155 13.992 47.8453Z" fill="white"/>
<path d="M97.5942 102.491C97.2951 103.447 95.6169 103.587 95.4267 102.491C96.7183 103.414 96.9203 102.206 96.7183 101.861C96.4559 101.413 94.8324 100.91 94.5233 103.089C94.3056 104.624 96.2538 104.709 97.5942 104.388C96.5179 105.568 93.9567 105.723 92.8106 105.653C92.7359 105.278 92.9303 104.023 94.3056 102C96.0247 99.4706 97.968 101.297 97.5942 102.491Z" fill="white"/>
<path d="M99.0113 95.6396C100.872 94.8494 100.533 96.6276 100.131 97.6155C100.562 94.7928 98.5074 96.862 98.318 97.1519C97.7435 98.0307 98.8347 98.0143 99.3946 97.9673C96.6378 99.0963 96.6856 96.6274 99.0113 95.6396Z" fill="white"/>
<path d="M37.7978 65.5641C34.9773 64.8802 36.1124 64.6237 37.0087 64.4242C33.2801 64.2248 36.1706 66.0213 37.7978 66.8193V65.5641Z" fill="white"/>
<path d="M32.8184 54.1016C34.0058 54.1945 36.2381 55.0612 35.668 57.7844C35.5889 56.966 34.9083 55.0837 32.8184 54.1016Z" fill="white"/>
<path d="M26.2398 54.983C24.2423 54.4656 24.6378 51.7058 25.7773 51.1489C24.6167 55.079 27.2326 54.4525 27.2508 53.5928C27.0369 53.3559 26.7871 53.1599 26.5827 53.0732C26.3997 53.165 26.2805 53.4232 26.2398 53.6334C26.0759 53.0566 26.2792 52.9444 26.5827 53.0732C26.7188 53.0049 26.8901 53.0286 27.0906 53.2324C27.2056 53.3493 27.2533 53.4733 27.2508 53.5928C27.7509 54.1471 28.0543 54.9257 27.1191 55.056C26.8724 55.0904 26.5814 55.0714 26.2398 54.983Z" fill="white"/>
<path d="M68.1086 77.0624C68.1777 76.7462 67.9369 76.447 67.6132 76.447C67.3069 76.447 67.0705 76.7164 67.1103 77.0201C67.1842 77.5836 67.9872 77.6177 68.1086 77.0624Z" fill="white"/>
<path d="M62.2148 28.3956C62.215 29.498 63.8764 29.9574 64.7072 30.0492C62.8011 29.1536 62.862 27.2932 64.3551 27.4954C66.1733 27.7418 64.7072 31.0382 64.7072 33.7944C64.7072 36.5505 66.209 37.067 68.006 36.1521C69.3596 35.4629 69.5211 33.4714 69.1057 32.5986C69.179 33.2646 69.1478 34.9161 68.006 35.2858C66.5265 35.765 66.0267 35.0791 66.1733 32.5986C66.32 30.118 66.3938 27.9673 65.4408 27.0026C64.4878 26.038 62.2147 27.0174 62.2148 28.3956Z" fill="white"/>
<path d="M63.8157 19.8205C62.3543 19.3842 61.1386 19.5084 60.8397 19.6467C65.3966 19.6467 64.698 22.8306 63.4462 24.1956C62.1945 25.5605 60.4342 23.5892 61.5858 22.672C62.5071 21.9383 62.8593 23.122 62.8927 23.7885C63.2432 20.8233 61.0083 21.5625 60.4893 22.3295C59.5019 23.7885 60.8923 26.2363 63.4462 25.4363C66.4514 24.4948 66.1061 20.5042 63.8157 19.8205Z" fill="white"/>
<path d="M68.2858 22.8801C68.8253 24.4435 68.1533 25.5656 67.7037 26.0588C68.3876 25.1343 68.2233 23.6279 67.7037 22.8801C67.0812 21.9842 65.9174 21.7437 65.9174 22.8801C65.9174 23.7332 66.7966 25.3202 68.0968 27.5731C68.8656 28.9052 68.3781 30.4977 68.0968 31.4485C67.8717 32.2091 66.9057 34.1163 66.8685 34.4156C66.8685 34.2395 67.2708 32.5022 67.3517 31.4485C67.5771 28.5116 66.9167 27.2664 65.6243 25.6817C64.3319 24.097 64.8937 21.9839 65.6243 21.35C66.3549 20.7161 67.6114 20.9257 68.2858 22.8801Z" fill="white"/>
<path d="M63.4283 14.3423C62.4179 15.4667 62.3897 17.5124 64.4085 18.7201C63.9368 17.8328 62.5655 15.4945 63.4283 14.3423Z" fill="white"/>
<path d="M69.3811 31.5278V17.0119C70.2214 17.0119 70.5417 17.892 70.5968 18.332C70.7145 15.8978 69.8316 15.5105 68.5073 15.6488C67.183 15.7871 65.3332 17.4125 65.0642 16.5079C64.7952 15.6034 67.1222 14.1805 67.8893 13.9075C66.391 13.4741 63.814 15.5438 64.2403 17.0118C64.5939 18.2295 66.1539 18.2034 67.3064 17.3909C68.2285 16.741 68.6895 16.8674 68.8048 17.0119L69.3811 31.5278Z" fill="white"/>
</svg>
