<svg width="82" height="99" viewBox="0 0 82 99" fill="none" xmlns="http://www.w3.org/2000/svg">
<path fill-rule="evenodd" clip-rule="evenodd" d="M66.0573 58.8893C65.7008 73.0634 59.6638 84.1658 46.3406 88.344C42.8611 89.4169 39.105 89.1013 35.3533 88.1667C42.7344 78.7505 47.9199 63.9973 52.2012 48.527C44.5821 47.1967 40.1311 43.504 37.729 38.8722C38.9799 37.7166 40.2088 36.5026 41.3925 35.2489C43.8966 32.5658 46.2028 29.6842 48.0715 26.731C60.6442 31.5011 66.4453 43.6368 66.0573 58.8893ZM35.3655 27.707C35.3737 26.6969 35.4376 25.6868 35.5506 24.6998C36.9988 24.6034 38.4983 24.6315 40.0016 24.8084C41.1831 24.9412 42.326 25.1357 43.4293 25.3693C42.0918 27.6712 40.3995 29.5927 38.463 31.2785C37.6364 31.9932 36.7624 32.6672 35.8498 33.3081C35.5423 31.7072 35.3903 30.076 35.3616 28.4355C35.3579 28.1941 35.3617 27.9506 35.3655 27.707ZM44.2526 9.88866C46.086 10.4513 46.4596 13.1367 45.8314 19.1092C42.9658 18.5708 39.9933 18.2837 36.947 18.2638C38.7523 12.8463 41.7557 9.12267 44.2526 9.88866ZM19.8104 93.0916C19.2218 93.2029 18.6107 93.2641 17.9748 93.2641C16.8339 92.9681 14.1182 93.1482 13.907 89.6249C14.4258 87.7237 16.3356 87.1796 18.3726 87.0925C19.8374 87.038 22.3376 88.2945 25.4434 89.9742C23.907 91.5413 22.034 92.6872 19.8104 93.0916ZM81.7766 58.3024C81.0773 40.6996 68.6628 25.8857 51.2897 20.4659C52.3461 17.7789 52.954 15.0897 52.9413 12.498C52.9231 6.28962 50.0162 0.567298 45.1299 0.282944C36.0956 0.307742 31.6964 9.97958 30.1926 18.7317C3.2647 22.6746 -7.41858 50.6872 5.5641 61.6237C16.0381 66.1695 24.0961 60.7448 24.6763 53.1466C18.1037 53.9528 15.9109 49.8154 15.9419 44.5174C15.9828 35.5812 21.7187 28.6581 29.5665 25.9226C29.5748 26.8837 29.6178 27.7709 29.6982 28.57C29.7451 29.0224 29.7985 29.4654 29.8371 29.9151C30.0856 32.2324 30.311 34.4328 30.5287 36.5555C27.9359 37.9663 25.1728 39.2993 22.3624 40.7304L22.4445 49.3332C25.1315 48.1897 28.1778 46.4037 31.2897 44.1609C31.427 45.6228 31.573 47.0733 31.6964 48.5303C32.5352 57.5745 32.4305 65.7353 30.7828 78.0485C30.4427 80.5574 29.6343 83.3767 28.3277 85.9023C23.1708 83.963 18.3726 81.8106 14.7192 81.7396C11.269 81.5605 6.34381 83.2477 5.63386 88.0745C4.58556 95.1745 11.8493 98.9991 18.4178 98.4837C19.4886 98.401 20.5345 98.2304 21.5485 97.9856C24.986 97.1463 28.0853 95.3939 30.9062 92.9224C36.1722 95.6715 42.223 98.3152 47.6918 98.1188C68.1685 97.4109 82.4456 79.9473 81.7766 58.3024Z" fill="#2E5B99"/>
</svg>
