<svg width="57" height="56" viewBox="0 0 57 56" fill="none" xmlns="http://www.w3.org/2000/svg">
<path d="M28.4705 24.9736C26.8802 24.9736 25.5638 26.2716 25.5638 27.8619C25.5638 29.4499 26.8802 30.7663 28.4705 30.7663C29.2386 30.7663 29.9753 30.4612 30.5185 29.918C31.0617 29.3748 31.3668 28.6381 31.3668 27.87C31.3668 27.1018 31.0617 26.3651 30.5185 25.8219C29.9753 25.2788 29.2386 24.9736 28.4705 24.9736ZM28.4705 26.8078C29.0642 26.8078 29.5222 27.2681 29.5222 27.8619C29.5222 28.4557 29.0619 28.916 28.4705 28.916C27.8744 28.916 27.4164 28.4557 27.4164 27.8619C27.4164 27.2681 27.8744 26.8078 28.4705 26.8078ZM2.27327 0.320661C2.10527 0.320661 2.02932 0.348278 1.46777 0.412718C0.89932 0.47946 0.715205 1.15608 0.846387 1.86722C0.972965 2.58067 1.01209 2.33902 1.29747 2.75097C1.58285 3.16523 11.0279 12.2881 15.9162 17.0567L7.57347 25.618L7.26738 25.9241L7.25127 25.9425C4.37448 28.8929 2.85554 33.4245 1.96718 38.4462C1.07653 43.4656 0.846387 49.019 0.777344 54.0568C0.780363 54.4089 0.911412 54.7479 1.14603 55.0104C1.38064 55.273 1.70279 55.4412 2.05234 55.4837C2.14272 55.4908 2.23352 55.4908 2.32391 55.4837C2.6599 55.4537 2.97375 55.3033 3.20766 55.0602H3.22377L17.5134 40.4001C26.7674 48.9637 26.9953 52.0914 38.9029 54.3629C43.9246 55.2512 49.478 55.4837 54.5158 55.5527C54.8657 55.5522 55.2034 55.4245 55.466 55.1932C55.7285 54.962 55.898 54.6432 55.9427 54.2962L55.9611 54.2777C55.9641 54.1754 55.9579 54.0729 55.9427 53.9717C55.9073 53.6499 55.7636 53.3496 55.5353 53.1201V53.1017L40.8568 38.8144L49.2156 30.237C49.3215 30.138 49.4204 30.0345 49.5217 29.9309L49.5378 29.9125C52.4146 26.9643 53.9519 22.4466 54.8403 17.4249C55.7263 12.4032 55.9427 6.84982 56.0117 1.81429C56.0107 1.46456 55.8828 1.12709 55.6517 0.864631C55.4205 0.602169 55.1019 0.432581 54.7551 0.387402L54.7367 0.364388C54.6343 0.360309 54.5318 0.366477 54.4306 0.382799C54.1087 0.416995 53.8086 0.56177 53.5814 0.792454H53.5653L39.2757 15.4526L30.7144 7.11219L30.4083 6.8061L30.3899 6.78769C27.4417 3.9132 22.9102 2.37584 17.8862 1.48979C12.6988 0.916732 7.49062 0.396608 2.27327 0.318359V0.320661ZM3.37796 2.24236C8.07058 2.32981 13.0739 2.51853 17.564 3.31252C22.4085 4.16866 26.6017 5.683 29.0988 8.12022H29.1172L29.3542 8.37337C29.4072 8.42631 29.467 8.49535 29.5245 8.56209C29.5291 8.56899 29.536 8.5713 29.5406 8.5805L29.5591 8.59891L29.5936 8.63343C29.5936 8.63804 29.589 8.65185 29.5936 8.65185C29.5982 8.65875 29.6051 8.66105 29.6097 8.67026C29.9043 9.07531 30.4244 9.867 30.5763 10.1984C30.6891 10.4309 30.7903 10.6771 30.8847 10.9464C31.2966 12.1408 31.5015 13.6298 31.3588 15.5147V15.5331C31.3266 15.9497 31.2713 16.3847 31.2069 16.8426C31.1747 17.0613 31.1309 17.3029 31.0872 17.5561C30.9949 18.0518 30.8874 18.5445 30.765 19.0336C30.7006 19.2983 30.6361 19.5675 30.5602 19.8322V19.8506C30.261 20.9277 29.8697 22.0968 29.3864 23.3488C29.2668 23.6664 29.1494 23.9748 29.0159 24.3016C28.9101 24.557 28.7881 24.8194 28.6753 25.0841L28.0815 25.2014C26.0678 21.3926 23.8676 18.7574 21.8953 17.25C20.9011 16.4905 19.969 16.0072 19.076 15.807H19.0599C18.1693 15.6137 17.2188 15.7449 16.5974 16.3847L16.6848 16.5573L17.4213 16.0072L3.37796 2.24236ZM54.0923 2.90517C54.0049 7.60009 53.8162 12.6126 53.0222 17.105C52.166 21.9495 50.6494 26.145 48.2122 28.6421L47.959 28.8791C47.89 28.939 47.8163 29.0149 47.7381 29.0817L47.7035 29.1185H47.6874C47.287 29.4085 46.4746 29.947 46.1409 30.1035C45.9084 30.2117 45.6576 30.3336 45.3929 30.4257H45.3768C44.1893 30.833 42.6933 31.0241 40.8223 30.886C40.4011 30.8492 39.9592 30.8146 39.4966 30.7479L38.8016 30.6282H38.7832C38.2876 30.5357 37.7948 30.4282 37.3057 30.306H37.2896C37.0203 30.237 36.751 30.1564 36.491 30.0851C35.3057 29.7583 34.1374 29.3727 32.9905 28.9298C32.6775 28.8101 32.3484 28.6743 32.0216 28.5385C31.7776 28.4393 31.5344 28.338 31.292 28.2347C31.1102 28.4557 31.3127 28.0897 31.292 28.2347C31.3018 28.0077 31.2609 27.7813 31.1724 27.5719C34.9421 25.5697 37.5703 23.3971 39.0732 21.4386C39.8349 20.4421 40.3344 19.4962 40.5346 18.6009C40.7348 17.7126 40.5967 16.746 39.9569 16.1223L39.973 16.1407L40.2262 16.9485L54.0923 2.90517ZM32.7673 11.7035L38.5945 17.3789L38.629 17.4134L38.6635 17.4479C38.751 17.5354 38.843 17.7011 38.7326 18.212C38.6819 18.4306 38.3966 18.8196 38.2562 19.1119C38.0675 19.4939 37.9892 19.8023 37.6256 20.2672C36.369 21.8782 33.9065 23.8712 30.406 25.7377C30.5118 25.4914 30.6131 25.2475 30.7121 25.0081C30.8502 24.6698 30.9767 24.3315 31.1033 24.0047C31.605 22.6975 32.0239 21.4662 32.3415 20.3178C32.5663 19.5114 32.7536 18.6951 32.903 17.8714V17.8553C32.9468 17.609 33.002 17.3674 33.0388 17.1096C33.1072 16.6298 33.1586 16.1477 33.193 15.6643C33.3081 14.1062 33.0319 12.9095 32.7673 11.7035ZM18.6687 17.6021C22.3326 19.2591 24.7307 23.1808 26.2105 25.9264C25.9619 25.8182 25.7111 25.7216 25.4648 25.6203C25.1265 25.4822 24.7882 25.3556 24.4614 25.2291C23.2587 24.7561 22.0336 24.3421 20.7906 23.9886H20.7768C20.4891 23.9103 20.2152 23.8344 19.9437 23.7677C19.3913 23.6319 18.8482 23.5237 18.3304 23.427C18.0818 23.3856 17.8241 23.3488 17.5663 23.3097V23.2867C17.0862 23.2206 16.6042 23.1692 16.121 23.1325C14.556 23.0151 13.3547 23.2913 12.1464 23.5582L17.8379 17.731L17.9069 17.662C17.9898 17.5722 18.1601 17.4778 18.671 17.5929L18.6687 17.6021ZM15.9829 24.9736C16.3972 25.0012 16.8298 25.0611 17.2924 25.1278H17.3085C17.5295 25.1623 17.755 25.206 18.0059 25.2475C18.4777 25.3349 18.9679 25.4431 19.4834 25.5697L19.8907 25.6709C20.0219 25.7055 20.1508 25.7331 20.282 25.7722H20.2981C21.3798 26.0714 22.5397 26.4603 23.7986 26.9459C24.1139 27.0679 24.443 27.1853 24.7652 27.3188C25.0413 27.4315 25.3175 27.5558 25.6006 27.6755L25.6328 28.2877C21.8585 30.2899 19.2187 32.4763 17.7159 34.4371C16.9518 35.4336 16.4547 36.3634 16.2545 37.2563V37.2748C16.0543 38.1654 16.1923 39.1159 16.8321 39.7373H16.8183L16.3857 38.9663L2.71515 52.9383C2.80721 48.2503 2.97751 43.2539 3.76921 38.7707C4.62534 33.9262 6.14198 29.7307 8.5792 27.2359V27.2175C8.63443 27.1554 8.70118 27.107 8.76331 27.0472L8.83236 26.9782C8.89852 26.9137 8.96684 26.8516 9.03718 26.7917H9.05329C9.0671 26.7825 9.07631 26.7641 9.08782 26.7549C9.48136 26.4672 10.3145 25.9103 10.6528 25.7538C10.9016 25.6394 11.1558 25.5373 11.4146 25.4477C12.609 25.0334 14.098 24.8286 15.9852 24.9713L15.9829 24.9736ZM27.8422 25.4339C26.8871 25.7377 26.2358 26.4005 25.9228 27.3533L26.9354 26.2256L27.8422 25.4339ZM29.0988 25.5029L29.513 26.2463L29.849 26.4649L30.7811 27.1853C30.4405 26.3844 29.925 25.7975 29.1011 25.5052L29.0988 25.5029ZM28.436 26.6928C29.154 26.6928 29.711 27.2497 29.711 27.9655C29.7131 28.1335 29.6816 28.3003 29.6183 28.4559C29.555 28.6116 29.4612 28.753 29.3423 28.8718C29.2235 28.9907 29.0821 29.0845 28.9264 29.1478C28.7708 29.2111 28.604 29.2426 28.436 29.2405C28.2681 29.2423 28.1016 29.2106 27.9462 29.1471C27.7908 29.0837 27.6497 28.9898 27.5311 28.871C27.4125 28.7522 27.3189 28.6109 27.2557 28.4554C27.1925 28.2999 27.1611 28.1333 27.1633 27.9655C27.1633 27.252 27.7202 26.6905 28.4383 26.6905L28.436 26.6928ZM26.0241 28.6789C26.3463 29.5143 26.9009 30.0828 27.7409 30.3958L27.1863 29.7606L26.7191 29.222L26.0241 28.6789ZM30.765 28.7664L30.116 29.0333L29.9733 29.443L29.3197 30.1956C29.9871 29.8688 30.4658 29.4499 30.765 28.7687V28.7664ZM30.5947 29.9401C30.8387 30.0437 31.0849 30.161 31.3266 30.2623C31.6649 30.4004 31.9986 30.527 32.3277 30.6535C33.6303 31.153 34.8547 31.5603 35.9985 31.8733C36.293 31.9631 36.5807 32.0275 36.8477 32.0965C37.4 32.2323 37.9432 32.3589 38.461 32.4533C38.7073 32.497 38.9673 32.5315 39.2251 32.5706C39.7222 32.6397 40.2055 32.7041 40.6704 32.7409C42.2353 32.8606 43.4367 32.5844 44.6449 32.3175L38.9535 38.1447L38.919 38.1792L38.8868 38.2137C38.8016 38.3012 38.6221 38.3841 38.1388 38.2828H38.1204C37.6233 38.1677 36.8983 37.8133 36.0652 37.162C34.4542 35.9031 32.4589 33.436 30.5947 29.9401ZM26.3831 30.1426L26.0747 30.8722C25.9366 31.2105 25.81 31.5488 25.6834 31.8756C25.2161 33.0776 24.8083 34.3019 24.4614 35.5441C24.3785 35.8387 24.3072 36.1217 24.2404 36.3956C24.1024 36.948 23.9781 37.4888 23.8837 38.0066C23.8404 38.2615 23.8005 38.517 23.764 38.773C23.6926 39.2528 23.6366 39.7349 23.596 40.2183C23.4764 41.7833 23.7525 42.9846 24.0195 44.1929L18.1923 38.4991L18.1578 38.4462L18.1232 38.4278V38.4094C18.0312 38.3173 17.9437 38.1769 18.0542 37.6798C18.0588 37.6706 18.0542 37.6752 18.0542 37.6614C18.1693 37.1643 18.5283 36.437 19.1773 35.6062C20.4339 33.9952 22.8895 31.9999 26.3808 30.1357L26.3831 30.1426ZM28.7766 30.7364C30.7696 34.4785 32.9422 37.1252 34.8938 38.6211C35.8903 39.3852 36.8178 39.8823 37.713 40.0802H37.7314C38.6221 40.2758 39.5703 40.1423 40.194 39.5048L40.1134 39.3414L39.4138 39.9628L53.4295 53.6379C48.7346 53.5459 43.7175 53.3572 39.2251 52.5632C34.3806 51.707 30.185 50.1927 27.6903 47.7555H27.6719L27.6213 47.7026L27.5522 47.6335C27.5338 47.6151 27.5223 47.5898 27.5016 47.5645L27.4325 47.4954C27.3796 47.4333 27.3106 47.3642 27.2484 47.2906V47.2722C27.2415 47.263 27.2208 47.2492 27.2139 47.2377C26.8465 46.7387 26.5113 46.2167 26.2105 45.675C26.0954 45.4257 25.9933 45.1707 25.9044 44.9109C25.4901 43.7165 25.2853 42.2274 25.4303 40.3403C25.4602 39.926 25.5154 39.4933 25.5822 39.0331V39.0146C25.6144 38.7983 25.6581 38.5636 25.7019 38.3173C25.787 37.8455 25.8975 37.353 26.0241 36.8398V36.8214L26.1253 36.4301L26.2289 36.0389V36.0205C26.5281 34.9388 26.9147 33.7812 27.4026 32.5223C27.5223 32.207 27.6581 31.8779 27.7916 31.5557C27.8997 31.291 28.0148 31.0241 28.1322 30.7548L28.7766 30.7203V30.7364Z" fill="#E8E9EE"/>
</svg>
