<svg width="96" height="48" viewBox="0 0 96 48" fill="none" xmlns="http://www.w3.org/2000/svg">
<path d="M70.7939 0.116699C62.6641 0.116699 55.1752 4.6905 47.9375 12.6821C40.8255 4.56484 33.2109 0.116699 24.7041 0.116699C10.6183 0.116699 0.339844 10.169 0.339844 23.7019C0.339844 37.2348 10.6183 47.1615 24.7041 47.1615C33.3617 47.1615 40.0716 43.1029 47.5605 35.0108C54.7982 43.128 62.1615 47.1866 70.7939 47.1866C84.8797 47.1615 95.1582 37.2725 95.1582 23.7019C95.1582 10.1313 84.8797 0.116699 70.7939 0.116699ZM24.8046 32.9626C18.8361 32.9626 15.2801 29.0296 15.2801 23.8276C15.2801 18.6255 18.8361 14.5795 24.8046 14.5795C29.8308 14.5795 33.9397 18.6255 38.3878 24.0789C34.191 29.1553 29.7554 32.9626 24.8046 32.9626ZM70.3667 32.9626C65.4159 32.9626 61.2317 29.0296 56.7835 23.8276C61.3573 18.3742 65.2903 14.5795 70.3667 14.5795C76.3353 14.5795 79.8536 18.6758 79.8536 23.8276C79.8536 28.9794 76.3353 32.9626 70.3667 32.9626Z" fill="white"/>
<path d="M58.1657 43.8069L67.64 32.4981C63.8704 31.3672 60.3898 27.9745 56.7835 23.7651L47.5605 35.0112C50.58 38.5144 54.1649 41.4874 58.1657 43.8069Z" fill="#E8E9EE"/>
<path d="M47.9374 12.6692C44.9381 9.11569 41.3758 6.07612 37.3951 3.67236L27.9082 15.1069C31.5145 16.3634 34.7061 19.6053 38.0987 23.7393L38.4757 24.0032L47.9374 12.6692Z" fill="#E8E9EE"/>
</svg>
