<svg width="58" height="58" viewBox="0 0 58 58" fill="none" xmlns="http://www.w3.org/2000/svg">
<path d="M28.5879 57.4219C44.3485 57.4219 57.125 44.6454 57.125 28.8848C57.125 13.1242 44.3485 0.347656 28.5879 0.347656C12.8273 0.347656 0.0507812 13.1242 0.0507812 28.8848C0.0507812 44.6454 12.8273 57.4219 28.5879 57.4219Z" fill="#B5B7BA"/>
<path d="M43.2216 31.7825H39.2795C39.4943 30.476 40.1852 29.7681 40.8779 29.2251C41.0329 29.1036 41.1855 28.9923 41.337 28.8819C41.3766 28.853 41.4161 28.8242 41.4556 28.7953C41.6417 28.6589 41.8275 28.5194 41.9898 28.3731C42.3142 28.0807 42.5998 27.7123 42.5998 27.1974C42.5998 26.7672 42.4188 26.4348 42.1213 26.2238C41.8419 26.0256 41.4934 25.9572 41.1739 25.9572V25.9571L41.1641 25.9574C40.6367 25.9712 40.1175 26.0814 39.6318 26.2813L39.546 26.0315C40.1197 25.7929 40.7346 25.6657 41.3579 25.6579C42.029 25.6583 42.4755 25.831 42.7495 26.0718C43.0184 26.3082 43.163 26.6468 43.163 27.0743C43.163 27.8386 42.6571 28.3128 41.9327 28.8704C41.8786 28.9121 41.8231 28.9544 41.7667 28.9973C41.4653 29.2269 41.1392 29.4754 40.8615 29.7529C40.5255 30.0888 40.2326 30.4926 40.1047 31.0122L39.9913 31.4734H40.4662H43.2216V31.7825ZM44.1108 30.1209V29.799L47.2878 25.6755H47.6199V29.4806V29.8529H47.9922H48.6325V30.1209H47.9922H47.6199V30.4932V31.7825H47.1466V30.4932V30.1209H46.7743H44.1108ZM44.808 29.2782L44.7346 29.3771V29.5002V29.506V29.8783H45.1069C45.1811 29.8783 45.3144 29.8743 45.4538 29.8701C45.4731 29.8695 45.4925 29.8689 45.5119 29.8684C45.6774 29.8634 45.8475 29.8588 45.9651 29.8588H46.7704H47.1427V29.4865V28.5091C47.1427 28.0781 47.1745 27.6285 47.1936 27.3599C47.1982 27.2942 47.2021 27.2394 47.2046 27.1982L47.2795 25.9503L46.5341 26.954L44.808 29.2782Z" fill="#B7B7B7" stroke="white" stroke-width="0.744543"/>
<mask id="path-3-inside-1_2095_788" fill="white">
<path d="M4.40537 31.1324V28.9938H4.92143C5.30112 28.9695 5.68085 29.0407 6.02589 29.201C6.30542 29.3555 6.45985 29.6448 6.45985 30.069C6.45985 30.7922 6.01612 31.1324 5.00353 31.1324H4.40537ZM3.1543 32.1547H4.97226C6.98765 32.1547 7.72069 31.2673 7.72069 30.0377C7.72069 29.201 7.36883 28.6439 6.75893 28.3233C6.27415 28.0653 5.64471 27.9832 4.89993 27.9832H4.40537V26.3607H7.1323L7.46266 25.3481H3.16212V32.1547H3.1543ZM8.54562 32.1547H9.74391L11.2726 29.9556C11.5619 29.5412 11.7906 29.16 11.9235 28.9332H11.945C11.9235 29.2225 11.9039 29.5939 11.9039 29.9869V32.1547H13.112V27.2677H11.9137L10.3851 29.4669C10.1055 29.8813 9.86901 30.2625 9.73413 30.4912H9.71458C9.73413 30.2019 9.75563 29.8285 9.75563 29.4376V27.2677H8.54562V32.1547ZM15.1919 32.1547H16.4215V28.2921H17.8661L18.1867 27.2697H13.7004V28.2921H15.188V32.1547H15.1919ZM18.6245 34.6021H19.8541V32.145C20.0987 32.2193 20.3529 32.2575 20.6086 32.2583C22.1373 32.2583 23.1499 31.1949 23.1499 29.6976C23.1499 28.1337 22.2311 27.1465 20.4738 27.1465C19.8447 27.1469 19.22 27.2506 18.6245 27.4535V34.6002V34.6021ZM19.8541 31.1128V28.2354C20.0444 28.1786 20.242 28.1503 20.4405 28.1513C21.3182 28.1513 21.8968 28.6478 21.8968 29.6917C21.8968 30.63 21.4316 31.2301 20.5285 31.2301C20.3023 31.2329 20.0778 31.191 19.8678 31.107L19.8541 31.1128ZM23.8731 32.1547H25.0753L26.604 29.9556C26.8933 29.5412 27.12 29.16 27.2549 28.9332H27.2745C27.2549 29.2225 27.2334 29.5939 27.2334 29.9869V32.1547H28.4415V27.2677H27.2432L25.7146 29.4669C25.437 29.8813 25.1985 30.2625 25.0636 30.4912H25.0441C25.0636 30.2019 25.0851 29.8285 25.0851 29.4376V27.2677H23.877V32.1547H23.8731ZM29.3993 32.1547H30.6269V30.1315H31.3619C31.5046 30.1315 31.6395 30.2644 31.7842 30.5948L32.4039 32.1586H33.737L32.8476 30.2899C32.7987 30.1567 32.7232 30.0348 32.6257 29.9316C32.5283 29.8284 32.4109 29.7462 32.2807 29.6897V29.6702C32.6932 29.4219 32.7342 28.7202 32.9825 28.3781C33.023 28.3274 33.075 28.287 33.1341 28.2601C33.1932 28.2333 33.2578 28.2208 33.3226 28.2236C33.4175 28.2211 33.512 28.235 33.6021 28.2647V27.2189C33.4379 27.1697 33.2673 27.1453 33.0959 27.1465C32.922 27.1368 32.7485 27.1714 32.5916 27.2469C32.4346 27.3225 32.2994 27.4366 32.1986 27.5786C31.794 28.165 31.8076 29.1913 31.1958 29.1913H30.6269V27.2697H29.3993V32.1567V32.1547ZM36.4952 32.2583C37.0871 32.2648 37.6683 32.0998 38.1685 31.7833L37.8069 30.9369C37.4637 31.146 37.071 31.26 36.6692 31.2673C35.8326 31.2673 35.2852 30.7199 35.2852 29.7171C35.2852 28.8198 35.8228 28.1376 36.7318 28.1376C37.1593 28.1292 37.5774 28.2633 37.9203 28.5188V27.4769C37.5227 27.2461 37.0681 27.1316 36.6086 27.1465C36.2656 27.1384 35.9246 27.2003 35.6063 27.3284C35.288 27.4565 34.9992 27.6482 34.7575 27.8917C34.5159 28.1353 34.3264 28.4255 34.2006 28.7447C34.0749 29.0639 34.0156 29.4055 34.0263 29.7484C34.0263 31.1636 34.904 32.2583 36.4952 32.2583Z"/>
</mask>
<path d="M4.40537 31.1324V28.9938H4.92143C5.30112 28.9695 5.68085 29.0407 6.02589 29.201C6.30542 29.3555 6.45985 29.6448 6.45985 30.069C6.45985 30.7922 6.01612 31.1324 5.00353 31.1324H4.40537ZM3.1543 32.1547H4.97226C6.98765 32.1547 7.72069 31.2673 7.72069 30.0377C7.72069 29.201 7.36883 28.6439 6.75893 28.3233C6.27415 28.0653 5.64471 27.9832 4.89993 27.9832H4.40537V26.3607H7.1323L7.46266 25.3481H3.16212V32.1547H3.1543ZM8.54562 32.1547H9.74391L11.2726 29.9556C11.5619 29.5412 11.7906 29.16 11.9235 28.9332H11.945C11.9235 29.2225 11.9039 29.5939 11.9039 29.9869V32.1547H13.112V27.2677H11.9137L10.3851 29.4669C10.1055 29.8813 9.86901 30.2625 9.73413 30.4912H9.71458C9.73413 30.2019 9.75563 29.8285 9.75563 29.4376V27.2677H8.54562V32.1547ZM15.1919 32.1547H16.4215V28.2921H17.8661L18.1867 27.2697H13.7004V28.2921H15.188V32.1547H15.1919ZM18.6245 34.6021H19.8541V32.145C20.0987 32.2193 20.3529 32.2575 20.6086 32.2583C22.1373 32.2583 23.1499 31.1949 23.1499 29.6976C23.1499 28.1337 22.2311 27.1465 20.4738 27.1465C19.8447 27.1469 19.22 27.2506 18.6245 27.4535V34.6002V34.6021ZM19.8541 31.1128V28.2354C20.0444 28.1786 20.242 28.1503 20.4405 28.1513C21.3182 28.1513 21.8968 28.6478 21.8968 29.6917C21.8968 30.63 21.4316 31.2301 20.5285 31.2301C20.3023 31.2329 20.0778 31.191 19.8678 31.107L19.8541 31.1128ZM23.8731 32.1547H25.0753L26.604 29.9556C26.8933 29.5412 27.12 29.16 27.2549 28.9332H27.2745C27.2549 29.2225 27.2334 29.5939 27.2334 29.9869V32.1547H28.4415V27.2677H27.2432L25.7146 29.4669C25.437 29.8813 25.1985 30.2625 25.0636 30.4912H25.0441C25.0636 30.2019 25.0851 29.8285 25.0851 29.4376V27.2677H23.877V32.1547H23.8731ZM29.3993 32.1547H30.6269V30.1315H31.3619C31.5046 30.1315 31.6395 30.2644 31.7842 30.5948L32.4039 32.1586H33.737L32.8476 30.2899C32.7987 30.1567 32.7232 30.0348 32.6257 29.9316C32.5283 29.8284 32.4109 29.7462 32.2807 29.6897V29.6702C32.6932 29.4219 32.7342 28.7202 32.9825 28.3781C33.023 28.3274 33.075 28.287 33.1341 28.2601C33.1932 28.2333 33.2578 28.2208 33.3226 28.2236C33.4175 28.2211 33.512 28.235 33.6021 28.2647V27.2189C33.4379 27.1697 33.2673 27.1453 33.0959 27.1465C32.922 27.1368 32.7485 27.1714 32.5916 27.2469C32.4346 27.3225 32.2994 27.4366 32.1986 27.5786C31.794 28.165 31.8076 29.1913 31.1958 29.1913H30.6269V27.2697H29.3993V32.1567V32.1547ZM36.4952 32.2583C37.0871 32.2648 37.6683 32.0998 38.1685 31.7833L37.8069 30.9369C37.4637 31.146 37.071 31.26 36.6692 31.2673C35.8326 31.2673 35.2852 30.7199 35.2852 29.7171C35.2852 28.8198 35.8228 28.1376 36.7318 28.1376C37.1593 28.1292 37.5774 28.2633 37.9203 28.5188V27.4769C37.5227 27.2461 37.0681 27.1316 36.6086 27.1465C36.2656 27.1384 35.9246 27.2003 35.6063 27.3284C35.288 27.4565 34.9992 27.6482 34.7575 27.8917C34.5159 28.1353 34.3264 28.4255 34.2006 28.7447C34.0749 29.0639 34.0156 29.4055 34.0263 29.7484C34.0263 31.1636 34.904 32.2583 36.4952 32.2583Z" fill="white" stroke="white" stroke-width="1.48909" mask="url(#path-3-inside-1_2095_788)"/>
<path d="M51.9178 27.3732C52.3338 27.3732 52.7405 27.2499 53.0864 27.0187C53.4323 26.7876 53.7019 26.4591 53.8611 26.0748C54.0203 25.6904 54.0619 25.2675 53.9807 24.8595C53.8996 24.4515 53.6993 24.0767 53.4051 23.7826C53.1109 23.4884 52.7362 23.2881 52.3282 23.2069C51.9201 23.1258 51.4972 23.1674 51.1129 23.3266C50.7286 23.4858 50.4001 23.7554 50.1689 24.1013C49.9378 24.4472 49.8145 24.8539 49.8145 25.2699C49.815 25.8275 50.0367 26.3622 50.4311 26.7566C50.8254 27.1509 51.3601 27.3727 51.9178 27.3732Z" stroke="white" stroke-width="0.5"/>
<mask id="path-5-inside-2_2095_788" fill="white">
<path d="M53.2337 25.2681H52.0784V24.1128H51.7676V25.5789H53.2337V25.2681Z"/>
</mask>
<path d="M53.2337 25.2681H52.0784V24.1128H51.7676V25.5789H53.2337V25.2681Z" fill="#B7B7B7"/>
<path d="M53.2337 25.2681H53.9782V24.5235H53.2337V25.2681ZM52.0784 25.2681H51.3338V26.0126H52.0784V25.2681ZM52.0784 24.1128H52.8229V23.3682H52.0784V24.1128ZM51.7676 24.1128V23.3682H51.023V24.1128H51.7676ZM51.7676 25.5789H51.023V26.3234H51.7676V25.5789ZM53.2337 25.5789V26.3234H53.9782V25.5789H53.2337ZM53.2337 24.5235H52.0784V26.0126H53.2337V24.5235ZM52.8229 25.2681V24.1128H51.3338V25.2681H52.8229ZM52.0784 23.3682H51.7676V24.8573H52.0784V23.3682ZM51.023 24.1128V25.5789H52.5121V24.1128H51.023ZM51.7676 26.3234H53.2337V24.8343H51.7676V26.3234ZM53.9782 25.5789V25.2681H52.4891V25.5789H53.9782Z" fill="white" mask="url(#path-5-inside-2_2095_788)"/>
</svg>
