<svg width="58" height="66" viewBox="0 0 58 66" fill="none" xmlns="http://www.w3.org/2000/svg">
<path d="M57.7377 49.219C57.282 49.6754 56.6836 49.9116 56.1382 50.2236C47.356 55.2534 38.5729 60.2807 29.7887 65.3055C29.2668 65.6045 28.9067 65.5972 28.3922 65.2968C19.2875 60.0707 10.177 54.8572 1.06064 49.6564C0.85924 49.5412 0.675484 49.3954 0.484375 49.2627C2.19995 48.2857 3.91258 47.3044 5.62962 46.3332C13.47 41.9014 21.3059 37.4714 29.1375 33.0435L57.7377 49.219Z" fill="#B5B7BA"/>
<path d="M29.1374 33.0437C21.3019 37.4737 13.466 41.9036 5.62953 46.3335C3.91249 47.3047 2.19986 48.286 0.48429 49.263C0.27995 49.0428 0.37992 48.7716 0.37992 48.5252C0.37698 38.2071 0.370609 27.8872 0.360809 17.5652C0.360809 16.9674 0.557798 16.6466 1.06791 16.355C8.57506 12.0854 16.0758 7.8052 23.5702 3.51428C25.1873 2.59126 26.7956 1.66532 28.4127 0.743756C28.6346 0.618353 28.8404 0.44191 29.1183 0.443368C29.1183 1.58949 29.1212 2.73562 29.1271 3.88174C29.1389 6.50062 29.1516 9.1195 29.1653 11.7384C23.2027 15.2341 17.2362 18.7255 11.2658 22.2124C10.5425 22.6353 9.74573 22.9488 9.13271 23.5481C9.10036 23.6079 9.03862 23.6677 9.03862 23.7275C9.03127 26.6074 9.03862 29.4858 9.02539 32.3642C9.02539 32.7477 9.16211 32.8221 9.48699 32.6355C10.4661 32.0741 11.4584 31.5331 12.4271 30.9542C14.0795 29.9655 15.8083 29.0965 17.3901 28.0058C17.5465 27.9585 17.6989 27.899 17.8458 27.8279C21.0403 25.9774 24.223 24.1095 27.4307 22.2868C27.979 21.9748 28.4509 21.4673 29.1536 21.4571C29.1487 25.3183 29.1433 29.1806 29.1374 33.0437Z" fill="white"/>
<path d="M29.1517 21.4541C28.449 21.4643 27.9756 21.9717 27.4288 22.2838C24.2211 24.1094 21.0384 25.9773 17.8439 27.8248C17.697 27.896 17.5446 27.9555 17.3882 28.0027C16.5003 27.5167 15.6119 27.0306 14.723 26.5446C12.8609 25.5413 10.9988 24.5391 9.13672 23.5378C9.74974 22.9385 10.5465 22.625 11.2698 22.2021C17.2304 18.7025 23.1969 15.2141 29.1693 11.7368L57.7445 28.0027C57.4152 28.3877 56.9404 28.5583 56.52 28.8033C54.1267 30.1973 51.7231 31.5738 49.324 32.962C49.1258 32.8967 48.9323 32.8183 48.7448 32.7272C45.1049 30.6265 41.4665 28.5223 37.8295 26.4148C34.9394 24.7583 32.0468 23.1047 29.1517 21.4541Z" fill="#B5B7BA"/>
<path d="M29.1534 21.4541C32.0445 23.1067 34.9356 24.7637 37.8268 26.425C41.4686 28.5248 45.107 30.6289 48.742 32.7374C48.9296 32.8285 49.1231 32.907 49.3212 32.9722C50.8927 34.0425 52.5877 34.9116 54.221 35.8798C55.2912 36.5126 56.3692 37.1363 57.4551 37.7506C57.7242 37.8965 57.877 38.0714 57.8756 38.4039C57.8668 41.8812 57.8668 45.3594 57.8756 48.8386C57.8756 48.9771 57.8756 49.1215 57.7506 49.2192L29.1387 33.0437C29.1436 29.1814 29.1485 25.3183 29.1534 21.4541Z" fill="white"/>
<path d="M57.7414 28.0131L29.1662 11.7472C29.1544 9.12828 29.1417 6.5094 29.128 3.89052C29.128 2.74439 29.125 1.59827 29.1191 0.452148C30.0791 0.723369 30.8568 1.33871 31.7006 1.81991C40.2417 6.68924 48.7779 11.5673 57.3092 16.4541C57.6664 16.6583 57.8781 16.8551 57.8752 17.3101C57.856 20.7018 57.8649 24.095 57.8634 27.4867C57.8634 27.6689 57.9031 27.8658 57.7414 28.0131Z" fill="white"/>
<path d="M9.13469 23.5435C10.9968 24.5457 12.8589 25.548 14.721 26.5502C15.6118 27.0363 16.5002 27.5223 17.3862 28.0084C15.7985 29.0991 14.0756 29.9682 12.4232 30.9568C11.4559 31.5401 10.4636 32.0767 9.4831 32.6381C9.15821 32.8247 9.02003 32.7504 9.0215 32.3669C9.02885 29.4884 9.0215 26.61 9.03473 23.7301C9.04061 23.6674 9.10235 23.6076 9.13469 23.5435Z" fill="#B5B7BA"/>
</svg>
