<svg width="56" height="57" viewBox="0 0 56 57" fill="none" xmlns="http://www.w3.org/2000/svg">
<path fill-rule="evenodd" clip-rule="evenodd" d="M53.3275 5.13769H33.157V0.384766L0.00195312 5.50208V50.3572L33.157 56.0679V49.0231H53.3275C53.9384 49.0541 54.5367 48.8419 54.9916 48.4329C55.4464 48.024 55.7208 47.4515 55.7548 46.8408V7.31803C55.7203 6.70766 55.4457 6.13573 54.9909 5.7272C54.5361 5.31867 53.9381 5.10673 53.3275 5.13769ZM53.6461 47.2032H33.0893L33.0554 43.4419H38.0075V39.0613H33.0176L32.9937 36.4728H38.0075V32.0922H32.9558L32.932 29.5037H38.0075V25.1231H32.916V22.5346H38.0075V18.154H32.916V15.5655H38.0075V11.1849H32.916V7.20254H53.6461V47.2032Z" fill="white"/>
<path d="M49.4028 11.1797H40.7949V15.5603H49.4028V11.1797Z" fill="white"/>
<path d="M49.4028 18.1489H40.7949V22.5295H49.4028V18.1489Z" fill="white"/>
<path d="M49.4028 25.1211H40.7949V29.5017H49.4028V25.1211Z" fill="white"/>
<path d="M49.4028 32.0903H40.7949V36.4709H49.4028V32.0903Z" fill="white"/>
<path d="M49.4028 39.0625H40.7949V43.4431H49.4028V39.0625Z" fill="white"/>
<path fill-rule="evenodd" clip-rule="evenodd" d="M8.65544 17.6192L12.9285 17.3743L15.6146 24.7595L18.7885 17.0696L23.0616 16.8247L17.8726 27.3102L23.0616 37.8216L18.5436 37.517L15.4931 29.5045L12.4407 37.2123L8.28906 36.8459L13.1117 27.5611L8.65544 17.6192Z" fill="#E8E9EE"/>
</svg>
