<svg width="48" height="59" viewBox="0 0 48 59" fill="none" xmlns="http://www.w3.org/2000/svg">
<path d="M31.8196 41.7181C32.1179 41.9325 32.312 42.0397 32.4639 42.1951C37.0805 46.7502 41.6949 51.3083 46.3072 55.8691C46.4649 56.0165 46.6137 56.1729 46.753 56.3375C46.9082 56.5146 47.0074 56.7328 47.0382 56.965C47.069 57.1973 47.0302 57.4334 46.9265 57.644C46.8352 57.8599 46.6845 58.0462 46.4914 58.1817C46.2983 58.3171 46.0707 58.3964 45.8343 58.4104C45.69 58.4204 45.5452 58.4229 45.4005 58.4179C40.4311 58.4179 35.4605 58.4114 30.49 58.4264C30.2032 58.4366 29.9175 58.3858 29.6522 58.2777C29.387 58.1695 29.1482 58.0065 28.9521 57.7994C23.9255 52.8148 18.8938 47.8367 13.8571 42.865C12.9895 42.0075 12.9841 41.3944 13.8474 40.5413C18.8819 35.5638 23.915 30.5857 28.9466 25.6068C29.1413 25.3984 29.3789 25.2336 29.6435 25.1236C29.908 25.0136 30.1933 24.9609 30.4802 24.9691C35.4504 24.9848 40.4206 24.9848 45.3908 24.9691C46.0773 24.9691 46.6564 25.102 46.9449 25.7847C47.2334 26.4675 46.8799 26.9701 46.4027 27.4396C41.7586 32.0197 37.1177 36.6028 32.4801 41.1887C32.3229 41.3409 32.1396 41.462 31.8196 41.7181ZM22.2267 47.4448L42.3627 27.55H41.9733C38.378 27.55 34.7837 27.55 31.1895 27.5425C31.0219 27.5346 30.8545 27.5632 30.6993 27.6264C30.5441 27.6896 30.4049 27.7857 30.2915 27.908C25.7775 32.3838 21.2585 36.8543 16.7345 41.3194C16.6119 41.4405 16.4991 41.5724 16.4015 41.6795L22.2267 47.4448ZM24.2136 49.4812C26.2981 51.538 28.3772 53.599 30.4748 55.6419C30.6158 55.7802 30.8902 55.8402 31.1017 55.8413C34.7534 55.8531 38.404 55.8498 42.0557 55.8498H42.4299L30.1006 43.6624L24.2136 49.4812Z" fill="white"/>
<path d="M36.6207 0.540517H44.1563C44.9686 0.540517 45.4187 0.789175 45.6454 1.36473C45.9003 2.01317 45.6139 2.49227 45.1606 2.94028C33.5818 14.3778 22.0052 25.8165 10.4307 37.2562C9.62275 38.0536 8.97526 38.0439 8.15317 37.2337C5.69844 34.81 3.24517 32.3855 0.793334 29.9604C-0.0211721 29.1544 -0.0233413 28.5188 0.793334 27.7096C9.75904 18.8451 18.7266 9.97952 27.6959 1.11286C27.8807 0.919155 28.1054 0.766802 28.3547 0.666047C28.6041 0.565291 28.8724 0.518471 29.1416 0.528729C31.6339 0.551236 34.1273 0.540517 36.6207 0.540517ZM41.1965 3.11284H40.6716C37.0763 3.11284 33.4809 3.1182 29.8856 3.10534C29.718 3.09772 29.5507 3.12672 29.3956 3.19026C29.2406 3.2538 29.1017 3.35032 28.9887 3.47297C20.5761 11.8002 12.1588 20.122 3.73684 28.4384C3.6132 28.5617 3.49823 28.6935 3.46136 28.7332L9.36354 34.5702L41.1965 3.11284Z" fill="white"/>
</svg>
