<svg width="56" height="57" viewBox="0 0 56 57" fill="none" xmlns="http://www.w3.org/2000/svg">
<path d="M22.4435 56.2702H33.0137L38.2989 47.1161L33.0137 37.9619H22.4435L17.1582 47.1161L22.4435 56.2702Z" stroke="white" stroke-width="1.3151" stroke-linecap="round" stroke-linejoin="round"/>
<path d="M38.3008 47.1145H48.8712L54.1563 37.9603L48.8712 28.8062H38.3008L33.0156 37.9603L38.3008 47.1145Z" stroke="white" stroke-width="1.3151" stroke-linecap="round" stroke-linejoin="round"/>
<path d="M38.3008 28.4993H48.8712L54.1563 19.3451L48.8712 10.1909H38.3008L33.0156 19.3451L38.3008 28.4993Z" stroke="white" stroke-width="1.3151" stroke-linecap="round" stroke-linejoin="round"/>
<path d="M22.4433 19.3435H33.0136L38.2987 10.1893L33.0136 1.03516H22.4433L17.1582 10.1893L22.4433 19.3435Z" stroke="white" stroke-width="1.3151" stroke-linecap="round" stroke-linejoin="round"/>
<path d="M6.58982 28.4993H17.1602L22.4454 19.3451L17.1602 10.1909H6.58982L1.30469 19.3451L6.58982 28.4993Z" stroke="white" stroke-width="1.3151" stroke-linecap="round" stroke-linejoin="round"/>
<path d="M6.58982 47.1145H17.1602L22.4454 37.9603L17.1602 28.8062H6.58982L1.30469 37.9603L6.58982 47.1145Z" stroke="white" stroke-width="1.3151" stroke-linecap="round" stroke-linejoin="round"/>
<path d="M6.58984 28.8062L11.875 37.9603" stroke="white" stroke-width="1.3151" stroke-linecap="round" stroke-linejoin="round"/>
<path d="M22.4474 37.9619H11.877" stroke="white" stroke-width="1.3151" stroke-linecap="round" stroke-linejoin="round"/>
<path d="M6.58984 47.1161L11.875 37.9619" stroke="white" stroke-width="1.3151" stroke-linecap="round" stroke-linejoin="round"/>
<path d="M22.4473 37.9619L27.7324 47.1161" stroke="white" stroke-width="1.3151" stroke-linecap="round" stroke-linejoin="round"/>
<path d="M38.3007 47.1138H27.7305" stroke="white" stroke-width="1.3151" stroke-linecap="round" stroke-linejoin="round"/>
<path d="M22.4473 56.2679L27.7324 47.1138" stroke="white" stroke-width="1.3151" stroke-linecap="round" stroke-linejoin="round"/>
<path d="M38.5977 28.8062L43.8828 37.9603" stroke="white" stroke-width="1.3151" stroke-linecap="round" stroke-linejoin="round"/>
<path d="M54.4511 37.9619H43.8809" stroke="white" stroke-width="1.3151" stroke-linecap="round" stroke-linejoin="round"/>
<path d="M38.5977 47.1161L43.8828 37.9619" stroke="white" stroke-width="1.3151" stroke-linecap="round" stroke-linejoin="round"/>
<path d="M38.3008 10.1909L43.586 19.3451" stroke="white" stroke-width="1.3151" stroke-linecap="round" stroke-linejoin="round"/>
<path d="M54.1582 19.3428H43.5879" stroke="white" stroke-width="1.3151" stroke-linecap="round" stroke-linejoin="round"/>
<path d="M38.3008 28.4969L43.586 19.3428" stroke="white" stroke-width="1.3151" stroke-linecap="round" stroke-linejoin="round"/>
<path d="M22.4473 1.03516L27.7324 10.1893" stroke="white" stroke-width="1.3151" stroke-linecap="round" stroke-linejoin="round"/>
<path d="M38.3007 10.1909H27.7305" stroke="white" stroke-width="1.3151" stroke-linecap="round" stroke-linejoin="round"/>
<path d="M22.4473 19.3451L27.7324 10.1909" stroke="white" stroke-width="1.3151" stroke-linecap="round" stroke-linejoin="round"/>
<path d="M6.58984 10.1909L11.875 19.3451" stroke="white" stroke-width="1.3151" stroke-linecap="round" stroke-linejoin="round"/>
<path d="M22.4474 19.3428H11.877" stroke="white" stroke-width="1.3151" stroke-linecap="round" stroke-linejoin="round"/>
<path d="M6.58984 28.4969L11.875 19.3428" stroke="white" stroke-width="1.3151" stroke-linecap="round" stroke-linejoin="round"/>
</svg>
