<svg width="35" height="56" viewBox="0 0 35 56" fill="none" xmlns="http://www.w3.org/2000/svg">
<path d="M12.4413 5.08595C11.8324 4.47408 10.9829 4.09621 10.0386 4.09621C9.09779 4.09621 8.2549 4.47408 7.65318 5.08595H7.63586C7.02877 5.69483 6.6509 6.54489 6.6509 7.48567C6.6509 8.43005 7.02877 9.27293 7.63586 9.87824L7.65318 9.89197C8.2549 10.5009 9.09779 10.8751 10.0386 10.8751C10.9829 10.8751 11.8324 10.5009 12.4413 9.89197L12.4502 9.87824C13.0603 9.27293 13.4346 8.43005 13.4346 7.48567C13.4346 6.54489 13.0603 5.69483 12.4502 5.08595H12.4413ZM10.0386 51.4825C10.9829 51.4825 11.8324 51.0981 12.4413 50.4963L12.4502 50.4784C13.0603 49.8779 13.4346 49.0278 13.4346 48.0936C13.4346 47.1493 13.0603 46.3028 12.4502 45.6909H12.4413C11.8324 45.0719 10.9829 44.6976 10.0386 44.6976C9.09779 44.6976 8.2549 45.0719 7.65318 45.6909H7.63586C7.02877 46.3028 6.6509 47.1493 6.6509 48.0936C6.6509 49.0278 7.02877 49.8779 7.63586 50.4784L7.65318 50.4963C8.2549 51.0981 9.09779 51.4825 10.0386 51.4825ZM28.5057 41.2138C29.3456 40.9935 30.1062 40.4545 30.57 39.6397L30.6327 39.5209C31.0452 38.7478 31.1204 37.856 30.9001 37.0656C30.678 36.2191 30.1324 35.4706 29.3194 35.002L29.2722 34.9703C28.4801 34.5364 27.5775 34.442 26.7483 34.6659C25.9054 34.876 25.1485 35.4389 24.6871 36.2472C24.2197 37.0477 24.1218 37.9712 24.3456 38.8212C24.5766 39.657 25.1169 40.4127 25.9245 40.8849H25.9299C26.7394 41.3499 27.6563 41.4341 28.5057 41.2138ZM13.517 24.316C12.6263 23.4278 11.399 22.8714 10.0386 22.8714C8.68351 22.8714 7.45917 23.4278 6.57031 24.316C5.68564 25.2013 5.14003 26.4256 5.14003 27.7825C5.14003 29.1429 5.68564 30.3709 6.57031 31.2663C7.45917 32.1474 8.68351 32.7001 10.0386 32.7001C11.399 32.7001 12.6263 32.1474 13.517 31.2663C14.4035 30.3709 14.9491 29.1429 14.9491 27.7825C14.9491 26.4256 14.4035 25.2013 13.517 24.316ZM11.5614 18.5388C13.5325 18.8635 15.306 19.8079 16.6593 21.1719H16.6701C16.885 21.3886 17.0951 21.6232 17.2891 21.8608L20.6732 19.9028C20.2183 18.528 20.1974 17.0906 20.5628 15.7438C21.0457 13.9387 22.2157 12.3227 23.9695 11.3085L24.0274 11.2739C25.7622 10.2907 27.7345 10.0878 29.5152 10.5707C31.318 11.053 32.9446 12.2284 33.9571 13.9811V13.9846C34.9647 15.7265 35.1695 17.7269 34.6883 19.5249C34.209 21.3289 33.0336 22.9556 31.2815 23.9626L30.8195 24.236H30.7724C29.1516 25.0085 27.3692 25.1279 25.7323 24.6975C24.388 24.3405 23.1547 23.5919 22.1894 22.5252L18.8107 24.4772C19.1987 25.5051 19.4142 26.6143 19.4142 27.7825C19.4142 28.9471 19.1987 30.07 18.8107 31.1051L22.1894 33.0499C23.1547 31.9695 24.388 31.2346 25.7323 30.8777C27.5351 30.3846 29.5343 30.5947 31.2815 31.6125L31.3932 31.665V31.6722C33.0813 32.693 34.2144 34.2743 34.6883 36.058C35.1695 37.8452 34.9647 39.8462 33.9571 41.5917L33.8962 41.714L33.889 41.7033C32.8766 43.3861 31.2816 44.5263 29.5206 45.0086C27.7136 45.4844 25.715 45.2814 23.9695 44.2779V44.2636C22.2157 43.2494 21.0457 41.6299 20.5628 39.8289C20.1974 38.4858 20.2183 37.0477 20.6732 35.6735L17.2891 33.7215C17.0951 33.9597 16.885 34.1836 16.6701 34.4002L16.6593 34.4104C15.306 35.7679 13.5325 36.7122 11.5614 37.0268V40.9374C12.966 41.2311 14.225 41.9343 15.2117 42.9205L15.2165 42.9312C16.5387 44.2463 17.3572 46.0789 17.3572 48.0936C17.3572 50.1018 16.5387 51.923 15.2165 53.2453L15.2117 53.2662C13.8805 54.5884 12.0533 55.4068 10.0386 55.4068C8.03463 55.4068 6.20498 54.5884 4.87737 53.2662H4.87259V53.2453C3.54856 51.923 2.72836 50.1018 2.72836 48.0936C2.72836 46.0789 3.54856 44.2463 4.87259 42.9312V42.9205H4.87737C5.86233 41.9343 7.12309 41.2311 8.52412 40.9374V37.0268C6.55121 36.7122 4.78305 35.7679 3.43156 34.4104L3.41724 34.4002C1.72787 32.7037 0.671875 30.3708 0.671875 27.7825C0.671875 25.2013 1.72787 22.8684 3.41724 21.1719H3.43156C4.78305 19.8079 6.55121 18.8635 8.52412 18.5388V14.6455C7.12309 14.341 5.86233 13.6384 4.87737 12.6588H4.87259V12.6481C3.54856 11.3193 2.72836 9.50037 2.72836 7.48567C2.72836 5.48113 3.54856 3.64492 4.87259 2.32268L4.87737 2.31611C6.20498 0.99029 8.03463 0.171875 10.0386 0.171875C12.0533 0.171875 13.8805 0.99029 15.2117 2.31611V2.32268H15.2165C16.5387 3.64492 17.3572 5.48113 17.3572 7.48567C17.3572 9.50037 16.5387 11.3193 15.2165 12.6481L15.2117 12.6588C14.225 13.6384 12.966 14.341 11.5614 14.6455V18.5388ZM30.57 15.9432L30.5419 15.9014C30.0745 15.1141 29.3295 14.5893 28.5057 14.3619C27.6563 14.1381 26.7394 14.233 25.9245 14.698H25.9299C25.1169 15.1594 24.5731 15.9152 24.3456 16.7616C24.1218 17.6009 24.2197 18.528 24.6871 19.3357L24.7026 19.3572C25.1712 20.1541 25.9162 20.689 26.7483 20.9057C27.5847 21.1403 28.5165 21.0424 29.3194 20.5737L29.363 20.5529C30.1533 20.0807 30.6798 19.3357 30.9001 18.5173C31.124 17.6744 31.035 16.7509 30.57 15.9432Z" fill="white"/>
</svg>
