<svg width="56" height="57" viewBox="0 0 56 57" fill="none" xmlns="http://www.w3.org/2000/svg">
<path fill-rule="evenodd" clip-rule="evenodd" d="M0.0371094 3.91189C0.0371094 2.2034 1.42215 0.818359 3.13064 0.818359H52.6272C53.8782 0.818359 55.0063 1.57207 55.4852 2.72806C55.9641 3.88401 55.6993 5.2146 54.8145 6.09935L32.2538 28.6602L54.8145 51.2211C55.6993 52.1058 55.9641 53.4365 55.4852 54.5922C55.0063 55.7484 53.8782 56.502 52.6272 56.502H3.13064C1.42215 56.502 0.0371094 55.1169 0.0371094 53.4084V3.91189ZM6.22418 7.00543V50.3149H45.1586L25.6914 30.8476C24.4834 29.6395 24.4834 27.6808 25.6914 26.4727L45.1586 7.00543H6.22418Z" fill="white"/>
</svg>
