<svg width="35" height="63" viewBox="0 0 35 63" fill="none" xmlns="http://www.w3.org/2000/svg">
<path fill-rule="evenodd" clip-rule="evenodd" d="M25.294 58.3552L25.3558 58.4832L26.4377 61.0389C26.7373 61.7455 26.4076 62.56 25.7028 62.8588C25.0411 63.14 24.2847 62.8674 23.9468 62.2509L23.8849 62.1231L22.8019 59.5663C22.5035 58.8597 22.8332 58.0452 23.5379 57.7464C24.1986 57.4662 24.9559 57.7379 25.294 58.3552ZM29.7325 56.6258C30.031 57.3314 29.7024 58.1469 28.9966 58.4458C28.2918 58.7446 27.4783 58.4156 27.1787 57.709C26.8802 57.0034 27.2099 56.1878 27.9147 55.889C28.6194 55.5902 29.4341 55.9192 29.7325 56.6258ZM16.418 13.105C20.9094 18.1042 25.5495 24.5781 28.9051 32.5052L33.6583 43.7344L34.4406 45.5814C35.0818 47.0938 34.3749 48.8393 32.8652 49.4812C31.3534 50.122 29.6098 49.4154 28.9687 47.9029L28.4277 46.6246C28.1292 45.9179 27.3157 45.5889 26.6098 45.8877C25.9051 46.1876 25.5753 47.0021 25.8749 47.7088L27.251 50.9592L28.0398 52.8212C28.3383 53.5267 28.0085 54.3412 27.3038 54.6401C26.599 54.94 25.7844 54.6099 25.4859 53.9043L24.7133 52.079C24.4999 51.5752 23.918 51.34 23.4148 51.5536C22.9115 51.7661 22.6766 52.3487 22.89 52.8525L23.6626 54.6789C23.9611 55.3844 23.6325 56.1989 22.9266 56.4978C22.2219 56.7966 21.4083 56.4676 21.1087 55.761L20.321 53.9L18.9449 50.6485C18.6454 49.943 17.8318 49.6128 17.1271 49.9128C16.4213 50.2116 16.0926 51.0272 16.3911 51.7327L16.932 53.0111C17.5732 54.5236 16.8674 56.2691 15.3566 56.9099C13.8447 57.5518 12.1012 56.8441 11.4611 55.3327L10.6788 53.4858L5.92447 42.2565C2.56887 34.3294 1.14755 26.4908 0.683108 19.7817L16.418 13.105ZM19.4245 35.268C18.849 33.9076 17.279 33.2711 15.9191 33.8483C14.5592 34.4254 13.9245 35.9962 14.501 37.3576C15.0764 38.7202 16.6465 39.3545 18.0064 38.7773C19.3663 38.2013 20.0021 36.6294 19.4245 35.268ZM16.5592 28.4985C15.9827 27.137 14.4126 26.5005 13.0527 27.0788C11.6939 27.6559 11.0581 29.2267 11.6346 30.5881C12.2111 31.9496 13.7801 32.585 15.14 32.0089C16.4999 31.4318 17.1346 29.8599 16.5592 28.4985ZM13.6928 21.729C13.1163 20.3675 11.5462 19.731 10.1874 20.3082C8.82642 20.8854 8.19171 22.4561 8.76822 23.8186C9.34473 25.1801 10.9137 25.8155 12.2747 25.2394C13.6335 24.6612 14.2693 23.0894 13.6928 21.729ZM1.8053 0.510742C1.8053 0.510742 7.83598 4.10813 14.6621 11.2153L14.9777 11.5458L0.567141 17.6605C0.14365 7.56396 1.8053 0.510742 1.8053 0.510742Z" fill="white"/>
</svg>
