<svg width="55" height="56" viewBox="0 0 55 56" fill="none" xmlns="http://www.w3.org/2000/svg">
<path d="M54.0419 12.6903C54.0618 12.764 54.0722 12.8399 54.0722 12.9162V24.7717C54.0722 25.0814 53.9065 25.3674 53.6378 25.5215L43.6873 31.2505V42.6057C43.6873 42.9147 43.523 43.2 43.2551 43.3556L22.4842 55.3126C22.4366 55.3396 22.3848 55.3569 22.3329 55.3753C22.3135 55.3818 22.2951 55.3937 22.2746 55.3991C22.1294 55.4373 21.9767 55.4373 21.8316 55.3991C21.8078 55.3926 21.7862 55.3796 21.7635 55.371C21.7159 55.3537 21.6662 55.3386 21.6209 55.3126L0.854292 43.3556C0.585777 43.2013 0.419922 42.9153 0.419922 42.6057V7.0392C0.419922 6.9614 0.430727 6.88577 0.450176 6.81229C0.45666 6.78744 0.471787 6.76475 0.480431 6.7399C0.496639 6.69451 0.511766 6.64805 0.535538 6.60591C0.551746 6.57782 0.575517 6.55513 0.594967 6.5292C0.619819 6.49462 0.642509 6.45896 0.671684 6.42871C0.696536 6.40385 0.728951 6.38549 0.757045 6.36387C0.78838 6.33794 0.816474 6.30985 0.852131 6.28932H0.853211L11.237 0.310789C11.5046 0.15682 11.8339 0.15682 12.1014 0.310789L22.4853 6.28932H22.4874C22.522 6.31093 22.5512 6.33794 22.5825 6.36279C22.6106 6.38441 22.6419 6.40385 22.6668 6.42763C22.6971 6.45896 22.7187 6.49462 22.7446 6.5292C22.763 6.55513 22.7878 6.57782 22.8029 6.60591C22.8278 6.64913 22.8418 6.69451 22.8591 6.7399C22.8678 6.76475 22.8829 6.78744 22.8894 6.81337C22.9093 6.88701 22.9194 6.96293 22.9196 7.0392V29.2537L31.5725 24.2714V12.9151C31.5725 12.8394 31.5833 12.7627 31.6027 12.6903C31.6103 12.6644 31.6243 12.6417 31.633 12.6169C31.6503 12.5715 31.6654 12.525 31.6892 12.4829C31.7054 12.4548 31.7291 12.4321 31.7475 12.4062C31.7734 12.3716 31.795 12.3359 31.8253 12.3057C31.8502 12.2808 31.8815 12.2624 31.9096 12.2408C31.942 12.2149 31.9701 12.1868 32.0047 12.1663H32.0058L42.3907 6.18775C42.6582 6.03356 42.9876 6.03356 43.2551 6.18775L53.6389 12.1663C53.6756 12.1879 53.7037 12.2149 53.7361 12.2398C53.7631 12.2614 53.7945 12.2808 53.8193 12.3046C53.8496 12.3359 53.8712 12.3716 53.8971 12.4062C53.9166 12.4321 53.9404 12.4548 53.9555 12.4829C53.9803 12.525 53.9944 12.5715 54.0117 12.6169C54.0214 12.6417 54.0354 12.6644 54.0419 12.6903ZM52.3412 24.2714V14.4127L48.7074 16.5046L43.6873 19.395V29.2537L52.3423 24.2714H52.3412ZM41.9574 42.1054V32.2402L37.0194 35.0604L22.9186 43.1081V53.0662L41.9574 42.1054ZM2.15092 8.53573V42.1054L21.1876 53.0651V43.1092L11.2424 37.4808L11.2392 37.4786L11.2349 37.4764C11.2014 37.457 11.1733 37.4289 11.1419 37.4051C11.1149 37.3835 11.0836 37.3662 11.0598 37.3425L11.0577 37.3392C11.0296 37.3122 11.0101 37.2787 10.9864 37.2484C10.9647 37.2193 10.9388 37.1944 10.9215 37.1642L10.9204 37.1609C10.901 37.1285 10.8891 37.0896 10.8751 37.0529C10.861 37.0205 10.8426 36.9902 10.834 36.9556V36.9545C10.8232 36.9135 10.821 36.8703 10.8167 36.8281C10.8124 36.7957 10.8037 36.7633 10.8037 36.7309V36.7287V13.518L5.78472 10.6265L2.15092 8.53681V8.53573ZM11.6703 2.05907L3.01858 7.0392L11.6682 12.0193L20.3188 7.03812L11.6682 2.05907H11.6703ZM16.1696 33.1392L21.1886 30.2499V8.53573L17.5548 10.6276L12.5347 13.518V35.2322L16.1696 33.1392ZM42.8229 7.93604L34.1722 12.9162L42.8229 17.8963L51.4724 12.9151L42.8229 7.93604ZM41.9574 19.395L36.9373 16.5046L33.3035 14.4127V24.2714L38.3225 27.1607L41.9574 29.2537V19.395ZM22.052 41.6116L34.7406 34.3678L41.0832 30.748L32.439 25.7711L22.4863 31.5012L13.4154 36.7233L22.052 41.6116Z" fill="white"/>
</svg>
