<svg width="104" height="53" viewBox="0 0 104 53" fill="none" xmlns="http://www.w3.org/2000/svg">
<path d="M25.6999 2.09894C26.0715 1.4673 26.5545 0.860432 27.2481 0.563189C27.5329 0.513649 27.8178 0.538419 28.1026 0.538419H42.1226C41.7139 0.885202 41.3175 1.24437 41.0451 1.715C40.3267 2.89159 39.8437 4.20441 39.3979 5.51723C38.1346 9.48047 37.2552 13.5552 36.4007 17.6299C36.0167 19.4752 35.6452 21.333 35.2984 23.1784C34.2333 29.2223 33.131 35.2539 31.7562 41.2359C31.0998 43.9978 30.431 46.7596 29.4155 49.4224C28.9448 50.5247 28.4866 51.7013 27.5825 52.5187C27.3719 52.7045 27.1614 52.9398 26.8641 52.9026H14.479C13.6368 52.8779 12.807 52.9522 11.9648 52.8655C12.5222 52.432 13.0176 51.9118 13.3396 51.2926C14.2685 49.5215 14.8506 47.6018 15.4079 45.6945C16.2749 42.623 16.9684 39.5143 17.6248 36.4057C18.0335 34.3621 18.5166 32.331 18.8138 30.2751C19.1482 27.9838 19.656 25.7173 20.0647 23.4385C20.7087 20.0821 21.3899 16.7258 22.1454 13.3942C22.7523 10.7933 23.3715 8.2048 24.2013 5.66585C24.61 4.43973 25.0559 3.22599 25.6999 2.09894Z" fill="#B5B7BA" stroke="#B5B7BA" stroke-width="0.09375"/>
<path d="M42.125 0.538708C42.4841 0.538708 42.8433 0.526323 43.2025 0.538708C43.9951 0.959801 44.6639 1.6286 45.0355 2.4584C45.5309 3.39967 45.9396 4.39048 46.3111 5.40605C47.5497 9.23305 48.3918 13.1715 49.234 17.0976C49.9524 20.615 50.6335 24.1447 51.2776 27.6869C51.3271 27.8726 51.2652 28.1327 51.5129 28.1823C50.6212 32.8391 49.7418 37.5083 48.6272 42.1279C48.0203 44.6173 47.3763 47.0943 46.4598 49.497C45.9644 50.6984 45.4566 52.0112 44.4038 52.8658C43.735 53.0144 43.252 52.5066 42.8433 52.0484C42.1374 51.1443 41.7039 50.0791 41.2828 49.014C39.8833 45.1994 39.0287 41.2238 38.1617 37.2605C37.5053 34.1767 36.9232 31.068 36.3164 27.9717C36.0439 26.3988 35.6723 24.8507 35.4618 23.2778C35.4246 23.253 35.3379 23.2035 35.3008 23.1787C35.6476 21.3333 36.0191 19.4755 36.4031 17.6302C37.2576 13.5555 38.137 9.48075 39.4003 5.51752C39.8461 4.2047 40.3291 2.89188 41.0475 1.71529C41.3199 1.24466 41.7163 0.885491 42.125 0.538708Z" fill="white" stroke="white" stroke-width="0.09375"/>
<path d="M57.6192 2.68136C58.0651 1.82679 58.61 0.873139 59.5761 0.551126C64.4929 0.526356 69.4098 0.538741 74.3267 0.538741C73.8685 0.99699 73.3854 1.45524 73.0758 2.03734C72.1222 3.74648 71.5648 5.6414 70.9951 7.51156C69.5337 12.6638 68.5057 17.9274 67.5273 23.1911C66.6232 28.3805 65.6571 33.5698 64.5549 38.7344C63.9852 41.3353 63.3907 43.9238 62.6352 46.4875C62.1522 48.0728 61.6444 49.6705 60.8517 51.1443C60.4678 51.8131 60.0219 52.5438 59.2912 52.8906C54.5972 52.9277 49.8909 52.8906 45.1969 52.903C44.9369 52.903 44.6644 52.903 44.4043 52.8658C45.457 52.0112 45.9648 50.6984 46.4602 49.4971C47.3767 47.0944 48.0207 44.6173 48.6276 42.1279C49.7423 37.5083 50.6216 32.8391 51.5133 28.1823C52.5909 22.1755 53.7179 16.1687 55.1546 10.2363C55.8234 7.67256 56.4674 5.07169 57.6192 2.68136Z" fill="#B5B7BA" stroke="#B5B7BA" stroke-width="0.09375"/>
<path d="M74.3248 0.538708C74.7211 0.538708 75.1298 0.526323 75.5262 0.538708C76.1702 0.873105 76.6284 1.44282 77.0372 2.02492C77.706 3.09004 78.127 4.29139 78.5605 5.46798C79.5885 8.62618 80.3564 11.8711 81.0623 15.116C82.0036 19.4879 82.821 23.8846 83.626 28.2813C83.8242 29.3341 84.0224 30.3992 84.1462 31.4643C84.1957 31.5139 84.2948 31.6129 84.332 31.6501C83.8861 32.2694 83.7127 33.0125 83.465 33.7184C82.6848 36.2326 82.177 38.8335 81.7435 41.4219C81.4091 43.4531 80.9508 45.4719 80.3192 47.4287C79.8486 48.8778 79.2789 50.3144 78.3376 51.5282C77.8917 52.1103 77.2849 52.5562 76.6161 52.8534C75.5881 52.9649 74.9812 51.9741 74.4858 51.2433C73.4579 49.4475 72.9005 47.4411 72.306 45.4843C70.3492 38.239 69.0735 30.8203 67.6988 23.4512C67.6864 23.3397 67.6245 23.2406 67.5254 23.1911C68.5038 17.9274 69.5318 12.6637 70.9932 7.51152C71.5629 5.64137 72.1203 3.74645 73.0739 2.03731C73.3835 1.45521 73.8666 0.996957 74.3248 0.538708Z" fill="white" stroke="white" stroke-width="0.09375"/>
<path d="M0.375 28.7144C0.697013 28.6897 1.01903 28.6401 1.35342 28.6401H14.8532C15.4229 28.7144 16.0174 28.6649 16.5623 28.9126C17.355 29.2346 18.0609 29.7796 18.5811 30.4607C18.643 30.4236 18.7545 30.3245 18.8164 30.275C18.5192 32.3309 18.0362 34.3621 17.6275 36.4056C16.971 39.5143 16.2775 42.6229 15.4105 45.6944C14.8532 47.6017 14.2711 49.5214 13.3422 51.2925C13.0202 51.9118 12.5248 52.4319 11.9675 52.8654C11.7569 52.9026 11.5959 52.7539 11.4225 52.6425C10.8404 52.2709 10.506 51.6269 10.1468 51.0448C8.45009 47.1806 8.26431 42.9078 7.21158 38.8702C6.67902 36.8515 6.02261 34.8451 5.05657 32.9873C4.46208 31.8726 3.73136 30.8075 2.77771 29.953C2.07176 29.3832 1.25434 28.925 0.375 28.7144Z" fill="white" stroke="white" stroke-width="0.09375"/>
<path d="M85.423 30.0028C86.2033 29.1234 87.3675 28.5661 88.544 28.6156H98.6998C100.112 28.6404 101.536 28.5661 102.948 28.6528C102.527 28.9376 102.019 29.0491 101.573 29.2844C100.025 29.9904 98.6998 31.167 97.8576 32.6408C96.5077 34.9939 96.037 37.6939 95.6407 40.3443C95.2444 42.9452 95.2568 45.6328 94.4146 48.1593C93.8449 49.9304 92.9779 51.7138 91.4793 52.878C86.8225 52.9276 82.1657 52.8904 77.5213 52.9028C77.2117 52.9028 76.9144 52.9152 76.6172 52.8533C77.286 52.556 77.8928 52.1102 78.3387 51.5281C79.28 50.3143 79.8497 48.8777 80.3203 47.4286C80.952 45.4718 81.4102 43.453 81.7446 41.4218C82.1781 38.8333 82.6859 36.2325 83.4661 33.7183C83.7138 33.0123 83.8872 32.2692 84.3331 31.65C84.7047 31.105 84.9524 30.4734 85.423 30.0028Z" fill="#B5B7BA" stroke="#B5B7BA" stroke-width="0.09375"/>
</svg>
