<svg width="52" height="67" viewBox="0 0 52 67" fill="none" xmlns="http://www.w3.org/2000/svg">
<path d="M0.0820312 50.5422C0.1259 50.6083 0.154883 50.5644 0.164545 50.5229C0.192224 50.4035 0.204763 50.2804 0.235054 50.162C0.642148 48.5739 1.61901 47.5461 3.19961 47.1621C5.0455 46.7129 6.98227 47.7939 7.65179 49.605C8.30278 51.3651 7.75625 53.2343 6.26627 54.3523C4.85436 55.4108 2.77398 55.2979 1.47435 54.0999C0.767226 53.448 0.325401 52.6548 0.180999 51.6954C0.178097 51.6605 0.169262 51.6265 0.154886 51.5947C0.134257 51.5564 0.104488 51.5569 0.0822926 51.5989L0.0820312 50.5422Z" fill="white"/>
<path d="M0.0811236 28.0292C0.0983579 28.0398 0.094441 28.0863 0.133349 28.0591C0.185574 28.0239 0.174087 27.9674 0.182182 27.9174C0.467854 26.1751 1.78993 24.843 3.51205 24.6071C4.38167 24.4843 5.26661 24.667 6.01926 25.1245C6.77192 25.5821 7.3468 26.287 7.64802 27.1216C8.20631 28.6763 7.94231 30.1074 6.84036 31.3388C6.11339 32.1507 5.18169 32.5542 4.09018 32.5838C2.21347 32.6367 0.481429 31.2082 0.179046 29.2206C0.17069 29.1651 0.205157 29.0605 0.0800781 29.0861L0.0811236 28.0292Z" fill="white"/>
<path d="M0.0820312 39.2859C0.123811 39.352 0.154883 39.3123 0.164545 39.269C0.195357 39.1321 0.208155 38.9908 0.245496 38.856C0.683926 37.2796 1.6702 36.2475 3.26071 35.9034C5.26224 35.4706 7.22146 36.721 7.77165 38.7239C8.25891 40.4974 7.53429 42.3503 5.98738 43.2864C4.06158 44.452 1.52606 43.6778 0.546052 41.6255C0.367181 41.251 0.236096 40.8621 0.180476 40.4485C0.170292 40.3738 0.167681 40.374 0.0822926 40.3429V40.2372C0.0992658 40.2488 0.110754 40.2469 0.113365 40.2306C0.114666 40.2254 0.114876 40.2201 0.113977 40.2149C0.113078 40.2097 0.11109 40.2047 0.10815 40.2003C0.10521 40.196 0.101389 40.1923 0.0969299 40.1895C0.092471 40.1867 0.0874798 40.185 0.0822926 40.1843L0.0820312 39.2859Z" fill="white"/>
<path d="M0.0808623 16.8257C0.166773 16.7887 0.170167 16.7893 0.178523 16.7163C0.212267 16.4368 0.282513 16.1631 0.387423 15.9022C0.886956 14.6318 1.77374 13.7683 3.0906 13.4504C4.66153 13.0712 6.00763 13.5334 7.03359 14.798C8.36533 16.4386 8.18959 18.8559 6.64608 20.2941C4.8088 22.0071 2.01006 21.536 0.744641 19.4919C0.460547 19.037 0.269225 18.5292 0.181921 17.9984C0.178882 17.9548 0.168915 17.912 0.15241 17.8716C0.132304 17.8333 0.100185 17.8399 0.0800781 17.8822L0.0808623 16.8257Z" fill="white"/>
<path d="M51.6526 40.7661C51.5605 40.7133 51.5654 40.7976 51.5555 40.8425C51.4959 41.1171 51.4058 41.3841 51.2871 41.6383C50.7235 42.8234 49.814 43.6053 48.5421 43.8579C46.9821 44.1668 45.6648 43.6629 44.6889 42.389C43.3977 40.7032 43.6335 38.3198 45.2112 36.9077C47.0083 35.3004 49.76 35.7145 51.0497 37.7837C51.2656 38.1348 51.4275 38.5171 51.5299 38.9175C51.5409 38.9776 51.5584 39.0362 51.5821 39.0924C51.6012 39.1294 51.6372 39.1189 51.6526 39.0758V39.5514C51.6302 39.5377 51.621 39.5438 51.6221 39.5704C51.6221 39.5913 51.632 39.6027 51.6526 39.6043V40.2913C51.6265 40.2952 51.6203 40.3124 51.6231 40.3357C51.625 40.3515 51.6354 40.3542 51.6526 40.3441V40.7661Z" fill="white"/>
<path d="M26.5467 0.443359C26.566 0.5295 26.6342 0.537956 26.7049 0.553018C27.5698 0.739832 28.2886 1.18877 28.8524 1.86548C29.3298 2.43101 29.6378 3.12263 29.7402 3.85913C29.8382 4.54614 29.7836 5.2136 29.5525 5.85887C29.2177 6.79373 28.6226 7.51562 27.7539 7.99917C27.0705 8.37967 26.3386 8.53082 25.5682 8.47083C24.8324 8.4135 24.1634 8.149 23.5743 7.69927C22.7235 7.04951 22.2232 6.18414 22.054 5.11769C21.8668 3.93735 22.1519 2.87512 22.87 1.94686C23.3907 1.27253 24.0801 0.82333 24.905 0.591595C25.0196 0.559623 25.1799 0.606657 25.2418 0.443359H26.5467Z" fill="#B5B7BA"/>
<path d="M51.6547 18.1473C51.5607 18.1008 51.5678 18.1878 51.5584 18.2311C51.5012 18.4973 51.4147 18.7562 51.3006 19.0029C50.6933 20.3003 49.6916 21.1002 48.2899 21.2941C46.8336 21.4957 45.6099 20.9836 44.7062 19.8049C43.4757 18.2004 43.5875 16.0123 44.9733 14.54C45.8854 13.5713 47.0297 13.1633 48.3384 13.3808C49.9911 13.6551 51.028 14.6695 51.5197 16.2755C51.5427 16.3508 51.5571 16.4293 51.5826 16.5035C51.5957 16.5408 51.6268 16.5519 51.6539 16.5091L51.6547 18.1473Z" fill="white"/>
<path d="M51.6533 29.5093C51.5601 29.4589 51.5661 29.5453 51.5564 29.5886C51.4886 29.907 51.3797 30.215 51.2326 30.5047C50.5832 31.7712 49.5499 32.5058 48.1587 32.6714C46.5893 32.8588 45.075 32.0108 44.3311 30.5885C43.8798 29.7292 43.7495 28.7341 43.9642 27.7856C44.1789 26.8371 44.7242 25.9986 45.5001 25.4237C47.1713 24.1818 49.5857 24.5441 50.8328 26.2236C51.1702 26.6731 51.4129 27.1878 51.5457 27.736C51.5695 27.8343 51.5718 27.8338 51.6525 27.8713V29.034C51.6481 29.0337 51.6437 29.0344 51.6396 29.0361C51.6355 29.0377 51.6318 29.0403 51.6288 29.0435C51.6258 29.0468 51.6235 29.0507 51.6222 29.0549C51.6208 29.0591 51.6204 29.0636 51.6209 29.0681C51.6209 29.0945 51.6301 29.1016 51.6525 29.0868L51.6533 29.5093Z" fill="white"/>
<path d="M51.653 52.0222C51.5801 51.9411 51.5697 52.0302 51.5613 52.0651C51.5217 52.2448 51.4693 52.4214 51.4047 52.5935C50.8328 54.031 49.8063 54.9022 48.2845 55.1458C46.4976 55.4322 44.5974 54.3002 44.0297 52.3277C43.515 50.5394 44.2365 48.6707 45.8001 47.7171C47.4465 46.713 49.641 47.1381 50.8109 48.6844C51.1513 49.1312 51.3992 49.6428 51.5397 50.1887C51.5488 50.2402 51.5632 50.2906 51.5825 50.3391C51.601 50.3766 51.6347 50.3739 51.6538 50.3303V50.7531C51.5467 50.8588 51.6217 50.9645 51.6538 51.0702V51.2816C51.6277 51.3873 51.535 51.493 51.6538 51.5987L51.653 52.0222Z" fill="white"/>
<path d="M25.5011 66.5026C25.4802 66.4172 25.4144 66.4067 25.3416 66.3969C24.6751 66.3026 24.0458 66.0288 23.5197 65.6042C22.7181 64.96 22.2222 64.1258 22.0551 63.0997C21.8723 61.9857 22.1164 60.9668 22.7601 60.0513C23.1599 59.4829 23.6845 59.0599 24.3161 58.7708C24.8397 58.5311 25.3841 58.4064 25.9576 58.4188C26.5939 58.4323 27.217 58.606 27.7703 58.9243C28.4252 59.2942 28.9365 59.8076 29.2872 60.4743C29.9202 61.6774 29.9706 62.9092 29.4023 64.1503C28.9062 65.2337 28.0724 65.9334 26.9514 66.2856C26.7864 66.3385 26.6135 66.3649 26.4433 66.3964C26.3709 66.4096 26.3049 66.4183 26.284 66.5036L25.5011 66.5026Z" fill="#B5B7BA"/>
<path d="M51.6532 51.071C51.6211 50.9653 51.5461 50.8596 51.6532 50.7539V51.071Z" fill="white"/>
<path d="M51.6529 51.5993C51.534 51.4936 51.6267 51.3879 51.6529 51.2822V51.5993Z" fill="white"/>
<path d="M51.6526 29.0856C51.6304 29.1002 51.6205 29.0939 51.6213 29.067C51.6208 29.0626 51.6212 29.0582 51.6226 29.054C51.6239 29.0498 51.6262 29.0459 51.6291 29.0427C51.6321 29.0395 51.6358 29.037 51.6398 29.0353C51.6439 29.0337 51.6482 29.033 51.6526 29.0333V29.0856Z" fill="#010101"/>
<path d="M51.6533 39.6018C51.6329 39.6002 51.6241 39.589 51.623 39.5683C51.623 39.5421 51.6311 39.5359 51.6533 39.5495V39.6018Z" fill="#010101"/>
<path d="M0.0820312 40.1846C0.0871661 40.1852 0.0921068 40.187 0.0965208 40.1897C0.100935 40.1924 0.104718 40.1961 0.107628 40.2004C0.110538 40.2048 0.112506 40.2097 0.113396 40.2148C0.114286 40.22 0.114078 40.2253 0.11279 40.2303C0.110205 40.2466 0.098833 40.2484 0.0820312 40.2369V40.1846Z" fill="#010101"/>
<path d="M51.6529 40.3428C51.6358 40.3528 51.6255 40.3502 51.6237 40.3345C51.6208 40.3115 51.6275 40.2945 51.6529 40.2905V40.3428Z" fill="#010101"/>
<path d="M25.9338 43.9405C24.0994 43.9323 22.5358 42.6778 22.1169 40.9267C21.6882 39.1352 22.4193 37.327 24.0109 36.4347C25.4032 35.6544 26.8109 35.7278 28.1179 36.6561C29.3501 37.5315 29.8883 38.7877 29.771 40.2917C29.6326 42.0676 28.385 43.4945 26.6511 43.8716C26.4156 43.9239 26.1748 43.947 25.9338 43.9405Z" fill="white"/>
<path d="M36.4298 24.6876C38.8301 24.6699 40.4869 26.2561 40.7024 28.2487C40.875 29.8426 40.0574 31.5805 38.4306 32.342C36.9573 33.0314 35.0949 32.6694 34.0034 31.4502C32.6657 29.9557 32.5573 27.8173 33.7684 26.2184C34.5325 25.2066 35.5684 24.7017 36.4298 24.6876Z" fill="white"/>
<path d="M14.8447 55.1994C13.5913 55.1424 12.5 54.5753 11.7373 53.4328C11.3592 52.8668 11.143 52.2326 11.0845 51.5356C10.9745 50.1935 11.4292 49.0782 12.3776 48.1747C12.9659 47.614 13.6876 47.3044 14.5031 47.2058C15.6231 47.0705 16.6068 47.3881 17.458 48.1021C18.1393 48.6736 18.5634 49.4262 18.7605 50.3042C18.9754 51.2613 18.8407 52.1774 18.4111 53.0443C17.9722 53.9295 17.2677 54.5375 16.3704 54.9188C15.9169 55.1117 15.4385 55.1878 14.8447 55.1994Z" fill="#B5B7BA"/>
<path d="M36.8214 55.1991C35.3878 55.1294 34.2587 54.515 33.5001 53.2599C33.1884 52.7439 33.0131 52.1803 32.9575 51.5715C32.8335 50.2122 33.2878 49.0773 34.2592 48.1628C34.8512 47.6063 35.5735 47.3014 36.3887 47.201C37.188 47.1024 37.9265 47.2618 38.6289 47.6254C39.3212 47.9834 39.8434 48.5253 40.2186 49.2132C40.4949 49.7137 40.6593 50.2694 40.7004 50.8411C40.7996 52.1887 40.3557 53.3178 39.3742 54.2112C38.8039 54.7301 38.1257 55.066 37.3431 55.1495C37.1703 55.1693 36.9995 55.1976 36.8214 55.1991Z" fill="#B5B7BA"/>
<path d="M14.5564 24.6866C16.9514 24.6755 18.6039 26.2384 18.8235 28.2078C19.019 29.9723 18.1469 31.5681 16.5707 32.3299C15.0998 33.0417 13.2435 32.6773 12.142 31.4605C10.7868 29.9631 10.6823 27.7892 11.919 26.1869C12.687 25.1931 13.7179 24.6953 14.5564 24.6866Z" fill="white"/>
<path d="M14.9394 43.9426C13.4957 43.8937 12.3867 43.2514 11.625 42.0028C11.3046 41.4773 11.1414 40.9023 11.0863 40.2853C10.9984 39.2976 11.2341 38.4015 11.7934 37.597C12.3707 36.7654 13.1586 36.2356 14.1435 36.0161C14.9593 35.8343 15.7547 35.9252 16.5117 36.2539C17.0396 36.4855 17.507 36.8384 17.8768 37.2844C18.3521 37.8491 18.6584 38.4861 18.7856 39.212C18.9835 40.3419 18.7532 41.3816 18.0894 42.3088C17.5238 43.0992 16.7676 43.6216 15.8213 43.8443C15.5335 43.9149 15.2416 43.9569 14.9394 43.9426Z" fill="#B5B7BA"/>
<path d="M36.8506 43.9377C36.0278 43.9535 35.3071 43.7263 34.6749 43.2811C33.8824 42.7222 33.3238 41.9728 33.0747 41.0086C32.9794 40.6408 32.9112 40.2653 32.9232 39.8901C32.9413 39.3265 33.0538 38.7769 33.2888 38.2553C33.6604 37.4333 34.2432 36.8128 35.017 36.3792C35.47 36.1248 35.9672 36.0093 36.4837 35.9506C37.0404 35.8872 37.5768 35.9636 38.0941 36.1504C39.2495 36.5684 40.0355 37.373 40.4753 38.5343C40.6459 38.9868 40.732 39.4674 40.7293 39.9517C40.7281 40.4544 40.6328 40.9522 40.4484 41.419C40.0849 42.3396 39.4723 43.0385 38.6129 43.4991C38.1337 43.7548 37.6334 43.9588 36.8506 43.9377Z" fill="#B5B7BA"/>
<path d="M25.8865 24.6991C27.9708 24.632 29.7867 26.4362 29.7859 28.689C29.7859 30.972 27.958 32.6943 25.8862 32.6914C23.8296 32.6888 21.9803 30.9675 22.0002 28.6486C22.0192 26.4256 23.8137 24.6402 25.8865 24.6991Z" fill="#B5B7BA"/>
<path d="M29.7721 51.1882C29.7899 52.09 29.5235 52.9091 28.9859 53.6191C28.349 54.4597 27.5157 54.9971 26.4598 55.1438C25.2818 55.3076 24.2454 55.0024 23.3479 54.2071C22.6256 53.5668 22.2034 52.7649 22.0533 51.811C21.8679 50.6327 22.1507 49.565 22.8821 48.646C23.538 47.8205 24.3987 47.3343 25.4581 47.2043C26.3245 47.0986 27.116 47.2902 27.8555 47.7222C28.4537 48.0717 28.9451 48.5814 29.2755 49.1953C29.5345 49.6651 29.7021 50.1808 29.7693 50.7144C29.7881 50.8695 29.7721 51.0302 29.7721 51.1882Z" fill="#B5B7BA"/>
<path d="M25.8972 21.3202C23.7768 21.3855 21.9928 19.5216 21.9981 17.3287C22.0035 15.0697 23.852 13.3205 25.9037 13.3247C27.9347 13.3287 29.8117 15.0726 29.7887 17.3747C29.7671 19.5348 28.0201 21.3783 25.8972 21.3202Z" fill="#B5B7BA"/>
<path d="M14.9392 21.3197C12.8807 21.3636 11.0518 19.6185 11.0586 17.3297C11.0654 15.0547 12.8416 13.3134 14.994 13.3292C17.0945 13.3451 18.8548 15.0911 18.8623 17.3192C18.8694 19.5683 17.0671 21.385 14.9392 21.3197Z" fill="#B5B7BA"/>
<path d="M36.8293 21.32C34.7059 21.3665 32.9232 19.5718 32.9258 17.3274C32.9284 15.0769 34.7127 13.3237 36.8387 13.3306C38.9291 13.3375 40.712 15.0201 40.7295 17.3242C40.7452 19.5922 38.9262 21.3723 36.8293 21.32Z" fill="#B5B7BA"/>
</svg>
