<svg width="26" height="57" viewBox="0 0 26 57" fill="none" xmlns="http://www.w3.org/2000/svg">
<path d="M12.6778 41.7684C12.6778 41.7684 12.6778 22.5307 13.3166 22.5326C13.8105 22.5326 14.4529 47.3479 14.4529 47.3479C13.5691 47.2439 12.6778 43.2649 12.6778 41.7684ZM25.0586 22.7554C23.3522 15.2987 19.6146 8.88742 14.4603 3.93921L14.4473 3.92807C13.8197 2.96999 13.246 1.8708 12.7855 0.712196L12.741 0.585938C12.7428 0.623072 12.7428 0.667634 12.7428 0.712196C12.7428 1.76125 12.2731 2.69891 11.5322 3.32834L11.5267 3.33205C4.89068 8.9654 0.668455 17.2669 0.529199 26.5561V26.5803C0.527343 26.6954 0.527344 26.8309 0.527344 26.9665C0.527344 36.1703 4.95566 44.34 11.7977 49.4609L11.8702 49.5129L12.0317 49.6298C12.33 51.8381 12.585 54.0513 12.7967 56.2695H13.9126C14.2208 53.5011 14.6367 51.0781 15.1807 48.7015L15.0953 49.1452C15.8306 48.6346 16.473 48.1054 17.0727 47.5317L17.0672 47.5373C22.2679 42.7153 25.5135 35.8454 25.5135 28.2198C25.5135 28.1065 25.5135 27.9951 25.5116 27.8819V27.8986C25.506 26.0771 25.3408 24.2965 25.027 22.5679L25.0549 22.7517L25.0586 22.7554Z" fill="white"/>
</svg>
