<svg width="99" height="39" viewBox="0 0 99 39" fill="none" xmlns="http://www.w3.org/2000/svg">
<path d="M25.1246 1.89332C25.2599 1.83061 25.3985 1.7712 25.5371 1.71838C25.4018 1.7712 25.2632 1.83391 25.1246 1.89332ZM5.0463 38.9207H5.46219C6.69006 38.9207 7.03663 38.9207 8.44934 38.9207H9.56168C9.6475 38.9207 9.73332 38.9207 9.81914 38.9207C9.91486 38.9207 10.0172 38.9207 10.1195 38.9207C10.1195 38.9207 10.136 38.9207 10.1393 38.9207C10.1822 38.9207 10.2251 38.9207 10.2647 38.9207C10.2812 38.9207 10.2812 38.9207 10.2944 38.9207C10.3109 38.9207 10.3307 38.9405 10.3506 38.9372C18.1997 38.5346 21.837 34.4747 23.6656 28.6258C25.0882 24.0873 26.2534 20.2684 27.2766 17.0601V17.0634C27.2898 17.0238 27.2997 16.9875 27.3129 16.9479C29.7786 13.4887 32.3267 10.5016 34.624 8.07886H34.6768C38.1921 18.8293 39.5487 38.0097 49.8304 38.0097C50.2463 38.0097 50.6787 38.0196 51.0979 37.9767C50.6787 38.0196 50.2727 38.0758 49.8568 38.0758H58.0228C57.4451 38.0758 56.8972 37.9899 56.3691 37.881C56.0357 37.8117 55.7123 37.7094 55.3954 37.6005C55.7123 37.7061 56.0357 37.7886 56.3724 37.8546C56.9005 37.9635 57.4484 38.013 58.0228 38.013C59.5378 38.013 60.802 37.8975 61.9044 37.5377C60.802 37.8975 59.5378 38.0758 58.0228 38.0758L66.0105 38.0725C66.0798 38.0725 66.1491 38.0725 66.2151 38.0725C66.2151 38.0725 66.2184 38.0725 66.2217 38.0725L66.225 38.056L69.2386 38.0262C68.8524 38.0262 68.4926 37.9569 68.1461 37.8414C68.1494 37.8348 68.156 37.8315 68.1593 37.8249C68.4992 37.9272 68.8524 37.947 69.232 37.947C77.1636 37.947 85.1612 23.7044 98.3938 0.0449219H93.1985L93.2018 0.256168H92.2347C87.3562 8.91724 83.9466 16.3174 81.0552 22.2323C83.9499 16.3108 87.3595 8.91724 92.2347 0.256168H85.0985C84.9632 0.256168 84.8279 0.256168 84.6925 0.256168C84.5638 0.256168 84.4351 0.256168 84.3097 0.256168H84.2932C84.0291 0.256168 83.7749 0.219862 83.5208 0.236365C83.5208 0.239666 83.5175 0.21326 83.5175 0.219861C75.8565 0.681961 72.272 4.5702 70.4698 10.3432C67.3143 20.4301 65.4032 26.959 63.5647 31.1278C63.5647 31.1377 63.5581 31.1377 63.5581 31.141V31.1311C62.7131 31.9562 61.8351 32.7088 60.9769 33.392C60.528 33.7485 60.0791 34.0852 59.6269 34.4021C60.0032 34.8543 60.3894 35.2768 60.7954 35.6629C61.4093 36.2604 62.0662 36.7621 62.7824 37.1483H62.7791C62.0628 36.7621 61.406 36.2604 60.7888 35.6629C60.3828 35.2768 59.9999 34.8543 59.6203 34.4021C60.0725 34.0852 60.5181 33.7452 60.967 33.3887C61.8252 32.7055 62.6834 31.9529 63.5449 31.1278C59.9735 20.4268 58.6928 0.972423 48.3418 0.972423C47.6123 0.972423 46.8763 1.04174 46.1435 1.17377C46.8763 1.03844 47.6123 0.969121 48.3418 0.969121L44.272 0.913011C44.9189 0.913011 45.5296 1.09455 46.1105 1.09455C45.5296 1.09455 44.9156 0.913011 44.272 0.913011C44.2159 0.913011 44.1631 0.899808 44.107 0.903108C44.1631 0.903108 44.2192 0.883302 44.2753 0.883302H27.9038C27.8113 0.883302 27.7189 0.870101 27.6232 0.870101C18.6915 0.870101 6.38309 17.5684 0.837891 38.9075C0.837891 38.9075 1.24058 38.9075 1.90402 38.9075C2.66979 38.9075 5.0397 38.9075 5.0397 38.9075L5.0463 38.9207ZM83.1577 0.965822C80.494 1.8042 78.5334 3.25652 77.0778 5.18083C78.5334 3.25652 80.4907 1.8042 83.1577 0.965822ZM70.6414 36.8314C70.615 36.8446 70.5919 36.8578 70.5655 36.871C70.5292 36.8908 70.4896 36.9073 70.4533 36.9271C70.45 36.9271 70.4467 36.9304 70.4467 36.9304C70.5127 36.8974 70.5754 36.8611 70.6414 36.8314ZM69.5555 37.3133C69.572 37.3001 69.5885 37.3001 69.6083 37.2935C69.5918 37.3034 69.572 37.3067 69.5555 37.3133ZM68.6016 37.6434C68.6643 37.6236 68.7204 37.6071 68.7798 37.5906C68.8095 37.5774 68.8392 37.5674 68.8689 37.5608C68.9052 37.5476 68.9382 37.5377 68.9679 37.5245C69.0042 37.5113 69.0406 37.5047 69.0703 37.4915C69.1 37.4783 69.1264 37.4717 69.1561 37.4585C69.2254 37.4321 69.2947 37.4123 69.3673 37.3859C69.3772 37.3859 69.3871 37.3826 69.3937 37.376C69.3871 37.3793 69.3739 37.3826 69.3673 37.3859C69.298 37.4123 69.232 37.4321 69.1627 37.4585C69.133 37.4717 69.1033 37.4783 69.0769 37.4882C69.0472 37.5014 69.0108 37.5113 68.9745 37.5212C68.9448 37.5344 68.9085 37.541 68.8722 37.5575C68.8425 37.5707 68.8128 37.5741 68.7831 37.5873C68.7204 37.6038 68.6643 37.6203 68.6049 37.6401C68.6016 37.6401 68.595 37.6434 68.5917 37.6434C68.595 37.6434 68.5983 37.6401 68.6016 37.6401V37.6434ZM25.5371 1.74149V1.71838C25.5371 1.71838 25.5569 1.74149 25.5602 1.74149C25.3853 1.74149 25.2137 1.86362 25.042 1.93623C25.0684 1.92303 25.0981 1.90323 25.1246 1.89332C24.9859 1.95274 24.8473 2.01875 24.7087 2.08476C24.636 2.12107 24.5601 2.15408 24.4875 2.19369L25.5371 1.74149ZM27.1446 1.17377C27.1215 1.18697 27.105 1.23648 27.0852 1.23648C26.9399 1.27279 26.7947 1.3124 26.6495 1.352C26.633 1.352 26.6198 1.36521 26.6 1.36851C26.5604 1.37841 26.5208 1.39161 26.4778 1.40482C26.5208 1.39161 26.5604 1.36851 26.6 1.36191C26.6198 1.36191 26.6363 1.3454 26.6495 1.3454C26.7947 1.3058 26.9399 1.26619 27.0852 1.22988C27.105 1.22988 27.1215 1.17377 27.1446 1.17377C27.1842 1.16056 27.2238 1.10445 27.2667 1.10115C27.2238 1.10445 27.1842 1.17047 27.1446 1.17707V1.17377ZM27.336 1.15396C27.3162 1.16717 27.2931 1.18037 27.2733 1.18697C27.2931 1.17377 27.3129 1.15066 27.336 1.14406C27.3789 1.13086 27.4185 1.09785 27.4648 1.09785C27.4185 1.09785 27.3789 1.14736 27.336 1.15396ZM28.9303 1.10115C28.8511 1.08795 28.7751 1.09455 28.6992 1.09455C28.6959 1.09455 28.6926 1.09455 28.6926 1.09455C28.7685 1.09455 28.8445 1.08465 28.9237 1.09455C28.9336 1.09455 28.9402 1.09125 28.9501 1.09125C28.9435 1.09455 28.9402 1.10115 28.9303 1.10115ZM29.1349 0.99883C28.9435 0.99883 28.7553 1.03844 28.5606 1.05164C28.587 1.05164 28.6134 1.08465 28.6398 1.09125C28.5903 1.08465 28.5408 1.05494 28.4913 1.05164C28.5144 1.04834 28.5375 1.03514 28.5606 1.03514C28.5474 1.03514 28.5474 1.02854 28.5342 1.02854C28.5177 1.01533 28.4946 1.00873 28.4946 1.00873V1.02523C28.2833 1.03844 28.2965 1.04174 28.2041 1.05164L28.1909 1.03514C28.1645 1.03514 28.1447 1.04834 28.1216 1.04834C28.0853 1.06154 28.0424 1.06154 28.0028 1.06484C27.9797 1.06484 27.9566 1.06484 27.9335 1.07804C27.8906 1.09125 27.8509 1.09785 27.8113 1.10445C27.808 1.10445 27.8047 1.10775 27.8014 1.10775C27.8047 1.10775 27.808 1.10775 27.8113 1.10775C27.8542 1.10775 27.8906 1.08795 27.9335 1.07804C27.9566 1.07804 27.9797 1.06484 28.0028 1.06484C28.0424 1.06484 28.082 1.04834 28.1216 1.04174C28.1414 1.04174 28.1612 1.04174 28.1876 1.02854C28.2668 1.01863 28.3461 1.01203 28.4253 1.00543C28.4418 1.00543 28.455 1.00873 28.4715 1.00873C28.6959 0.988926 28.9138 0.982326 29.1349 0.982326V0.99883ZM29.6663 1.22988C29.5178 1.19027 29.366 1.16056 29.2141 1.13416C29.2009 1.13416 29.1877 1.12756 29.1745 1.12425C29.1844 1.12756 29.1976 1.13086 29.2108 1.13086C29.3627 1.16057 29.5178 1.19027 29.6663 1.22988C29.6696 1.22988 29.6729 1.23318 29.6762 1.23318C29.6729 1.23318 29.6729 1.23318 29.6696 1.23318L29.6663 1.22988ZM32.8977 3.81104C32.8977 3.81104 32.8977 3.81434 32.8944 3.81434C32.429 3.02877 31.9174 2.36863 31.3497 1.88672C31.3563 1.89002 31.3662 1.89662 31.3728 1.89992C31.9306 2.38513 32.4323 3.03537 32.8944 3.81434L32.8977 3.81104ZM41.912 1.19357C42.5061 1.08135 43.1035 1.00873 43.6911 0.982326C43.1002 1.01203 42.5061 1.08135 41.9087 1.19687L41.912 1.19357ZM43.7076 1.86361C44.3479 1.62596 44.985 1.43782 45.622 1.29589C44.9816 1.43782 44.3446 1.62596 43.7076 1.86361ZM53.2631 37.5476C53.6493 37.4453 54.0388 37.3232 54.425 37.1879C54.0355 37.3232 53.6493 37.442 53.2631 37.5476ZM63.2709 36.8974C63.2478 36.9106 63.2247 36.9205 63.2016 36.9337C63.2247 36.9205 63.2511 36.9073 63.2742 36.8941L63.2709 36.8974ZM65.2711 35.1612L65.2744 35.1447C65.2744 35.1447 65.2744 35.1414 65.2777 35.1414C65.796 36.0227 66.3703 36.7489 67.0172 37.2506C66.3703 36.7588 65.7894 36.0491 65.2711 35.1612ZM66.7433 37.9998C66.7169 38.013 66.6937 38.013 66.6673 38.013C66.664 38.013 66.664 38.013 66.6607 38.013C66.6871 38.013 66.7136 38.013 66.7367 37.9998C66.7862 37.9998 66.8357 37.9998 66.8885 37.9866C66.8918 37.9866 66.8951 37.9866 66.8951 37.9866C66.8423 37.9998 66.7928 37.9998 66.7433 37.9998ZM67.3671 37.9305C67.311 37.9404 67.2516 37.9437 67.1922 37.9569C67.1757 37.9569 67.1591 37.9701 67.1426 37.9701H67.1294C67.0766 37.9767 67.0205 37.9866 66.9677 37.9866C66.9644 37.9866 66.9611 37.9866 66.9611 37.9866C67.0139 37.9866 67.07 37.9734 67.1228 37.9701H67.136C67.1525 37.9701 67.1691 37.9569 67.1856 37.9569C67.245 37.9437 67.3044 37.9371 67.3605 37.9305C67.3671 37.9305 67.3704 37.9305 67.3737 37.9305C67.3704 37.9305 67.3704 37.9305 67.3671 37.9305Z" fill="white"/>
</svg>
