<svg width="54" height="57" viewBox="0 0 54 57" fill="none" xmlns="http://www.w3.org/2000/svg">
<mask id="mask0_510_350" style="mask-type:luminance" maskUnits="userSpaceOnUse" x="0" y="0" width="54" height="57">
<path d="M53.0631 0.734375H0.171875V56.418H53.0631V0.734375Z" fill="white"/>
</mask>
<g mask="url(#mask0_510_350)">
<path d="M16.9262 45.5759C16.9262 47.3828 15.4479 49.0254 13.4768 49.0254C11.5057 49.0254 10.0273 47.547 10.0273 45.5759V30.7927C10.0273 28.9858 11.5057 27.3433 13.4768 27.3433C15.4479 27.3433 16.9262 28.8216 16.9262 30.7927V45.5759Z" fill="white"/>
</g>
<mask id="mask1_510_350" style="mask-type:luminance" maskUnits="userSpaceOnUse" x="0" y="0" width="54" height="57">
<path d="M53.0631 0.734375H0.171875V56.418H53.0631V0.734375Z" fill="white"/>
</mask>
<g mask="url(#mask1_510_350)">
<path d="M26.7815 49.5192C26.7815 51.3261 25.3031 52.9687 23.332 52.9687C21.3609 52.9687 20.0469 51.4903 20.0469 49.5192V27.0158C20.0469 25.209 21.5252 23.5664 23.4963 23.5664C25.4674 23.5664 26.9457 25.0447 26.9457 27.0158V49.5192H26.7815Z" fill="white"/>
</g>
<mask id="mask2_510_350" style="mask-type:luminance" maskUnits="userSpaceOnUse" x="0" y="0" width="54" height="57">
<path d="M53.0631 0.734375H0.171875V56.418H53.0631V0.734375Z" fill="white"/>
</mask>
<g mask="url(#mask2_510_350)">
<path d="M6.90666 42.293C6.90666 44.0999 5.42834 45.7424 3.45724 45.7424C1.48614 45.7424 0.0078125 44.2641 0.0078125 42.293V34.2443C0.0078125 32.4375 1.48614 30.7949 3.45724 30.7949C5.42834 30.7949 6.90666 32.4375 6.90666 34.2443V42.293Z" fill="white"/>
</g>
<mask id="mask3_510_350" style="mask-type:luminance" maskUnits="userSpaceOnUse" x="0" y="0" width="54" height="57">
<path d="M53.0631 0.734375H0.171875V56.418H53.0631V0.734375Z" fill="white"/>
</mask>
<g mask="url(#mask3_510_350)">
<path d="M36.6369 53.1316C36.6369 54.9384 35.1586 56.581 33.1875 56.581C31.3807 56.581 29.9023 54.9384 29.9023 53.1316V23.2365C29.9023 21.4297 31.3807 19.7871 33.3518 19.7871C35.1586 19.7871 36.8012 21.2654 36.8012 23.2365V53.1316H36.6369Z" fill="white"/>
</g>
<mask id="mask4_510_350" style="mask-type:luminance" maskUnits="userSpaceOnUse" x="0" y="0" width="54" height="57">
<path d="M53.0631 0.734375H0.171875V56.418H53.0631V0.734375Z" fill="white"/>
</mask>
<g mask="url(#mask4_510_350)">
<path d="M47.4783 51.6551C46.8213 51.6551 46.3285 51.4908 45.6714 51.3265L41.565 50.0125C40.9079 49.8482 40.4152 49.0269 40.7437 48.3699C40.9079 47.7129 41.7292 47.2201 42.3863 47.5486L46.657 48.8627C47.4783 49.1912 48.4638 49.0269 49.2851 48.3699C50.1064 47.8771 50.4349 46.8916 50.4349 46.0703V18.6391C50.4349 17.3251 49.6136 16.1753 48.4638 15.8467L8.22053 3.69162C7.39924 3.3631 6.41369 3.52736 5.5924 4.02013C4.93536 4.67717 4.44259 5.49846 4.44259 6.48401V25.3737C4.44259 26.195 3.78555 26.6878 3.12852 26.6878C2.30723 26.6878 1.81445 26.0308 1.81445 25.3737V6.48401C1.81445 4.67717 2.63574 3.03458 4.11407 2.04903C5.5924 0.899226 7.39924 0.734967 9.04182 1.22774L49.1209 13.3829C51.4205 14.0399 53.0631 16.3395 53.0631 18.8034V46.2345C53.0631 48.0414 52.2418 49.684 50.7635 50.8338C49.7779 51.1623 48.6281 51.6551 47.4783 51.6551Z" fill="white"/>
</g>
</svg>
