<svg width="65" height="56" viewBox="0 0 65 56" fill="none" xmlns="http://www.w3.org/2000/svg">
<path d="M64.945 34.0792C64.9174 34.6938 64.1048 35.3822 62.4334 36.2547C58.9918 38.0457 41.1712 45.3871 37.3797 47.3531C36.0237 48.3177 34.3317 48.8955 32.5084 48.8955C31.0328 48.8955 29.6469 48.5179 28.4383 47.8549L28.482 47.878C25.4801 46.4461 6.5223 38.7847 3.10598 37.1525C1.40012 36.3467 0.529927 35.6492 0.5 35.0046V41.5196C0.5 42.1688 1.39782 42.8617 3.10598 43.6674C6.5223 45.2996 25.487 52.961 28.482 54.3929C29.6423 55.0306 31.0259 55.4058 32.4969 55.4058C34.3271 55.4058 36.0214 54.8257 37.405 53.8381L37.3797 53.8565C41.1712 51.879 58.9918 44.5537 62.4334 42.7581C64.183 41.8465 64.9565 41.1466 64.9565 40.4974C64.9565 39.8482 64.9565 34.0723 64.9565 34.0723L64.945 34.0792Z" fill="white"/>
<path d="M64.9408 23.457C64.9108 24.0717 64.1005 24.7577 62.4315 25.6302C58.9898 27.4212 41.1693 34.7626 37.3777 36.7286C36.0195 37.6978 34.3251 38.2757 32.495 38.2757C31.0239 38.2757 29.6403 37.9004 28.4363 37.242L28.4801 37.265C25.4781 35.8216 6.52034 28.1602 3.10403 26.528C1.39817 25.7223 0.527974 25.0248 0.498047 24.3802V30.8951C0.498047 31.5443 1.39587 32.2372 3.10403 33.043C6.52034 34.6752 25.4828 42.3366 28.4801 43.7685C29.645 44.4085 31.0308 44.786 32.5065 44.786C34.332 44.786 36.0218 44.2082 37.4053 43.2275L37.38 43.2459C41.1716 41.2684 58.9921 33.9385 62.4338 32.1475C64.1834 31.2335 64.9569 30.536 64.9569 29.8822C64.9569 29.2284 64.9569 23.457 64.9569 23.457H64.9408Z" fill="white"/>
<path d="M64.9425 12.4398C64.9747 11.7837 64.1183 11.2104 62.394 10.5751C59.0537 9.34805 41.3252 2.29671 37.9365 1.05358C36.721 0.496471 35.3029 0.171875 33.8065 0.171875C32.1168 0.171875 30.5237 0.586253 29.1218 1.31832L29.177 1.2907C25.1921 2.7226 6.33096 10.1193 2.9768 11.4314C1.29857 12.0922 0.476721 12.7022 0.506648 13.3514V19.8663C0.506648 20.5155 1.40447 21.2085 3.11263 22.0142C6.52894 23.6464 25.4913 31.3101 28.4887 32.742C29.6489 33.3797 31.0325 33.7526 32.5035 33.7526C34.3337 33.7526 36.0281 33.1725 37.4139 32.1872L37.3886 32.2056C41.1802 30.2281 59.0007 22.8982 62.4424 21.1072C64.192 20.1932 64.9655 19.4957 64.9655 18.8419C64.9655 18.1881 64.9655 12.4167 64.9655 12.4167H64.9448L64.9425 12.4398ZM23.5806 18.6186L38.5166 16.3257L34.0045 22.942L23.5806 18.6186ZM56.6181 12.6608L46.8272 16.5283L37.9987 13.0222L47.7734 9.15697L56.6088 12.6493L56.6181 12.6608ZM30.6849 6.24942L29.2392 3.58589L33.7467 5.347L37.9964 3.95653L36.8476 6.70984L41.1779 8.32131L35.593 8.90144L34.3429 11.9195L32.3194 8.56533L25.8735 7.98521L30.6872 6.24942H30.6849ZM19.5726 10.0064C23.9835 10.0064 27.554 11.3923 27.554 13.1005C27.554 14.8086 23.9651 16.1945 19.5726 16.1945C15.1802 16.1945 11.5751 14.8063 11.5751 13.1005C11.5751 11.3946 15.1503 10.0064 19.5726 10.0064Z" fill="white"/>
</svg>
