<svg width="57" height="57" viewBox="0 0 57 57" fill="none" xmlns="http://www.w3.org/2000/svg">
<path d="M47.4122 37.9802C43.3682 37.9802 39.9463 40.4688 38.7019 44.2018H25.6365C25.6365 42.0242 25.0144 40.1577 24.0811 38.6023L46.1679 15.8934C47.1012 15.8934 48.0344 16.2045 48.9676 16.2045C53.3228 16.2045 56.7447 12.7826 56.7447 8.42743C56.7447 4.07229 53.3228 0.650391 48.9676 0.650391C44.6125 0.650391 41.1906 4.07229 41.1906 8.42743C41.1906 9.36067 41.5017 10.605 41.8128 11.5382L20.0371 33.9361C18.1706 32.3807 15.6819 31.7585 13.1933 31.7585V18.6931C16.9262 17.4488 19.4149 14.0269 19.4149 9.98284C19.4149 4.69445 15.3708 0.650391 10.0824 0.650391C4.79406 0.650391 0.75 4.69445 0.75 9.98284C0.75 14.0269 3.23865 17.4488 6.97163 18.6931V33.3139C3.23865 35.4915 0.75 39.5356 0.75 43.8907C0.75 50.7345 6.34947 56.334 13.1933 56.334C17.8595 56.334 21.9035 53.8453 23.77 50.1124H38.3909C39.6352 53.5342 43.0571 56.334 47.1011 56.334C52.0784 56.334 56.4336 52.2899 56.4336 47.0015C56.7447 42.0242 52.3895 37.9802 47.4122 37.9802Z" fill="white"/>
</svg>
