<svg width="84" height="57" viewBox="0 0 84 57" fill="none" xmlns="http://www.w3.org/2000/svg">
<path d="M40.6932 1.65208L43.2449 1.03151C45.9751 0.55047 48.765 0.524619 51.5035 0.954979L54.2702 1.62703L57.0272 2.71234L58.2224 3.29953L59.7884 4.23873C62.6922 6.17938 65.1774 8.69253 67.0945 11.6272C67.407 12.1596 67.7195 12.6925 68.0319 13.2259C68.2268 13.6202 68.4202 14.0144 68.6123 14.4086C69.6914 16.8843 70.403 19.507 70.7242 22.1922L70.7986 22.7586C70.7269 23.0633 70.8593 23.2066 71.1474 23.304C71.9566 23.5823 72.7561 23.8828 73.5598 24.1764C75.6224 25.2307 77.4848 26.6437 79.0614 28.3507L81.0106 31.1099L81.8171 32.7044C81.9687 33.0982 82.1217 33.4934 82.2734 33.8885C82.5114 34.8236 82.7503 35.7586 82.9902 36.6936C83.0747 37.6129 83.1593 38.5326 83.2438 39.4528L83.0467 42.2218L82.3437 45.0046C81.5978 47.0201 80.5264 48.897 79.1731 50.5592L79.0725 50.6844C77.4607 52.4234 75.5446 53.8471 73.4205 54.8837C71.7059 55.5944 69.9039 56.0681 68.0636 56.2918L65.3066 56.335H21.1941L18.4509 56.3266L15.6842 56.1527C13.7724 55.8205 11.9163 55.2191 10.1702 54.3661C9.52778 53.9654 8.87436 53.5827 8.24024 53.1611C6.14628 51.7558 4.51825 49.8913 3.12595 47.8041L1.8977 45.422C1.90031 45.348 1.88824 45.2741 1.8622 45.2048C1.83616 45.1355 1.79667 45.0722 1.74606 45.0185L0.910676 42.2357L0.513672 39.4528C0.549513 38.5252 0.585811 37.5976 0.622571 36.67L1.13124 33.9094C1.68821 31.9461 2.50375 30.0671 3.55605 28.3229C4.66649 26.7205 5.96225 25.2576 7.41589 23.9649L8.98602 22.7697C9.86827 22.4511 10.3645 21.9 10.1826 20.876C10.1316 20.5907 10.206 20.2832 10.2212 19.9855L10.2336 19.9451L10.1936 19.9256L10.8636 17.2012C11.2829 16.2492 11.7579 15.3232 12.2862 14.4281L12.9175 13.571L14.864 11.6369L15.6773 11.0511C16.5579 10.5135 17.4799 10.0482 18.4344 9.65971C21.1174 8.74772 24.0224 8.74772 26.7054 9.65971C27.2458 9.87677 27.8758 10.3763 28.3018 10.2372C28.7898 10.0771 29.0958 9.35082 29.4804 8.87078C31.1204 7.11123 32.9643 5.55742 34.9724 4.24291L36.6459 3.29396L37.7487 2.76522L40.6932 1.65208ZM42.4384 53.5173C50.3419 53.5173 58.2454 53.5173 66.1489 53.5173C67.0888 53.5356 68.0285 53.4695 68.9569 53.3197C77.9173 51.696 82.9833 42.1661 79.2006 33.8078C76.8903 28.7013 72.876 25.8225 67.2158 25.5066C65.7244 25.4419 64.2303 25.4935 62.7467 25.6611C61.8713 25.7501 61.2303 25.1768 61.1766 24.374C61.1269 23.6129 61.6797 22.9923 62.5151 22.8963C64.0908 22.7154 65.6719 22.5707 67.2558 22.7307C67.8624 22.792 68.003 22.6083 67.9216 22.0225C67.617 19.831 67.0945 17.698 66.1199 15.711C62.5358 8.38239 56.7846 3.98689 48.6321 3.49432C41.4638 3.0602 35.5527 5.98914 30.9072 11.5173C30.5763 11.911 30.7693 12.0836 31.045 12.3521C33.5953 14.8066 34.9255 17.8134 34.9848 21.3755C35 22.2855 34.4499 22.8866 33.6449 22.906C32.8398 22.9255 32.2857 22.3328 32.2305 21.4339C32.2165 20.9484 32.1733 20.4642 32.1009 19.9841C31.3455 15.903 28.9828 13.2106 25.025 12.1545C21.1169 11.1124 17.7754 12.2937 15.148 15.3812C13.3973 17.435 12.8555 19.9187 12.9424 22.5665C12.9685 23.3819 12.6667 23.9232 11.9443 24.2947C10.4202 25.0645 9.04667 26.1063 7.8901 27.3697C4.21498 31.4049 2.51389 36.1009 3.64427 41.5455C5.13169 48.6877 11.1393 53.4978 18.3944 53.5187C26.4049 53.5354 34.4224 53.5173 42.4384 53.5173Z" fill="white"/>
<path d="M34.6632 27.5991C35.0767 27.5671 35.3842 27.812 35.7095 28.0304C36.1106 28.299 36.498 28.587 36.9143 28.8347C37.8352 29.3648 38.8746 28.8973 39.1075 27.8523C39.2275 27.3111 39.2964 26.7587 39.408 26.2146C39.5666 25.4382 40.0642 25.0083 40.8541 24.9902C41.6812 24.9721 42.5083 24.9707 43.3354 24.9902C44.1625 25.0096 44.634 25.4563 44.7746 26.2884C44.8559 26.767 44.8987 27.2624 45.0186 27.7243C45.2626 28.6816 46.2027 29.1004 47.0698 28.6371C47.5137 28.3991 47.9162 28.0805 48.3491 27.8217C48.968 27.4488 49.5966 27.5017 50.1177 27.9998C50.7353 28.5898 51.3354 29.1964 51.9181 29.8198C52.4764 30.4195 52.5094 31.0289 52.0559 31.7107C51.7871 32.1142 51.4756 32.4899 51.2192 32.9004C50.654 33.809 51.091 34.8734 52.1276 35.1267C52.5508 35.2296 52.985 35.2811 53.4124 35.3716C54.1885 35.5358 54.591 35.9574 54.6255 36.7449C54.6627 37.6243 54.6627 38.5064 54.6255 39.3886C54.591 40.172 54.1912 40.6005 53.4124 40.7675C52.9657 40.8635 52.5067 40.9066 52.0559 40.9887C50.9724 41.1905 50.4816 42.2521 51.0372 43.215C51.2688 43.6143 51.5459 43.9859 51.7871 44.3796C52.2241 45.0948 52.1745 45.6709 51.6079 46.2664C51.0413 46.8619 50.4486 47.4491 49.8517 48.0307C49.2548 48.6123 48.6661 48.6402 47.9824 48.1838C47.6957 47.9931 47.431 47.7663 47.1387 47.5841C46.2069 47.0052 45.1358 47.4839 44.9166 48.5664C44.4755 50.7398 44.4755 50.7398 42.2974 50.7398C41.8149 50.7398 41.3324 50.7496 40.85 50.7398C40.0504 50.7176 39.5817 50.3224 39.4094 49.5209C39.3171 49.091 39.2716 48.6527 39.1544 48.2283C38.8635 47.0957 37.8241 46.7089 36.855 47.3656C36.5118 47.598 36.1892 47.8596 35.8487 48.0961C35.1057 48.6151 34.5116 48.5803 33.8692 47.957C33.2884 47.4004 32.7204 46.8267 32.1653 46.2358C31.5905 45.6291 31.5367 45.0559 31.9654 44.3476C32.2039 43.9525 32.4893 43.5851 32.7153 43.183C33.253 42.2215 32.736 41.1641 31.6511 40.9859C31.2665 40.9233 30.8778 40.8872 30.4918 40.8315C29.622 40.7049 29.1574 40.2374 29.1216 39.3691C29.0857 38.5009 29.0885 37.6535 29.1216 36.7978C29.1519 36.013 29.5434 35.5789 30.3098 35.4063C30.7344 35.3062 31.1673 35.2436 31.5905 35.1448C32.6699 34.8915 33.1068 33.8271 32.5072 32.8837C32.2315 32.4565 31.9062 32.0642 31.6318 31.6314C31.25 31.0345 31.2803 30.4251 31.7573 29.9075C32.3804 29.2284 33.0448 28.587 33.7038 27.9414C33.8294 27.8174 33.9804 27.7225 34.1461 27.6634C34.3118 27.6043 34.4882 27.5823 34.6632 27.5991ZM31.8469 38.128C31.9473 38.1646 32.0494 38.1962 32.1529 38.2226C35.3593 38.8265 36.5518 42.3509 35.0478 44.651C34.9678 44.7734 34.8162 44.9292 34.9871 45.0781C35.1843 45.2423 35.3166 45.0183 35.46 44.939C38.0447 43.4084 40.974 44.5675 41.8232 47.4561C41.8728 47.6272 41.7818 47.9403 42.0989 47.9222C42.3484 47.9097 42.2891 47.6356 42.3457 47.4797C43.2527 44.9515 45.8112 43.8718 48.2154 45.0016C48.3891 45.0837 48.5848 45.3216 48.7668 45.1407C49.0011 44.9056 48.6923 44.7233 48.5958 44.5522C47.2173 42.0476 48.4828 39.0616 51.2302 38.3256C51.4439 38.2685 51.7306 38.3102 51.8822 37.9902C51.6548 37.9137 51.4687 37.8511 51.2702 37.7885C48.6041 36.9967 47.4103 34.0469 48.7654 31.6064C48.844 31.4672 48.9336 31.3281 49.0163 31.1889C49.0797 31.0846 49.1197 30.9621 48.9984 30.8884C48.9591 30.8719 48.9169 30.8634 48.8743 30.8634C48.8317 30.8634 48.7895 30.8719 48.7502 30.8884C48.6234 30.9399 48.5117 31.0275 48.3891 31.0902C47.819 31.4069 47.1837 31.585 46.5335 31.6106C45.8833 31.6361 45.2362 31.5082 44.6435 31.2371C44.0508 30.966 43.5289 30.5592 43.1193 30.0489C42.7096 29.5387 42.4235 28.939 42.2836 28.2976C42.2423 28.1167 42.3277 27.8036 42.0258 27.8245C41.7915 27.8412 41.8783 28.1236 41.8397 28.2906C41.3531 30.4376 39.772 31.7928 37.7428 31.8304C36.7953 31.843 35.8692 31.5457 35.1029 30.983C34.9858 30.9023 34.8452 30.7326 34.6894 30.919C34.5722 31.0582 34.7087 31.1723 34.7707 31.2877C34.8148 31.3684 34.8672 31.445 34.9086 31.5257C36.3353 34.0302 35.1567 36.9689 32.3983 37.7871C32.2274 37.8441 31.9985 37.8302 31.8469 38.128Z" fill="white"/>
<path d="M31.8457 38.1293C31.9973 37.8315 32.2262 37.851 32.4109 37.7897C35.1679 36.966 36.3479 34.0329 34.9212 31.5283C34.8743 31.4476 34.8219 31.3711 34.7833 31.2904C34.7213 31.1749 34.5848 31.0608 34.702 30.9217C34.8591 30.7352 34.9997 30.905 35.1155 30.9857C35.8818 31.5484 36.8079 31.8456 37.7554 31.8331C39.7859 31.7955 41.3657 30.4416 41.8523 28.2933C41.8909 28.1263 41.8041 27.8439 42.0384 27.8272C42.3403 27.8063 42.2549 28.1194 42.2962 28.3002C42.4361 28.9417 42.7222 29.5413 43.1319 30.0516C43.5415 30.5619 44.0634 30.9687 44.6561 31.2398C45.2488 31.5109 45.8959 31.6387 46.5461 31.6132C47.1963 31.5877 47.8316 31.4095 48.4017 31.0928C48.5244 31.0288 48.636 30.9426 48.7628 30.8911C48.8021 30.8745 48.8443 30.866 48.8869 30.866C48.9295 30.866 48.9717 30.8745 49.011 30.8911C49.1323 30.9648 49.0923 31.0873 49.0289 31.1916C48.9462 31.3308 48.8566 31.4699 48.778 31.609C47.4146 34.0371 48.6126 36.9869 51.2745 37.7786C51.4689 37.8357 51.6591 37.9038 51.8865 37.9804C51.7349 38.3004 51.4482 38.2587 51.2345 38.3157C48.4871 39.0518 47.2258 42.0378 48.6002 44.5423C48.6967 44.719 49.0055 44.8957 48.7711 45.1309C48.585 45.3173 48.3893 45.0794 48.2197 44.9917C45.8156 43.8619 43.257 44.9417 42.35 47.4699C42.2935 47.6257 42.35 47.8998 42.1032 47.9123C41.782 47.9304 41.873 47.6174 41.8275 47.4462C40.9756 44.5576 38.049 43.3986 35.4643 44.9291C35.3265 45.014 35.1886 45.238 34.9915 45.0683C34.8205 44.9291 34.9722 44.7635 35.0521 44.6411C36.5547 42.3411 35.3623 38.8166 32.1572 38.2127C32.0521 38.1902 31.9481 38.1623 31.8457 38.1293ZM41.8854 43.0758C43.242 43.0697 44.5421 42.5273 45.507 41.5649C46.4719 40.6024 47.0246 39.2966 47.0466 37.9275C47.0522 37.2369 46.9227 36.5521 46.6654 35.9122C46.4081 35.2723 46.0281 34.69 45.5473 34.1987C45.0665 33.7074 44.4943 33.3168 43.8635 33.0494C43.2327 32.7819 42.5558 32.6428 41.8716 32.6401C41.1936 32.6414 40.5224 32.778 39.8969 33.0422C39.2713 33.3064 38.7038 33.6929 38.2268 34.1795C37.7499 34.666 37.3731 35.243 37.1181 35.8772C36.863 36.5114 36.7348 37.1902 36.7408 37.8746C36.7338 38.5589 36.8621 39.2377 37.118 39.8714C37.374 40.5051 37.7525 41.0809 38.2315 41.5651C38.7106 42.0494 39.2804 42.4324 39.9078 42.6918C40.5352 42.9512 41.2075 43.0817 41.8854 43.0758Z" fill="#E8E9EE"/>
<path d="M41.8851 43.0766C41.2072 43.0825 40.5349 42.952 39.9075 42.6926C39.2801 42.4333 38.7103 42.0502 38.2312 41.566C37.7522 41.0817 37.3737 40.5059 37.1177 39.8722C36.8617 39.2385 36.7335 38.5597 36.7405 37.8754C36.7352 37.1915 36.864 36.5132 37.1194 35.8797C37.3747 35.2462 37.7517 34.6698 38.2285 34.1839C38.7053 33.6979 39.2727 33.3119 39.8978 33.0481C40.523 32.7842 41.1937 32.6477 41.8713 32.6465C42.5555 32.6492 43.2324 32.7883 43.8632 33.0558C44.4939 33.3232 45.0662 33.7138 45.547 34.2051C46.0278 34.6964 46.4078 35.2787 46.6651 35.9186C46.9224 36.5585 47.0519 37.2433 47.0463 37.9339C47.0229 39.302 46.4695 40.6064 45.5048 41.5677C44.5401 42.5289 43.2407 43.0706 41.8851 43.0766ZM41.8851 40.2937C42.5234 40.293 43.1353 40.0369 43.5867 39.5814C44.0382 39.126 44.2923 38.5085 44.2934 37.8643C44.2866 37.22 44.0299 36.6041 43.5784 36.1487C43.1269 35.6932 42.5165 35.4345 41.8782 35.4279C41.5616 35.4288 41.2483 35.493 40.9563 35.6167C40.6644 35.7405 40.3996 35.9213 40.1773 36.1488C39.9549 36.3764 39.7794 36.6461 39.6609 36.9424C39.5423 37.2388 39.483 37.5559 39.4865 37.8754C39.4819 38.1943 39.5407 38.5109 39.6594 38.8064C39.7782 39.1019 39.9545 39.3704 40.1779 39.5959C40.4013 39.8214 40.6673 39.9993 40.96 40.1192C41.2528 40.2391 41.5665 40.2984 41.8824 40.2937H41.8851Z" fill="white"/>
<path d="M41.8805 40.2928C41.5646 40.2975 41.2509 40.2381 40.9582 40.1182C40.6654 39.9984 40.3994 39.8204 40.176 39.5949C39.9526 39.3694 39.7763 39.101 39.6575 38.8054C39.5388 38.5099 39.48 38.1934 39.4846 37.8745C39.4817 37.5555 39.5413 37.2391 39.6599 36.9434C39.7786 36.6477 39.9539 36.3786 40.1759 36.1516C40.3979 35.9245 40.6622 35.744 40.9535 35.6204C41.2449 35.4967 41.5576 35.4324 41.8736 35.4312C42.5119 35.4377 43.1223 35.6964 43.5738 36.1519C44.0252 36.6073 44.2819 37.2233 44.2888 37.8675C44.2866 38.511 44.032 39.1275 43.5806 39.582C43.1293 40.0365 42.518 40.292 41.8805 40.2928Z" fill="#E8E9EE"/>
</svg>
