<svg width="52" height="57" viewBox="0 0 52 57" fill="none" xmlns="http://www.w3.org/2000/svg">
<path d="M32.93 26.6445L21.779 30.2857L12.0778 34.5674L9.36373 35.2839C8.67251 35.9414 7.94776 36.6073 7.16388 37.2816C6.30418 38.0232 5.50348 38.6976 4.88809 39.1864C4.20543 39.7258 3.19398 40.7372 2.67989 41.3777C1.91284 42.3385 1.30601 43.3584 1.04471 44.1423C0.581098 45.5584 0.808781 46.9912 1.70218 48.3146C2.84845 50.0002 5.13264 51.7196 7.79598 52.8911C9.15307 53.4897 11.4372 54.2566 13.1565 54.6864C16.0138 55.4113 21.543 56.1952 24.5856 56.3133C25.2008 56.3385 26.0269 56.3385 26.0605 56.3133C26.128 56.271 26.6 55.3692 27.148 54.2483C29.0191 50.4301 30.3676 46.8479 31.1009 43.7884C31.5391 41.9342 31.8847 39.4646 32.1122 36.54C32.1713 35.7224 32.1965 32.9831 32.1459 32.0559C32.07 30.5388 31.9351 29.3083 31.7246 28.1029C31.6908 27.9259 31.6823 27.7657 31.6992 27.7573C31.7329 27.7321 31.834 27.6984 33.2079 27.3021L32.9299 26.6448V26.6446H32.93V26.6445ZM30.3846 28.1365C30.4857 28.1365 30.7553 30.724 30.8227 32.3593C30.8397 32.7048 30.8311 32.9324 30.8143 32.9324C30.747 32.9324 29.3899 32.1317 28.4208 31.5249C27.5779 30.9938 25.9765 29.9318 25.7237 29.7295C25.6392 29.6706 25.6476 29.6622 26.3389 29.4261C27.5103 29.0299 30.2919 28.1365 30.3846 28.1365ZM24.7037 30.0077C24.7796 30.0077 24.9733 30.1171 25.437 30.4038C27.1732 31.491 29.5333 32.806 30.5447 33.2443C30.8565 33.3791 30.8901 33.3285 30.1738 33.8174C28.6398 34.8625 26.7264 35.8908 24.3833 36.9275C23.9703 37.1129 23.6248 37.2562 23.6164 37.2562C23.5996 37.2562 23.65 37.0456 23.7174 36.7927C24.2821 34.6938 24.6025 32.5699 24.6194 30.8673C24.6278 30.0244 24.6278 30.0244 24.7037 29.9992C24.6868 30.0077 24.6952 30.0077 24.7037 30.0077ZM23.5322 30.4543C23.5826 30.5048 23.549 32.3929 23.4815 32.907C23.3298 34.1376 23.0938 35.2839 22.7062 36.5735C22.6135 36.8852 22.5291 37.1466 22.5124 37.1634C22.4785 37.2055 21.3238 36.0761 20.9445 35.6379C20.287 34.8793 19.773 34.1207 19.3937 33.379C19.1999 32.9997 18.8965 32.2581 18.9217 32.2327C19.0565 32.14 23.4984 30.4207 23.5322 30.4543ZM18.0198 32.6204C18.0282 32.6204 18.0366 32.6204 18.0451 32.6288C18.0619 32.6457 18.1211 32.7806 18.1716 32.9323C18.4412 33.6656 19.048 34.7444 19.5707 35.4356C20.1439 36.1942 20.8941 37.0033 21.5176 37.5343C21.72 37.7028 21.9053 37.8629 21.9305 37.8883C21.9812 37.9389 21.9981 37.9304 20.6241 38.453C19.0313 39.0598 17.2949 39.6667 15.3057 40.3072C14.8306 40.4604 14.3558 40.6149 13.8815 40.7708C13.8056 40.7962 13.8309 40.754 14.05 40.4085C15.0361 38.866 16.5364 35.8402 17.3793 33.6993C17.5226 33.3284 17.6658 32.9576 17.6912 32.8733C17.7249 32.7552 17.767 32.7131 17.8765 32.6541C17.9355 32.6374 17.9946 32.6204 18.0198 32.6204ZM16.3343 33.32C16.3595 33.337 15.9296 34.2387 15.5082 35.0647C14.6906 36.6577 13.7972 38.2255 12.6003 40.1303C12.3981 40.459 12.2043 40.7625 12.1789 40.7962C12.1368 40.8552 12.1199 40.8383 11.985 40.5771C11.6985 40.0123 11.4624 39.2874 11.336 38.6215C11.2095 37.9641 11.2349 36.8179 11.3782 36.1099C11.4877 35.5874 11.4793 35.5958 11.7322 35.4693C12.811 34.9215 16.3005 33.2863 16.3343 33.32ZM30.8734 33.9101V34.2641C30.8734 36.1436 30.6712 38.7227 30.376 40.6024C30.3255 40.9311 30.2832 41.2007 30.2749 41.2092C30.2749 41.2092 30.0305 41.1419 29.7439 41.0575C28.4797 40.6613 27.1058 40.0797 25.8668 39.3971C25.0491 38.9504 23.8608 38.217 23.8945 38.1833C23.9028 38.1749 24.2569 37.9895 24.6698 37.7703C26.322 36.9106 27.9065 35.9835 29.2803 35.0648C29.7945 34.7192 30.5698 34.163 30.7386 34.0112L30.8734 33.9101ZM9.97056 36.4048C10.0043 36.4048 9.99582 36.4722 9.94526 36.7757C9.91152 36.9949 9.86943 37.3994 9.85268 37.6775C9.78509 38.9081 9.98751 39.8184 10.5943 41.0658C10.7629 41.4114 10.8979 41.698 10.8893 41.7063C10.8303 41.757 5.25068 43.3922 3.49742 43.8725C2.97489 44.0158 2.51983 44.1422 2.48594 44.1506C2.42706 44.1675 2.41858 44.1591 2.44385 44.0157C2.63768 42.7768 3.58172 41.1585 4.89652 39.793C5.77314 38.8828 6.47274 38.3518 7.66958 37.669C8.52929 37.1802 9.85256 36.447 9.95369 36.4132C9.95377 36.4048 9.96216 36.4048 9.97056 36.4048ZM23.1191 38.7564C23.1275 38.748 23.3298 38.8576 23.5742 39.0008C25.378 40.046 27.8896 41.0153 30.0304 41.5126L30.2243 41.5548L29.9546 41.7063C28.8336 42.3301 25.1503 43.864 21.3829 45.2717C20.8349 45.4739 20.2956 45.6762 20.1943 45.7183C20.0931 45.7604 20.0004 45.7858 20.0004 45.7774C20.0004 45.7688 20.1522 45.4739 20.3459 45.1115C21.3995 43.1392 22.4616 40.7371 23.001 39.0682C23.0686 38.9081 23.1106 38.7649 23.1191 38.7564ZM21.779 39.1947C21.7876 39.2033 21.72 39.3801 21.6357 39.5824C20.9025 41.3608 19.9415 43.2995 18.711 45.474C18.3992 46.0304 18.1378 46.4771 18.1293 46.4771C18.121 46.4771 17.8681 46.3253 17.5647 46.1399C15.7777 45.0442 14.1932 43.6956 13.1566 42.3892L13.0048 42.2037L13.7717 41.993C16.5195 41.2429 18.8541 40.4338 21.1721 39.4393C21.5008 39.3044 21.7706 39.1947 21.779 39.1947ZM30.1064 42.1026C30.1148 42.2964 29.6849 44.0328 29.3309 45.2885C29.0359 46.342 28.783 47.1681 28.3195 48.6262C28.1172 49.2669 27.9404 49.7977 27.9318 49.7977C27.9234 49.7977 27.8728 49.7893 27.8223 49.7726C25.319 49.3173 23.077 48.6852 20.9699 47.8424C20.3798 47.6063 19.537 47.227 19.4864 47.1849C19.4696 47.1679 19.9754 46.9321 20.6159 46.6539C24.4509 44.9766 28.4291 43.0717 29.7945 42.2543C29.9546 42.1531 30.0811 42.1026 30.1064 42.1026ZM10.8809 42.76C10.8978 42.7768 9.82734 44.3193 8.32698 46.418C7.80445 47.1513 7.19762 48.011 6.97009 48.3312C6.74248 48.6515 6.39695 49.1573 6.20308 49.4607L5.84893 50.0086L5.46962 49.6883C5.02288 49.3174 4.24756 48.5251 3.90199 48.0868C3.17708 47.1851 2.68832 46.2326 2.49445 45.3646C2.40172 44.9599 2.40171 44.7575 2.4859 44.7324C2.6123 44.6987 4.86275 44.1677 6.97001 43.6787C8.14159 43.4091 9.49848 43.0888 9.98735 42.9708C10.4763 42.8526 10.8725 42.76 10.8809 42.76ZM11.9597 43.173L12.2293 43.4764C13.4432 44.8335 14.6822 45.8366 16.1824 46.713C16.4522 46.8648 16.6544 46.9996 16.6375 47.0082C16.5786 47.0502 11.4287 48.8791 9.04342 49.7051C7.70336 50.1771 6.59914 50.5563 6.59082 50.5563C6.58243 50.5563 6.50652 50.5058 6.4221 50.4468L6.27048 50.3372L6.51488 49.9833C7.30711 48.837 8.30184 47.5812 10.4679 44.9683L11.9597 43.173ZM18.6858 47.9857C18.6941 47.9773 19.0649 48.1121 19.52 48.2808C20.6159 48.6937 21.4839 48.955 22.6471 49.25C24.08 49.6125 26.1534 49.9665 27.3756 50.0676C27.561 50.0844 27.6622 50.1013 27.6284 50.1266C27.5693 50.1604 26.3305 50.5734 25.4202 50.8599C23.9703 51.315 19.5454 52.6214 15.938 53.6582C15.2722 53.852 14.699 54.0122 14.6653 54.0205C14.5811 54.0375 14.3029 53.9615 14.3029 53.9278C14.3029 53.911 14.5051 53.6498 14.7496 53.3632C15.9632 51.9134 17.1686 50.2952 18.1716 48.7612C18.4497 48.3396 18.6858 47.9941 18.6858 47.9857ZM17.2022 48.0279C17.2106 48.0363 16.6123 48.9971 15.5672 50.6491C15.1204 51.3486 14.6231 52.1409 14.4461 52.4191C14.2775 52.6888 14.0247 53.1103 13.8815 53.3462L13.637 53.7761L13.5106 53.7424C13.2071 53.6581 11.0747 52.9079 10.51 52.6804C9.81035 52.4022 9.08552 52.0651 8.54604 51.7786C7.87185 51.4161 7.02905 50.8766 7.09641 50.8599C7.11324 50.8515 8.26798 50.5395 9.65861 50.1603C13.3504 49.1572 15.3984 48.5757 16.7387 48.1543C16.9832 48.0784 17.1938 48.0194 17.2022 48.0279ZM27.6958 50.4889H27.7042C27.7379 50.5733 26.3726 54.3661 25.8751 55.5629C25.7657 55.8326 25.7237 55.9002 25.6646 55.8916C25.5213 55.8833 23.5406 55.6051 22.3352 55.4281C20.2366 55.1078 16.7134 54.4924 15.8285 54.2902L15.6262 54.2481L16.8819 53.9614C19.5791 53.3545 20.8771 53.0259 22.1919 52.6213C23.8524 52.1156 25.496 51.4834 27.1564 50.7081C27.4176 50.59 27.6368 50.4973 27.6958 50.4889Z" fill="white"/>
<path d="M21.4306 0.650822C21.2452 0.625675 18.2529 1.70451 16.3229 2.48827C13.7184 3.55039 11.6957 4.56187 10.4482 5.43825C9.98468 5.76711 9.40299 6.3486 9.31041 6.57613C9.27671 6.66043 9.25977 6.76156 9.25977 6.8627L10.3892 7.93314L13.0779 8.79284L19.4752 9.93915L26.7911 11.195L26.867 10.5629C26.8418 10.5629 26.8248 10.5545 26.7998 10.5545L25.8387 10.4027L25.6449 10.0572C24.6503 8.30401 23.5546 6.12943 22.9141 4.66285C22.4169 3.52497 21.9448 2.21025 21.6835 1.26621C21.5402 0.693071 21.5234 0.659373 21.4308 0.650978V0.650783H21.4306V0.650822ZM21.2956 1.08081H21.3042C21.3125 1.08913 21.3463 1.32529 21.38 1.60326C21.5232 2.78343 21.7847 3.92111 22.1976 5.15172C22.5094 6.0789 22.5094 6.02837 22.147 5.91873C21.2873 5.68281 17.4355 5.01693 14.6457 4.62923C14.1989 4.57019 13.8196 4.51123 13.8196 4.50283C13.7859 4.46914 15.834 3.39862 16.7359 2.9773C17.8906 2.44618 21.0597 1.1229 21.2956 1.08081ZM13.1705 4.85676L13.4994 4.96621C15.2861 5.57316 19.7784 6.4329 22.2565 6.63517C22.5346 6.66047 22.7707 6.68581 22.779 6.68581C22.7874 6.69421 22.5515 6.82064 22.248 6.96387C21.0513 7.56231 19.7364 8.29561 18.8261 8.86035C18.5565 9.02884 18.3119 9.16379 18.2783 9.16379C18.2445 9.16379 18.0676 9.13005 17.8822 9.10475L17.545 9.05411L16.7023 8.22806C15.2188 6.78687 14.0557 5.67433 13.6089 5.25282L13.1705 4.85676ZM12.8335 5.11799L14.0219 6.60147C14.6708 7.41904 15.3283 8.21971 15.4717 8.39663C15.6148 8.57375 15.7329 8.71709 15.7245 8.72548C15.6908 8.75075 14.0052 8.42197 13.1116 8.21978C12.1929 8.00901 11.8137 7.90787 11.249 7.73095L10.7853 7.57917V7.4611C10.7937 6.89636 11.5103 6.05356 12.7239 5.19393L12.8335 5.11799ZM22.9308 7.14087C22.9646 7.14087 23.0066 7.2167 23.1078 7.44427C23.3943 8.07636 24.2879 9.77902 24.5069 10.1077C24.5745 10.2174 24.6923 10.2258 23.504 10.0319C20.6468 9.5682 19.728 9.41666 19.728 9.39979C19.728 9.3914 19.8123 9.33236 19.9219 9.27332C20.8069 8.78456 21.7003 8.16078 22.4926 7.49491C22.6865 7.33474 22.8635 7.18304 22.8971 7.1577C22.9055 7.14087 22.9224 7.13247 22.9308 7.14087Z" fill="white"/>
<path d="M9.37155 6.45801C9.37155 6.45801 9.18623 6.75313 9.36319 7.19143C9.47288 7.46105 9.7931 7.78971 10.1555 8.12693C10.1555 8.12693 13.9061 11.7849 14.3613 12.3075C16.4347 14.7012 17.3366 17.0612 17.4209 20.3146C17.4714 22.4049 17.0752 24.2423 16.0891 26.3748C14.336 30.2014 10.6358 34.4241 4.92969 39.1104L5.76424 38.8322C6.30364 38.4276 7.03695 37.9979 8.75632 37.0538C12.7261 34.8791 17.1933 32.8816 22.6719 30.825C30.5608 27.8581 43.5325 24.3855 50.9157 23.2562L51.6829 23.1381L51.5648 22.9527C50.8906 21.9075 50.4269 21.2586 49.8706 20.5674C48.2524 18.5614 46.2887 16.9348 43.8864 15.5862C40.5824 13.7404 36.309 12.2991 30.898 11.2287C29.8782 11.0263 27.6362 10.6386 25.8156 10.3605C21.9553 9.76223 19.4605 9.34915 16.7128 8.87714C15.7268 8.7085 14.2516 8.4557 13.2739 8.24504C12.7682 8.13536 11.799 7.90783 11.0405 7.64657C10.4336 7.41045 9.55698 7.17445 9.37155 6.45801ZM11.5462 8.56523C11.5546 8.55692 11.6894 8.60733 11.8665 8.66636C12.1868 8.77582 12.5997 8.90229 13.0887 9.03724C13.4587 9.13899 13.8295 9.23731 14.2013 9.3322C14.707 9.45856 15.1283 9.5766 15.1367 9.5766C15.1958 9.63564 16.0471 12.3579 16.3337 13.403C16.4431 13.7993 16.5276 14.1363 16.5192 14.1363C16.5105 14.1449 16.4179 14.0015 16.3084 13.8077C15.3222 12.0714 13.7629 10.3098 11.9592 8.89378C11.7233 8.72537 11.5462 8.57363 11.5462 8.56523ZM15.6931 9.7115C15.7352 9.7115 15.9207 9.73681 16.1481 9.78733C17.581 10.1076 20.1518 10.5965 21.7953 10.8746C22.0734 10.9167 22.2926 10.9674 22.2926 10.9842C22.2926 11.0011 22.1914 11.06 22.0649 11.1275C21.7869 11.2707 20.6658 11.9365 20.2951 12.1894C19.3594 12.8131 18.5167 13.4874 17.9097 14.0942C17.6653 14.3387 17.4545 14.541 17.4545 14.541C17.4545 14.541 17.4041 14.3978 17.3618 14.2206C17.0585 13.0491 16.4263 11.3128 15.8532 10.0907C15.7604 9.8969 15.6845 9.71986 15.6845 9.70307C15.6845 9.7199 15.6845 9.7115 15.6931 9.7115ZM22.9921 11.1022C23.0427 11.119 23.127 11.4056 23.2955 12.0377C23.6074 13.2599 23.7507 14.6253 23.7002 15.898C23.6832 16.252 23.6664 16.5807 23.6495 16.6229L23.6243 16.7071L23.186 16.5639C22.2841 16.2773 20.8176 15.8474 19.5618 15.4935C18.8453 15.2996 18.2639 15.1226 18.2639 15.1058C18.2639 15.0551 19.309 14.01 19.7557 13.6139C20.6068 12.8637 22.9162 11.0769 22.9921 11.1022ZM23.5737 11.1864C23.599 11.1613 27.0632 11.7595 28.6393 12.063C29.811 12.2905 31.5135 12.6446 31.6146 12.6868C31.6651 12.7036 31.4881 12.8047 30.9233 13.0575C28.6983 14.0606 27.0462 14.9623 25.4028 16.0582C24.9729 16.3447 24.6105 16.5807 24.6021 16.5807C24.5937 16.5807 24.5852 16.3363 24.5852 16.0413C24.5852 14.4399 24.2649 12.8216 23.6748 11.4562C23.6158 11.3213 23.5653 11.1949 23.5737 11.1864ZM32.5332 12.9565C32.5586 12.9818 32.4489 13.6645 32.3478 14.069C32.0444 15.3249 31.2269 17.1877 30.224 18.9408C30.0468 19.2526 29.8867 19.5055 29.8697 19.5139C29.8531 19.5223 29.6254 19.3958 29.3641 19.2441C28.3864 18.671 27.2739 18.1316 26.0601 17.6258C25.7231 17.4826 25.428 17.3645 25.4196 17.3478C25.3605 17.2971 28.0745 15.5019 29.5074 14.6422C30.6453 13.9511 32.4995 12.9227 32.5332 12.9565ZM33.1738 13.0576C33.2497 13.0576 34.7837 13.4791 35.5843 13.7151C37.565 14.3051 39.8407 15.1395 41.3241 15.8137L41.9393 16.092L41.5096 16.193C37.8854 17.0274 34.7837 17.9884 31.7915 19.2021C31.547 19.3032 31.3279 19.3875 31.3112 19.3875C31.2942 19.3875 31.3786 19.1937 31.4881 18.9576C32.39 17.0443 32.9716 15.0468 33.1147 13.3441C33.1233 13.1839 33.1484 13.0576 33.1738 13.0576ZM17.9013 16.5639C17.9266 16.5386 19.0982 16.8168 19.7303 16.9936C20.6912 17.2634 22.7308 17.9461 22.7308 17.9967C22.7308 18.0051 22.5033 18.199 22.2337 18.4351C21.1295 19.3538 20.0675 20.3229 18.7947 21.5535C18.4154 21.9161 18.0952 22.211 18.0784 22.211C18.0614 22.211 18.0532 22.1604 18.0614 22.093C18.2553 20.6769 18.2133 18.8564 17.9435 17.0106C17.9181 16.7745 17.8929 16.5723 17.9013 16.5639ZM42.5211 16.5893C42.5378 16.606 41.9816 17.4826 41.6276 17.9798C41.122 18.7046 40.3801 19.6657 38.7028 21.7728C37.818 22.8852 36.8233 24.1412 36.4947 24.5626C36.1574 24.984 35.8794 25.3379 35.8708 25.3379C35.8624 25.3379 35.753 25.1863 35.6349 25.0009C34.6909 23.5848 33.5614 22.3458 32.2213 21.2333C31.9684 21.0225 31.6904 20.795 31.5977 20.7275C31.505 20.6601 31.429 20.5927 31.429 20.5843C31.429 20.5591 32.8618 19.9436 33.9492 19.5055C35.8541 18.73 38.4498 17.8029 40.397 17.2044C41.4169 16.8842 42.5042 16.5723 42.5211 16.5893ZM43.1701 16.7577C43.2037 16.7493 43.4061 16.8505 43.6505 16.9936C45.6987 18.1652 47.7045 19.674 49.2892 21.2249C49.7359 21.6632 50.84 22.8095 50.8231 22.8179C50.8231 22.8179 50.4354 22.8516 49.9803 22.8852C46.4319 23.1551 41.889 23.9051 37.523 24.9586C37.228 25.026 36.9668 25.085 36.9498 25.085C36.9331 25.085 37.2617 24.7563 37.6748 24.3602C40.237 21.8907 41.4087 20.3314 42.7908 17.5499C42.9846 17.137 43.1533 16.783 43.1701 16.7577C43.1617 16.7577 43.1617 16.7577 43.1701 16.7577ZM24.3997 18.6795C24.5178 18.7047 25.6135 19.219 26.4394 19.6319C27.198 20.011 28.3359 20.618 28.3949 20.6685C28.4033 20.6769 27.9986 20.8877 27.5015 21.1321C25.9169 21.9244 24.5599 22.6745 23.1438 23.5342C22.7393 23.7787 22.4022 23.9811 22.3938 23.9811C22.36 23.9811 22.3684 23.9472 22.596 23.5342C23.3546 22.152 23.9614 20.5 24.3071 18.8901C24.3407 18.7637 24.3744 18.6795 24.3997 18.6795ZM23.3039 18.8817C23.3293 18.9071 23.0427 19.9437 22.8658 20.5084C22.5201 21.5789 21.9386 22.919 21.3739 23.9304C21.2389 24.1663 21.0367 24.5119 20.9271 24.7057L20.7165 25.0429L20.2445 24.5879C19.6967 24.0568 19.2498 23.7281 18.6768 23.433C18.4491 23.3151 18.2722 23.2139 18.2722 23.1971C18.2722 23.1297 19.7135 21.8233 20.8176 20.8793C21.6098 20.1966 23.2787 18.8565 23.3039 18.8817ZM30.0048 21.6379L30.4178 21.9075C31.3616 22.5229 32.4741 23.3404 33.3256 24.0568C33.8059 24.4529 34.733 25.2874 34.9186 25.4897L35.0196 25.5994L34.337 25.7932C30.4767 26.8635 27.493 27.8159 24.012 29.0971C23.6243 29.2404 23.2955 29.3584 23.2702 29.3584C23.2198 29.3584 23.1775 29.4005 24.0457 28.5997C26.2709 26.5518 28.2431 24.2928 29.7097 22.0929L30.0048 21.6379ZM28.2432 22.0762C28.26 22.093 27.1053 23.7196 26.4141 24.6384C25.5881 25.7341 24.1215 27.5715 23.1101 28.7683C22.6888 29.2656 22.3264 29.6786 22.3095 29.6871C22.2841 29.6955 22.2757 29.5691 22.2757 29.3752C22.2757 28.3553 22.0145 27.268 21.5593 26.3409C21.3654 25.9532 21.3317 25.8605 21.374 25.8184C21.5341 25.675 23.9867 24.2759 25.5375 23.4415C26.5827 22.8853 28.2177 22.0593 28.2432 22.0762ZM17.5894 24.689C17.6147 24.689 17.8086 24.7901 18.0278 24.9082C18.5672 25.2031 19.0476 25.5318 19.4775 25.8859C19.4942 25.9027 19.2752 26.0798 18.9886 26.2904C18.1879 26.8635 16.9742 27.7823 16.2663 28.347C15.5244 28.937 15.4993 28.9538 15.5835 28.8274C16.1398 27.9761 16.4179 27.4957 16.713 26.8805C16.9742 26.3327 17.2354 25.6836 17.4209 25.1189C17.4883 24.8745 17.5726 24.689 17.5894 24.689ZM20.4299 26.9141C20.4719 26.9058 20.5227 26.9815 20.7501 27.3187C21.2306 28.035 21.6014 28.996 21.6943 29.7714L21.711 29.9401L20.5564 30.3868C18.4913 31.1874 16.5865 31.9798 15.2968 32.5697C14.9345 32.7383 14.3023 33.0417 13.8894 33.2441C13.4764 33.4547 13.1392 33.6148 13.1392 33.6064C13.1392 33.598 13.4004 33.4042 13.7207 33.1681C16.241 31.3392 18.4239 29.3331 20.059 27.3272C20.2361 27.1164 20.3963 26.9225 20.413 26.9141L20.4299 26.9141ZM19.1235 27.2344C19.1573 27.2681 18.1964 28.3554 17.539 29.0212C15.9123 30.6817 14.3024 31.9798 12.3048 33.2441C12.0519 33.4042 11.8244 33.5474 11.7991 33.5644C11.74 33.598 11.8159 33.5137 12.6925 32.5613C13.2488 31.9628 13.6702 31.4571 14.1506 30.8335C14.4709 30.4206 14.5299 30.3615 14.9936 30.0327C16.2326 29.1392 19.0898 27.2007 19.1235 27.2344Z" fill="white"/>
</svg>
