<svg width="112" height="56" viewBox="0 0 112 56" fill="none" xmlns="http://www.w3.org/2000/svg">
<path fill-rule="evenodd" clip-rule="evenodd" d="M11.7694 5.30372C11.1605 4.69185 10.3111 4.31398 9.3667 4.31398C8.42591 4.31398 7.58302 4.69185 6.9813 5.30372H6.96399C6.35689 5.91261 5.97903 6.76266 5.97903 7.70345C5.97903 8.64782 6.35689 9.49071 6.96399 10.096L6.9813 10.1097C7.58302 10.7186 8.42591 11.0929 9.3667 11.0929C10.3111 11.0929 11.1605 10.7186 11.7694 10.1097L11.7784 10.096C12.3885 9.49071 12.7627 8.64782 12.7627 7.70345C12.7627 6.76266 12.3885 5.91261 11.7784 5.30372H11.7694ZM9.3667 51.7003C10.3111 51.7003 11.1605 51.3158 11.7694 50.7141L11.7784 50.6962C12.3885 50.0957 12.7627 49.2456 12.7627 48.3114C12.7627 47.367 12.3885 46.5206 11.7784 45.9087H11.7694C11.1605 45.2896 10.3111 44.9154 9.3667 44.9154C8.42591 44.9154 7.58302 45.2896 6.9813 45.9087H6.96399C6.35689 46.5206 5.97903 47.367 5.97903 48.3114C5.97903 49.2456 6.35689 50.0957 6.96399 50.6962L6.9813 50.7141C7.58302 51.3158 8.42591 51.7003 9.3667 51.7003ZM27.8339 41.4316C28.6738 41.2113 29.4343 40.6723 29.8981 39.8574L29.9608 39.7386C30.3733 38.9656 30.4485 38.0737 30.2282 37.2834C30.0062 36.4369 29.4606 35.6883 28.6475 35.2197L28.6003 35.1881C27.8082 34.7541 26.9056 34.6598 26.0765 34.8837C25.2336 35.0938 24.4766 35.6567 24.0152 36.465C23.5478 37.2655 23.4499 38.189 23.6737 39.039C23.9048 39.8747 24.445 40.6305 25.2527 41.1027H25.258C26.0675 41.5677 26.9844 41.6519 27.8339 41.4316ZM12.8451 24.5338C11.9545 23.6455 10.7271 23.0892 9.3667 23.0892C8.01163 23.0892 6.78729 23.6455 5.89844 24.5338C5.01376 25.4191 4.46815 26.6434 4.46815 28.0003C4.46815 29.3607 5.01376 30.5886 5.89844 31.484C6.78729 32.3651 8.01163 32.9179 9.3667 32.9179C10.7271 32.9179 11.9545 32.3651 12.8451 31.484C13.7316 30.5886 14.2772 29.3607 14.2772 28.0003C14.2772 26.6434 13.7316 25.4191 12.8451 24.5338ZM10.8895 18.7565C12.8606 19.0813 14.6342 20.0256 15.9874 21.3897H15.9982C16.2131 21.6064 16.4232 21.841 16.6172 22.0785L20.0013 20.1206C19.5464 18.7458 19.5256 17.3083 19.8909 15.9616C20.3738 14.1565 21.5438 12.5405 23.2977 11.5263L23.3556 11.4917C25.0903 10.5085 27.0626 10.3055 28.8433 10.7885C30.6461 11.2708 32.2728 12.4462 33.2852 14.1988V14.2024C34.2928 15.9443 34.4976 17.9447 34.0165 19.7427C33.5371 21.5467 32.3617 23.1733 30.6097 24.1804L30.1476 24.4538H30.1005C28.4798 25.2262 26.6973 25.3456 25.0605 24.9152C23.7161 24.5583 22.4828 23.8097 21.5176 22.7429L18.1388 24.695C18.5269 25.7229 18.7424 26.832 18.7424 28.0003C18.7424 29.1649 18.5269 30.2878 18.1388 31.3229L21.5176 33.2677C22.4828 32.1872 23.7161 31.4524 25.0605 31.0954C26.8632 30.6024 28.8624 30.8125 30.6097 31.8303L30.7213 31.8828V31.89C32.4095 32.9107 33.5425 34.4921 34.0165 36.2757C34.4976 38.063 34.2928 40.064 33.2852 41.8094L33.2243 41.9318L33.2171 41.9211C32.2047 43.6039 30.6097 44.744 28.8487 45.2264C27.0417 45.7021 25.0431 45.4992 23.2977 44.4957V44.4814C21.5438 43.4672 20.3738 41.8476 19.8909 40.0467C19.5256 38.7035 19.5464 37.2655 20.0013 35.8913L16.6172 33.9393C16.4232 34.1775 16.2131 34.4013 15.9982 34.618L15.9874 34.6282C14.6342 35.9856 12.8606 36.93 10.8895 37.2446V41.1552C12.2941 41.4489 13.5531 42.1521 14.5398 43.1382L14.5446 43.149C15.8669 44.4641 16.6853 46.2967 16.6853 48.3114C16.6853 50.3195 15.8669 52.1408 14.5446 53.4631L14.5398 53.4839C13.2087 54.8062 11.3814 55.6246 9.3667 55.6246C7.36275 55.6246 5.53311 54.8062 4.20549 53.4839H4.20072V53.4631C2.87669 52.1408 2.05648 50.3195 2.05648 48.3114C2.05648 46.2967 2.87669 44.4641 4.20072 43.149V43.1382H4.20549C5.19046 42.1521 6.45121 41.4489 7.85225 41.1552V37.2446C5.87934 36.93 4.11118 35.9856 2.75969 34.6282L2.74536 34.618C1.056 32.9215 0 30.5886 0 28.0003C0 25.4191 1.056 23.0862 2.74536 21.3897H2.75969C4.11118 20.0256 5.87934 19.0813 7.85225 18.7565V14.8632C6.45121 14.5588 5.19046 13.8562 4.20549 12.8766H4.20072V12.8659C2.87669 11.537 2.05648 9.71815 2.05648 7.70345C2.05648 5.6989 2.87669 3.86269 4.20072 2.54045L4.20549 2.53388C5.53311 1.20806 7.36275 0.389648 9.3667 0.389648C11.3814 0.389648 13.2087 1.20806 14.5398 2.53388V2.54045H14.5446C15.8669 3.86269 16.6853 5.6989 16.6853 7.70345C16.6853 9.71815 15.8669 11.537 14.5446 12.8659L14.5398 12.8766C13.5531 13.8562 12.2941 14.5588 10.8895 14.8632V18.7565ZM29.8981 16.161L29.8701 16.1192C29.4026 15.3318 28.6577 14.8071 27.8339 14.5797C26.9844 14.3558 26.0675 14.4507 25.2527 14.9158H25.258C24.445 15.3772 23.9012 16.1329 23.6737 16.9794C23.4499 17.8187 23.5478 18.7458 24.0152 19.5535L24.0307 19.5749C24.4993 20.3719 25.2443 20.9067 26.0765 21.1234C26.9128 21.358 27.8446 21.2601 28.6475 20.7915L28.6911 20.7706C29.4814 20.2984 30.008 19.5535 30.2282 18.735C30.4521 17.8921 30.3631 16.9687 29.8981 16.161ZM45.7151 28.2549L40.5512 21.7726V28.2549H36.7058V7.92904H40.5512V19.4928L45.6601 13.038H50.6592L43.9572 20.6739L50.7141 28.2549H45.7151ZM51.7575 20.5915C51.7575 19.0533 52.0596 17.6891 52.6639 16.4989C53.2865 15.3086 54.1197 14.393 55.1634 13.7521C56.2255 13.1112 57.4066 12.7908 58.7067 12.7908C59.842 12.7908 60.8309 13.0197 61.6732 13.4774C62.5338 13.9352 63.2205 14.5121 63.7332 15.2079V13.038H67.6061V28.2549H63.7332V26.03C63.2388 26.7442 62.5521 27.3393 61.6732 27.8154C60.8125 28.2732 59.8146 28.5021 58.6792 28.5021C57.3974 28.5021 56.2255 28.1725 55.1634 27.5133C54.1197 26.854 53.2865 25.9293 52.6639 24.7391C52.0596 23.5305 51.7575 22.148 51.7575 20.5915ZM63.7332 20.6464C63.7332 19.7125 63.5501 18.916 63.1839 18.2568C62.8177 17.5792 62.3232 17.0665 61.7007 16.7186C61.0781 16.3524 60.4097 16.1692 59.6955 16.1692C58.9814 16.1692 58.3222 16.3432 57.7179 16.6911C57.1136 17.039 56.6192 17.5518 56.2346 18.2293C55.8684 18.8885 55.6853 19.6759 55.6853 20.5915C55.6853 21.5071 55.8684 22.3128 56.2346 23.0086C56.6192 23.6861 57.1136 24.208 57.7179 24.5743C58.3405 24.9405 58.9997 25.1236 59.6955 25.1236C60.4097 25.1236 61.0781 24.9496 61.7007 24.6017C62.3232 24.2355 62.8177 23.7228 63.1839 23.0636C63.5501 22.386 63.7332 21.5803 63.7332 20.6464ZM78.3386 16.1967H75.6742V28.2549H71.7739V16.1967H70.0434V13.038H71.7739V12.2689C71.7739 10.4011 72.3049 9.02774 73.367 8.14878C74.429 7.26983 76.0313 6.85782 78.1738 6.91275V10.1539C77.2399 10.1356 76.5898 10.2912 76.2236 10.6208C75.8574 10.9505 75.6742 11.5456 75.6742 12.4062V13.038H78.3386V16.1967ZM89.8399 28.2549L84.676 21.7726V28.2549H80.8306V7.92904H84.676V19.4928L89.7849 13.038H94.784L88.082 20.6739L94.8389 28.2549H89.8399ZM95.8823 20.5915C95.8823 19.0533 96.1844 17.6891 96.7887 16.4989C97.4113 15.3086 98.2445 14.393 99.2882 13.7521C100.35 13.1112 101.531 12.7908 102.832 12.7908C103.967 12.7908 104.956 13.0197 105.798 13.4774C106.659 13.9352 107.345 14.5121 107.858 15.2079V13.038H111.731V28.2549H107.858V26.03C107.364 26.7442 106.677 27.3393 105.798 27.8154C104.937 28.2732 103.939 28.5021 102.804 28.5021C101.522 28.5021 100.35 28.1725 99.2882 27.5133C98.2445 26.854 97.4113 25.9293 96.7887 24.7391C96.1844 23.5305 95.8823 22.148 95.8823 20.5915ZM107.858 20.6464C107.858 19.7125 107.675 18.916 107.309 18.2568C106.942 17.5792 106.448 17.0665 105.825 16.7186C105.203 16.3524 104.534 16.1692 103.82 16.1692C103.106 16.1692 102.447 16.3432 101.843 16.6911C101.238 17.039 100.744 17.5518 100.359 18.2293C99.9932 18.8885 99.8101 19.6759 99.8101 20.5915C99.8101 21.5071 99.9932 22.3128 100.359 23.0086C100.744 23.6861 101.238 24.208 101.843 24.5743C102.465 24.9405 103.124 25.1236 103.82 25.1236C104.534 25.1236 105.203 24.9496 105.825 24.6017C106.448 24.2355 106.942 23.7228 107.309 23.0636C107.675 22.386 107.858 21.5803 107.858 20.6464ZM42.2243 46.216C42.847 46.4799 43.5435 46.6118 44.314 46.6118C45.1267 46.6118 45.8286 46.464 46.4196 46.1685C47.0106 45.8624 47.4592 45.4561 47.7653 44.9495C48.0713 44.4429 48.2244 43.8941 48.2244 43.303C48.2244 42.617 48.0608 42.0629 47.7336 41.6407C47.4064 41.2185 47.0159 40.9019 46.5621 40.6908C46.1082 40.4797 45.5225 40.2687 44.8048 40.0576C44.2771 39.8993 43.8654 39.762 43.5699 39.646C43.285 39.5193 43.0422 39.361 42.8417 39.171C42.6517 38.9705 42.5567 38.7224 42.5567 38.4269C42.5567 38.0048 42.6834 37.6828 42.9367 37.4612C43.2005 37.2396 43.5488 37.1287 43.9815 37.1287C44.4776 37.1287 44.8734 37.2554 45.1689 37.5087C45.475 37.7514 45.6386 38.0628 45.6597 38.4428H48.0977C48.0238 37.4506 47.6281 36.6802 46.9104 36.1314C46.2032 35.572 45.2797 35.2923 44.1399 35.2923C43.38 35.2923 42.7045 35.4242 42.1134 35.6881C41.5224 35.9414 41.0633 36.3108 40.7361 36.7963C40.4089 37.2818 40.2453 37.8517 40.2453 38.5061C40.2453 39.2027 40.4036 39.762 40.7203 40.1842C41.0474 40.5958 41.4327 40.9072 41.876 41.1183C42.3298 41.3188 42.9156 41.5246 43.6333 41.7357C44.161 41.8835 44.5726 42.0207 44.8681 42.1473C45.1742 42.2634 45.4275 42.427 45.628 42.6381C45.8286 42.8492 45.9288 43.1183 45.9288 43.4455C45.9288 43.8466 45.7811 44.1738 45.4855 44.4271C45.19 44.6698 44.7837 44.7912 44.2665 44.7912C43.7599 44.7912 43.3588 44.6592 43.0633 44.3954C42.7784 44.1315 42.62 43.7727 42.5884 43.3189H40.2137C40.2242 43.9943 40.4089 44.5801 40.7678 45.0761C41.1266 45.5722 41.6121 45.9522 42.2243 46.216ZM52.7265 43.7938V39.551H54.6896V37.7303H52.7265V35.5614H50.4942V37.7303H49.4493V39.551H50.4942V43.778C50.4942 45.5933 51.4283 46.501 53.2964 46.501H54.6896V44.6329H53.6605C53.3228 44.6329 53.08 44.5695 52.9323 44.4429C52.7951 44.3057 52.7265 44.0893 52.7265 43.7938ZM59.6083 37.9995C59.1545 38.2633 58.7851 38.6275 58.5001 39.0918V37.7303H56.2837V46.501H58.5001V42.1315C58.5001 41.3188 58.6743 40.7489 59.0226 40.4217C59.3814 40.0945 59.9091 39.9309 60.6057 39.9309H61.1915V37.6037C60.6004 37.6037 60.0727 37.7356 59.6083 37.9995ZM70.7742 42.7806C70.8164 42.5273 70.8375 42.2423 70.8375 41.9257C70.8375 41.0708 70.6528 40.3161 70.2834 39.6618C69.9246 38.9969 69.4127 38.485 68.7478 38.1261C68.0934 37.7673 67.3493 37.5879 66.5155 37.5879C65.6501 37.5879 64.8849 37.7726 64.22 38.142C63.5551 38.5114 63.0379 39.0391 62.6685 39.7251C62.2991 40.4111 62.1144 41.208 62.1144 42.1157C62.1144 43.0128 62.2991 43.8043 62.6685 44.4904C63.0485 45.1764 63.5709 45.7094 64.2358 46.0894C64.9113 46.4588 65.6712 46.6435 66.5155 46.6435C67.5604 46.6435 68.4417 46.3743 69.1594 45.8361C69.8771 45.2872 70.3626 44.5906 70.6159 43.7463H68.2253C67.8771 44.4534 67.2913 44.807 66.468 44.807C65.8981 44.807 65.4179 44.6276 65.0274 44.2687C64.6369 43.9099 64.4152 43.4138 64.3625 42.7806H70.7742ZM67.9245 39.9309C68.3256 40.2687 68.5314 40.7225 68.542 41.2924H64.3783C64.4627 40.7014 64.6897 40.2423 65.0591 39.9151C65.439 39.5773 65.9034 39.4085 66.4522 39.4085C67.0327 39.4085 67.5235 39.5826 67.9245 39.9309ZM72.4078 39.7251C72.0595 40.4111 71.8854 41.1974 71.8854 42.084C71.8854 42.9811 72.0595 43.778 72.4078 44.4745C72.7667 45.1606 73.2469 45.6936 73.8485 46.0735C74.4606 46.4535 75.1361 46.6435 75.8749 46.6435C76.5293 46.6435 77.1045 46.5115 77.6005 46.2477C78.1071 45.9733 78.5029 45.6302 78.7879 45.2186V46.501H81.0201V37.7303H78.7879V38.981C78.4924 38.58 78.0966 38.2475 77.6005 37.9836C77.115 37.7198 76.5451 37.5879 75.8907 37.5879C75.1414 37.5879 74.4606 37.7726 73.8485 38.142C73.2469 38.5114 72.7667 39.0391 72.4078 39.7251ZM78.4713 40.7383C78.6824 41.1183 78.7879 41.5774 78.7879 42.1157C78.7879 42.6539 78.6824 43.1183 78.4713 43.5088C78.2602 43.8888 77.9752 44.1843 77.6164 44.3954C77.2575 44.5959 76.8723 44.6962 76.4607 44.6962C76.0596 44.6962 75.6797 44.5906 75.3208 44.3796C74.9725 44.1685 74.6876 43.8677 74.4659 43.4772C74.2548 43.0761 74.1493 42.6117 74.1493 42.084C74.1493 41.5563 74.2548 41.1024 74.4659 40.7225C74.6876 40.332 74.9725 40.0365 75.3208 39.8359C75.6691 39.6354 76.0491 39.5351 76.4607 39.5351C76.8723 39.5351 77.2575 39.6407 77.6164 39.8518C77.9752 40.0523 78.2602 40.3478 78.4713 40.7383ZM96.6733 38.6011C96.0189 37.9361 95.1534 37.6037 94.0769 37.6037C93.4436 37.6037 92.8526 37.7567 92.3038 38.0628C91.7655 38.3689 91.3539 38.7752 91.0689 39.2818C90.7734 38.7436 90.3565 38.3319 89.8182 38.047C89.28 37.7514 88.6678 37.6037 87.9818 37.6037C87.4435 37.6037 86.9475 37.7092 86.4936 37.9203C86.0503 38.1314 85.6862 38.4216 85.4013 38.791V37.7303H83.1848V46.501H85.4013V41.6565C85.4013 40.9705 85.5754 40.4481 85.9237 40.0892C86.2825 39.7198 86.768 39.5351 87.3802 39.5351C87.9818 39.5351 88.4567 39.7198 88.805 40.0892C89.1533 40.4481 89.3275 40.9705 89.3275 41.6565V46.501H91.5439V41.6565C91.5439 40.9705 91.718 40.4481 92.0663 40.0892C92.4251 39.7198 92.9054 39.5351 93.507 39.5351C94.1086 39.5351 94.5835 39.7198 94.9318 40.0892C95.2801 40.4481 95.4542 40.9705 95.4542 41.6565V46.501H97.6706V41.3557C97.6706 40.1737 97.3382 39.2554 96.6733 38.6011ZM101.199 46.2635C101.769 46.5168 102.412 46.6435 103.13 46.6435C103.827 46.6435 104.434 46.5326 104.951 46.311C105.478 46.0788 105.88 45.7622 106.154 45.3611C106.439 44.96 106.581 44.5062 106.581 43.9996C106.571 43.4191 106.413 42.9547 106.106 42.6064C105.811 42.2476 105.457 41.9837 105.046 41.8149C104.634 41.646 104.112 41.4824 103.478 41.3241C102.856 41.1658 102.397 41.0127 102.101 40.865C101.806 40.7067 101.658 40.4797 101.658 40.1842C101.658 39.9204 101.763 39.7146 101.974 39.5668C102.196 39.419 102.507 39.3451 102.909 39.3451C103.341 39.3451 103.684 39.4507 103.938 39.6618C104.201 39.8623 104.349 40.1367 104.381 40.485H106.502C106.439 39.5985 106.096 38.8966 105.473 38.3794C104.851 37.8517 104.017 37.5879 102.972 37.5879C102.265 37.5879 101.647 37.704 101.12 37.9361C100.602 38.1683 100.201 38.485 99.9164 38.886C99.642 39.2871 99.5047 39.7304 99.5047 40.2159C99.5047 40.8069 99.6525 41.2766 99.948 41.6249C100.254 41.9732 100.613 42.2318 101.025 42.4006C101.447 42.5695 101.985 42.7331 102.639 42.8914C103.273 43.0603 103.732 43.2186 104.017 43.3663C104.312 43.5036 104.46 43.7146 104.46 43.9996C104.46 44.2635 104.339 44.4798 104.096 44.6487C103.864 44.8176 103.536 44.902 103.114 44.902C102.682 44.902 102.317 44.7912 102.022 44.5695C101.737 44.3479 101.573 44.0682 101.531 43.7305H99.2989C99.3306 44.2687 99.51 44.7595 99.8372 45.2028C100.175 45.6461 100.629 45.9996 101.199 46.2635Z" fill="white"/>
</svg>
