<svg width="57" height="57" viewBox="0 0 57 57" fill="none" xmlns="http://www.w3.org/2000/svg">
<path d="M22.2251 1.58683C23.2595 2.61146 23.2595 4.2727 22.2251 5.29735C19.4049 8.09084 17.5168 13.7471 16.9143 19.8243C16.6212 22.7809 16.6517 25.6636 16.9666 28.0892C17.0559 28.7776 17.1654 29.4068 17.2897 29.9754L34.8666 12.5651C35.901 11.5405 37.5783 11.5405 38.6125 12.5651C39.6471 13.5898 39.6471 15.251 38.6125 16.2757L18.1716 36.5229C17.6142 37.0748 16.8377 37.3525 16.053 37.2799C15.2682 37.2077 14.5567 36.7929 14.1119 36.1486C12.8035 34.2529 12.0744 31.549 11.7121 28.7585C11.3396 25.8891 11.3153 22.6061 11.642 19.3114C11.7224 18.4999 11.8254 17.6763 11.9523 16.8481C10.7016 18.58 9.5585 20.3809 8.61856 22.2186C6.93827 25.5038 6.00565 28.7246 6.14553 31.7493C6.28174 34.695 7.44167 37.6676 10.3558 40.554C11.0582 41.2497 11.3086 42.276 11.0044 43.2127L9.62468 47.4616L13.9139 46.0945C14.8595 45.7929 15.8959 46.041 16.5984 46.7367C19.72 49.8289 22.8162 51.0574 25.7856 51.2322C28.8262 51.4113 32.0107 50.4995 35.2506 48.8213C37.1554 47.8348 39.0118 46.6207 40.794 45.2899C39.8715 45.4383 38.9524 45.5567 38.0468 45.6469C34.7391 45.9754 31.438 45.9437 28.531 45.5493C25.69 45.1638 22.9532 44.3958 20.9907 43.051C20.3447 42.6083 19.9303 41.9045 19.8596 41.1295C19.7889 40.3545 20.0692 39.5883 20.6247 39.0382L41.1088 18.7482C42.1434 17.7236 43.8203 17.7236 44.8549 18.7482C45.8895 19.7728 45.8895 21.4341 44.8549 22.4587L27.1743 39.9718C27.7977 40.1188 28.4904 40.2474 29.2502 40.3503C31.6896 40.6816 34.5678 40.7186 37.5183 40.4254C43.5617 39.8248 49.2257 37.915 52.1343 35.038L52.1389 35.0333C53.1735 34.0087 54.8507 34.0087 55.8849 35.0333C56.9195 36.0581 56.9195 37.7191 55.8849 38.7439C55.6514 38.9751 55.4104 39.2148 55.162 39.4615C50.98 43.6163 44.7153 49.8401 37.7055 53.4712C33.9528 55.4152 29.7929 56.7248 25.4712 56.4704C21.52 56.2378 17.657 54.71 14.0511 51.5632L6.33407 54.0231C5.38851 54.3244 4.35218 54.0767 3.64973 53.381C2.94729 52.6853 2.69682 51.6587 3.00096 50.7223L5.48532 43.0714C2.45905 39.6225 1.03217 35.8565 0.853353 31.9895C0.657346 27.7506 1.9687 23.6089 3.89271 19.8472C7.71345 12.377 14.337 5.68971 18.4758 1.59009L18.4791 1.58684C19.5135 0.562203 21.1907 0.562201 22.2251 1.58683Z" fill="white"/>
</svg>
