<svg width="95" height="59" viewBox="0 0 95 59" fill="none" xmlns="http://www.w3.org/2000/svg">
<path d="M49.0357 0.129195C52.3511 1.03901 55.408 2.44195 57.8504 4.94213C62.8754 10.088 64.5158 16.2129 62.5495 23.0875C60.6797 29.6218 56.2227 33.7415 49.6675 35.5675L48.5387 35.7749C46.398 36.0193 44.2366 36.0218 42.0954 35.7822L40.9784 35.5838C33.9107 33.6004 29.3263 29.0486 27.7441 21.9175C26.1966 14.9465 28.3359 8.95715 33.633 4.09509C33.9844 4.42262 33.8269 4.78564 33.8288 5.09589C33.8415 9.23009 33.8096 13.3661 33.8433 17.5003C33.8907 23.2458 37.2115 27.6903 42.4504 29.1014C48.5997 30.7563 54.8891 26.9415 56.4239 20.6255C57.9159 14.4852 53.966 8.08827 47.8541 6.75994C45.5555 6.26045 45.1477 6.69989 45.5856 9.0918C45.7021 9.72867 46.1718 9.61585 46.5351 9.67863C50.2055 10.3046 52.4622 12.4663 53.428 16.0146C54.6506 20.5054 51.5655 25.3739 46.9593 26.2591C42.2201 27.1689 37.5028 23.8599 37.0586 19.1762C36.7145 15.5533 36.983 11.9077 36.9357 8.27205C36.912 6.51156 36.9921 4.74742 36.9084 2.98966C36.8601 1.98886 37.2297 1.50302 38.2092 1.38383C38.4395 1.76505 38.3166 2.19357 38.3176 2.59571C38.3276 7.61061 38.3012 12.6264 38.3312 17.6423C38.3594 22.326 41.8387 25.4558 46.3539 24.9208C49.6047 24.535 52.2218 21.5163 52.2928 18.0708C52.3639 14.6899 49.7712 11.5829 46.5378 11.0597C45.6985 10.9242 45.5146 11.188 45.592 11.9195C45.6252 12.186 45.6252 12.4555 45.592 12.722C45.4663 13.5881 45.7321 14.0266 46.6616 14.3123C48.5396 14.8891 49.5746 16.8862 49.1723 18.7877C48.7581 20.7575 46.9957 22.0722 44.972 21.9211C43.0877 21.781 41.4482 20.2516 41.4327 18.3392C41.3844 12.3344 41.4327 6.32232 41.4445 0.313888L42.9793 0H47.6757C48.1272 0.044581 48.5642 0.272946 49.0357 0.129195Z" fill="#78BE20"/>
<path d="M18.5939 54.991C17.5762 54.9756 16.7269 54.0621 16.7733 53.0322C16.7883 52.5495 16.9937 52.0924 17.3447 51.7606C17.6957 51.4287 18.1637 51.249 18.6468 51.2608C19.6964 51.2708 20.5011 52.1315 20.4583 53.2014C20.4422 53.6837 20.2383 54.1407 19.8901 54.4749C19.5418 54.8092 19.0768 54.9944 18.5939 54.991Z" fill="#78BE20"/>
<path d="M1.62872 49.6233H0.015625V47.3179H4.56724V57.7962H1.63054L1.62872 49.6233Z" fill="#78BE20"/>
<path d="M14.453 57.5132C13.2814 57.9062 12.6324 58.0318 11.9041 58.0318C9.93418 58.0318 8.45763 57.3094 7.52364 56.4605C6.42033 55.4397 5.80859 54.0104 5.80859 52.6393C5.80859 51.1463 6.50499 49.7279 7.52364 48.7744C8.525 47.8318 10.0361 47.1367 11.8022 47.1367C12.3484 47.1367 13.245 47.215 14.4503 47.6708V50.9234C14.1353 50.5537 13.7417 50.2588 13.2982 50.0604C12.8548 49.8619 12.3726 49.7648 11.8868 49.7761C11.0375 49.7761 10.393 50.0117 9.84952 50.4676C9.53921 50.7335 9.29041 51.0637 9.12034 51.4352C8.95027 51.8067 8.863 52.2107 8.86455 52.6193C8.86787 53.0046 8.95104 53.385 9.10882 53.7365C9.26659 54.0881 9.49555 54.4031 9.78125 54.6618C10.2737 55.0858 11.0557 55.3842 11.8868 55.3842C12.3283 55.3842 13.4144 55.3369 14.4503 54.2851L14.453 57.5132Z" fill="#78BE20"/>
<path d="M22.1719 47.3179H29.5391V49.6233H25.1259V51.4302H26.2802C27.723 51.4302 29.0111 51.634 29.8623 52.4511C30.1429 52.7373 30.3639 53.0763 30.5125 53.4484C30.6611 53.8206 30.7343 54.2185 30.728 54.6192C30.7342 55.0352 30.6545 55.4481 30.4938 55.8319C30.3331 56.2158 30.0948 56.5624 29.794 56.85C28.8946 57.6689 27.5364 57.7926 26.1782 57.7926H22.1728L22.1719 47.3179ZM26.1436 55.6754C26.4668 55.6754 27.0949 55.66 27.4508 55.3115C27.5454 55.2135 27.6197 55.0978 27.6693 54.971C27.719 54.8442 27.7431 54.7089 27.7403 54.5728C27.7449 54.425 27.7169 54.278 27.6582 54.1423C27.5995 54.0066 27.5116 53.8855 27.4008 53.7876C27.0612 53.521 26.5178 53.5046 26.1436 53.5046H25.1259V55.6727L26.1436 55.6754Z" fill="#78BE20"/>
<path d="M35.5497 47.3179V53.9159L39.7936 47.3179H42.7977V57.7962H39.8437V51.1982L35.5998 57.7962H32.5957V47.3179H35.5497Z" fill="#78BE20"/>
<path d="M49.4514 49.6233V57.7926H46.5101V49.6233H44.0996V47.3179H51.8583V49.6233H49.4514Z" fill="#78BE20"/>
<path d="M56.1086 54.3244V57.7962H53.1719V47.3179H57.8573C58.8423 47.3179 59.86 47.4907 60.7266 48.2604C61.6097 49.0456 61.779 49.9254 61.779 50.8079C61.779 51.6404 61.6606 52.6148 60.7776 53.4164C59.8946 54.2179 58.8423 54.3262 57.9556 54.3262L56.1086 54.3244ZM56.1086 52.1253H57.0935C57.3994 52.1253 57.9766 52.0935 58.3325 51.7951C58.6893 51.5121 58.7066 51.0881 58.7066 50.837C58.7066 50.5541 58.672 50.1774 58.3671 49.8945C58.0275 49.5642 57.4841 49.5169 57.1108 49.5169H56.1095L56.1086 52.1253Z" fill="#78BE20"/>
<path d="M66.2938 47.3179V53.9159L70.5378 47.3179H73.5418V57.7962H70.5878V51.1982L66.3439 57.7962H63.3398V47.3179H66.2938Z" fill="#78BE20"/>
<path d="M78.8547 51.6377L82.4541 47.3179H86.0872L81.5884 52.2818L86.4941 57.7962H82.6917L78.8547 53.2563V57.7962H75.918V47.3179H78.8547V51.6377Z" fill="#78BE20"/>
<path d="M94.9853 57.5132C93.8137 57.9062 93.1647 58.0318 92.4364 58.0318C90.4674 58.0318 88.9908 57.3094 88.0568 56.4605C86.9535 55.4397 86.3418 54.0104 86.3418 52.6393C86.3418 51.1463 87.0382 49.7279 88.0568 48.7744C89.0582 47.8318 90.5693 47.1367 92.3354 47.1367C92.8816 47.1367 93.7782 47.215 94.9835 47.6708V50.9234C94.6685 50.5537 94.2749 50.2588 93.8314 50.0604C93.388 49.8619 92.9058 49.7648 92.42 49.7761C91.5707 49.7761 90.9262 50.0117 90.3827 50.4676C90.0719 50.7344 89.823 51.0656 89.6532 51.4383C89.4834 51.811 89.3969 52.2162 89.3996 52.6256C89.4029 53.0109 89.4861 53.3913 89.6438 53.7429C89.8016 54.0944 90.0306 54.4095 90.3163 54.6682C90.8088 55.0922 91.5907 55.3906 92.4218 55.3906C92.8634 55.3906 93.9494 55.3433 94.9853 54.2915V57.5132Z" fill="#78BE20"/>
</svg>
