<svg width="111" height="55" viewBox="0 0 111 55" fill="none" xmlns="http://www.w3.org/2000/svg">
<g clip-path="url(#clip0_592_457)">
<mask id="mask0_592_457" style="mask-type:luminance" maskUnits="userSpaceOnUse" x="-463" y="-125" width="1043" height="1049">
<path d="M-462.119 923.619H579.434V-124.778H-462.119V923.619Z" fill="white"/>
</mask>
<g mask="url(#mask0_592_457)">
<path d="M57.2076 46.8478C55.0817 46.7052 52.6303 46.33 50.6969 45.7664C50.3347 45.6608 48.8352 45.106 48.4538 44.9299C41.7227 41.7914 37.0335 34.9404 37.0335 26.9921C37.0335 16.0903 45.845 7.21037 56.6826 7.21037C67.424 7.21037 76.176 15.9389 76.3265 26.7174H83.425C83.2746 12.0008 71.3399 0.0740051 56.6826 0.0740051C41.9379 0.0740051 29.9368 12.147 29.9368 26.9921C29.9368 37.2264 35.6548 46.1275 44.0271 50.6749C45.5388 51.4798 47.7084 52.3093 48.4451 52.5365C50.8317 53.2515 53.7606 53.7271 56.3677 53.9261C57.253 53.993 60.3448 54.0282 61.2458 54.0317H110.129V46.9147H61.3281C60.679 46.9147 57.8427 46.8901 57.2076 46.8478ZM61.3281 35.673C60.8119 35.673 58.1121 35.6554 57.6135 35.6132C56.7684 35.541 55.5436 35.4141 54.7562 35.2327C53.8674 34.9932 53.0328 34.6762 52.6566 34.4684C50.0198 33.033 48.2229 30.2257 48.2229 26.9921C48.2229 22.288 52.0075 18.4732 56.6826 18.4732C61.2599 18.4732 64.9815 22.1383 65.1302 26.7174H71.9505C71.807 18.3517 65.0322 11.6098 56.6826 11.6098C48.2404 11.6098 41.3973 18.4961 41.3973 26.9921C41.3973 32.9837 44.8092 38.1581 49.7783 40.6924C50.5429 41.1433 51.9812 41.6153 52.3906 41.7227C53.7939 42.0944 55.6783 42.348 57.2076 42.4607C57.7727 42.5082 60.5407 42.5294 61.1251 42.5329V42.5435H110.127V35.673H61.3281ZM25.5625 54.0053H18.4167V7.22622H7.97455V0.0317345H25.5625V54.0053ZM0.128906 10.8208V17.7388H7.97455V54.0053H14.8404V10.8208H0.128906Z" fill="#78BE20"/>
<path d="M97.5034 0.534097C94.9296 0.534097 92.7949 2.59998 92.7949 5.19246C92.7949 7.78494 94.9296 9.93359 97.5034 9.93359C100.156 9.93359 102.208 7.78494 102.208 5.19246C102.208 2.59998 100.156 0.534097 97.5034 0.534097ZM97.5034 9.16924C95.3775 9.16924 93.5455 7.48729 93.5455 5.19246C93.5455 3.01386 95.3775 1.28965 97.5034 1.28965C99.6275 1.28965 101.451 3.01386 101.451 5.19246C101.451 7.48729 99.6275 9.16924 97.5034 9.16924Z" fill="#78BE20"/>
<path d="M99.2958 6.46907C99.2958 5.946 99.2188 5.45991 98.6239 5.26794C99.3693 5.00728 99.4428 4.51591 99.4428 4.21827C99.4428 3.01537 98.3579 2.86215 97.9118 2.86215H95.8594V7.52051H96.715V5.60961H97.3886C98.3579 5.60961 98.4384 6.05872 98.4384 6.46907C98.4384 7.26337 98.4384 7.41307 98.6239 7.52051H99.4812C99.2958 7.33206 99.3693 7.18588 99.2958 6.46907ZM97.7246 4.92979H96.715V3.46271H97.5793C98.1777 3.46271 98.5837 3.65292 98.5837 4.21827C98.5837 4.51591 98.4384 4.92979 97.7246 4.92979Z" fill="#78BE20"/>
</g>
</g>
<defs>
<clipPath id="clip0_592_457">
<rect width="110" height="54" fill="white" transform="translate(0.128906 0.0317383)"/>
</clipPath>
</defs>
</svg>
