<svg width="90" height="26" viewBox="0 0 90 26" fill="none" xmlns="http://www.w3.org/2000/svg">
<path d="M42.2305 13.3291C42.2283 11.6719 42.5533 10.0304 43.187 8.49869C43.8208 6.96696 44.7508 5.575 45.9238 4.40241C47.0968 3.22983 48.4899 2.29964 50.0233 1.66505C51.5567 1.03046 53.2004 0.703915 54.8603 0.704102C56.5201 0.70447 58.1636 1.03145 59.6968 1.66634C61.23 2.30123 62.6228 3.23159 63.7956 4.40423C64.9684 5.57687 65.8982 6.96879 66.5319 8.50042C67.1656 10.0321 67.4907 11.6734 67.4887 13.3305C67.4883 14.9879 67.1607 16.6289 66.5246 18.1597C65.8885 19.6905 64.9564 21.0811 63.7816 22.252C62.6067 23.4229 61.2122 24.351 59.6778 24.9834C58.1434 25.6157 56.4992 25.9399 54.8392 25.9373C51.4936 25.9313 48.287 24.6004 45.9231 22.2367C43.5592 19.8729 42.2312 16.6694 42.2305 13.3291ZM54.873 6.3043C53.95 6.30282 53.0357 6.48296 52.1825 6.83441C51.3293 7.18586 50.5538 7.70175 49.9004 8.35257C49.2469 9.00339 48.7283 9.77639 48.3743 10.6274C48.0202 11.4784 47.8376 12.3908 47.8369 13.3123C47.8361 15.1674 48.5717 16.9472 49.8825 18.262C51.1934 19.5768 52.9727 20.3195 54.8308 20.3273C55.7541 20.3321 56.6694 20.155 57.5242 19.8063C58.379 19.4575 59.1565 18.9439 59.8123 18.2948C60.468 17.6457 60.9892 16.8739 61.3458 16.0235C61.7025 15.1731 61.8877 14.2609 61.8908 13.339C61.8932 12.4176 61.7137 11.5049 61.3626 10.6528C61.0115 9.80078 60.4957 9.02617 59.8446 8.37326C59.1935 7.72035 58.42 7.20194 57.5681 6.84766C56.7162 6.49338 55.8028 6.31017 54.88 6.30851L54.873 6.3043Z" fill="#78BE20"/>
<path d="M31.6166 1.16023C35.0573 1.16023 38.4993 1.16024 41.9414 1.15321C42.2918 1.15321 42.4072 1.23891 42.403 1.60561C42.3851 3.34215 42.3851 5.07916 42.403 6.81663C42.403 7.16225 42.2946 7.25217 41.9611 7.25076C39.7686 7.23812 37.5776 7.25076 35.3865 7.25076C34.8757 7.25076 34.8757 7.25076 34.8757 7.74812V24.959C34.8757 25.4718 34.8757 25.4718 34.3705 25.4718H28.8458C28.3321 25.4718 28.3321 25.4718 28.3321 24.973V7.75515C28.3321 7.24515 28.3321 7.24374 27.8326 7.24374H21.3354C20.8204 7.24374 20.819 7.24374 20.819 6.70985C20.819 5.0239 20.8317 3.33794 20.8105 1.65198C20.8105 1.26983 20.895 1.149 21.2988 1.1504C24.7325 1.16726 28.1745 1.16023 31.6166 1.16023Z" fill="#78BE20"/>
<path d="M70.3223 25.4715H67.3052C66.8099 25.4715 66.8071 25.4715 66.9196 25.0022L71.6015 5.74012C71.9448 4.33515 72.2966 2.91895 72.6273 1.50555C72.6893 1.24001 72.7934 1.15291 73.0664 1.15431C75.1303 1.16555 77.1942 1.16555 79.2582 1.15431C79.6226 1.15431 79.6606 1.28216 79.5846 1.59406C77.6793 9.41317 75.7795 17.2341 73.8854 25.057C73.808 25.3759 73.6813 25.4911 73.3422 25.4785C72.329 25.456 71.3271 25.4715 70.3223 25.4715Z" fill="#78BE20"/>
<path d="M13.8688 1.16044C14.8609 1.16044 15.8544 1.17871 16.8465 1.15201C17.2067 1.14077 17.3278 1.27565 17.4094 1.60301C18.7153 7.01306 20.0287 12.4222 21.3496 17.8304C21.9294 20.2179 22.5073 22.6063 23.0833 24.9957C23.1987 25.4692 23.1916 25.4776 22.7146 25.4776C20.7163 25.4776 18.7181 25.4678 16.7212 25.4874C16.3582 25.4874 16.209 25.3919 16.1218 25.0322C15.1508 20.9812 14.1699 16.9335 13.1793 12.8891C12.2646 9.12941 11.3508 5.36973 10.438 1.61004C10.3353 1.18855 10.3479 1.16747 10.7799 1.16747C11.8058 1.15904 12.8373 1.16044 13.8688 1.16044Z" fill="#78BE20"/>
<path d="M85.7701 25.4721C84.7513 25.4721 83.7338 25.4721 82.7164 25.4721C82.4772 25.4721 82.3519 25.4215 82.2942 25.1588C81.3683 21.3251 80.4353 17.4933 79.4953 13.6633C79.432 13.409 79.4953 13.3022 79.7655 13.3022C81.8763 13.3022 83.9871 13.3022 86.098 13.3022C86.3963 13.3022 86.4202 13.4933 86.4681 13.6942L88.4382 21.822C88.6929 22.8701 88.9504 23.9182 89.2037 24.9677C89.3247 25.4693 89.3219 25.4707 88.7815 25.4707L85.7701 25.4721Z" fill="#78BE20"/>
<path d="M4.16862 25.472C3.13853 25.472 2.10704 25.472 1.07273 25.472C0.791283 25.472 0.677299 25.4158 0.757511 25.0927C1.69566 21.2749 2.62442 17.4548 3.54381 13.6324C3.60432 13.3809 3.71268 13.3008 3.96598 13.3008C6.04022 13.3073 8.11446 13.3073 10.1887 13.3008C10.5264 13.3008 10.5715 13.4258 10.4983 13.7223C9.57047 17.5035 8.65156 21.2861 7.74156 25.0702C7.66697 25.3751 7.54314 25.4804 7.22088 25.4734C6.20487 25.458 5.18604 25.472 4.16862 25.472Z" fill="#78BE20"/>
</svg>
