<svg width="55" height="55" viewBox="0 0 55 55" fill="none" xmlns="http://www.w3.org/2000/svg">
<circle cx="27.0863" cy="27.0336" r="26.9984" fill="#78BE20"/>
<path d="M34.4764 30.4777C31.4922 30.4777 28.7234 30.4332 25.9579 30.4982C24.8812 30.5255 24.4231 30.2623 24.5017 29.1001C24.6013 27.6205 24.6013 26.1359 24.5017 24.6563C24.4231 23.4701 24.9188 23.2479 25.975 23.2719C28.6482 23.3334 31.3213 23.2924 33.9636 23.2924C34.3055 22.6873 33.8406 22.3729 33.5979 22.0413C32.8163 20.9691 31.7899 20.0992 30.6041 19.504C29.4183 18.9089 28.1074 18.6057 26.7807 18.6197C25.4539 18.6338 24.1498 18.9646 22.9768 19.5848C21.8039 20.2049 20.7961 21.0964 20.0374 22.1849C19.3914 23.0975 18.7419 23.4223 17.672 23.3744C15.8501 23.2801 14.0245 23.2801 12.2026 23.3744C10.8148 23.4565 10.5277 23.0497 11.0028 21.7746C13.2247 15.8165 17.378 11.9914 23.6096 10.7301C32.5348 8.9252 41.2481 14.6987 43.0666 23.4223C44.9706 32.556 39.5252 41.1599 30.5009 43.2485C22.1602 45.1901 13.4606 40.2028 10.9344 32.0843C10.5379 30.8093 10.5926 30.2521 12.1411 30.358C13.9627 30.4643 15.7889 30.4643 17.6104 30.358C18.6359 30.3068 19.217 30.6828 19.7879 31.5442C23.2917 36.8255 30.8188 36.7127 34.0252 31.3801C34.1619 31.1887 34.2713 30.9357 34.4764 30.4777Z" fill="#F4F4F4"/>
</svg>
