<svg width="131" height="21" viewBox="0 0 131 21" fill="none" xmlns="http://www.w3.org/2000/svg">
<path d="M126.749 0.614799L122.009 6.752H123.301C127.354 6.752 130.342 9.97461 130.038 14.032C129.716 18.3211 126.615 21.017 122.184 20.8572C117.813 20.7003 114.961 18.3989 114.428 14.5243C114.128 12.3653 114.755 10.3344 115.939 8.59431C117.715 5.98485 119.695 3.51932 121.615 1.00341C121.759 0.823496 122.015 0.634947 122.225 0.630629C123.649 0.598965 125.08 0.614799 126.749 0.614799ZM122.297 17.1179C124.319 17.1352 125.979 15.6052 125.999 13.7024C126.019 11.7608 124.334 10.0466 122.379 10.0207C120.425 9.99476 118.736 11.6298 118.7 13.6189C118.665 15.562 120.248 17.1021 122.297 17.1179Z" fill="#78BE20"/>
<path d="M4.89235 8.44042H13.2276C12.9141 9.72284 12.6714 10.9031 12.3103 12.0387C12.2351 12.2733 11.7223 12.4993 11.4074 12.5065C9.64212 12.5525 7.87685 12.5295 6.11157 12.5295H4.81144V20.5004H0.28125V0.734375H15.1055C14.7906 2.02975 14.5277 3.24453 14.1665 4.43195C14.0958 4.65649 13.5743 4.86375 13.2579 4.86375C10.8801 4.90117 8.50235 4.8839 6.12458 4.8839H4.89235V8.44042Z" fill="#78BE20"/>
<path d="M52.4025 20.5304H48.2046C48.1576 20.2468 48.1258 19.9609 48.1092 19.674C48.1092 17.3394 48.0832 15.0063 48.1092 12.6718C48.1612 8.066 51.8536 4.43895 56.3968 4.50228C58.5687 4.52318 60.644 5.40007 62.1688 6.94122C63.6937 8.48236 64.5441 10.5624 64.5341 12.7265C64.5456 15.3014 64.5341 17.8778 64.5341 20.5131H60.235C60.235 19.3156 60.248 18.1771 60.235 17.0401C60.2119 15.2827 60.2928 13.5123 60.1064 11.7708C59.9013 9.84787 58.1591 8.52082 56.2393 8.5712C54.2747 8.62157 52.6741 9.97308 52.5108 11.9277C52.3664 13.6404 52.4256 15.3705 52.4068 17.0933C52.3938 18.1944 52.4025 19.3027 52.4025 20.5304Z" fill="#78BE20"/>
<path d="M29.2761 12.6214C29.2833 10.4613 30.1505 8.39229 31.6872 6.86849C33.2239 5.34469 35.3046 4.4906 37.4726 4.49366C41.9999 4.49366 45.7457 8.24305 45.7067 12.738C45.6677 17.233 41.9508 20.8845 37.4625 20.8658C36.3793 20.8681 35.3065 20.6559 34.3064 20.2413C33.3064 19.8267 32.399 19.2182 31.6372 18.451C30.8754 17.6838 30.2743 16.7733 29.869 15.7725C29.4636 14.7717 29.2621 13.7006 29.2761 12.6214ZM37.4697 17.1624C38.0648 17.1663 38.6547 17.0522 39.2051 16.8269C39.7556 16.6015 40.2556 16.2694 40.676 15.8498C41.0965 15.4302 41.429 14.9315 41.6543 14.3827C41.8796 13.8339 41.9932 13.246 41.9884 12.6531C41.9745 11.4757 41.4997 10.3504 40.665 9.51686C39.8303 8.68335 38.7019 8.20767 37.5203 8.19124C36.9257 8.1844 36.3356 8.29483 35.784 8.51616C35.2324 8.73749 34.7302 9.06536 34.3063 9.48088C33.8824 9.8964 33.5452 10.3914 33.3141 10.9373C33.083 11.4832 32.9626 12.0693 32.9597 12.6617C32.9528 13.2541 33.0646 13.8419 33.2887 14.3906C33.5128 14.9393 33.8447 15.4379 34.2647 15.8571C34.6848 16.2763 35.1847 16.6077 35.7351 16.8319C36.2854 17.056 36.8752 17.1684 37.4697 17.1624Z" fill="#78BE20"/>
<path d="M82.258 12.7151C82.258 8.14383 85.8131 4.53548 90.3635 4.4995C91.4489 4.48778 92.5256 4.69187 93.5309 5.09981C94.5361 5.50776 95.4495 6.11136 96.2177 6.87531C96.986 7.63926 97.5935 8.54821 98.0049 9.54896C98.4163 10.5497 98.6232 11.6222 98.6135 12.7035C98.6185 13.7757 98.4104 14.8383 98.0013 15.83C97.5922 16.8217 96.9901 17.7228 96.2298 18.4816C95.4694 19.2404 94.5659 19.8417 93.5712 20.2509C92.5766 20.6601 91.5104 20.8691 90.4343 20.8659C89.3583 20.8729 88.2915 20.6669 87.296 20.2598C86.3005 19.8526 85.3961 19.2524 84.6354 18.4941C83.8747 17.7357 83.2728 16.8343 82.8647 15.8423C82.4566 14.8502 82.2503 13.7872 82.258 12.7151ZM90.4531 17.1625C93.0028 17.151 94.953 15.1763 94.9313 12.6273C94.9229 11.4482 94.4478 10.3201 93.6093 9.48811C92.7707 8.65612 91.6365 8.18751 90.4531 8.18413C87.98 8.17117 85.8854 10.2308 85.8825 12.682C85.8796 15.1331 87.9395 17.174 90.4531 17.1625Z" fill="#78BE20"/>
<path d="M69.683 4.8422V0.764648H73.9431V16.9612H78.9991C78.7102 18.1529 78.4791 19.1849 78.1742 20.1938C78.1222 20.3694 77.7409 20.5508 77.5141 20.5537C74.9629 20.5796 72.4133 20.5695 69.722 20.5695V8.51387H65.3262C65.6151 7.31781 65.8419 6.25416 66.1611 5.2193C66.2189 5.03363 66.6639 4.87531 66.9383 4.86091C67.8022 4.81485 68.6646 4.8422 69.683 4.8422Z" fill="#78BE20"/>
<path d="M101.172 0.731445H105.261V20.4802H101.172V0.731445Z" fill="#78BE20"/>
<path d="M20.916 20.5305H16.8105V4.9126H20.916V20.5305Z" fill="#78BE20"/>
<path d="M75.5393 8.47509C75.5286 8.34337 75.5286 8.211 75.5393 8.07928C76.1648 4.84228 76.1648 4.84229 79.4685 4.84229H81.9619C81.673 6.02108 81.4317 7.05882 81.1356 8.08072C81.0836 8.18171 81.0078 8.26863 80.9147 8.33406C80.8216 8.39948 80.714 8.44145 80.6011 8.45638C78.9153 8.48661 77.2266 8.47509 75.5393 8.47509Z" fill="#78BE20"/>
<path d="M22.4863 8.47535C22.7594 7.3239 22.9789 6.28185 23.2736 5.25994C23.3256 5.07715 23.6824 4.86845 23.9035 4.86413C25.5199 4.82959 27.1379 4.84542 29.0115 4.84542C28.7052 6.06595 28.4481 7.15694 28.1447 8.23355C28.1101 8.35589 27.7952 8.46384 27.6088 8.46528C25.9533 8.48399 24.2993 8.47535 22.4863 8.47535Z" fill="#78BE20"/>
</svg>
