<svg width="40" height="55" viewBox="0 0 40 55" fill="none" xmlns="http://www.w3.org/2000/svg">
<g clip-path="url(#clip0_592_473)">
<path d="M22.2284 54.3813L20.9873 54.3341C20.2374 52.2813 18.4075 51.2627 17.0164 49.8312C16.604 49.4065 16.2328 49.9885 15.9403 50.2913C15.0179 51.2666 14.0917 52.2577 13.2143 53.2605C12.6218 53.9566 12.1906 54.1808 11.4295 53.3824C9.75337 51.6245 7.99107 49.957 6.20999 48.3171C5.40007 47.5699 5.39257 47.0547 6.20999 46.3114C8.16431 44.573 9.90046 42.5815 11.377 40.3848C13.6567 36.9594 13.6268 33.7897 11.3057 30.4115C9.6034 27.9496 7.33487 26.0855 5.17133 24.1191C1.95039 21.1775 0.10932 17.5201 0.206811 12.9542C0.296802 8.82091 2.21662 5.61183 5.03635 2.92186C8.44102 -0.322627 8.501 -0.361954 11.7257 2.92186C12.7718 3.98762 13.3118 3.97975 14.3504 2.89039C17.5189 -0.456346 17.5976 -0.428819 20.8823 2.85106C21.8535 3.8185 22.4497 4.08593 23.5783 2.91398C26.788 -0.420952 26.8592 -0.358021 30.1214 2.81174C31.3513 3.99155 33.3349 5.1163 33.5261 6.48881C33.7173 7.86133 31.3813 8.69506 30.2414 9.87094C24.9319 15.3374 24.9169 21.146 30.2827 26.6203C32.2925 28.6732 34.5047 30.498 36.2821 32.8065C40.1555 37.8364 40.2229 43.1574 36.2821 48.1441C34.8122 50.0042 33.0724 51.6245 31.5125 53.406C30.9389 54.0588 30.5601 53.9959 30.0127 53.406C28.9965 52.3442 27.9016 51.3649 26.8817 50.307C26.2068 49.5992 25.7118 49.611 25.0744 50.3975C24.3245 51.3453 23.4171 52.1751 22.5847 53.0639C22.2359 53.4375 21.7785 53.7796 22.2284 54.3813ZM9.29969 13.4812C7.32363 16.6903 7.27112 19.6712 8.96221 22.9197C10.3121 25.5035 12.5094 27.2653 14.5004 29.2356C17.4327 32.1458 20.3311 35.0953 20.7361 39.791C22.6597 37.3291 22.8659 34.5959 21.3998 31.8391C20.3117 29.7691 18.8346 27.9523 17.0577 26.4984C12.9931 23.1871 9.76464 19.3645 9.29969 13.4772V13.4812ZM30.0164 40.082C31.9213 36.9712 32.0037 34.2773 30.5039 31.5441C29.0453 28.8777 26.8667 26.9114 24.6057 25.0355C21.4972 22.4595 19.4724 19.1915 18.7525 15.0739C18.6738 14.6295 18.565 14.1891 18.4338 13.5716C16.229 17.7128 16.724 21.7241 19.8474 25.3108C21.0661 26.7108 22.5134 27.8827 23.7845 29.2435C26.5818 32.1969 29.6452 35.0049 30.0164 40.0781V40.082Z" fill="#78BE20"/>
</g>
<defs>
<clipPath id="clip0_592_473">
<rect width="39" height="54" fill="white" transform="translate(0.214844 0.381348)"/>
</clipPath>
</defs>
</svg>
