<svg width="189" height="16" viewBox="0 0 189 16" fill="none" xmlns="http://www.w3.org/2000/svg">
<path fill-rule="evenodd" clip-rule="evenodd" d="M34.1261 15.8561C32.6037 15.8561 31.3694 14.5854 31.3694 13.0181V9.54861H21.5497V13.0181V15.8561C20.0273 15.8561 18.7928 14.5854 18.7928 13.0181C18.7928 8.81298 18.793 4.60811 18.793 0.403181C20.3155 0.403181 21.5497 1.67388 21.5497 3.24117V6.71064H31.3694L31.3692 3.24117C31.3692 1.67388 32.6037 0.403181 34.1261 0.403181C34.1261 5.55416 34.1261 10.7053 34.1261 15.8561ZM175.437 15.8561C173.914 15.8559 172.681 14.5854 172.681 13.0181V3.24117C172.681 1.67388 173.914 0.403406 175.437 0.403181H185.257C186.779 0.403181 188.014 1.67388 188.014 3.24117C188.014 7.4461 188.014 11.651 188.014 15.8561C186.492 15.8561 185.257 14.5854 185.257 13.0181V3.24117H175.437V13.018H181.372C182.902 13.0433 184.128 14.2687 184.128 15.8561C181.231 15.8561 178.334 15.8561 175.437 15.8561ZM149.741 3.24117C149.741 1.67388 150.974 0.403181 152.497 0.403181C152.497 5.55399 152.496 10.7049 152.496 15.8561H139.92C138.398 15.8561 137.163 14.5854 137.163 13.0181V0.403181C138.686 0.403181 139.92 1.67388 139.92 3.24117V13.0181H149.741V3.24117ZM13.2797 3.24117C13.2797 1.67388 14.5141 0.403181 16.0366 0.403181C16.0366 5.55399 16.0362 10.7049 16.0362 15.8561H3.45981C1.93719 15.8561 0.703125 14.5854 0.703125 13.0181V0.403181C2.22574 0.403181 3.45981 1.67388 3.45981 3.24117V13.0181H13.2797V3.24117ZM163.118 9.54879L158.011 9.54861V13.0181V15.8561C156.488 15.8561 155.254 14.5854 155.254 13.0181V3.24117V0.403181C156.776 0.403181 158.011 1.67388 158.011 3.24117V6.71064H163.118L167.274 1.52595C168.649 -0.189989 170.677 0.197319 171.337 0.770856L165.448 8.12975L171.337 15.4886C170.677 16.0619 168.649 16.4493 167.274 14.7335L163.118 9.54879ZM128.491 13.0183V15.8563C126.969 15.8563 125.734 14.5856 125.734 13.0183V3.24139H121.253H118.496C118.496 1.67404 119.73 0.403404 121.253 0.403404L132.974 0.403181L135.73 0.403404C135.73 1.9707 134.496 3.24139 132.974 3.24139H128.491V13.0183ZM104.445 15.8561C102.923 15.8559 101.689 14.5854 101.689 13.0181V3.24117C101.689 1.67388 102.923 0.403406 104.445 0.403181H114.265C115.787 0.403181 117.022 1.67388 117.022 3.24117C117.022 7.4461 117.022 11.651 117.022 15.8561C115.499 15.8561 114.265 14.5854 114.265 13.0181V3.24117H104.446L104.445 13.018H110.38C111.91 13.0433 113.136 14.2687 113.136 15.8561C110.239 15.8561 107.342 15.8561 104.445 15.8561ZM85.0461 13.0146L78.5754 3.25744C78.5754 7.45595 78.5756 11.6542 78.5756 15.8525C77.053 15.8525 75.8189 14.582 75.8187 13.0146V3.23773C75.8187 0.369657 79.486 -0.657019 80.9253 1.75337L87.3353 11.3995L93.7745 1.7716C95.408 -0.671022 98.9323 0.401221 98.9323 3.23773V13.0146C98.9313 14.582 97.6976 15.8525 96.1751 15.8525C96.1751 11.6476 96.1753 7.44278 96.1753 3.23773L89.6245 13.0146C88.4702 14.5434 86.2005 14.5434 85.0461 13.0146ZM60.4859 13.018H70.3056V3.24123H60.4859V13.018ZM70.3056 15.8562H60.4856C58.9633 15.856 57.7294 14.5855 57.7292 13.0182V3.24123C57.7292 1.67393 58.9633 0.403474 60.4856 0.40325H70.3056C71.828 0.40325 73.0622 1.67393 73.0622 3.24123L73.0624 13.018C73.0624 14.5853 71.828 15.8562 70.3056 15.8562ZM44.5493 3.24123H39.6394V10.1802H44.5493V3.24123ZM47.3061 10.1802H52.2158V3.24123H47.3061V10.1802ZM47.306 13.0182V15.8562C45.7835 15.8562 44.5493 14.5855 44.5493 13.0182L39.6394 13.0183C38.1168 13.0183 36.8828 11.7475 36.8828 10.1802L36.8826 3.24123C36.8826 1.67393 38.1168 0.40325 39.6394 0.40325H52.216C53.7384 0.403474 54.9727 1.67393 54.9727 3.24123L54.9725 10.1802C54.9725 11.7475 53.7384 13.0183 52.2158 13.0183L47.306 13.0182Z" fill="#78BE20"/>
</svg>
