<svg width="116" height="16" viewBox="0 0 116 16" fill="none" xmlns="http://www.w3.org/2000/svg">
<path d="M3.89804 15.6538L10.1923 6.42511V15.6538H14.0675V0.713193H10.0804L4.03243 9.51627V0.713193H0.179688V15.6538H3.89804ZM21.4482 15.6538V9.65067H27.6529V15.6538H31.5057V0.713193H27.6529V6.29072H21.4482V0.713193H17.5954V15.6538H21.4482ZM45.4719 15.6538V14.1306C47.8164 13.9215 49.6233 13.313 50.8926 12.305C52.1619 11.297 52.7966 9.92693 52.7966 8.19469C52.7966 6.47738 52.1582 5.111 50.8814 4.09555C49.6046 3.08009 47.8014 2.46784 45.4719 2.25877V0.713193H41.5967V2.25877C39.2672 2.46784 37.464 3.08009 36.1872 4.09555C34.9104 5.111 34.272 6.47738 34.272 8.19469C34.272 9.92693 34.9067 11.297 36.176 12.305C37.4453 13.313 39.2522 13.9215 41.5967 14.1306V15.6538H45.4719ZM45.4719 10.7035V5.68592C47.7417 5.98459 48.8766 6.82084 48.8766 8.19469C48.8766 9.56854 47.7417 10.4048 45.4719 10.7035ZM41.5967 10.7035C39.3269 10.4048 38.192 9.56854 38.192 8.19469C38.192 6.82084 39.3269 5.98459 41.5967 5.68592V10.7035ZM62.8204 15.9226C65.1201 15.9226 67.0241 15.1983 68.5323 13.7498C70.0406 12.3013 70.7947 10.4496 70.7947 8.19469C70.7947 5.93979 70.0406 4.08808 68.5323 2.63957C67.0241 1.19105 65.1201 0.466797 62.8204 0.466797C60.5207 0.466797 58.613 1.19105 57.0973 2.63957C55.5816 4.08808 54.8237 5.93979 54.8237 8.19469C54.8237 10.4496 55.5816 12.3013 57.0973 13.7498C58.613 15.1983 60.5207 15.9226 62.8204 15.9226ZM62.8204 12.5178C61.5959 12.5178 60.6103 12.1072 59.8637 11.2858C59.117 10.4645 58.7437 9.43414 58.7437 8.19469C58.7437 6.95524 59.117 5.92485 59.8637 5.10353C60.6103 4.28221 61.5959 3.87155 62.8204 3.87155C64.03 3.87155 65.0081 4.28221 65.7548 5.10353C66.5014 5.92485 66.8748 6.95524 66.8748 8.19469C66.8748 9.43414 66.5014 10.4645 65.7548 11.2858C65.0081 12.1072 64.03 12.5178 62.8204 12.5178ZM80.281 15.6538V4.07315H84.4473V0.713193H72.2395V4.07315H76.4282V15.6538H80.281ZM98.0775 15.6538V12.2938H90.9768V9.76267H97.9207V6.40271H90.9768V4.07315H98.0775V0.713193H87.1241V15.6538H98.0775ZM104.137 15.6538L107.385 10.6363L110.633 15.6538H115.18L109.983 7.97069L114.844 0.713193H110.274L107.385 5.39473L104.45 0.713193H99.9031L104.786 7.99309L99.5671 15.6538H104.137Z" fill="#78BE20"/>
</svg>
