<svg width="64" height="56" viewBox="0 0 64 56" fill="none" xmlns="http://www.w3.org/2000/svg">
<path fill-rule="evenodd" clip-rule="evenodd" d="M32.0397 0.818848L26.1613 11.0276L16.7365 27.4963L0.607422 55.5703H16.7365H26.1613H32.1369H38.1124H47.4887H63.472L47.4887 27.9779L38.1124 11.5091L32.1369 1.10777L32.0397 0.818848ZM26.1613 18.347H32.1369H38.1124C38.9772 18.347 39.3231 19.1271 38.9383 19.888L38.1124 20.3695L33.0113 23.4995C32.7218 23.5939 32.4245 23.6922 32.1369 23.6922C31.8473 23.6922 31.5519 23.5938 31.2624 23.4995L26.1613 20.3695L25.2869 19.888C24.9021 19.1271 25.2965 18.347 26.1613 18.347ZM23.4408 20.0806C23.7412 20.0091 24.0752 20.0826 24.3638 20.2732L26.1613 21.2844L29.9993 23.5958C30.5764 23.8828 30.7727 24.6129 30.3879 25.1849L26.1613 32.6489L20.8659 41.7982C20.4812 42.3703 19.838 42.5648 19.2628 42.2797L16.7365 40.8351L13.4815 38.9089C13.0016 38.6219 12.8053 37.8919 13.0929 37.3198L16.7365 31.0116L22.712 20.6103C22.8558 20.3242 23.1403 20.1521 23.4408 20.0806ZM40.4443 20.0806C40.8949 20.0001 41.3703 20.1812 41.6589 20.6103L47.4887 31.0116L51.1809 37.3198C51.5656 37.8919 51.3694 38.6219 50.7922 38.9089L47.4887 40.8351L45.011 42.2797C44.4338 42.5648 43.744 42.3703 43.3592 41.7982L38.1124 32.6489L33.8372 25.1849C33.4525 24.6129 33.6487 23.8828 34.2259 23.5958L38.1124 21.2844L40.0071 20.2732C40.1514 20.1778 40.2941 20.1074 40.4443 20.0806ZM32.1369 25.3776C32.6169 25.3776 33.1124 25.6723 33.4 26.2443L38.1124 34.4306L42.339 41.7019C42.9162 42.7497 42.3255 43.8688 40.9787 43.8688H38.1124H32.1369H26.1613H23.295C22.0455 43.8688 21.3595 42.7497 22.0319 41.7019L26.1613 34.4306L30.8737 26.2443C31.1614 25.6723 31.6549 25.3776 32.1369 25.3776ZM13.773 39.9683L16.7365 41.6056L19.8457 43.3873C20.4229 43.6723 20.6716 44.2598 20.6716 44.8319L20.5745 51.8624C20.0945 52.5289 19.3541 52.5289 18.8741 51.8624L16.7365 48.0582L12.8986 41.5093C12.5138 40.7465 12.9083 39.9683 13.773 39.9683ZM50.5007 39.9683C51.3655 39.9683 51.758 40.7465 51.3752 41.5093L47.4887 48.0582L45.3996 51.8624C44.9197 52.5289 44.1326 52.5289 43.6507 51.8624L43.5535 44.8319C43.5535 44.2598 43.8509 43.6723 44.428 43.3873L47.4887 41.6056L50.5007 39.9683ZM22.5177 44.7356H26.1613H32.1369H38.1124H41.756C42.4284 44.7356 42.8734 45.3211 42.8734 45.9876V52.6329C42.8734 53.2994 42.4284 53.7886 41.756 53.7886H38.1124H32.1369H26.1613H22.5177C21.9406 53.7886 21.3518 53.2994 21.3518 52.6329V45.9876C21.3518 45.3211 21.9406 44.7356 22.5177 44.7356Z" fill="#78BE20"/>
</svg>
