<svg width="40" height="54" viewBox="0 0 40 54" fill="none" xmlns="http://www.w3.org/2000/svg">
<g clip-path="url(#clip0_592_527)">
<path d="M28.5802 25.4698V36.4723C28.5793 37.6337 28.2228 38.767 27.5585 39.7202C26.8942 40.6734 25.954 41.4008 24.864 41.8048L20.9676 43.2898C20.6838 43.3919 20.3711 43.3783 20.0972 43.252C19.8232 43.1257 19.6101 42.8968 19.5037 42.6148C19.472 42.4816 19.472 42.3429 19.5037 42.2098V28.7098L11.7784 31.6123C11.3395 31.7708 10.9607 32.0616 10.6944 32.4445C10.4281 32.8274 10.2875 33.2835 10.292 33.7498V51.7498C10.2662 52.1277 10.3363 52.506 10.4959 52.8496C10.6555 53.1932 10.8993 53.491 11.2048 53.7154C11.5103 53.9397 11.8675 54.0835 12.2434 54.1332C12.6193 54.1829 13.0016 54.137 13.355 53.9998L36.2379 45.6298C37.3399 45.2318 38.2924 44.5042 38.9654 43.5459C39.6385 42.5877 39.9995 41.4454 39.9992 40.2748V17.3248C39.993 18.4939 39.6295 19.6332 38.9573 20.5902C38.2851 21.5473 37.3363 22.2763 36.2379 22.6798L28.5802 25.4698ZM28.5802 24.2773V20.9698C28.5506 19.8291 28.1812 18.7233 27.5192 17.7934C26.8573 16.8636 25.9328 16.1521 24.864 15.7498L20.9676 14.1748C20.8273 14.1211 20.6776 14.0961 20.5275 14.1011C20.3773 14.1061 20.2297 14.1411 20.0932 14.204C19.9568 14.2669 19.8344 14.3564 19.7331 14.4674C19.6319 14.5783 19.5538 14.7083 19.5037 14.8498C19.4804 14.9762 19.4804 15.1058 19.5037 15.2323V25.5598C19.5294 25.9377 19.4593 26.316 19.2997 26.6596C19.1401 27.0032 18.8963 27.301 18.5908 27.5254C18.2854 27.7497 17.9281 27.8935 17.5522 27.9432C17.1764 27.9929 16.794 27.947 16.4406 27.8098L1.53069 22.4998C1.06452 22.3432 0.66245 22.0385 0.385901 21.6322C0.109352 21.226 -0.0264785 20.7404 -0.000843291 20.2498V2.24977C-0.00343389 1.88306 0.0837352 1.52128 0.253076 1.19592C0.422416 0.870562 0.668796 0.591481 0.970766 0.382975C1.27274 0.174469 1.62114 0.042858 1.98566 -0.00040213C2.35018 -0.0436622 2.71976 0.00274033 3.06222 0.134766L36.1929 11.9698C37.1236 12.2998 37.953 12.8649 38.6003 13.6101C39.2476 14.3553 39.6907 15.2552 39.8865 16.2223C39.6128 17.359 39.1048 18.4263 38.3952 19.356C37.6856 20.2858 36.7898 21.0576 35.7649 21.6223L28.5802 24.2773Z" fill="#78BE20"/>
</g>
<defs>
<clipPath id="clip0_592_527">
<rect width="40" height="54" fill="white"/>
</clipPath>
</defs>
</svg>
