<svg width="48" height="56" viewBox="0 0 48 56" fill="none" xmlns="http://www.w3.org/2000/svg">
<path d="M2.25781 21.7981V3.77188C2.25781 2.69325 3.13222 1.81885 4.21085 1.81885H17.5362V3.17044C17.5362 6.96752 20.6143 10.0457 24.4114 10.0457V10.0457C28.2085 10.0457 31.2866 6.96752 31.2866 3.17044V1.81885H43.7892C44.8678 1.81885 45.7422 2.69325 45.7422 3.77188V21.7981" stroke="#78BE20" stroke-width="2.84821" stroke-linecap="round"/>
<path d="M2.25781 34.2785V52.3048C2.25781 53.3834 3.13222 54.2578 4.21085 54.2578H17.5362V52.9062C17.5362 49.1091 20.6143 46.031 24.4114 46.031V46.031C28.2085 46.031 31.2866 49.1091 31.2866 52.9062V54.2578H43.7892C44.8678 54.2578 45.7422 53.3834 45.7422 52.3048V34.2785" stroke="#78BE20" stroke-width="2.84821" stroke-linecap="round"/>
</svg>
