<svg width="108" height="25" viewBox="0 0 108 25" fill="none" xmlns="http://www.w3.org/2000/svg">
<mask id="mask0_591_426" style="mask-type:luminance" maskUnits="userSpaceOnUse" x="0" y="0" width="108" height="25">
<path d="M107.818 0.3125H0.267578V24.3292H107.818V0.3125Z" fill="white"/>
</mask>
<g mask="url(#mask0_591_426)">
<path d="M8.33087 5.49561V8.54906C8.05275 8.49709 7.8004 8.4718 7.57421 8.4718C6.30383 8.4718 5.31247 8.83559 4.59871 9.56223C3.88543 10.2897 3.52926 11.3371 3.52926 12.7051V19.3509H0.267578V5.64963H1.86033L3.37308 7.65063C4.31254 6.21332 5.96528 5.49561 8.33087 5.49561Z" fill="#78BE20"/>
<path d="M21.7929 19.351H18.5312V4.58417L21.7929 0.3125V19.351Z" fill="#78BE20"/>
<path d="M46.2079 13.5272H35.2739C35.4648 14.5361 35.9658 15.3353 36.7743 15.9257C37.5828 16.5156 38.588 16.8111 39.7888 16.8111C41.3192 16.8111 42.5806 16.3152 43.5719 15.3227L45.1918 17.445C44.5652 18.1805 43.9024 18.5901 42.9462 18.9661C41.9887 19.3429 40.9111 19.5307 39.7103 19.5307C38.179 19.5307 36.8305 19.2315 35.6653 18.6332C34.4997 18.0344 33.5993 17.2005 32.9645 16.1312C32.3289 15.0619 32.0117 13.8521 32.0117 12.5001C32.0117 11.1657 32.3208 9.96437 32.9378 8.8955C33.5555 7.82622 34.413 6.99238 35.5086 6.39357C36.6048 5.79524 37.8404 5.49561 39.2141 5.49561C40.5716 5.49561 41.7844 5.79056 42.8543 6.38046C43.9247 6.9713 44.7599 7.80094 45.3599 8.86975C45.9598 9.93909 46.2603 11.1751 46.2603 12.5773C46.2608 12.7992 46.2422 13.1157 46.2079 13.5272ZM36.5662 8.97228C35.8439 9.57997 35.4048 10.3876 35.2477 11.3966H43.1553C43.0157 10.4054 42.5901 9.60059 41.8768 8.98543C41.1625 8.36927 40.2759 8.06078 39.2146 8.06078C38.1704 8.06032 37.2875 8.3646 36.5662 8.97228Z" fill="#78BE20"/>
<path d="M62.4369 13.5272H51.5029C51.6933 14.5361 52.1942 15.3353 53.0028 15.9257C53.8122 16.5156 54.817 16.8111 56.0173 16.8111C57.5477 16.8111 58.8091 16.3152 59.8014 15.3227L61.3856 17.4599C60.7594 18.1954 60.1318 18.5901 59.1747 18.9661C58.2181 19.3429 57.1397 19.5307 55.9388 19.5307C54.4079 19.5307 53.059 19.2315 51.8943 18.6332C50.7282 18.0344 49.8278 17.2005 49.193 16.1312C48.5583 15.0619 48.2402 13.8521 48.2402 12.5001C48.2402 11.1657 48.5498 9.96437 49.1673 8.8955C49.784 7.82622 50.6415 6.99238 51.7371 6.39357C52.8338 5.79524 54.0689 5.49561 55.4426 5.49561C56.8002 5.49561 58.0134 5.79056 59.0838 6.38046C60.1533 6.9713 60.9884 7.80094 61.5884 8.86975C62.1893 9.93909 62.4888 11.1751 62.4888 12.5773C62.4888 12.7992 62.4717 13.1157 62.4369 13.5272ZM52.7942 8.97228C52.0724 9.57997 51.6339 10.3876 51.4767 11.3966H59.3843C59.2443 10.4054 58.8181 9.60059 58.1048 8.98543C57.391 8.36927 56.504 8.06078 55.4426 8.06078C54.3989 8.06032 53.5161 8.3646 52.7942 8.97228Z" fill="#78BE20"/>
<path d="M76.9878 6.36735C78.0581 6.94928 78.8975 7.77098 79.5061 8.83092C80.1147 9.89179 80.4196 11.1142 80.4196 12.5005C80.4196 13.8854 80.1147 15.1134 79.5061 16.1823C78.8975 17.2516 78.0581 18.0765 76.9878 18.6585C75.9176 19.2395 74.7043 19.5307 73.3475 19.5307C71.4686 19.5307 69.9806 18.915 68.8854 17.6837V24.3291H65.623V5.64963H67.4302L68.7287 7.44509C69.2678 6.79524 69.9328 6.3079 70.725 5.98251C71.5158 5.65853 72.3913 5.49561 73.3475 5.49561C74.7043 5.49561 75.9176 5.78634 76.9878 6.36735ZM75.9444 15.605C76.7183 14.8189 77.1059 13.7828 77.1059 12.5005C77.1059 11.2177 76.7183 10.1825 75.9444 9.39551C75.1693 8.6085 74.1817 8.21476 72.9822 8.21476C72.1998 8.21476 71.4942 8.39128 70.8686 8.74146C70.2423 9.09217 69.7459 9.59265 69.3806 10.243C69.0159 10.8927 68.833 11.6451 68.833 12.5005C68.833 13.3554 69.0159 14.1082 69.3806 14.758C69.7459 15.4079 70.2423 15.9084 70.8686 16.2595C71.4942 16.6102 72.1998 16.7858 72.9822 16.7858C74.1817 16.7858 75.1693 16.392 75.9444 15.605Z" fill="#78BE20"/>
<path d="M96.5717 13.5272H85.6369C85.8284 14.5361 86.3288 15.3353 87.1374 15.9257C87.946 16.5156 88.952 16.8111 90.1521 16.8111C91.6827 16.8111 92.9438 16.3152 93.9354 15.3227L95.5434 17.4374C94.9165 18.1729 94.2666 18.5901 93.3091 18.9661C92.3523 19.3429 91.2748 19.5307 90.0734 19.5307C88.5421 19.5307 87.1938 19.2315 86.0284 18.6332C84.8624 18.0344 83.9627 17.2005 83.3279 16.1312C82.6924 15.0619 82.375 13.8521 82.375 12.5001C82.375 11.1657 82.6839 9.96437 83.3023 8.8955C83.9187 7.82622 84.7765 6.99238 85.8717 6.39357C86.9682 5.79524 88.2031 5.49561 89.5776 5.49561C90.9351 5.49561 92.1483 5.79056 93.2179 6.38046C94.2882 6.9713 95.123 7.80094 95.7231 8.86975C96.3232 9.93909 96.6235 11.1751 96.6235 12.5773C96.6235 12.7992 96.6065 13.1157 96.5717 13.5272ZM86.9289 8.97228C86.2068 9.57997 85.7674 10.3876 85.6114 11.3966H93.5183C93.3786 10.4054 92.953 9.60059 92.2395 8.98543C91.526 8.36927 90.638 8.06078 89.5776 8.06078C88.5336 8.06032 87.6509 8.3646 86.9289 8.97228Z" fill="#78BE20"/>
<path d="M107.818 5.49561V8.54906C107.539 8.49709 107.287 8.4718 107.061 8.4718C105.791 8.4718 104.8 8.83559 104.086 9.56223C103.373 10.2897 103.016 11.3371 103.016 12.7051V19.3509H99.7539V5.64963H101.377L102.86 7.65063C103.799 6.21332 105.451 5.49561 107.818 5.49561Z" fill="#78BE20"/>
<path d="M31.0105 19.3509L25.6814 12.3362L30.8491 5.62341L27.7278 5.59766L22.543 12.332L22.5634 12.3469L27.8655 19.3261L31.0105 19.3509Z" fill="#78BE20"/>
<path d="M19.8927 21.8273H5.2832L7.18353 19.3516H21.7931L19.8927 21.8273Z" fill="#F4F4F4"/>
</g>
</svg>
