<svg width="52" height="59" viewBox="0 0 52 59" fill="none" xmlns="http://www.w3.org/2000/svg">
<path d="M18.4962 29.1727C18.4962 30.6074 18.4592 32.0445 18.511 33.4791C18.5406 34.2433 18.2374 34.6747 17.594 35.0395C15.129 36.4347 12.682 37.8562 10.2531 39.304C10.0018 39.4758 9.70358 39.5659 9.39918 39.5619C9.09477 39.5579 8.799 39.4601 8.55224 39.2818C6.15788 37.8521 3.74789 36.4495 1.3223 35.074C0.634561 34.6845 0.336293 34.2137 0.336293 33.4126C0.370803 30.6189 0.370803 27.8252 0.336293 25.0315C0.323967 24.2304 0.632096 23.762 1.3223 23.3725C3.71503 22.0217 6.08968 20.6388 8.44625 19.2239C9.12413 18.8171 9.67876 18.7925 10.3788 19.2066C12.7921 20.6733 15.2571 22.0907 17.7222 23.4908C17.9812 23.6087 18.1971 23.8042 18.3402 24.0501C18.4833 24.2961 18.5464 24.5805 18.5208 24.8639C18.4617 26.2985 18.4962 27.7356 18.4962 29.1727Z" fill="#78BE20"/>
<path d="M40.4006 29.2736C40.4006 30.4223 40.3217 31.5784 40.4203 32.7247C40.5288 33.9843 40.1097 34.7509 38.9413 35.3573C36.6562 36.5578 34.4451 37.8988 32.2315 39.2323C31.5487 39.644 30.999 39.6563 30.3137 39.2323C27.9251 37.7903 25.5094 36.3951 23.0838 35.0196C22.8061 34.8939 22.5737 34.6862 22.4177 34.4244C22.2616 34.1627 22.1896 33.8594 22.2112 33.5554C22.2375 30.6844 22.2375 27.8127 22.2112 24.9401C22.1838 24.6359 22.2492 24.3306 22.3988 24.0644C22.5485 23.7982 22.7752 23.5835 23.0493 23.4488C25.5143 22.0486 27.9596 20.6312 30.3877 19.1769C31.0483 18.7825 31.5783 18.8416 32.2069 19.2138C34.6078 20.6337 37.0202 22.0305 39.4442 23.4044C40.1295 23.7939 40.4302 24.2745 40.4055 25.0806C40.3686 26.4832 40.4006 27.8784 40.4006 29.2736Z" fill="#78BE20"/>
<path d="M51.0379 10.505C51.0379 11.8978 51.0182 13.293 51.0379 14.6956C51.0503 15.3242 50.8851 15.7605 50.2984 16.0957C47.7644 17.5271 45.2468 18.9872 42.7456 20.4761C42.5083 20.6353 42.2283 20.7186 41.9426 20.7151C41.6569 20.7116 41.379 20.6214 41.1458 20.4564C38.6807 18.9946 36.1985 17.5452 33.7038 16.1278C33.4479 16.0034 33.2356 15.8045 33.0949 15.5573C32.9541 15.31 32.8914 15.026 32.915 14.7424C32.9298 11.8288 32.9298 8.91673 32.915 6.00635C32.8962 5.72179 32.9635 5.43815 33.1081 5.19238C33.2528 4.9466 33.4681 4.75007 33.726 4.6284C36.2174 3.20361 38.6964 1.75746 41.163 0.289947C41.7817 -0.0798076 42.2772 -0.0083163 42.8664 0.341718C45.2969 1.78623 47.7397 3.21595 50.1998 4.61115C50.4786 4.7376 50.7106 4.94836 50.8632 5.21372C51.0158 5.47908 51.0812 5.78564 51.0503 6.09017C51.001 7.54947 51.0379 9.02848 51.0379 10.505Z" fill="#78BE20"/>
<path d="M29.3274 47.9018C29.3274 49.3389 29.2979 50.7736 29.3422 52.2082C29.3748 52.5105 29.3123 52.8155 29.1634 53.0806C29.0145 53.3457 28.7866 53.5577 28.5115 53.6872C26.0153 55.1022 23.5338 56.5418 21.0671 58.006C20.8352 58.1695 20.5584 58.2572 20.2746 58.2572C19.9909 58.2572 19.714 58.1695 19.4821 58.006C17.0171 56.5418 14.5373 55.0972 12.0426 53.6725C11.7877 53.5468 11.5767 53.3471 11.4372 53.0994C11.2978 52.8518 11.2364 52.5678 11.2612 52.2846C11.2834 49.3734 11.2884 46.4598 11.2612 43.5486C11.2612 42.8386 11.525 42.4319 12.1289 42.0893C14.594 40.6941 17.0393 39.2709 19.4649 37.8198C19.6947 37.6534 19.9705 37.5622 20.2542 37.5587C20.538 37.5552 20.8159 37.6395 21.0499 37.8001C23.5543 39.2792 26.0703 40.7426 28.5978 42.1904C29.1919 42.5256 29.357 42.9545 29.3373 43.588C29.3077 45.0325 29.3274 46.4672 29.3274 47.9018Z" fill="#78BE20"/>
</svg>
