<svg width="164" height="39" viewBox="0 0 164 39" fill="none" xmlns="http://www.w3.org/2000/svg">
<path d="M0.275391 32.9248H1.36032V35.326L4.00126 32.9248H5.49117L3.08233 35.0289L5.64264 38.1043H4.17452L2.23567 35.7176L1.36032 36.4941V38.1046H0.275391V32.9248Z" fill="#78BE20"/>
<path d="M12.9988 32.9248H14.0841V35.848C14.0841 36.5657 14.1128 37.4367 15.5231 37.4367C16.9411 37.4367 16.9698 36.5657 16.9698 35.848V32.9248H18.0547V35.877C18.0547 36.7328 18.026 38.2496 15.5228 38.2496C13.0271 38.2496 12.998 36.7328 12.998 35.877V32.9248H12.9988Z" fill="#78BE20"/>
<path d="M25.9414 32.9248H28.7265C30.7518 32.9248 31.2509 34.0853 31.2509 35.5654C31.2509 36.6819 30.7449 38.1043 28.987 38.1043H25.9418L25.9414 32.9248ZM27.0267 37.291H28.5526C29.3338 37.291 30.1663 37.0375 30.1663 35.5218C30.1663 33.8387 29.1025 33.737 28.4948 33.737H27.0267V37.291Z" fill="#78BE20"/>
<path d="M38.9766 32.9248H43.4616V33.7373H40.0618V35.0434H43.3246V35.8552H40.0618V37.291H43.5197V38.1043H38.9766V32.9248Z" fill="#78BE20"/>
<path d="M51.209 32.9248H52.2939V37.2485H55.4332V38.1043H51.209V32.9248Z" fill="#78BE20"/>
<path d="M64.9098 32.7793C65.7052 32.7793 67.2968 32.9242 67.4345 34.4261H66.2627C66.2264 34.0269 65.865 33.5918 64.9602 33.5918C64.2371 33.5918 63.7595 33.817 63.7595 34.303C63.7595 35.5216 67.6077 34.3531 67.6077 36.5651C67.6077 37.9003 66.2261 38.249 65.1266 38.249C63.2673 38.249 62.5223 37.5156 62.5078 36.4278H63.6799C63.7086 37.1092 64.273 37.4361 65.1626 37.4361C65.8211 37.4361 66.436 37.2403 66.436 36.6744C66.436 35.3905 62.6309 36.5077 62.6309 34.3822C62.6309 33.2293 63.6509 32.7793 64.9098 32.7793Z" fill="#78BE20"/>
<path d="M75.1371 32.9248H76.222V35.326L78.8626 32.9248H80.3529L77.944 35.0289L80.5043 38.1043H79.0358L77.097 35.7176L76.2216 36.4941V38.1046H75.1367L75.1371 32.9248Z" fill="#78BE20"/>
<path d="M87.9062 32.9248H88.9915V38.1043H87.9062V32.9248Z" fill="#78BE20"/>
<path d="M111.841 38.104H111.205L111.053 37.4292C110.633 37.9366 109.895 38.2493 109.086 38.2493C106.901 38.2493 106.047 36.9723 106.047 35.5143C106.047 34.056 106.952 32.7793 109.056 32.7793C110.626 32.7793 111.631 33.5776 111.748 34.5925H110.575C110.381 33.8896 109.729 33.5918 109.028 33.5918C107.69 33.5918 107.175 34.4109 107.175 35.5499C107.175 36.9279 108.058 37.4361 108.969 37.4361C110.076 37.4361 110.583 36.9276 110.756 36.0718H109.295V35.2601H111.841V38.104Z" fill="#78BE20"/>
<path d="M119.771 32.9248H123.042C124.357 32.9248 124.785 33.5274 124.785 34.3323C124.785 35.0068 124.415 35.4274 123.93 35.5799V35.5937C124.546 35.7245 124.683 36.2613 124.683 36.9943C124.683 37.2409 124.691 37.821 124.9 38.1043H123.728C123.649 37.9586 123.598 37.6978 123.598 37.3201C123.598 36.5809 123.497 36.0583 122.701 36.0583H120.856V38.1039H119.772V32.9248H119.771ZM122.729 35.2461C123.33 35.2461 123.656 35.0645 123.656 34.4845C123.656 33.948 123.301 33.7373 122.729 33.7373H120.856V35.2461H122.729Z" fill="#78BE20"/>
<path d="M132.248 35.5143C132.248 34.056 133.102 32.7793 135.286 32.7793C137.471 32.7793 138.324 34.056 138.324 35.5143C138.324 36.9719 137.471 38.2493 135.286 38.2493C133.102 38.2493 132.248 36.9723 132.248 35.5143ZM137.196 35.5143C137.196 34.3756 136.501 33.5918 135.286 33.5918C134.071 33.5918 133.377 34.3756 133.377 35.5143C133.377 36.6526 134.071 37.4365 135.286 37.4365C136.501 37.4365 137.196 36.653 137.196 35.5143Z" fill="#78BE20"/>
<path d="M145.92 32.9248H147.005V35.848C147.005 36.5657 147.035 37.4367 148.445 37.4367C149.863 37.4367 149.892 36.5657 149.892 35.848V32.9248H150.977V35.877C150.977 36.7328 150.948 38.2496 148.444 38.2496C145.949 38.2496 145.92 36.7328 145.92 35.877V32.9248H145.92Z" fill="#78BE20"/>
<path d="M158.861 32.9248H162.044C163.31 32.9248 163.723 33.7014 163.723 34.5349C163.723 35.326 163.223 36.1313 162.058 36.1313H159.946V38.1043H158.862V32.9248H158.861ZM159.946 35.3191H161.689C162.305 35.3191 162.638 35.1517 162.638 34.5349C162.638 33.8968 162.189 33.7373 161.77 33.7373H159.946V35.3191H159.946Z" fill="#78BE20"/>
<path d="M161.158 0.0859375C159.741 0.0859375 158.592 1.23443 158.592 2.65097C158.592 4.06787 159.741 5.21637 161.158 5.21637C162.574 5.21637 163.723 4.06751 163.723 2.65097C163.723 1.23443 162.574 0.0859375 161.158 0.0859375ZM161.158 4.87749C159.93 4.87749 158.931 3.87864 158.931 2.65097C158.931 1.42366 159.93 0.424818 161.158 0.424818C162.386 0.424818 163.384 1.4233 163.384 2.65097C163.384 3.87864 162.386 4.87749 161.158 4.87749Z" fill="#78BE20"/>
<path d="M160.078 1.61768H161.507C162.082 1.61768 162.269 1.87991 162.269 2.23078C162.269 2.52462 162.108 2.70805 161.896 2.77488V2.78105C162.164 2.83771 162.225 3.07199 162.225 3.39126C162.225 3.49841 162.228 3.75157 162.32 3.87506H161.807C161.773 3.8115 161.75 3.69781 161.75 3.53364C161.75 3.21074 161.706 2.98337 161.358 2.98337H160.552V3.87506H160.078V1.61768H160.078ZM161.371 2.62923C161.633 2.62923 161.776 2.55005 161.776 2.29725C161.776 2.06334 161.621 1.97181 161.371 1.97181H160.552V2.62923H161.371Z" fill="#78BE20"/>
<path d="M87.8783 0.213723L71.6676 0.136719C70.6952 0.136719 69.9023 0.93144 69.9023 1.91031V25.2677C69.9023 26.24 70.6952 27.0322 71.6676 27.0322L87.8783 27.0441C91.3495 27.0441 93.2448 25.3189 93.2448 21.5973V5.66051C93.2448 1.92774 91.3495 0.213723 87.8783 0.213723ZM85.3536 22.0092C85.3536 23.2249 84.982 23.6056 83.8531 23.6056H77.7936V3.65265H83.8531C84.982 3.65265 85.3536 4.02204 85.3536 5.23773V22.0092Z" fill="#78BE20"/>
<path d="M9.45568 3.536C8.32136 3.536 7.93853 3.91884 7.93853 5.1396V7.74568C7.93853 8.97117 8.32136 9.354 9.45568 9.354H17.2884C20.7837 9.354 22.6789 11.0789 22.6789 14.824V21.5631C22.6789 25.3075 20.7837 27.0325 17.2884 27.0325L2.05079 27.0161C1.07846 27.0161 0.297183 26.2239 0.297183 25.256C0.297183 24.2884 1.0781 23.4962 2.05079 23.4962L13.5037 23.583C14.6362 23.583 15.0187 23.2013 15.0187 21.9794V18.4373C15.0187 17.2216 14.6362 16.8439 13.5037 16.8439H5.66406C2.16738 16.8439 0.275391 15.1139 0.275391 11.3738V5.56239C0.275391 1.81073 2.16738 0.0854492 5.66406 0.0854492H20.1241C21.0797 0.0854492 21.849 0.856557 21.849 1.81073C21.849 2.76635 21.0797 3.53564 20.1241 3.53564L9.45568 3.536Z" fill="#78BE20"/>
<path d="M119.85 3.65246C118.895 3.65246 118.113 2.88317 118.113 1.92791C118.113 0.971565 118.895 0.202637 119.85 0.202637H139.434C140.388 0.202637 141.158 0.971565 141.158 1.92791C141.158 2.88354 140.388 3.65246 139.434 3.65246H133.592V25.2794C133.592 26.2518 132.812 27.0443 131.832 27.0443H127.479C126.507 27.0443 125.715 26.2521 125.715 25.2794V3.65246H119.85Z" fill="#78BE20"/>
<path d="M57.9598 27.0323C56.9838 27.0323 56.1895 26.2405 56.1895 25.2678V1.89739C56.1895 0.919616 56.9842 0.127441 57.9598 0.127441H62.3024C63.2816 0.127441 64.0742 0.919616 64.0742 1.89739V25.2678C64.0742 26.2401 63.2816 27.0323 62.3024 27.0323H57.9598Z" fill="#78BE20"/>
<path d="M121.794 24.5269L111.166 1.18005C110.875 0.6069 110.279 0.202637 109.585 0.202637H107.888C107.182 0.202637 106.581 0.61852 106.291 1.21492L95.6923 24.5265C95.5725 24.7651 95.5078 25.0365 95.5078 25.3187C95.5078 26.2983 96.2949 27.0908 97.2723 27.0908C98.0042 27.0908 98.6329 26.6448 98.8995 26.0041L101.783 19.403H111.078L113.682 25.9619C113.956 26.5881 114.587 27.032 115.316 27.032H120.184C121.163 27.032 121.957 26.2402 121.957 25.2675C121.957 25.0059 121.903 24.7462 121.794 24.5269ZM103.374 15.9764L105.718 10.7094C105.84 10.4246 106.118 10.2332 106.447 10.2332C106.765 10.2332 107.043 10.4246 107.158 10.6974L109.54 15.9764H103.374Z" fill="#78BE20"/>
<path d="M163.562 24.5269L152.932 1.18005C152.652 0.6069 152.042 0.202637 151.346 0.202637H149.655C148.961 0.202637 148.353 0.61852 148.07 1.21492L137.453 24.5265C137.336 24.7651 137.273 25.0365 137.273 25.3187C137.273 26.2983 138.066 27.0908 139.04 27.0908C139.779 27.0908 140.405 26.6448 140.672 26.0041L143.554 19.403H152.846L155.464 25.9619C155.723 26.5881 156.354 27.032 157.077 27.032H161.964C162.942 27.032 163.722 26.2402 163.722 25.2675C163.722 25.0059 163.671 24.7462 163.562 24.5269ZM145.141 15.9764L147.486 10.7094C147.607 10.4246 147.884 10.2332 148.215 10.2332C148.538 10.2332 148.811 10.4246 148.938 10.6974L151.306 15.9764H145.141Z" fill="#78BE20"/>
<path d="M36.1898 1.89788C36.1898 0.920105 35.3958 0.12793 34.418 0.12793H30.082C29.1031 0.12793 28.3105 0.920105 28.3105 1.89788V25.2683C28.3105 26.2406 29.1031 27.0328 30.082 27.0328H34.418C35.3958 27.0328 36.1898 26.241 36.1898 25.2683L36.1949 17.4817C36.1949 17.024 36.553 16.6612 37.0059 16.6612C37.2656 16.6612 37.5039 16.7876 37.6539 16.9859L44.5427 26.5123C44.7693 26.8316 45.1453 27.0332 45.5669 27.0332H51.5302C52.2193 27.0332 52.7851 26.4724 52.7851 25.7895C52.7851 25.5055 52.694 25.2451 52.5374 25.0373L43.3735 12.3476C43.2242 12.146 43.137 11.886 43.137 11.6128C43.137 11.2765 43.2638 10.9812 43.477 10.7571L51.0036 2.18809C51.1932 1.97452 51.3036 1.69012 51.3036 1.38865C51.3036 0.694181 50.7442 0.12829 50.0479 0.12829H47.6398C47.2639 0.12829 46.9341 0.289922 46.7078 0.549622L37.6074 10.9184C37.4629 11.08 37.2493 11.19 37.0067 11.19C36.5534 11.19 36.1956 10.8203 36.1956 10.3735L36.1898 1.89788Z" fill="#78BE20"/>
</svg>
