<svg width="63" height="55" viewBox="0 0 63 55" fill="none" xmlns="http://www.w3.org/2000/svg">
<path fill-rule="evenodd" clip-rule="evenodd" d="M1.87172 0.688477H0.505859V2.05434V43.0244V44.3903H1.87172H33.9362C35.7383 50.284 41.2208 54.5705 47.7045 54.5705C55.6548 54.5705 62.0998 48.1255 62.0998 40.1752C62.0998 37.3586 61.2909 34.7309 59.8926 32.5117H59.9278V2.05434V0.688477H58.562H1.87172ZM57.1961 29.3521V13.3982L32.6609 26.8726C31.332 27.6024 29.7244 27.6119 28.387 26.8979L3.23758 13.4715V41.6586H33.3847C33.3348 41.1709 33.3092 40.6761 33.3092 40.1752C33.3092 32.2249 39.7542 25.7799 47.7045 25.7799C51.3408 25.7799 54.6622 27.1282 57.1961 29.3521ZM31.3459 24.4782L57.1961 10.2816V3.4202H3.23758V10.3749L29.6735 24.4881C30.1969 24.7675 30.8259 24.7638 31.3459 24.4782ZM59.7583 40.1752C59.7583 46.8324 54.3617 52.229 47.7045 52.229C41.0474 52.229 35.6507 46.8324 35.6507 40.1752C35.6507 33.5181 41.0474 28.1214 47.7045 28.1214C54.3617 28.1214 59.7583 33.5181 59.7583 40.1752ZM46.249 32.6354V38.4507H39.985V41.1824H46.249V47.7158H48.9807V41.1824H55.4245V38.4507H48.9807V32.6354H46.249Z" fill="#78BE20"/>
</svg>
