<svg width="55" height="55" viewBox="0 0 55 55" fill="none" xmlns="http://www.w3.org/2000/svg">
<circle cx="27.2191" cy="27.5717" r="26.9984" fill="#78BE20"/>
<path d="M23.609 19.2386C30.0549 22.2937 36.1933 25.2335 42.365 28.0989C43.2903 28.5269 43.6773 28.9985 43.4953 30.0058C43.3312 30.7143 43.2793 31.4443 43.3415 32.1689C43.5978 34.0194 42.67 34.7729 41.0682 35.4726C34.0122 38.5611 27.0152 41.7853 20.0182 45.0096C19.1289 45.4196 18.5881 45.3299 17.9499 44.6072C17.1083 43.6441 16.195 42.7462 15.2177 41.9211C14.477 41.3035 14.3873 40.7447 14.7051 39.8554C16.3173 35.3701 17.8397 30.8541 19.439 26.3637C19.7209 25.5718 19.621 25.2001 18.8162 24.8388C16.102 23.6111 13.4339 22.2757 10.7299 21.0327C10.0789 20.7354 9.84826 20.4099 9.96103 19.6897C10.1994 18.0878 10.366 16.4757 10.5352 14.8636C10.5941 14.3048 10.8222 14.0947 11.4066 14.0152C19.8217 12.9319 28.2344 11.8315 36.6444 10.7141C38.6307 10.4578 40.6222 10.2322 42.6008 9.9221C43.4466 9.78882 43.7234 10.0579 43.8029 10.8807C43.9221 12.3686 44.1335 13.8477 44.4359 15.3095C44.6666 16.3347 44.3129 16.5116 43.4107 16.6218C37.1878 17.3779 30.9751 18.1878 24.7598 18.9874C24.4445 19.0233 24.1677 19.113 23.609 19.2386ZM23.263 35.7904C23.996 36.0467 24.524 35.5034 25.1109 35.2778C27.9738 34.1578 30.8136 32.984 33.9071 31.7281L26.1746 27.8836C25.2237 30.5645 24.0293 33.0967 23.2989 35.8033L23.1784 35.957H23.2938L23.263 35.7904Z" fill="white"/>
</svg>
