<svg width="161" height="162" viewBox="0 0 161 162" fill="none" xmlns="http://www.w3.org/2000/svg">
<circle cx="80.4741" cy="80.7691" r="80.4624" fill="#009751"/>
<g clip-path="url(#clip0_2112_798)">
<path fill-rule="evenodd" clip-rule="evenodd" d="M41.7662 63.8515L49.0983 55.5892L43.8124 49.5646C47.9047 44.9171 52.1675 40.2695 56.2598 35.622L61.5457 41.6466L72.1175 29.7695L146.973 113.77H13.9727L37.3329 87.6056L35.6278 85.54C36.3098 84.6794 36.9919 83.9908 37.8445 83.1302L35.6278 80.7204L37.3329 78.6548L34.7752 75.7285L43.6419 65.7449L41.7662 63.8515Z" fill="white"/>
<path fill-rule="evenodd" clip-rule="evenodd" d="M119.69 111.016L56.0886 39.7539L52.5078 43.7129L112.699 111.016H119.69Z" fill="#CBA349"/>
<path fill-rule="evenodd" clip-rule="evenodd" d="M109.119 111.016L50.8034 45.6057L47.2227 49.7369L101.957 111.016H109.119Z" fill="#CBA349"/>
<path fill-rule="evenodd" clip-rule="evenodd" d="M141.003 111.015H134.012L68.5352 37.6875L72.1159 33.7285L141.003 111.015Z" fill="#13007C"/>
<path fill-rule="evenodd" clip-rule="evenodd" d="M63.25 43.7129L123.271 111.016H130.432L66.8308 39.7539L63.25 43.7129Z" fill="#13007C"/>
<path fill-rule="evenodd" clip-rule="evenodd" d="M62.5703 111.016H98.378L80.4742 90.877L62.5703 111.016Z" fill="#008837"/>
<path fill-rule="evenodd" clip-rule="evenodd" d="M30.5117 111.014H37.6733L51.1438 96.0391H43.9822L30.5117 111.014Z" fill="#0E0E6B"/>
<path fill-rule="evenodd" clip-rule="evenodd" d="M19.9414 111.014H26.9324L40.4029 96.0391H33.4119L19.9414 111.014Z" fill="#0E0E6B"/>
<path fill-rule="evenodd" clip-rule="evenodd" d="M41.2533 111.015H48.4148L73.4802 82.9576C65.8071 74.5231 58.3046 66.0887 50.802 57.6543L45.3456 63.851L47.0507 65.9166L40.0597 73.8346L38.6956 75.3838L38.3546 75.7281L40.9123 78.6543L39.2071 80.7199L41.4238 83.3018L39.2071 85.7117L40.9123 87.6051L35.7969 93.4576C42.9584 93.4576 49.9494 93.4576 57.111 93.4576L41.2533 111.015Z" fill="#CBA349"/>
<path fill-rule="evenodd" clip-rule="evenodd" d="M51.8281 111.015H58.9897L69.2204 99.4825L78.7691 88.9825L75.1884 85.0234L51.8281 111.015Z" fill="#CBA349"/>
<path fill-rule="evenodd" clip-rule="evenodd" d="M58.3052 87.9501H49.268C49.268 83.3026 49.268 78.655 49.268 74.0075C53.7013 71.9419 57.9642 69.8763 62.3975 67.8108L60.6924 65.9173C56.0885 68.155 51.3142 70.3927 46.7103 72.8026V81.4091L44.4936 78.9993L42.7885 81.0649L46.7103 85.5403V88.2944H44.1526L41.7654 91.0485H59.4988L69.9001 79.3436L70.0706 78.9993L69.218 76.0731L58.3052 87.9501ZM51.1436 61.0977H56.4295V63.8518H48.7565L51.1436 61.0977ZM49.268 66.4337V68.6714L53.8719 66.4337H49.268ZM43.9821 76.4173V73.8354L41.2539 75.2124L42.959 76.9337L43.9821 76.4173Z" fill="white"/>
</g>
<defs>
<clipPath id="clip0_2112_798">
<rect width="133" height="84" fill="white" transform="translate(13.9727 29.7695)"/>
</clipPath>
</defs>
</svg>
