<svg width="162" height="162" viewBox="0 0 162 162" fill="none" xmlns="http://www.w3.org/2000/svg">
<circle cx="81.2593" cy="80.8662" r="80.4624" fill="#E3F7FF"/>
<path d="M69.5266 68.8482H74.6269L72.116 77.6489L76.1178 76.6274L78.3933 68.8482H83.1798L79.3349 82.0493L85.6907 73.5628L87.1031 68.7696H91.4972L88.7509 78.1204C88.6724 78.4347 88.0447 80.4777 88.5155 80.4777C88.9863 80.4777 90.2418 78.3561 91.5757 75.8416C93.0666 73.1699 94.322 70.3411 94.9498 68.7696H99.5793L97.3038 76.706L103.189 68.7696H143.991L45.5944 110.966L47.556 104.287L124.845 72.6199H109.78L108.289 77.5703L103.503 79.0633L105.464 72.6199H103.11L96.4406 81.2635L92.2819 82.6779C92.5173 80.5563 92.8312 78.5133 93.3804 76.4702L91.4188 80.0848C89.8494 82.9136 88.594 85.1924 86.24 85.1924C84.5137 85.1924 83.7291 83.6208 83.7291 81.4992C83.7291 80.792 83.8075 79.9277 84.0429 79.1419L77.7656 87.5497L72.5868 89.2785L75.0193 80.242L71.096 81.2635L68.3496 90.7714L62.7001 92.6573L65.211 83.8566L59.4829 91.1643C57.0505 94.3074 54.5395 95.9576 52.5779 95.9576C48.733 95.9576 48.1838 89.5928 48.5761 87.0783C46.4575 88.0212 45.7513 88.4141 45.0451 88.807C45.9867 102.401 32.0981 121.181 23.3099 121.181C20.5636 121.181 18.5234 119.06 18.5234 114.345C18.5234 107.273 23.7807 97.0577 37.9831 88.9641C37.5908 86.2139 36.6492 83.8566 34.9229 82.3636V82.0493C39.7094 78.3561 43.3973 74.1915 43.3973 70.4983C43.3973 68.7696 42.0634 68.1409 40.651 68.1409C37.9831 68.1409 34.4521 71.4412 32.5689 74.1915H31.5489L33.1182 68.8482C36.7277 64.0549 42.5342 62.3262 45.6728 62.3262C48.89 62.3262 51.6363 63.5834 51.6363 67.4337C51.6363 71.9913 47.6345 76.7845 41.7495 80.3991C43.0834 81.9707 44.025 83.6994 44.4958 85.5853C45.9082 84.8781 47.3991 84.0923 48.9684 83.3851C50.6947 75.0558 56.6581 68.6124 61.9154 68.6124C64.5832 68.6124 65.7602 70.184 65.7602 72.3842C65.7602 77.4132 61.2092 81.2635 54.6965 84.6423C54.5395 85.821 54.5395 86.4496 54.5395 87.1568C54.5395 89.4356 55.0103 90.5357 55.8735 90.5357C56.4227 90.5357 57.1289 89.9857 57.9136 89.1213L66.6234 78.749L69.5266 68.8482ZM25.1931 112.773C25.1931 113.873 25.507 115.602 26.7624 115.602C31.6273 115.602 37.8262 102.637 38.0616 92.5002C29.5087 98.3149 25.1931 106.801 25.1931 112.773ZM60.503 73.3271C60.503 72.5413 60.1891 71.9913 59.7183 71.9913C58.3844 71.9913 56.5012 76.1559 55.4027 80.8706C58.9337 78.6704 60.503 75.6844 60.503 73.3271Z" fill="#009EE1"/>
<path d="M128.138 101.692L128.295 100.042H132.375V97.7632H126.255L125.627 103.971C126.333 103.735 127.196 103.578 127.746 103.578C129.315 103.578 130.257 104.285 130.257 105.228C130.257 105.935 129.55 106.721 128.295 106.721C127.353 106.721 126.255 106.328 125.47 105.621L125.156 108.135C126.019 108.686 127.196 109.157 128.452 109.157C131.355 109.157 133.003 107.428 133.003 105.228C133.003 102.556 130.492 101.142 128.138 101.692Z" fill="#009EE1"/>
<path d="M124.139 101.062C124.139 99.1765 122.649 97.5264 119.981 97.5264C117.47 97.5264 115.822 99.0979 115.822 101.612V101.691H118.49V101.534C118.49 100.355 119.039 99.7266 119.981 99.7266C120.765 99.7266 121.315 100.277 121.315 101.062C121.315 101.612 121.001 102.162 120.452 102.87L115.43 108.842H123.983V106.484H120.53L122.57 104.284C123.59 103.105 124.139 102.241 124.139 101.062Z" fill="#009EE1"/>
<path d="M100.285 100.278H102.718V108.843H105.464V97.7632H101.619L100.285 100.278Z" fill="#009EE1"/>
<path d="M110.878 97.4482C108.21 97.4482 106.562 99.2555 106.562 101.534C106.562 103.656 108.21 105.07 110.015 105.07C110.407 105.07 110.643 105.07 111.035 104.992L108.446 108.842H111.584L113.154 106.485C114.409 104.599 115.115 103.184 115.115 101.534C115.115 99.177 113.546 97.4482 110.878 97.4482ZM110.878 103.184C109.937 103.184 109.152 102.556 109.152 101.456C109.152 100.513 109.78 99.727 110.878 99.727C111.898 99.727 112.604 100.513 112.604 101.456C112.526 102.477 111.898 103.184 110.878 103.184Z" fill="#009EE1"/>
<path d="M72.6673 41.3433L74.9429 48.4153H82.3187L76.3553 52.7371L78.6308 59.8091L72.6673 55.4873L66.6254 59.8091L68.9009 52.7371L62.9375 48.4153H70.3133L72.6673 41.3433Z" fill="#D0AF2C"/>
<path d="M95.2611 41.3433L97.5366 48.4153H104.991L98.949 52.7371L101.303 59.8091L95.2611 55.4873L89.2976 59.8091L91.5732 52.7371L85.5312 48.4153H92.9856L95.2611 41.3433Z" fill="#D0AF2C"/>
</svg>
