<svg width="162" height="161" viewBox="0 0 162 161" fill="none" xmlns="http://www.w3.org/2000/svg">
<circle cx="81.4038" cy="80.5249" r="78.9624" fill="#F1F1F1" stroke="#2350A9" stroke-width="3"/>
<path d="M69.7947 21.1123L72.3665 29.0778H80.6965L73.9517 34.0091L76.5307 41.9736L69.7947 37.0556L63.0499 41.9736L65.6325 34.0091L58.8945 29.0778H67.225L69.7947 21.1123Z" fill="#9F8C50"/>
<path d="M93.019 21.1123L95.5891 29.0778H103.917L97.1791 34.0091L99.7621 41.9736L93.019 37.0556L86.281 41.9736L88.8599 34.0091L82.1172 29.0778H90.4497L93.019 21.1123Z" fill="#9F8C50"/>
<path fill-rule="evenodd" clip-rule="evenodd" d="M104.881 100.902C104.548 114.145 98.9079 124.517 86.46 128.421C83.2091 129.423 79.6999 129.129 76.1947 128.256C83.0907 119.458 87.9356 105.674 91.9356 91.2203C84.8171 89.9774 80.6585 86.5274 78.4142 82.2C79.583 81.1202 80.731 79.986 81.837 78.8147C84.1766 76.3078 86.3313 73.6155 88.0772 70.8564C99.8238 75.3131 105.244 86.6514 104.881 100.902ZM76.2059 71.7682C76.2137 70.8245 76.2734 69.8808 76.379 68.9586C77.732 68.8685 79.1329 68.8947 80.5375 69.0601C81.6414 69.1841 82.7092 69.3658 83.74 69.5842C82.4904 71.7348 80.9092 73.5301 79.1 75.1051C78.3277 75.7728 77.5111 76.4025 76.6585 77.0013C76.3712 75.5057 76.2291 73.9816 76.2023 72.4489C76.1988 72.2234 76.2024 71.9958 76.2059 71.7682ZM84.5091 55.1206C86.2221 55.6462 86.5712 58.1552 85.9842 63.7353C83.3069 63.2323 80.5298 62.9641 77.6836 62.9455C79.3703 57.8838 82.1763 54.4049 84.5091 55.1206ZM61.6728 132.857C61.123 132.961 60.5519 133.019 59.9578 133.019C58.892 132.742 56.3546 132.91 56.1574 129.618C56.642 127.842 58.4263 127.334 60.3295 127.252C61.6981 127.201 64.034 128.375 66.9358 129.944C65.5004 131.408 63.7503 132.479 61.6728 132.857ZM119.568 100.354C118.914 83.9072 107.316 70.0666 91.084 65.0029C92.071 62.4925 92.6389 59.9799 92.627 57.5585C92.6101 51.758 89.8941 46.4116 85.3288 46.146C76.8882 46.1692 72.7779 55.2056 71.3729 63.3826C46.2142 67.0665 36.2329 93.2387 48.3625 103.457C58.1484 107.704 65.6769 102.636 66.2191 95.5365C60.0783 96.2897 58.0296 92.4242 58.0585 87.4742C58.0967 79.1252 63.4559 72.6569 70.788 70.1012C70.7958 70.999 70.8359 71.828 70.9111 72.5746C70.9548 72.9972 71.0048 73.4112 71.0409 73.8313C71.273 75.9963 71.4836 78.0522 71.687 80.0354C69.2646 81.3535 66.683 82.5989 64.0572 83.936L64.1339 91.9736C66.6443 90.9052 69.4906 89.2366 72.398 87.1411C72.5262 88.507 72.6627 89.8622 72.7779 91.2235C73.5616 99.6734 73.4638 107.298 71.9243 118.802C71.6067 121.147 70.8513 123.781 69.6306 126.141C64.8125 124.328 60.3295 122.317 56.9162 122.251C53.6926 122.083 49.0911 123.66 48.4277 128.17C47.4483 134.803 54.2349 138.376 60.3718 137.895C61.3721 137.817 62.3494 137.658 63.2967 137.429C66.5085 136.646 69.404 135.008 72.0397 132.699C76.9597 135.267 82.6129 137.738 87.7224 137.554C106.854 136.893 120.193 120.577 119.568 100.354Z" fill="#2350A9"/>
</svg>
