<svg width="162" height="161" viewBox="0 0 162 161" fill="none" xmlns="http://www.w3.org/2000/svg">
<circle cx="81.023" cy="80.5249" r="80.4624" fill="#006578"/>
<path d="M43.665 97.5469H41.9583L41.3278 99.7065H41.0742L40.4437 97.5469H38.737L39.7734 100.373L38.6211 103.547H40.3423L41.0271 101.214H41.3749L42.0598 103.547H43.7809L42.6287 100.373L43.665 97.5469Z" fill="#F5F5F5"/>
<path d="M56.3061 97.5469H54.4944L53.5849 99.7826H53.1319V97.5469H51.4688V103.547H53.1319V101.221H53.6392L54.5958 103.547H56.4221L55.0451 100.373L56.3061 97.5469Z" fill="#F5F5F5"/>
<path d="M65.8029 101.145H67.5712H67.7669V99.8442H67.5712H65.8029V98.9166H67.9625H68.1546V97.5469H65.7957H64.1035V103.547H65.7957H68.2307V102.174H65.8029V101.145Z" fill="#F5F5F5"/>
<path d="M79.3447 97.5469V99.7065H78.1453V97.5469H76.4531V103.547H78.1453V101.214H79.3447V103.547H79.3483H81.0368V97.5469H79.3483H79.3447Z" fill="#F5F5F5"/>
<path d="M89.8914 97.5469H88.1992V103.547H89.8914V97.5469Z" fill="#F5F5F5"/>
<path d="M84.5806 98.8293V97.543H82.8848V103.543H87.338V99.9961L86.28 98.8293H84.5806ZM85.6459 102.243H84.5806V100.134H85.6459V102.243Z" fill="#F5F5F5"/>
<path d="M106.42 103.547H108.145L108.855 99.0108H109.873V103.547H111.565V97.5469H107.478L106.42 103.547Z" fill="#F5F5F5"/>
<path d="M115.228 100.359H114.93L114.401 97.5469H112.713L113.648 101.66H114.988L114.88 102.174H112.967V103.547H116.104L117.434 97.5469H115.742L115.228 100.359Z" fill="#F5F5F5"/>
<path d="M122.415 99.8258H120.408V98.8474H122.977V97.543H118.727V103.543H123.437V100.913L122.415 99.8258ZM121.72 102.261H120.408V101.061H121.72V102.261Z" fill="#F5F5F5"/>
<path d="M45.2383 98.7097V103.543H48.6951L49.8619 102.38V97.543H46.405L45.2383 98.7097ZM46.9703 99.054H48.1697V102.036H46.9703V99.054Z" fill="#F5F5F5"/>
<path d="M73.3513 96.9994L73.7209 95.771H70.9199L71.2895 96.9994H73.3513Z" fill="#F5F5F5"/>
<path d="M105.267 97.5469H103.455L102.546 99.7826H102.093V97.5469H100.43V103.547H102.093V101.221H102.6L103.557 103.547H105.383L104.006 100.373L105.267 97.5469Z" fill="#F5F5F5"/>
<path d="M71.7647 100.844V97.5469H70.0762V103.547H71.9604L72.9858 100.246V103.547H74.6816V97.5469H72.7938L71.7647 100.844Z" fill="#F5F5F5"/>
<path d="M94.986 96.9994L95.3556 95.771H92.5547L92.9243 96.9994H94.986Z" fill="#F5F5F5"/>
<path d="M93.4031 100.844V97.5469H91.7109V103.547H93.5952L94.6242 100.246V103.547H96.3164V97.5469H94.4286L93.4031 100.844Z" fill="#F5F5F5"/>
<path d="M62.6261 97.5469H60.8144L59.9013 99.7826H59.4483V97.5469H57.7852V103.547H59.4483V101.221H59.9556L60.9122 103.547H62.7421L61.3652 100.373L62.6261 97.5469Z" fill="#F5F5F5"/>
<path d="M58.7125 106.71H38.6202V109.222C38.6116 110.42 38.9932 111.589 39.7073 112.552C39.873 112.771 40.056 112.977 40.2544 113.168L38.6094 114.856V134.934H58.6908V120.82H55.7449L52.0272 124.553V128.962H45.5049V112.657H52.0272V116.708H55.0637L58.727 113.033V106.71H58.7125Z" fill="#FFB600"/>
<path d="M94.2358 120.052H88.6701V106.703H82.0898V121.295L86.4996 125.705L95.8193 125.712L94.2358 127.295V130.455H100.82V106.703H94.2358V120.052Z" fill="#FFB600"/>
<path d="M61.252 111.316V130.452H74.9488L79.5578 125.842V106.71H65.8647L61.252 111.316ZM68.104 122.882V112.675H72.8435V124.466H66.506L68.104 122.882Z" fill="#FFB600"/>
<path d="M123.421 109.214V106.71H115.188L109.782 122.962V106.71H103.336V134.941H111.569L116.982 118.668V134.919H123.428V114.856L121.783 113.168C121.982 112.977 122.165 112.771 122.33 112.552C123.047 111.587 123.43 110.416 123.421 109.214Z" fill="#FFB600"/>
<path d="M105.06 26.4174C100.81 26.4558 96.6597 27.7134 93.1028 30.0409L86.0407 26.1275L81.0366 27.7182L76.0362 26.1094L68.9704 30.0227C65.4131 27.6962 61.2632 26.4387 57.0129 26.3993H49.1934V38.0778L49.2296 38.3785C49.6768 41.9061 51.1454 45.2261 53.4546 47.9301L51.9834 51.376V75.1063L60.2052 75.1751L63.9337 81.4945H65.8904L71.5539 91.1293H90.5302L96.2046 81.4981H98.1395L101.864 75.186L110.086 75.1171V51.3941L108.615 47.9482C110.923 45.2447 112.391 41.9264 112.84 38.4003L112.876 38.0959V26.4174H105.06Z" fill="#0A2240"/>
<path d="M105.041 28.9572C104.317 28.9572 98.298 28.9862 93.2794 33.03L85.7534 28.8594L81.0429 30.374L76.3323 28.8594L68.7882 33.03C63.7769 28.9898 57.7655 28.9463 57.03 28.9572H51.7324V37.9435L51.7505 38.092C52.2288 41.6416 53.8775 44.9302 56.4357 47.437L54.5225 51.912V72.6094L61.6608 72.6674L65.3821 78.9759H67.3388L73.0023 88.5927H89.0798L94.7542 78.9614H96.6891L100.41 72.6529L107.552 72.5949V51.912L105.639 47.437C108.196 44.9292 109.844 41.6411 110.324 38.092V37.9435V28.9572H105.041Z" fill="#FFB600"/>
<path d="M103.534 45.9409C104.208 45.3394 107.252 42.3863 107.81 37.7917V31.4868H105.023C105.023 31.4868 98.2944 31.3383 93.6382 36.1177L85.4854 31.6028L81.0357 33.0304L76.5861 31.6028L68.426 36.1177C63.777 31.3419 57.0518 31.4868 57.0518 31.4868H54.2617V37.7917C54.8161 42.3863 57.8635 45.3394 58.5374 45.9409L58.6679 46.0533C58.9409 46.2948 59.2162 46.5159 59.494 46.7164L57.0518 52.4306V59.4095C57.4758 59.4894 57.9067 59.527 58.3381 59.5218C59.2126 59.5468 60.081 59.3681 60.8746 59C61.121 58.8986 61.3855 58.7935 61.6863 58.6957C62.0251 58.5897 62.3716 58.5098 62.7226 58.4565H62.7479C63.1395 58.404 63.5342 58.3785 63.9292 58.3804C64.98 58.3576 66.0225 58.5705 66.9802 59.0036C67.7811 59.3494 68.6443 59.5278 69.5166 59.5278C70.389 59.5278 71.2522 59.3494 72.0531 59.0036C72.8312 58.6513 73.6678 58.4461 74.5207 58.3985L73.9409 60.6705L72.3538 66.8956H71.1653L71.5639 65.3448L72.7126 60.877L72.9444 59.9639L72.5821 60.1124C71.6175 60.5237 70.5797 60.7357 69.5311 60.7357C68.4825 60.7357 67.4447 60.5237 66.4801 60.1124C65.6979 59.7525 64.8444 59.5741 63.9835 59.5907H63.9509C63.0765 59.5664 62.2083 59.745 61.4145 60.1124C60.4571 60.5464 59.4144 60.7594 58.3635 60.7357C57.413 60.7582 56.4681 60.5843 55.5879 60.2248V61.9894L55.8307 62.0909C56.6316 62.4367 57.4948 62.615 58.3671 62.615C59.2395 62.615 60.1027 62.4367 60.9036 62.0909C61.8688 61.6795 62.9072 61.4675 63.9564 61.4675C65.0056 61.4675 66.044 61.6795 67.0092 62.0909C67.8029 62.4586 68.6712 62.6372 69.5456 62.6126C69.7159 62.6126 69.8753 62.6126 70.0239 62.6126L69.7123 63.8338H69.513C68.4624 63.8548 67.4202 63.6419 66.462 63.2105C65.6611 62.8647 64.798 62.6864 63.9256 62.6864C63.0532 62.6864 62.19 62.8647 61.3891 63.2105C60.4312 63.6427 59.3888 63.8556 58.3381 63.8338C57.3876 63.8563 56.4427 63.6824 55.5626 63.3228V65.0875L55.8053 65.189C56.6068 65.5325 57.4698 65.7096 58.3418 65.7096C59.2138 65.7096 60.0767 65.5325 60.8782 65.189C61.8434 64.7776 62.8818 64.5656 63.931 64.5656C64.9802 64.5656 66.0186 64.7776 66.9838 65.189C67.6805 65.509 68.435 65.684 69.2014 65.7035L68.8934 66.8992C68.053 66.8465 67.2291 66.6415 66.462 66.2941C65.6605 65.9506 64.7976 65.7735 63.9256 65.7735C63.0536 65.7735 62.1906 65.9506 61.3891 66.2941C60.4318 66.7281 59.389 66.9411 58.3381 66.9174C57.9076 66.9209 57.4775 66.8907 57.0518 66.8268V70.1133L63.1139 70.164L66.828 76.4616H68.7883L74.4627 86.0929H87.6305L93.3048 76.4616H95.2398L98.9503 70.164H99.28L105.023 70.1133V66.8521C104.602 66.9159 104.177 66.9462 103.751 66.9427C102.701 66.9664 101.658 66.7534 100.7 66.3195C99.8989 65.976 99.036 65.7989 98.164 65.7989C97.292 65.7989 96.429 65.976 95.6275 66.3195C94.8602 66.6663 94.0365 66.8713 93.1961 66.9246L92.8882 65.7252C93.655 65.7093 94.4102 65.5341 95.1057 65.2107C96.0703 64.7995 97.1081 64.5875 98.1567 64.5875C99.2053 64.5875 100.243 64.7995 101.208 65.2107C102.009 65.5565 102.872 65.7349 103.744 65.7349C104.617 65.7349 105.48 65.5565 106.281 65.2107L106.527 65.1129V63.3446C105.648 63.707 104.702 63.8822 103.751 63.8591C102.701 63.881 101.658 63.6681 100.7 63.2359C99.8995 62.8901 99.0363 62.7117 98.164 62.7117C97.2916 62.7117 96.4284 62.8901 95.6275 63.2359C94.6693 63.6672 93.6272 63.8801 92.5765 63.8591H92.4099L92.0982 62.638C92.2432 62.638 92.4026 62.638 92.5765 62.638C93.451 62.6626 94.3192 62.484 95.113 62.1162C96.0776 61.705 97.1154 61.493 98.164 61.493C99.2126 61.493 100.25 61.705 101.215 62.1162C102.016 62.462 102.879 62.6404 103.751 62.6404C104.624 62.6404 105.487 62.462 106.288 62.1162L106.534 62.0148V60.2501C105.654 60.6093 104.709 60.7832 103.759 60.761C102.707 60.7842 101.663 60.5712 100.704 60.1378C99.9104 59.7697 99.0421 59.5911 98.1676 59.616H98.1386C97.2773 59.5955 96.423 59.7741 95.642 60.1378C94.6768 60.5491 93.6384 60.7612 92.5892 60.7612C91.54 60.7612 90.5016 60.5491 89.5364 60.1378L89.1741 59.9892L89.4096 60.8987L90.5293 65.352L90.9242 66.8992H89.7393L88.1631 60.6922L87.5834 58.4203C88.4361 58.4684 89.2727 58.6735 90.051 59.0254C90.8519 59.3712 91.715 59.5495 92.5874 59.5495C93.4598 59.5495 94.3229 59.3712 95.1238 59.0254C96.0812 58.5915 97.124 58.3784 98.1748 58.4021C98.5699 58.4003 98.9646 58.4257 99.3561 58.4782H99.3815C99.7323 58.5324 100.079 58.6123 100.418 58.7174C100.719 58.8152 100.979 58.9203 101.226 59.0218C102.02 59.3889 102.888 59.5674 103.762 59.5435C104.189 59.5484 104.615 59.5108 105.034 59.4312V52.4306L102.592 46.7164C102.871 46.5098 103.146 46.2888 103.414 46.0533L103.534 45.9409ZM81.0357 66.8123L85.46 63.2612L86.3115 66.8123H75.7563L76.6078 63.2612L81.0357 66.8123ZM78.1732 61.7792V56.7317H83.8946V61.7792H78.1732ZM65.8025 47.3614L60.9942 51.1225L63.44 45.7308C62.356 45.3276 61.3569 44.7254 60.4941 43.9553L62.0812 41.9768H58.7295C58.1997 41.1714 57.7633 40.3083 57.4286 39.4042L59.0121 37.8243H57.0518V34.2153C59.0057 34.2338 60.9352 34.6505 62.7226 35.4401V37.6142L64.172 36.1648C64.8109 36.5449 65.4031 36.9985 65.9366 37.5163C66.6059 38.1627 67.1881 38.8936 67.6686 39.6904L76.5969 34.7589L81.0538 38.7085V53.7677L65.8025 47.3614ZM89.7611 73.6498H90.9568L85.6375 82.6361H76.4339L71.111 73.6498H72.3067L76.2491 80.1721H85.8187L89.7611 73.6498ZM100.313 41.9696L101.588 43.948C100.697 44.7445 99.6597 45.3599 98.5336 45.7598L94.4535 39.6469C94.9292 38.8722 95.5015 38.1611 96.1566 37.5308C96.6913 37.013 97.2847 36.5594 97.9248 36.1793L99.3742 37.6287V35.4546C101.154 34.6633 103.076 34.2417 105.023 34.2153V37.8171H103.063L104.643 39.3969C104.311 40.3023 103.875 41.1658 103.342 41.9696H100.313ZM78.0028 40.8826L80.003 43.2632H76.0172L78.0028 40.8826ZM72.5857 40.8826L74.5859 43.2632H70.5711L72.5857 40.8826ZM78.0028 44.2814L80.003 46.662H76.0172L78.0028 44.2814Z" fill="#0A2240"/>
<path d="M81.0234 38.6971L76.5882 34.7656L81.0379 36.215L85.4875 34.7656L81.0451 38.7152L81.0234 38.6971ZM70.8414 56.6298L68.9789 52.8541L66.2431 50.825L67.7723 54.626L69.5623 56.7312H74.762L72.7763 54.3506L70.8414 56.6298ZM81.0306 53.7781H85.8897L96.2674 47.3536L81.0488 53.7745L65.8301 47.3536L76.2077 53.7781H81.0306ZM76.61 63.2608H85.4585L83.8932 56.7385V61.7788H78.1753V56.7312L76.61 63.2608ZM91.2308 56.6298L89.3139 54.3506L87.3138 56.7312H92.5099L94.2999 54.626L95.8326 50.825L93.0932 52.8541L91.2308 56.6298ZM75.4758 70.1454C75.4758 70.1454 75.599 71.6492 77.3528 73.2109L77.5738 71.5767H84.4983L84.723 73.2109C86.4767 71.6492 86.5963 70.1454 86.5963 70.1454L81.0379 70.178L75.4758 70.1454ZM81.1466 76.6134H78.6101L77.9796 75.635V77.8091H84.1034V75.635L83.4729 76.6134H81.1466Z" fill="white"/>
<path d="M86.223 43.2632H82.2227L84.2228 40.8862L86.223 43.2632Z" fill="#FFB600"/>
<path d="M91.6387 43.2632H87.6348L89.6386 40.8862L91.6387 43.2632Z" fill="#FFB600"/>
<path d="M86.223 46.6617H82.2227L84.2228 44.2847L86.223 46.6617Z" fill="#FFB600"/>
</svg>
