<svg width="143" height="144" viewBox="0 0 143 144" fill="none" xmlns="http://www.w3.org/2000/svg">
<path d="M11.3351 88.4622C10.7173 88.2333 10.0859 88.2568 9.44071 88.5325C8.80125 88.8058 8.35076 89.2448 8.08926 89.8494C7.83346 90.4517 7.82757 91.0383 8.07158 91.6092C8.31558 92.1802 8.74361 92.5813 9.35566 92.8127C9.97342 93.0416 10.602 93.0194 11.2415 92.7461C11.8867 92.4704 12.34 92.0302 12.6015 91.4255C12.863 90.8208 12.8718 90.233 12.6278 89.662C12.3837 89.0911 11.9529 88.6912 11.3351 88.4622ZM14.8408 92.4941C14.3381 93.7826 13.4901 94.6818 12.2969 95.1918C11.1036 95.7018 9.86474 95.6944 8.58038 95.1697C7.30416 94.6483 6.40375 93.7738 5.87913 92.5462C5.35451 91.3187 5.34356 90.0607 5.84626 88.7722C6.35468 87.4813 7.20553 86.5809 8.39882 86.0709C9.5921 85.5609 10.8281 85.5695 12.1067 86.0967C13.3911 86.6214 14.2956 87.4975 14.8202 88.725C15.3448 89.9526 15.3517 91.209 14.8408 92.4941Z" fill="white"/>
<path d="M17.9046 105.908C16.8176 106.64 15.6546 106.891 14.4154 106.662C13.1797 106.438 12.1823 105.762 11.4231 104.634C10.5704 103.367 10.3262 102.053 10.6905 100.693C11.0584 99.3378 12.0485 98.1177 13.6609 97.0327C15.4638 95.8195 17.0569 95.2451 18.44 95.3098C19.8231 95.3744 21.0698 95.9537 22.1801 97.0476C22.6765 97.5293 23.1502 97.9552 23.6012 98.3253C24.0523 98.6953 24.3823 98.941 24.5912 99.0623L24.9122 99.2392L23.9626 101.248C23.8936 101.234 23.7893 101.196 23.6495 101.133C23.5132 101.075 23.1687 100.847 22.6159 100.448C22.0665 100.054 21.4556 99.5409 20.7829 98.9083C20.1795 98.334 19.5218 97.9795 18.81 97.8448C18.1033 97.7067 17.3951 97.7941 16.6852 98.1072C16.73 98.107 16.7911 98.1144 16.8687 98.1296C16.9463 98.1448 17.0971 98.1854 17.3213 98.2516C17.5506 98.3144 17.7696 98.3952 17.9784 98.4942C18.1959 98.5949 18.4299 98.748 18.6805 98.9536C18.9362 99.1557 19.1542 99.3906 19.3345 99.6585C19.9792 100.617 20.1639 101.72 19.8886 102.968C19.6219 104.217 18.9606 105.198 17.9046 105.908ZM15.8425 99.7743C15.2411 99.6702 14.6493 99.8139 14.0672 100.206C13.4902 100.594 13.1342 101.088 12.999 101.688C12.8638 102.288 12.9696 102.845 13.3162 103.36C13.6421 103.845 14.1031 104.129 14.6993 104.215C15.299 104.305 15.8873 104.156 16.4642 103.768C17.0463 103.376 17.4059 102.887 17.5428 102.301C17.6884 101.717 17.5983 101.182 17.2724 100.698C16.9258 100.183 16.4492 99.875 15.8425 99.7743Z" fill="white"/>
<path d="M17.6448 111.72C17.6526 110.324 18.1235 109.175 19.0577 108.275C19.9918 107.374 21.1544 106.947 22.5456 106.994C23.9412 107.037 25.1152 107.553 26.0677 108.54C26.4039 108.889 26.6737 109.267 26.8771 109.675C27.0892 110.083 27.2252 110.452 27.2851 110.782C27.3494 111.108 27.39 111.414 27.4067 111.7C27.4235 111.986 27.4172 112.212 27.3878 112.378L27.344 112.614L25.0526 112.573C25.0807 112.477 25.1052 112.337 25.1261 112.153C25.1513 111.973 25.1107 111.667 25.0044 111.235C24.9069 110.803 24.7116 110.435 24.4185 110.131C23.9487 109.644 23.3626 109.398 22.66 109.394C21.9618 109.395 21.3557 109.643 20.8417 110.138C20.3322 110.63 20.0667 111.226 20.0452 111.929C20.0236 112.631 20.2456 113.223 20.7111 113.706C21.0041 114.01 21.3559 114.227 21.7663 114.357C22.181 114.492 22.5224 114.551 22.7906 114.534L23.1931 114.495L23.0868 116.72C23.0252 116.727 22.9372 116.739 22.8227 116.754C22.7171 116.77 22.5041 116.768 22.1839 116.749C21.8682 116.726 21.5551 116.674 21.2448 116.594C20.939 116.509 20.5816 116.358 20.1728 116.14C19.7728 115.922 19.4047 115.638 19.0685 115.29C18.116 114.302 17.6414 113.112 17.6448 111.72Z" fill="white"/>
<path d="M25.4609 122.566L26.0834 122.201L28.5994 112.583L30.761 114.156L28.8821 120.459L34.3084 116.736L36.4625 118.303L27.6225 124.138C25.5869 125.491 23.9364 125.707 22.6711 124.786C22.4451 124.622 22.2363 124.439 22.0446 124.239C21.8529 124.038 21.7189 123.879 21.6427 123.762L21.5304 123.6L22.8727 121.754C23.0055 122.005 23.225 122.241 23.5313 122.464C24.159 122.92 24.8022 122.954 25.4609 122.566Z" fill="white"/>
<path d="M34.2814 126.289L34.7952 126.532C34.8448 126.514 34.915 126.489 35.006 126.456C35.1025 126.426 35.2864 126.328 35.5576 126.161C35.8344 125.996 36.0994 125.798 36.3525 125.568C36.6138 125.334 36.9049 125.001 37.2257 124.569C37.5521 124.14 37.8399 123.661 38.0891 123.133L39.1906 120.8L45.6587 123.854L42.6445 130.238L43.7646 130.767L41.8479 134.826L39.5235 133.729L40.4619 131.741L35.6277 129.459L34.6892 131.446L32.3648 130.349L34.2814 126.289ZM40.3684 123.89L40.1219 124.412C39.8064 125.08 39.4062 125.688 38.9214 126.235C38.4448 126.779 38.0436 127.156 37.7178 127.366L37.2123 127.673L40.32 129.141L42.356 124.828L40.3684 123.89Z" fill="white"/>
<path d="M54.3804 127.351L56.5555 127.905L54.2471 136.967L51.7561 136.332L53.0506 131.251L47.812 135.327L45.655 134.778L47.9634 125.716L50.4544 126.351L49.1576 131.441L54.3804 127.351Z" fill="white"/>
<path d="M57.9059 131.388L58.1262 128.911L66.5868 129.663L66.3665 132.14L63.4164 131.878L62.8084 138.715L60.2479 138.487L60.856 131.65L57.9059 131.388Z" fill="white"/>
<path d="M71.8398 137.358L73.456 137.239C73.7842 137.215 74.0487 137.086 74.2495 136.854C74.4504 136.621 74.5387 136.341 74.5146 136.013C74.4905 135.684 74.3621 135.42 74.1295 135.219C73.903 135.018 73.6226 134.929 73.2882 134.954L71.672 135.073L71.8398 137.358ZM75.9497 133.554C76.6373 134.101 77.0166 134.858 77.0876 135.824C77.158 136.783 76.8933 137.587 76.2934 138.235C75.6992 138.877 74.8387 139.239 73.7116 139.321L69.4296 139.636L68.7449 130.31L71.3085 130.122L71.5186 132.983L73.237 132.856C74.364 132.774 75.2682 133.006 75.9497 133.554Z" fill="white"/>
<path d="M86.507 130.89L88.8625 137.545L86.4392 138.402L83.3193 129.587L91.5899 126.66L94.7099 135.475L92.2779 136.336L89.9223 129.681L86.507 130.89Z" fill="white"/>
<path d="M103.529 132.091C103.068 132.361 102.582 132.52 102.07 132.568C101.561 132.607 101.168 132.581 100.892 132.491L100.469 132.34L103.072 136.784L100.854 138.083L94.1038 126.559L96.3218 125.26L96.9008 126.248C96.9034 126.204 96.912 126.145 96.9266 126.071C96.9466 125.995 96.9913 125.85 97.0606 125.637C97.1321 125.415 97.2238 125.203 97.3356 125.001C97.4443 124.793 97.6117 124.569 97.8379 124.329C98.0609 124.083 98.3197 123.874 98.6144 123.701C99.6591 123.089 100.803 122.966 102.046 123.331C103.292 123.688 104.258 124.454 104.945 125.627C105.633 126.8 105.829 128.02 105.535 129.286C105.242 130.544 104.574 131.479 103.529 132.091ZM101.128 125.726C100.503 125.531 99.9144 125.595 99.3626 125.918C98.8162 126.238 98.4724 126.72 98.3315 127.364C98.1874 128.002 98.3052 128.646 98.685 129.294C99.0647 129.942 99.5699 130.362 100.2 130.554C100.831 130.746 101.419 130.682 101.966 130.362C102.518 130.039 102.861 129.557 102.997 128.916C103.138 128.272 103.019 127.626 102.639 126.978C102.259 126.33 101.756 125.912 101.128 125.726Z" fill="white"/>
<path d="M108.703 121.506C108.678 122.164 108.896 122.757 109.359 123.285C109.817 123.807 110.375 124.099 111.031 124.16C111.683 124.216 112.242 124.039 112.709 123.629C113.175 123.22 113.424 122.688 113.453 122.035C113.479 121.376 113.262 120.786 112.804 120.263C112.341 119.736 111.782 119.442 111.126 119.381C110.47 119.32 109.908 119.495 109.442 119.904C108.975 120.314 108.729 120.847 108.703 121.506ZM111.445 116.92C112.826 116.998 113.945 117.524 114.8 118.5C115.656 119.475 116.034 120.655 115.935 122.039C115.836 123.414 115.284 124.542 114.281 125.422C113.277 126.302 112.085 126.704 110.704 126.626C109.319 126.544 108.199 126.016 107.343 125.04C106.487 124.064 106.111 122.887 106.215 121.508C106.314 120.124 106.866 118.992 107.87 118.112C108.873 117.231 110.065 116.834 111.445 116.92Z" fill="white"/>
<path d="M124.085 109.878L119.924 115.22C120.387 115.455 120.893 115.507 121.444 115.377C121.989 115.242 122.467 114.911 122.879 114.382C123.177 114 123.378 113.59 123.483 113.152C123.587 112.706 123.614 112.357 123.566 112.107L123.504 111.716L125.674 111.718L125.703 111.954C125.717 112.067 125.72 112.281 125.71 112.596C125.701 112.912 125.667 113.228 125.609 113.545C125.546 113.858 125.418 114.23 125.224 114.661C125.033 115.087 124.789 115.492 124.492 115.874C123.649 116.956 122.555 117.588 121.21 117.768C119.86 117.945 118.659 117.623 117.606 116.803C116.553 115.982 115.945 114.903 115.783 113.565C115.616 112.223 115.943 111.025 116.763 109.972C117.584 108.919 118.619 108.317 119.87 108.166C121.116 108.011 122.266 108.344 123.319 109.164L124.085 109.878ZM119.727 110.533C119.243 110.629 118.833 110.892 118.498 111.323C118.162 111.754 118.001 112.219 118.014 112.717C118.031 113.21 118.193 113.675 118.499 114.11L121.137 110.723C120.684 110.496 120.214 110.433 119.727 110.533Z" fill="white"/>
<path d="M125.554 97.3533L127.457 102.349L133.915 101.545L132.576 104.082L128.216 104.582L128.859 106.217L130.885 107.286L129.686 109.559L121.416 105.195L122.616 102.921L125.993 104.704L124.176 99.9644L125.554 97.3533Z" fill="white"/>
<path d="M128.827 97.6317L126.471 96.8373L129.184 88.7884L131.541 89.5827L130.595 92.3892L137.099 94.5818L136.278 97.0177L129.773 94.8251L128.827 97.6317Z" fill="white"/>
<path d="M130.823 56.0287C131.441 56.2576 132.072 56.2342 132.717 55.9585C133.357 55.6852 133.807 55.2462 134.069 54.6415C134.325 54.0393 134.331 53.4527 134.087 52.8817C133.843 52.3108 133.415 51.9096 132.803 51.6783C132.185 51.4494 131.556 51.4716 130.917 51.7449C130.272 52.0206 129.818 52.4608 129.557 53.0655C129.295 53.6702 129.286 54.258 129.53 54.8289C129.774 55.3999 130.205 55.7998 130.823 56.0287ZM127.317 51.9968C127.82 50.7084 128.668 49.8091 129.861 49.2992C131.055 48.7892 132.293 48.7966 133.578 49.3213C134.854 49.8427 135.754 50.7172 136.279 51.9448C136.804 53.1723 136.815 54.4303 136.312 55.7188C135.804 57.0097 134.953 57.9101 133.759 58.4201C132.566 58.9301 131.33 58.9215 130.051 58.3943C128.767 57.8696 127.863 56.9935 127.338 55.7659C126.813 54.5384 126.807 53.282 127.317 51.9968Z" fill="white"/>
<path d="M124.254 38.5828C125.341 37.8514 126.504 37.6001 127.743 37.829C128.979 38.0527 129.976 38.7286 130.735 39.8567C131.588 41.1239 131.832 42.4377 131.468 43.798C131.1 45.1532 130.11 46.3733 128.497 47.4583C126.694 48.6715 125.101 49.2458 123.718 49.1812C122.335 49.1166 121.088 48.5373 119.978 47.4434C119.482 46.9616 119.008 46.5357 118.557 46.1657C118.106 45.7957 117.776 45.55 117.567 45.4286L117.246 45.2518L118.196 43.2431C118.265 43.2566 118.369 43.2949 118.509 43.358C118.645 43.416 118.99 43.6444 119.542 44.0433C120.092 44.437 120.703 44.9501 121.375 45.5827C121.979 46.157 122.636 46.5114 123.348 46.6461C124.055 46.7843 124.763 46.6969 125.473 46.3838C125.428 46.384 125.367 46.3765 125.29 46.3614C125.212 46.3462 125.061 46.3055 124.837 46.2393C124.608 46.1766 124.389 46.0957 124.18 45.9968C123.962 45.8961 123.728 45.743 123.478 45.5374C123.222 45.3353 123.004 45.1003 122.824 44.8325C122.179 43.8743 121.994 42.7712 122.27 41.5233C122.536 40.2736 123.198 39.2934 124.254 38.5828ZM126.316 44.7166C126.917 44.8208 127.509 44.677 128.091 44.2853C128.668 43.8971 129.024 43.403 129.159 42.8032C129.294 42.2033 129.189 41.6458 128.842 41.1306C128.516 40.6464 128.055 40.3617 127.459 40.2764C126.859 40.186 126.271 40.3349 125.694 40.7232C125.112 41.1149 124.752 41.6038 124.615 42.1899C124.47 42.7743 124.56 43.3086 124.886 43.7929C125.232 44.308 125.709 44.6159 126.316 44.7166Z" fill="white"/>
<path d="M124.513 32.7707C124.506 34.1669 124.035 35.3155 123.101 36.2163C122.166 37.117 121.004 37.5438 119.613 37.4966C118.217 37.4537 117.043 36.9383 116.09 35.9506C115.754 35.6019 115.485 35.2238 115.281 34.8161C115.069 34.4083 114.933 34.0391 114.873 33.7087C114.809 33.3826 114.768 33.0767 114.751 32.7909C114.735 32.5052 114.741 32.2792 114.77 32.1128L114.814 31.8765L117.106 31.9181C117.078 32.0142 117.053 32.1543 117.032 32.3384C117.007 32.5179 117.047 32.8239 117.154 33.2561C117.251 33.6882 117.447 34.0563 117.74 34.3602C118.209 34.8474 118.796 35.0929 119.498 35.0969C120.196 35.0964 120.802 34.8484 121.316 34.3527C121.826 33.8614 122.092 33.2646 122.113 32.5624C122.135 31.8602 121.913 31.2678 121.447 30.7851C121.154 30.4811 120.802 30.264 120.392 30.1335C119.977 29.9987 119.636 29.9398 119.368 29.9569L118.965 29.9956L119.071 27.7712C119.133 27.7636 119.221 27.752 119.335 27.7365C119.441 27.7209 119.654 27.7226 119.974 27.7415C120.29 27.7648 120.603 27.8166 120.913 27.8969C121.219 27.9815 121.577 28.1329 121.985 28.3511C122.385 28.5692 122.754 28.8525 123.09 29.2011C124.042 30.1889 124.517 31.3787 124.513 32.7707Z" fill="white"/>
<path d="M116.697 21.9249L116.075 22.2898L113.559 31.9076L111.397 30.3352L113.276 24.0316L107.85 27.7547L105.696 26.1878L114.536 20.3525C116.571 19.0001 118.222 18.7841 119.487 19.7046C119.713 19.8689 119.922 20.0515 120.114 20.2524C120.305 20.4533 120.439 20.6122 120.516 20.729L120.628 20.8913L119.286 22.7366C119.153 22.4864 118.933 22.2499 118.627 22.0271C117.999 21.5706 117.356 21.5365 116.697 21.9249Z" fill="white"/>
<path d="M107.877 18.2016L107.363 17.959C107.313 17.9768 107.243 18.002 107.152 18.0346C107.056 18.0646 106.872 18.1631 106.601 18.3303C106.324 18.4949 106.059 18.6925 105.806 18.9232C105.544 19.1568 105.253 19.4897 104.932 19.9219C104.606 20.3514 104.318 20.8301 104.069 21.3579L102.968 23.6908L96.4995 20.6368L99.5137 14.2529L98.3936 13.7241L100.31 9.66465L102.635 10.7622L101.696 12.7498L106.531 15.0323L107.469 13.0447L109.793 14.1422L107.877 18.2016ZM101.79 20.601L102.036 20.0788C102.352 19.4107 102.752 18.8031 103.237 18.2561C103.713 17.7121 104.115 17.3351 104.44 17.125L104.946 16.8178L101.838 15.3505L99.8022 19.6625L101.79 20.601Z" fill="white"/>
<path d="M87.7778 17.1398L85.6027 16.5857L87.9111 7.52427L90.4021 8.15887L89.1076 13.2401L94.3462 9.16365L96.5032 9.71318L94.1948 18.7746L91.7038 18.14L93.0006 13.0497L87.7778 17.1398Z" fill="white"/>
<path d="M84.2523 13.1033L84.032 15.5803L75.5714 14.8278L75.7917 12.3509L78.7418 12.6132L79.3498 5.77612L81.9103 6.00383L81.3022 12.841L84.2523 13.1033Z" fill="white"/>
<path d="M70.3184 7.1334L68.7022 7.25207C68.374 7.27617 68.1095 7.40454 67.9087 7.63719C67.7078 7.86983 67.6195 8.15026 67.6436 8.47845C67.6677 8.80665 67.7961 9.07116 68.0287 9.27198C68.2552 9.47325 68.5356 9.56161 68.87 9.53706L70.4862 9.41839L70.3184 7.1334ZM66.2085 10.9372C65.5209 10.39 65.1416 9.63338 65.0706 8.66737C65.0002 7.70755 65.2649 6.90367 65.8648 6.25572C66.459 5.61442 67.3195 5.25239 68.4466 5.16964L72.7286 4.85523L73.4133 14.181L70.8497 14.3692L70.6396 11.5083L68.9212 11.6345C67.7942 11.7172 66.89 11.4848 66.2085 10.9372Z" fill="white"/>
<path d="M55.6513 13.6014L53.2957 6.94629L55.719 6.0886L58.839 14.9036L50.5683 17.8309L47.4483 9.01593L49.8804 8.15513L52.2359 14.8103L55.6513 13.6014Z" fill="white"/>
<path d="M38.6291 12.4001C39.0899 12.1302 39.5761 11.9713 40.0877 11.9235C40.5972 11.8841 40.9898 11.9095 41.2658 11.9997L41.6891 12.1511L39.0858 7.70708L41.3038 6.4078L48.0544 17.9318L45.8364 19.2311L45.2574 18.2427C45.2548 18.2873 45.2462 18.3464 45.2316 18.4197C45.2116 18.4961 45.1669 18.641 45.0976 18.8544C45.0261 19.0762 44.9344 19.2882 44.8226 19.4904C44.7139 19.698 44.5465 19.922 44.3203 20.1624C44.0973 20.4082 43.8385 20.6174 43.5438 20.79C42.4991 21.402 41.3551 21.5252 40.112 21.1596C38.8666 20.8026 37.9003 20.0374 37.213 18.8641C36.5257 17.6908 36.3292 16.471 36.6237 15.2047C36.9159 13.947 37.5844 13.0121 38.6291 12.4001ZM41.0301 18.7653C41.6553 18.9603 42.2438 18.8962 42.7956 18.573C43.3421 18.2529 43.6858 17.7709 43.8267 17.127C43.9708 16.4885 43.853 15.8452 43.4732 15.1969C43.0935 14.5486 42.5883 14.1285 41.9578 13.9366C41.3273 13.7447 40.7388 13.8088 40.1923 14.1289C39.6405 14.4522 39.2968 14.9341 39.1612 15.5748C39.0202 16.2187 39.1396 16.8648 39.5194 17.513C39.8991 18.1613 40.4027 18.5787 41.0301 18.7653Z" fill="white"/>
<path d="M33.4531 22.9852C33.4787 22.3268 33.2601 21.7339 32.7975 21.2065C32.3389 20.6836 31.7817 20.3919 31.1257 20.3314C30.4737 20.2754 29.9144 20.4522 29.4476 20.8616C28.9808 21.271 28.7325 21.8025 28.7029 22.4562C28.6774 23.1145 28.8939 23.705 29.3524 24.2279C29.8151 24.7554 30.3744 25.0494 31.0304 25.11C31.6864 25.1706 32.2478 24.9961 32.7146 24.5867C33.1814 24.1773 33.4276 23.6435 33.4531 22.9852ZM30.7108 27.5706C29.3299 27.4933 28.2116 26.9669 27.356 25.9912C26.5003 25.0156 26.1222 23.8359 26.2217 22.452C26.3205 21.0769 26.8718 19.9493 27.8754 19.0691C28.8791 18.1888 30.0713 17.7874 31.4522 17.8646C32.8372 17.9466 33.9576 18.4753 34.8132 19.451C35.6689 20.4266 36.0449 21.604 35.9414 22.9832C35.8419 24.367 35.2904 25.4991 34.2867 26.3793C33.2831 27.2595 32.0911 27.6566 30.7108 27.5706Z" fill="white"/>
<path d="M18.0713 34.6125L22.2319 29.2707C21.7692 29.0362 21.2628 28.9841 20.7127 29.1144C20.1675 29.2485 19.6888 29.5801 19.2768 30.1092C18.9792 30.4912 18.7779 30.9012 18.6731 31.3389C18.5693 31.7854 18.5418 32.1339 18.5907 32.3845L18.6525 32.775L16.4821 32.7726L16.4529 32.5374C16.4388 32.4241 16.4365 32.2098 16.446 31.8945C16.4554 31.5792 16.4891 31.2631 16.5471 30.9462C16.6099 30.6331 16.7384 30.261 16.9326 29.8298C17.1229 29.4036 17.3669 28.9994 17.6645 28.6173C18.5077 27.5347 19.6016 26.9032 20.9463 26.7228C22.2959 26.5462 23.4972 26.8681 24.5504 27.6884C25.6036 28.5087 26.2111 29.5879 26.373 30.926C26.5399 32.2679 26.2131 33.4655 25.3928 34.5187C24.5725 35.5719 23.5369 36.174 22.2859 36.3251C21.0398 36.4799 19.8902 36.1472 18.837 35.3269L18.0713 34.6125ZM22.4296 33.9579C22.9133 33.8624 23.323 33.5991 23.6587 33.168C23.9945 32.737 24.1557 32.2723 24.1424 31.774C24.1254 31.2806 23.9637 30.8162 23.6574 30.3809L21.0191 33.7682C21.472 33.9951 21.9422 34.0583 22.4296 33.9579Z" fill="white"/>
<path d="M16.6039 47.1376L14.7014 42.1422L8.24284 42.946L9.58177 40.4091L13.9422 39.9092L13.2991 38.2744L11.2728 37.205L12.4726 34.9316L20.7424 39.2962L19.5426 41.5696L16.1655 39.7872L17.9819 44.5266L16.6039 47.1376Z" fill="white"/>
<path d="M13.3308 46.8593L15.6873 47.6536L12.9741 55.7026L10.6176 54.9083L11.5637 52.1017L5.05916 49.9091L5.88027 47.4733L12.3848 49.6658L13.3308 46.8593Z" fill="white"/>
<path d="M129.376 73.2733C128.323 73.2378 127.257 73.6082 126.432 74.391C125.608 75.1739 125.183 76.2194 125.164 77.2728C126.217 77.3083 127.283 76.9379 128.108 76.155C128.932 75.3722 129.357 74.3267 129.376 73.2733Z" fill="white"/>
<path d="M133.706 79.113C132.697 79.0632 131.731 78.8726 130.902 78.2486C130.187 77.7105 129.733 77.0071 129.615 76.1094C129.554 75.6449 129.692 75.2155 129.889 74.8027C129.986 74.5992 130.093 74.4002 130.2 74.2019C130.423 73.7936 130.43 73.3846 130.232 72.9628C130.088 72.6537 129.937 72.3445 129.83 72.0217C129.562 71.2093 129.801 70.4826 130.277 69.8185C130.885 68.9669 131.752 68.511 132.763 68.3629C134.981 68.038 136.939 68.6644 138.654 70.0761C139.109 70.4505 139.46 70.9136 139.665 71.476C139.864 72.024 139.845 72.5615 139.59 73.0878C139.535 73.2056 139.472 73.3196 139.402 73.4291C139.225 73.6972 139.222 73.9622 139.383 74.2392C140.011 75.3185 139.69 76.3019 138.941 77.1039C138.2 77.8954 137.265 78.3735 136.253 78.714C135.433 78.9904 134.571 79.1253 133.706 79.113Z" fill="white"/>
<path d="M12.0598 72.0142C13.1127 71.9787 14.1788 72.3491 15.0031 73.1319C15.8274 73.9148 16.2523 74.9603 16.2712 76.0137C15.2182 76.0492 14.1522 75.6788 13.3279 74.8959C12.5036 74.1131 12.0787 73.0676 12.0598 72.0142Z" fill="white"/>
<path d="M7.72973 77.8539C8.73839 77.8041 9.70499 77.6135 10.534 76.9895C11.2482 76.4514 11.7028 75.748 11.8205 74.8503C11.8811 74.3858 11.7434 73.9564 11.5466 73.5436C11.4498 73.3401 11.3428 73.1411 11.235 72.9428C11.0129 72.5345 11.0053 72.1255 11.2031 71.7037C11.3479 71.3946 11.499 71.0854 11.6057 70.7626C11.8738 69.9502 11.6341 69.2235 11.1585 68.5594C10.5502 67.7078 9.68373 67.2519 8.67266 67.1038C6.45464 66.7789 4.49655 67.4053 2.7818 68.817C2.32702 69.1915 1.9751 69.6545 1.77076 70.217C1.57144 70.7649 1.59102 71.3024 1.84508 71.8287C1.90052 71.9465 1.96363 72.0605 2.03402 72.17C2.21027 72.4381 2.21321 72.7031 2.05223 72.9801C1.42411 74.0594 1.74521 75.0428 2.49485 75.8448C3.23581 76.6363 4.17043 77.1145 5.18226 77.4549C6.00267 77.7313 6.8641 77.8662 7.72973 77.8539Z" fill="white"/>
</svg>
