<svg width="524" height="129" viewBox="0 0 524 129" fill="none" xmlns="http://www.w3.org/2000/svg">
<path d="M7.0597 65.1252C6.0411 65.1252 5.26017 64.8536 4.71692 64.3103C4.17367 63.7331 3.90204 62.9182 3.90204 61.8657V42.6142C3.90204 41.5616 4.17367 40.7637 4.71692 40.2205C5.26017 39.6772 6.02412 39.4056 7.00877 39.4056C7.99341 39.4056 8.75736 39.6772 9.30062 40.2205C9.84387 40.7637 10.1155 41.5616 10.1155 42.6142V46.3321L9.55526 44.8042C10.2343 43.1065 11.2869 41.7653 12.7129 40.7807C14.139 39.796 15.8366 39.3037 17.8059 39.3037C19.8092 39.3037 21.4559 39.7791 22.7461 40.7298C24.0364 41.6805 24.9361 43.1404 25.4454 45.1097H24.7324C25.4115 43.3102 26.5319 41.9011 28.0938 40.8825C29.6556 39.83 31.4552 39.3037 33.4923 39.3037C35.3937 39.3037 36.9556 39.6772 38.1779 40.4242C39.4342 41.1712 40.3679 42.3086 40.9791 43.8365C41.5902 45.3304 41.8958 47.2318 41.8958 49.5406V61.8657C41.8958 62.9182 41.6072 63.7331 41.03 64.3103C40.4867 64.8536 39.7058 65.1252 38.6872 65.1252C37.6686 65.1252 36.8877 64.8536 36.3444 64.3103C35.8012 63.7331 35.5295 62.9182 35.5295 61.8657V49.7953C35.5295 47.8939 35.207 46.5018 34.5619 45.619C33.9507 44.7362 32.8982 44.2949 31.4042 44.2949C29.7405 44.2949 28.4333 44.889 27.4826 46.0774C26.5319 47.2318 26.0566 48.8446 26.0566 50.9158V61.8657C26.0566 62.9182 25.7849 63.7331 25.2417 64.3103C24.6984 64.8536 23.9175 65.1252 22.8989 65.1252C21.8803 65.1252 21.0824 64.8536 20.5052 64.3103C19.962 63.7331 19.6903 62.9182 19.6903 61.8657V49.7953C19.6903 47.8939 19.3678 46.5018 18.7227 45.619C18.1115 44.7362 17.0759 44.2949 15.6159 44.2949C13.9522 44.2949 12.645 44.889 11.6943 46.0774C10.7436 47.2318 10.2683 48.8446 10.2683 50.9158V61.8657C10.2683 64.0387 9.19876 65.1252 7.0597 65.1252ZM55.1352 65.2271C53.3357 65.2271 51.7229 64.8875 50.2968 64.2085C48.9048 63.4955 47.8013 62.5448 46.9864 61.3564C46.2055 60.168 45.815 58.8269 45.815 57.3329C45.815 55.4994 46.2904 54.0564 47.2411 53.0039C48.1917 51.9174 49.7366 51.1364 51.8757 50.6611C54.0147 50.1858 56.8838 49.9481 60.4828 49.9481H63.0293V53.615H60.5338C58.4287 53.615 56.748 53.7169 55.4917 53.9206C54.2354 54.1243 53.3357 54.4808 52.7924 54.9901C52.2831 55.4655 52.0285 56.1446 52.0285 57.0273C52.0285 58.1478 52.4189 59.0645 53.1999 59.7776C53.9808 60.4906 55.0673 60.8471 56.4594 60.8471C57.5798 60.8471 58.5645 60.5924 59.4133 60.0831C60.2961 59.5399 60.9921 58.8099 61.5014 57.8932C62.0107 56.9764 62.2654 55.9239 62.2654 54.7355V48.8786C62.2654 47.1809 61.8919 45.9586 61.1449 45.2116C60.398 44.4646 59.1417 44.0911 57.3761 44.0911C56.3915 44.0911 55.3219 44.21 54.1675 44.4476C53.0471 44.6853 51.8587 45.0928 50.6024 45.67C49.9573 45.9755 49.3801 46.0604 48.8708 45.9246C48.3955 45.7888 48.022 45.5172 47.7504 45.1097C47.4787 44.6683 47.3429 44.193 47.3429 43.6837C47.3429 43.1744 47.4787 42.6821 47.7504 42.2067C48.022 41.6974 48.4803 41.3239 49.1255 41.0863C50.6873 40.4412 52.1813 39.9828 53.6073 39.7112C55.0673 39.4395 56.3915 39.3037 57.5798 39.3037C60.0245 39.3037 62.0277 39.6772 63.5896 40.4242C65.1854 41.1712 66.3737 42.3086 67.1547 43.8365C67.9356 45.3304 68.3261 47.2658 68.3261 49.6425V61.8657C68.3261 62.9182 68.0714 63.7331 67.5621 64.3103C67.0528 64.8536 66.3228 65.1252 65.3721 65.1252C64.4214 65.1252 63.6745 64.8536 63.1312 64.3103C62.6219 63.7331 62.3673 62.9182 62.3673 61.8657V59.4211H62.7747C62.537 60.6094 62.0617 61.645 61.3487 62.5278C60.6696 63.3766 59.8038 64.0387 58.7512 64.5141C57.6987 64.9894 56.4933 65.2271 55.1352 65.2271ZM76.4176 65.1252C75.399 65.1252 74.618 64.8536 74.0748 64.3103C73.5315 63.7331 73.2599 62.9182 73.2599 61.8657V42.6142C73.2599 41.5616 73.5315 40.7637 74.0748 40.2205C74.618 39.6772 75.382 39.4056 76.3666 39.4056C77.3513 39.4056 78.1152 39.6772 78.6585 40.2205C79.2017 40.7637 79.4734 41.5616 79.4734 42.6142V46.0774L78.9131 44.8042C79.6601 43.0046 80.8145 41.6465 82.3764 40.7298C83.9722 39.7791 85.7717 39.3037 87.7749 39.3037C89.7782 39.3037 91.4249 39.6772 92.7151 40.4242C94.0054 41.1712 94.973 42.3086 95.6182 43.8365C96.2633 45.3304 96.5858 47.2318 96.5858 49.5406V61.8657C96.5858 62.9182 96.3142 63.7331 95.7709 64.3103C95.2277 64.8536 94.4468 65.1252 93.4282 65.1252C92.4096 65.1252 91.6117 64.8536 91.0345 64.3103C90.4912 63.7331 90.2196 62.9182 90.2196 61.8657V49.8462C90.2196 47.9109 89.8461 46.5018 89.0991 45.619C88.3861 44.7362 87.2656 44.2949 85.7377 44.2949C83.8703 44.2949 82.3764 44.889 81.2559 46.0774C80.1694 47.2318 79.6261 48.7767 79.6261 50.712V61.8657C79.6261 64.0387 78.5566 65.1252 76.4176 65.1252ZM103.052 64.7178C102.407 64.7178 101.864 64.565 101.422 64.2594C101.015 63.9199 100.743 63.4955 100.607 62.9862C100.471 62.4769 100.471 61.9336 100.607 61.3564C100.777 60.7452 101.1 60.168 101.575 59.6248L114.766 43.0725V44.6004H102.746C101.965 44.6004 101.354 44.3967 100.913 43.9893C100.505 43.5479 100.302 42.9537 100.302 42.2067C100.302 41.4258 100.505 40.8316 100.913 40.4242C101.354 40.0167 101.965 39.813 102.746 39.813H117.822C118.569 39.813 119.18 39.9828 119.655 40.3223C120.13 40.6279 120.436 41.0353 120.572 41.5446C120.742 42.0539 120.759 42.5972 120.623 43.1744C120.487 43.7516 120.181 44.2949 119.706 44.8042L106.261 61.611V59.9304H118.993C120.623 59.9304 121.438 60.7283 121.438 62.3241C121.438 63.071 121.217 63.6652 120.776 64.1066C120.368 64.5141 119.774 64.7178 118.993 64.7178H103.052ZM132.069 65.2271C130.27 65.2271 128.657 64.8875 127.231 64.2085C125.839 63.4955 124.735 62.5448 123.92 61.3564C123.14 60.168 122.749 58.8269 122.749 57.3329C122.749 55.4994 123.224 54.0564 124.175 53.0039C125.126 51.9174 126.671 51.1364 128.81 50.6611C130.949 50.1858 133.818 49.9481 137.417 49.9481H139.963V53.615H137.468C135.363 53.615 133.682 53.7169 132.426 53.9206C131.17 54.1243 130.27 54.4808 129.727 54.9901C129.217 55.4655 128.963 56.1446 128.963 57.0273C128.963 58.1478 129.353 59.0645 130.134 59.7776C130.915 60.4906 132.001 60.8471 133.393 60.8471C134.514 60.8471 135.499 60.5924 136.347 60.0831C137.23 59.5399 137.926 58.8099 138.436 57.8932C138.945 56.9764 139.199 55.9239 139.199 54.7355V48.8786C139.199 47.1809 138.826 45.9586 138.079 45.2116C137.332 44.4646 136.076 44.0911 134.31 44.0911C133.326 44.0911 132.256 44.21 131.102 44.4476C129.981 44.6853 128.793 45.0928 127.537 45.67C126.891 45.9755 126.314 46.0604 125.805 45.9246C125.33 45.7888 124.956 45.5172 124.684 45.1097C124.413 44.6683 124.277 44.193 124.277 43.6837C124.277 43.1744 124.413 42.6821 124.684 42.2067C124.956 41.6974 125.414 41.3239 126.06 41.0863C127.621 40.4412 129.115 39.9828 130.541 39.7112C132.001 39.4395 133.326 39.3037 134.514 39.3037C136.959 39.3037 138.962 39.6772 140.524 40.4242C142.119 41.1712 143.308 42.3086 144.089 43.8365C144.87 45.3304 145.26 47.2658 145.26 49.6425V61.8657C145.26 62.9182 145.005 63.7331 144.496 64.3103C143.987 64.8536 143.257 65.1252 142.306 65.1252C141.356 65.1252 140.609 64.8536 140.065 64.3103C139.556 63.7331 139.301 62.9182 139.301 61.8657V59.4211H139.709C139.471 60.6094 138.996 61.645 138.283 62.5278C137.604 63.3766 136.738 64.0387 135.685 64.5141C134.633 64.9894 133.427 65.2271 132.069 65.2271ZM153.352 65.1252C152.333 65.1252 151.552 64.8536 151.009 64.3103C150.466 63.7331 150.194 62.9182 150.194 61.8657V42.6142C150.194 41.5616 150.466 40.7637 151.009 40.2205C151.552 39.6772 152.316 39.4056 153.301 39.4056C154.285 39.4056 155.049 39.6772 155.593 40.2205C156.136 40.7637 156.407 41.5616 156.407 42.6142V46.0774L155.847 44.8042C156.594 43.0046 157.749 41.6465 159.31 40.7298C160.906 39.7791 162.706 39.3037 164.709 39.3037C166.712 39.3037 168.359 39.6772 169.649 40.4242C170.939 41.1712 171.907 42.3086 172.552 43.8365C173.197 45.3304 173.52 47.2318 173.52 49.5406V61.8657C173.52 62.9182 173.248 63.7331 172.705 64.3103C172.162 64.8536 171.381 65.1252 170.362 65.1252C169.344 65.1252 168.546 64.8536 167.969 64.3103C167.425 63.7331 167.154 62.9182 167.154 61.8657V49.8462C167.154 47.9109 166.78 46.5018 166.033 45.619C165.32 44.7362 164.2 44.2949 162.672 44.2949C160.804 44.2949 159.31 44.889 158.19 46.0774C157.103 47.2318 156.56 48.7767 156.56 50.712V61.8657C156.56 64.0387 155.491 65.1252 153.352 65.1252ZM186.658 65.2271C184.858 65.2271 183.246 64.8875 181.82 64.2085C180.427 63.4955 179.324 62.5448 178.509 61.3564C177.728 60.168 177.338 58.8269 177.338 57.3329C177.338 55.4994 177.813 54.0564 178.764 53.0039C179.714 51.9174 181.259 51.1364 183.398 50.6611C185.537 50.1858 188.406 49.9481 192.005 49.9481H194.552V53.615H192.056C189.951 53.615 188.271 53.7169 187.014 53.9206C185.758 54.1243 184.858 54.4808 184.315 54.9901C183.806 55.4655 183.551 56.1446 183.551 57.0273C183.551 58.1478 183.942 59.0645 184.723 59.7776C185.503 60.4906 186.59 60.8471 187.982 60.8471C189.102 60.8471 190.087 60.5924 190.936 60.0831C191.819 59.5399 192.515 58.8099 193.024 57.8932C193.533 56.9764 193.788 55.9239 193.788 54.7355V48.8786C193.788 47.1809 193.415 45.9586 192.668 45.2116C191.921 44.4646 190.664 44.0911 188.899 44.0911C187.914 44.0911 186.845 44.21 185.69 44.4476C184.57 44.6853 183.381 45.0928 182.125 45.67C181.48 45.9755 180.903 46.0604 180.393 45.9246C179.918 45.7888 179.545 45.5172 179.273 45.1097C179.001 44.6683 178.866 44.193 178.866 43.6837C178.866 43.1744 179.001 42.6821 179.273 42.2067C179.545 41.6974 180.003 41.3239 180.648 41.0863C182.21 40.4412 183.704 39.9828 185.13 39.7112C186.59 39.4395 187.914 39.3037 189.102 39.3037C191.547 39.3037 193.55 39.6772 195.112 40.4242C196.708 41.1712 197.896 42.3086 198.677 43.8365C199.458 45.3304 199.849 47.2658 199.849 49.6425V61.8657C199.849 62.9182 199.594 63.7331 199.085 64.3103C198.575 64.8536 197.845 65.1252 196.895 65.1252C195.944 65.1252 195.197 64.8536 194.654 64.3103C194.145 63.7331 193.89 62.9182 193.89 61.8657V59.4211H194.297C194.06 60.6094 193.584 61.645 192.871 62.5278C192.192 63.3766 191.326 64.0387 190.274 64.5141C189.221 64.9894 188.016 65.2271 186.658 65.2271Z" fill="#78BE20"/>
<path d="M140.59 97.9585C139.673 97.9585 138.782 97.8736 137.916 97.7038C137.067 97.534 136.295 97.2709 135.599 96.9144C135.276 96.7446 135.056 96.5409 134.937 96.3032C134.835 96.0656 134.801 95.8194 134.835 95.5648C134.886 95.3271 134.988 95.1149 135.141 94.9281C135.31 94.7414 135.514 94.6141 135.752 94.5462C135.989 94.4782 136.236 94.5122 136.49 94.648C137.237 95.0215 137.942 95.2592 138.604 95.361C139.283 95.4799 139.86 95.5393 140.335 95.5393C141.473 95.5393 142.322 95.2592 142.882 94.6989C143.459 94.1557 143.748 93.3408 143.748 92.2543V89.9625H143.977C143.722 90.8283 143.188 91.5243 142.373 92.0506C141.575 92.5599 140.667 92.8145 139.648 92.8145C138.527 92.8145 137.551 92.5599 136.719 92.0506C135.888 91.5243 135.243 90.7943 134.784 89.8606C134.326 88.9269 134.097 87.8404 134.097 86.6011C134.097 85.6674 134.224 84.827 134.479 84.08C134.75 83.3161 135.124 82.6625 135.599 82.1192C136.091 81.576 136.677 81.1601 137.356 80.8715C138.052 80.5659 138.816 80.4131 139.648 80.4131C140.7 80.4131 141.617 80.6762 142.398 81.2025C143.196 81.7118 143.714 82.3909 143.952 83.2397L143.697 83.8763V82.0683C143.697 81.542 143.833 81.1431 144.104 80.8715C144.393 80.5998 144.783 80.464 145.276 80.464C145.785 80.464 146.175 80.5998 146.447 80.8715C146.719 81.1431 146.855 81.542 146.855 82.0683V91.8723C146.855 93.8926 146.32 95.412 145.25 96.4306C144.181 97.4492 142.627 97.9585 140.59 97.9585ZM140.514 90.3954C141.176 90.3954 141.745 90.2426 142.22 89.937C142.695 89.6314 143.06 89.1985 143.315 88.6383C143.587 88.0611 143.722 87.382 143.722 86.6011C143.722 85.4297 143.434 84.513 142.857 83.8509C142.279 83.1718 141.498 82.8323 140.514 82.8323C139.852 82.8323 139.283 82.9851 138.808 83.2906C138.332 83.5962 137.959 84.0291 137.687 84.5893C137.432 85.1496 137.305 85.8202 137.305 86.6011C137.305 87.7725 137.594 88.6977 138.171 89.3768C138.748 90.0558 139.529 90.3954 140.514 90.3954ZM151.043 93.3238C150.517 93.3238 150.11 93.188 149.821 92.9164C149.549 92.6278 149.414 92.2204 149.414 91.6941V82.0683C149.414 81.542 149.549 81.1431 149.821 80.8715C150.093 80.5998 150.475 80.464 150.967 80.464C151.459 80.464 151.841 80.5998 152.113 80.8715C152.384 81.1431 152.52 81.542 152.52 82.0683V83.6726H152.266C152.503 82.654 152.97 81.8816 153.666 81.3553C154.362 80.829 155.287 80.5149 156.442 80.4131C156.798 80.3791 157.079 80.4725 157.282 80.6932C157.503 80.8969 157.63 81.2195 157.664 81.6609C157.698 82.0853 157.596 82.4333 157.359 82.7049C157.138 82.9596 156.798 83.1124 156.34 83.1633L155.78 83.2142C154.744 83.3161 153.963 83.6387 153.437 84.1819C152.911 84.7082 152.648 85.4552 152.648 86.4228V91.6941C152.648 92.2204 152.512 92.6278 152.24 92.9164C151.969 93.188 151.57 93.3238 151.043 93.3238ZM164.101 93.3748C162.811 93.3748 161.691 93.1116 160.74 92.5854C159.789 92.0591 159.051 91.3121 158.525 90.3444C157.998 89.3598 157.735 88.2054 157.735 86.8812C157.735 85.8796 157.88 84.9883 158.168 84.2074C158.474 83.4095 158.907 82.7304 159.467 82.1702C160.027 81.593 160.698 81.1601 161.479 80.8715C162.26 80.5659 163.134 80.4131 164.101 80.4131C165.392 80.4131 166.512 80.6762 167.463 81.2025C168.414 81.7288 169.152 82.4758 169.678 83.4434C170.205 84.4111 170.468 85.557 170.468 86.8812C170.468 87.8828 170.315 88.7826 170.009 89.5805C169.721 90.3784 169.296 91.0659 168.736 91.6431C168.176 92.2034 167.505 92.6363 166.724 92.9419C165.943 93.2305 165.069 93.3748 164.101 93.3748ZM164.101 90.9556C164.73 90.9556 165.281 90.8028 165.757 90.4972C166.232 90.1916 166.597 89.7418 166.852 89.1476C167.123 88.5364 167.259 87.781 167.259 86.8812C167.259 85.5231 166.971 84.513 166.393 83.8509C165.816 83.1718 165.052 82.8323 164.101 82.8323C163.473 82.8323 162.922 82.9851 162.446 83.2906C161.971 83.5792 161.597 84.0291 161.326 84.6403C161.071 85.2345 160.944 85.9814 160.944 86.8812C160.944 88.2224 161.232 89.241 161.81 89.937C162.387 90.6161 163.151 90.9556 164.101 90.9556ZM176.838 93.3748C175.803 93.3748 174.945 93.188 174.266 92.8145C173.587 92.4241 173.078 91.8469 172.738 91.0829C172.416 90.319 172.255 89.3683 172.255 88.2308V82.0683C172.255 81.5251 172.39 81.1261 172.662 80.8715C172.934 80.5998 173.324 80.464 173.833 80.464C174.343 80.464 174.733 80.5998 175.005 80.8715C175.293 81.1261 175.438 81.5251 175.438 82.0683V88.2818C175.438 89.1646 175.616 89.8182 175.973 90.2426C176.329 90.667 176.898 90.8792 177.679 90.8792C178.528 90.8792 179.224 90.5906 179.767 90.0134C180.31 89.4192 180.582 88.6383 180.582 87.6706V82.0683C180.582 81.5251 180.718 81.1261 180.989 80.8715C181.261 80.5998 181.651 80.464 182.161 80.464C182.67 80.464 183.06 80.5998 183.332 80.8715C183.621 81.1261 183.765 81.5251 183.765 82.0683V91.6941C183.765 92.7806 183.247 93.3238 182.211 93.3238C181.719 93.3238 181.337 93.188 181.066 92.9164C180.794 92.6278 180.658 92.2204 180.658 91.6941V89.7587L181.015 90.5227C180.658 91.4394 180.115 92.144 179.385 92.6363C178.672 93.1286 177.823 93.3748 176.838 93.3748ZM187.893 97.9075C187.383 97.9075 186.993 97.7717 186.721 97.5001C186.45 97.2285 186.314 96.8295 186.314 96.3032V82.0683C186.314 81.542 186.45 81.1431 186.721 80.8715C186.993 80.5998 187.375 80.464 187.867 80.464C188.377 80.464 188.767 80.5998 189.039 80.8715C189.31 81.1431 189.446 81.542 189.446 82.0683V84.0546L189.166 83.2906C189.421 82.4248 189.938 81.7288 190.719 81.2025C191.517 80.6762 192.442 80.4131 193.495 80.4131C194.582 80.4131 195.532 80.6762 196.347 81.2025C197.179 81.7288 197.824 82.4758 198.282 83.4434C198.741 84.3941 198.97 85.54 198.97 86.8812C198.97 88.2054 198.741 89.3598 198.282 90.3444C197.824 91.3121 197.187 92.0591 196.373 92.5854C195.558 93.1116 194.599 93.3748 193.495 93.3748C192.459 93.3748 191.551 93.1201 190.77 92.6108C189.989 92.0845 189.463 91.4055 189.191 90.5736H189.497V96.3032C189.497 96.8295 189.353 97.2285 189.064 97.5001C188.793 97.7717 188.402 97.9075 187.893 97.9075ZM192.604 90.9556C193.232 90.9556 193.784 90.8028 194.259 90.4972C194.734 90.1916 195.099 89.7418 195.354 89.1476C195.626 88.5364 195.761 87.781 195.761 86.8812C195.761 85.5231 195.473 84.513 194.896 83.8509C194.318 83.1718 193.554 82.8323 192.604 82.8323C191.976 82.8323 191.424 82.9851 190.949 83.2906C190.473 83.5792 190.1 84.0291 189.828 84.6403C189.573 85.2345 189.446 85.9814 189.446 86.8812C189.446 88.2224 189.735 89.241 190.312 89.937C190.889 90.6161 191.653 90.9556 192.604 90.9556Z" fill="white"/>
<path d="M137.891 36.0754C138.169 36.0888 138.396 35.8621 138.383 35.5843C138.28 33.4437 137.411 31.3331 135.777 29.6984C134.142 28.0636 132.031 27.1949 129.891 27.0923C129.613 27.079 129.386 27.3056 129.399 27.5835C129.502 29.724 130.371 31.8347 132.006 33.4694C133.64 35.1041 135.751 35.9728 137.891 36.0754Z" fill="#78BE20"/>
<path d="M254.54 108.031C248.868 108.031 244.012 107.129 239.973 105.324C235.934 103.519 232.84 101.027 230.692 97.8475C228.629 94.5818 227.598 90.7575 227.598 86.3746C227.598 83.5386 227.984 80.9174 228.758 78.5111C229.531 76.1048 230.692 73.8274 232.238 71.6789C233.871 69.4445 235.934 67.2531 238.426 65.1046C240.918 62.8702 243.84 60.5498 247.192 58.1435L251.188 55.3075L250.544 56.3388C246.075 51.2684 242.981 47.1003 241.262 43.8346C239.629 40.5689 238.813 37.2173 238.813 33.7797C238.813 30.0843 239.629 26.8616 241.262 24.1116C242.895 21.2756 245.215 19.0841 248.223 17.5372C251.231 15.9043 254.755 15.0879 258.794 15.0879C263.778 15.0879 267.989 16.6348 271.427 19.7286C274.95 22.7365 276.712 26.9046 276.712 32.2328C276.712 35.1548 276.153 37.9048 275.036 40.483C273.919 42.9752 271.942 45.5964 269.106 48.3464C266.27 51.0105 262.188 54.1044 256.86 57.6279L257.118 55.9521L283.158 86.2457H281.868C283.158 84.0112 284.275 81.3901 285.22 78.3822C286.251 75.3743 287.068 72.0657 287.669 68.4562C288.271 64.8468 288.658 61.0225 288.83 56.9833C288.915 56.038 289.173 55.3505 289.603 54.9208C290.119 54.4052 290.806 54.1473 291.666 54.1473C292.525 54.1473 293.169 54.4052 293.599 54.9208C294.029 55.4364 294.201 56.1669 294.115 57.1122C293.943 61.753 293.427 66.0929 292.568 70.132C291.794 74.1712 290.763 77.9095 289.474 81.3471C288.271 84.7847 286.853 87.9215 285.22 90.7575L284.962 88.4371L298.369 104.035C298.97 104.637 299.228 105.238 299.142 105.84C299.056 106.441 298.755 106.914 298.24 107.258C297.81 107.602 297.252 107.773 296.564 107.773C295.962 107.773 295.447 107.645 295.017 107.387C294.673 107.215 294.244 106.828 293.728 106.227L282.126 92.82H283.931C280.579 97.6326 276.368 101.371 271.298 104.035C266.227 106.699 260.641 108.031 254.54 108.031ZM254.54 103.004C260.212 103.004 265.239 101.801 269.622 99.3944C274.005 96.9021 277.7 93.2927 280.708 88.566V91.1442L252.735 59.0459H254.411L250.286 62.0108C245.989 65.0187 242.551 67.7687 239.973 70.2609C237.481 72.7532 235.676 75.2454 234.559 77.7377C233.528 80.2299 233.012 83.0659 233.012 86.2457C233.012 91.488 234.817 95.613 238.426 98.6209C242.121 101.543 247.493 103.004 254.54 103.004ZM258.794 20.1154C254.497 20.1154 250.973 21.4045 248.223 23.9826C245.559 26.4749 244.227 29.7406 244.227 33.7797C244.227 35.7563 244.528 37.647 245.129 39.4517C245.731 41.1705 246.848 43.1471 248.481 45.3815C250.114 47.53 252.391 50.323 255.313 53.7606L253.251 54.2762C257.805 51.1824 261.415 48.4753 264.079 46.155C266.743 43.7487 268.634 41.4713 269.751 39.3228C270.954 37.1743 271.556 34.9829 271.556 32.7484C271.556 28.9671 270.353 25.9163 267.946 23.5959C265.626 21.2756 262.575 20.1154 258.794 20.1154Z" fill="white" fill-opacity="0.17"/>
<path d="M327.187 65.1252C326.168 65.1252 325.387 64.8536 324.844 64.3103C324.301 63.7331 324.029 62.9182 324.029 61.8657V42.6142C324.029 41.5616 324.301 40.7637 324.844 40.2205C325.387 39.6772 326.151 39.4056 327.136 39.4056C328.12 39.4056 328.884 39.6772 329.428 40.2205C329.971 40.7637 330.242 41.5616 330.242 42.6142V46.3321L329.682 44.8042C330.361 43.1065 331.414 41.7653 332.84 40.7807C334.266 39.796 335.964 39.3037 337.933 39.3037C339.936 39.3037 341.583 39.7791 342.873 40.7298C344.163 41.6805 345.063 43.1404 345.572 45.1097H344.859C345.538 43.3102 346.659 41.9011 348.221 40.8825C349.783 39.83 351.582 39.3037 353.619 39.3037C355.521 39.3037 357.083 39.6772 358.305 40.4242C359.561 41.1712 360.495 42.3086 361.106 43.8365C361.717 45.3304 362.023 47.2318 362.023 49.5406V61.8657C362.023 62.9182 361.734 63.7331 361.157 64.3103C360.614 64.8536 359.833 65.1252 358.814 65.1252C357.796 65.1252 357.015 64.8536 356.471 64.3103C355.928 63.7331 355.657 62.9182 355.657 61.8657V49.7953C355.657 47.8939 355.334 46.5018 354.689 45.619C354.078 44.7362 353.025 44.2949 351.531 44.2949C349.867 44.2949 348.56 44.889 347.61 46.0774C346.659 47.2318 346.184 48.8446 346.184 50.9158V61.8657C346.184 62.9182 345.912 63.7331 345.369 64.3103C344.825 64.8536 344.044 65.1252 343.026 65.1252C342.007 65.1252 341.209 64.8536 340.632 64.3103C340.089 63.7331 339.817 62.9182 339.817 61.8657V49.7953C339.817 47.8939 339.495 46.5018 338.85 45.619C338.238 44.7362 337.203 44.2949 335.743 44.2949C334.079 44.2949 332.772 44.889 331.821 46.0774C330.871 47.2318 330.395 48.8446 330.395 50.9158V61.8657C330.395 64.0387 329.326 65.1252 327.187 65.1252ZM375.262 65.2271C373.463 65.2271 371.85 64.8875 370.424 64.2085C369.032 63.4955 367.928 62.5448 367.113 61.3564C366.332 60.168 365.942 58.8269 365.942 57.3329C365.942 55.4994 366.417 54.0564 367.368 53.0039C368.319 51.9174 369.864 51.1364 372.003 50.6611C374.142 50.1858 377.011 49.9481 380.61 49.9481H383.156V53.615H380.661C378.556 53.615 376.875 53.7169 375.619 53.9206C374.362 54.1243 373.463 54.4808 372.919 54.9901C372.41 55.4655 372.155 56.1446 372.155 57.0273C372.155 58.1478 372.546 59.0645 373.327 59.7776C374.108 60.4906 375.194 60.8471 376.586 60.8471C377.707 60.8471 378.691 60.5924 379.54 60.0831C380.423 59.5399 381.119 58.8099 381.628 57.8932C382.138 56.9764 382.392 55.9239 382.392 54.7355V48.8786C382.392 47.1809 382.019 45.9586 381.272 45.2116C380.525 44.4646 379.269 44.0911 377.503 44.0911C376.518 44.0911 375.449 44.21 374.294 44.4476C373.174 44.6853 371.986 45.0928 370.729 45.67C370.084 45.9755 369.507 46.0604 368.998 45.9246C368.522 45.7888 368.149 45.5172 367.877 45.1097C367.606 44.6683 367.47 44.193 367.47 43.6837C367.47 43.1744 367.606 42.6821 367.877 42.2067C368.149 41.6974 368.607 41.3239 369.252 41.0863C370.814 40.4412 372.308 39.9828 373.734 39.7112C375.194 39.4395 376.518 39.3037 377.707 39.3037C380.151 39.3037 382.155 39.6772 383.717 40.4242C385.312 41.1712 386.501 42.3086 387.282 43.8365C388.063 45.3304 388.453 47.2658 388.453 49.6425V61.8657C388.453 62.9182 388.198 63.7331 387.689 64.3103C387.18 64.8536 386.45 65.1252 385.499 65.1252C384.548 65.1252 383.801 64.8536 383.258 64.3103C382.749 63.7331 382.494 62.9182 382.494 61.8657V59.4211H382.902C382.664 60.6094 382.189 61.645 381.476 62.5278C380.797 63.3766 379.931 64.0387 378.878 64.5141C377.826 64.9894 376.62 65.2271 375.262 65.2271ZM396.545 65.1252C395.526 65.1252 394.745 64.8536 394.202 64.3103C393.658 63.7331 393.387 62.9182 393.387 61.8657V42.6142C393.387 41.5616 393.658 40.7637 394.202 40.2205C394.745 39.6772 395.509 39.4056 396.494 39.4056C397.478 39.4056 398.242 39.6772 398.785 40.2205C399.329 40.7637 399.6 41.5616 399.6 42.6142V46.0774L399.04 44.8042C399.787 43.0046 400.941 41.6465 402.503 40.7298C404.099 39.7791 405.899 39.3037 407.902 39.3037C409.905 39.3037 411.552 39.6772 412.842 40.4242C414.132 41.1712 415.1 42.3086 415.745 43.8365C416.39 45.3304 416.713 47.2318 416.713 49.5406V61.8657C416.713 62.9182 416.441 63.7331 415.898 64.3103C415.355 64.8536 414.574 65.1252 413.555 65.1252C412.537 65.1252 411.739 64.8536 411.161 64.3103C410.618 63.7331 410.347 62.9182 410.347 61.8657V49.8462C410.347 47.9109 409.973 46.5018 409.226 45.619C408.513 44.7362 407.393 44.2949 405.865 44.2949C403.997 44.2949 402.503 44.889 401.383 46.0774C400.296 47.2318 399.753 48.7767 399.753 50.712V61.8657C399.753 64.0387 398.684 65.1252 396.545 65.1252ZM423.179 64.7178C422.534 64.7178 421.991 64.565 421.549 64.2594C421.142 63.9199 420.87 63.4955 420.734 62.9862C420.598 62.4769 420.598 61.9336 420.734 61.3564C420.904 60.7452 421.227 60.168 421.702 59.6248L434.893 43.0725V44.6004H422.873C422.092 44.6004 421.481 44.3967 421.04 43.9893C420.632 43.5479 420.429 42.9537 420.429 42.2067C420.429 41.4258 420.632 40.8316 421.04 40.4242C421.481 40.0167 422.092 39.813 422.873 39.813H437.949C438.696 39.813 439.307 39.9828 439.782 40.3223C440.257 40.6279 440.563 41.0353 440.699 41.5446C440.869 42.0539 440.886 42.5972 440.75 43.1744C440.614 43.7516 440.308 44.2949 439.833 44.8042L426.387 61.611V59.9304H439.12C440.75 59.9304 441.565 60.7283 441.565 62.3241C441.565 63.071 441.344 63.6652 440.903 64.1066C440.495 64.5141 439.901 64.7178 439.12 64.7178H423.179ZM452.196 65.2271C450.397 65.2271 448.784 64.8875 447.358 64.2085C445.966 63.4955 444.862 62.5448 444.047 61.3564C443.267 60.168 442.876 58.8269 442.876 57.3329C442.876 55.4994 443.351 54.0564 444.302 53.0039C445.253 51.9174 446.798 51.1364 448.937 50.6611C451.076 50.1858 453.945 49.9481 457.544 49.9481H460.09V53.615H457.595C455.49 53.615 453.809 53.7169 452.553 53.9206C451.296 54.1243 450.397 54.4808 449.853 54.9901C449.344 55.4655 449.09 56.1446 449.09 57.0273C449.09 58.1478 449.48 59.0645 450.261 59.7776C451.042 60.4906 452.128 60.8471 453.52 60.8471C454.641 60.8471 455.626 60.5924 456.474 60.0831C457.357 59.5399 458.053 58.8099 458.562 57.8932C459.072 56.9764 459.326 55.9239 459.326 54.7355V48.8786C459.326 47.1809 458.953 45.9586 458.206 45.2116C457.459 44.4646 456.203 44.0911 454.437 44.0911C453.453 44.0911 452.383 44.21 451.229 44.4476C450.108 44.6853 448.92 45.0928 447.663 45.67C447.018 45.9755 446.441 46.0604 445.932 45.9246C445.457 45.7888 445.083 45.5172 444.811 45.1097C444.54 44.6683 444.404 44.193 444.404 43.6837C444.404 43.1744 444.54 42.6821 444.811 42.2067C445.083 41.6974 445.541 41.3239 446.187 41.0863C447.748 40.4412 449.242 39.9828 450.668 39.7112C452.128 39.4395 453.453 39.3037 454.641 39.3037C457.086 39.3037 459.089 39.6772 460.651 40.4242C462.246 41.1712 463.435 42.3086 464.216 43.8365C464.997 45.3304 465.387 47.2658 465.387 49.6425V61.8657C465.387 62.9182 465.132 63.7331 464.623 64.3103C464.114 64.8536 463.384 65.1252 462.433 65.1252C461.482 65.1252 460.735 64.8536 460.192 64.3103C459.683 63.7331 459.428 62.9182 459.428 61.8657V59.4211H459.836C459.598 60.6094 459.123 61.645 458.41 62.5278C457.731 63.3766 456.865 64.0387 455.812 64.5141C454.76 64.9894 453.554 65.2271 452.196 65.2271ZM473.479 65.1252C472.46 65.1252 471.679 64.8536 471.136 64.3103C470.593 63.7331 470.321 62.9182 470.321 61.8657V42.6142C470.321 41.5616 470.593 40.7637 471.136 40.2205C471.679 39.6772 472.443 39.4056 473.428 39.4056C474.412 39.4056 475.176 39.6772 475.72 40.2205C476.263 40.7637 476.534 41.5616 476.534 42.6142V46.0774L475.974 44.8042C476.721 43.0046 477.876 41.6465 479.437 40.7298C481.033 39.7791 482.833 39.3037 484.836 39.3037C486.839 39.3037 488.486 39.6772 489.776 40.4242C491.066 41.1712 492.034 42.3086 492.679 43.8365C493.324 45.3304 493.647 47.2318 493.647 49.5406V61.8657C493.647 62.9182 493.375 63.7331 492.832 64.3103C492.289 64.8536 491.508 65.1252 490.489 65.1252C489.471 65.1252 488.673 64.8536 488.096 64.3103C487.552 63.7331 487.281 62.9182 487.281 61.8657V49.8462C487.281 47.9109 486.907 46.5018 486.16 45.619C485.447 44.7362 484.327 44.2949 482.799 44.2949C480.931 44.2949 479.437 44.889 478.317 46.0774C477.23 47.2318 476.687 48.7767 476.687 50.712V61.8657C476.687 64.0387 475.618 65.1252 473.479 65.1252ZM506.785 65.2271C504.985 65.2271 503.372 64.8875 501.946 64.2085C500.554 63.4955 499.451 62.5448 498.636 61.3564C497.855 60.168 497.465 58.8269 497.465 57.3329C497.465 55.4994 497.94 54.0564 498.891 53.0039C499.841 51.9174 501.386 51.1364 503.525 50.6611C505.664 50.1858 508.533 49.9481 512.132 49.9481H514.679V53.615H512.183C510.078 53.615 508.398 53.7169 507.141 53.9206C505.885 54.1243 504.985 54.4808 504.442 54.9901C503.933 55.4655 503.678 56.1446 503.678 57.0273C503.678 58.1478 504.069 59.0645 504.849 59.7776C505.63 60.4906 506.717 60.8471 508.109 60.8471C509.229 60.8471 510.214 60.5924 511.063 60.0831C511.946 59.5399 512.642 58.8099 513.151 57.8932C513.66 56.9764 513.915 55.9239 513.915 54.7355V48.8786C513.915 47.1809 513.542 45.9586 512.795 45.2116C512.048 44.4646 510.791 44.0911 509.026 44.0911C508.041 44.0911 506.972 44.21 505.817 44.4476C504.697 44.6853 503.508 45.0928 502.252 45.67C501.607 45.9755 501.03 46.0604 500.52 45.9246C500.045 45.7888 499.672 45.5172 499.4 45.1097C499.128 44.6683 498.993 44.193 498.993 43.6837C498.993 43.1744 499.128 42.6821 499.4 42.2067C499.672 41.6974 500.13 41.3239 500.775 41.0863C502.337 40.4412 503.831 39.9828 505.257 39.7112C506.717 39.4395 508.041 39.3037 509.229 39.3037C511.674 39.3037 513.677 39.6772 515.239 40.4242C516.835 41.1712 518.023 42.3086 518.804 43.8365C519.585 45.3304 519.976 47.2658 519.976 49.6425V61.8657C519.976 62.9182 519.721 63.7331 519.212 64.3103C518.702 64.8536 517.972 65.1252 517.022 65.1252C516.071 65.1252 515.324 64.8536 514.781 64.3103C514.272 63.7331 514.017 62.9182 514.017 61.8657V59.4211H514.424C514.187 60.6094 513.711 61.645 512.998 62.5278C512.319 63.3766 511.453 64.0387 510.401 64.5141C509.348 64.9894 508.143 65.2271 506.785 65.2271Z" fill="#78BE20"/>
<path d="M466.615 93.3748C465.885 93.3748 465.113 93.2984 464.298 93.1456C463.483 92.9928 462.753 92.7297 462.108 92.3562C461.836 92.1864 461.641 91.9912 461.522 91.7705C461.42 91.5328 461.378 91.3036 461.395 91.0829C461.429 90.8452 461.513 90.6415 461.649 90.4718C461.802 90.302 461.989 90.1916 462.21 90.1407C462.447 90.0898 462.702 90.1322 462.973 90.268C463.653 90.5906 464.289 90.8198 464.883 90.9556C465.478 91.0744 466.063 91.1338 466.64 91.1338C467.455 91.1338 468.058 90.998 468.448 90.7264C468.856 90.4378 469.06 90.0643 469.06 89.6059C469.06 89.2155 468.924 88.9184 468.652 88.7147C468.397 88.494 468.007 88.3327 467.481 88.2308L464.934 87.747C463.882 87.5433 463.075 87.1613 462.515 86.6011C461.972 86.0239 461.7 85.2854 461.7 84.3856C461.7 83.5707 461.921 82.8662 462.362 82.272C462.821 81.6779 463.449 81.2195 464.247 80.8969C465.045 80.5744 465.961 80.4131 466.997 80.4131C467.744 80.4131 468.44 80.498 469.085 80.6677C469.747 80.8205 470.384 81.0667 470.995 81.4062C471.25 81.542 471.419 81.7203 471.504 81.941C471.606 82.1617 471.632 82.3909 471.581 82.6285C471.53 82.8492 471.428 83.053 471.275 83.2397C471.122 83.4095 470.927 83.5198 470.689 83.5707C470.469 83.6047 470.214 83.5538 469.925 83.418C469.399 83.1463 468.89 82.9511 468.397 82.8323C467.922 82.7134 467.464 82.654 467.022 82.654C466.191 82.654 465.571 82.7983 465.163 83.0869C464.773 83.3755 464.578 83.7575 464.578 84.2328C464.578 84.5893 464.697 84.8864 464.934 85.1241C465.172 85.3618 465.537 85.5231 466.029 85.6079L468.576 86.0918C469.679 86.2955 470.511 86.669 471.071 87.2122C471.649 87.7555 471.937 88.4855 471.937 89.4022C471.937 90.6415 471.453 91.6177 470.486 92.3307C469.518 93.0267 468.228 93.3748 466.615 93.3748ZM475.306 97.9075C474.796 97.9075 474.406 97.7717 474.134 97.5001C473.863 97.2285 473.727 96.8295 473.727 96.3032V82.0683C473.727 81.542 473.863 81.1431 474.134 80.8715C474.406 80.5998 474.788 80.464 475.28 80.464C475.79 80.464 476.18 80.5998 476.452 80.8715C476.723 81.1431 476.859 81.542 476.859 82.0683V84.0546L476.579 83.2906C476.834 82.4248 477.351 81.7288 478.132 81.2025C478.93 80.6762 479.855 80.4131 480.908 80.4131C481.994 80.4131 482.945 80.6762 483.76 81.2025C484.592 81.7288 485.237 82.4758 485.695 83.4434C486.154 84.3941 486.383 85.54 486.383 86.8812C486.383 88.2054 486.154 89.3598 485.695 90.3444C485.237 91.3121 484.6 92.0591 483.786 92.5854C482.971 93.1116 482.011 93.3748 480.908 93.3748C479.872 93.3748 478.964 93.1201 478.183 92.6108C477.402 92.0845 476.876 91.4055 476.604 90.5736H476.91V96.3032C476.91 96.8295 476.766 97.2285 476.477 97.5001C476.205 97.7717 475.815 97.9075 475.306 97.9075ZM480.017 90.9556C480.645 90.9556 481.197 90.8028 481.672 90.4972C482.147 90.1916 482.512 89.7418 482.767 89.1476C483.039 88.5364 483.174 87.781 483.174 86.8812C483.174 85.5231 482.886 84.513 482.309 83.8509C481.731 83.1718 480.967 82.8323 480.017 82.8323C479.389 82.8323 478.837 82.9851 478.361 83.2906C477.886 83.5792 477.513 84.0291 477.241 84.6403C476.986 85.2345 476.859 85.9814 476.859 86.8812C476.859 88.2224 477.148 89.241 477.725 89.937C478.302 90.6161 479.066 90.9556 480.017 90.9556ZM493.911 93.3748C492.62 93.3748 491.5 93.1116 490.549 92.5854C489.599 92.0591 488.86 91.3121 488.334 90.3444C487.808 89.3598 487.544 88.2054 487.544 86.8812C487.544 85.8796 487.689 84.9883 487.977 84.2074C488.283 83.4095 488.716 82.7304 489.276 82.1702C489.836 81.593 490.507 81.1601 491.288 80.8715C492.069 80.5659 492.943 80.4131 493.911 80.4131C495.201 80.4131 496.321 80.6762 497.272 81.2025C498.223 81.7288 498.961 82.4758 499.487 83.4434C500.014 84.4111 500.277 85.557 500.277 86.8812C500.277 87.8828 500.124 88.7826 499.818 89.5805C499.53 90.3784 499.105 91.0659 498.545 91.6431C497.985 92.2034 497.314 92.6363 496.534 92.9419C495.753 93.2305 494.878 93.3748 493.911 93.3748ZM493.911 90.9556C494.539 90.9556 495.09 90.8028 495.566 90.4972C496.041 90.1916 496.406 89.7418 496.661 89.1476C496.932 88.5364 497.068 87.781 497.068 86.8812C497.068 85.5231 496.78 84.513 496.202 83.8509C495.625 83.1718 494.861 82.8323 493.911 82.8323C493.282 82.8323 492.731 82.9851 492.255 83.2906C491.78 83.5792 491.407 84.0291 491.135 84.6403C490.88 85.2345 490.753 85.9814 490.753 86.8812C490.753 88.2224 491.042 89.241 491.619 89.937C492.196 90.6161 492.96 90.9556 493.911 90.9556ZM503.77 93.3238C503.244 93.3238 502.836 93.188 502.548 92.9164C502.276 92.6278 502.14 92.2204 502.14 91.6941V82.0683C502.14 81.542 502.276 81.1431 502.548 80.8715C502.819 80.5998 503.201 80.464 503.694 80.464C504.186 80.464 504.568 80.5998 504.839 80.8715C505.111 81.1431 505.247 81.542 505.247 82.0683V83.6726H504.992C505.23 82.654 505.697 81.8816 506.393 81.3553C507.089 80.829 508.014 80.5149 509.169 80.4131C509.525 80.3791 509.805 80.4725 510.009 80.6932C510.23 80.8969 510.357 81.2195 510.391 81.6609C510.425 82.0853 510.323 82.4333 510.085 82.7049C509.865 82.9596 509.525 83.1124 509.067 83.1633L508.506 83.2142C507.471 83.3161 506.69 83.6387 506.164 84.1819C505.637 84.7082 505.374 85.4552 505.374 86.4228V91.6941C505.374 92.2204 505.238 92.6278 504.967 92.9164C504.695 93.188 504.296 93.3238 503.77 93.3238ZM517.774 93.3748C516.67 93.3748 515.745 93.188 514.998 92.8145C514.268 92.4411 513.725 91.8978 513.368 91.1848C513.012 90.4548 512.833 89.555 512.833 88.4855V83.0614H511.509C511.102 83.0614 510.788 82.9596 510.567 82.7559C510.346 82.5352 510.236 82.2381 510.236 81.8646C510.236 81.4741 510.346 81.177 510.567 80.9733C510.788 80.7696 511.102 80.6677 511.509 80.6677H512.833V78.3504C512.833 77.8242 512.969 77.4252 513.241 77.1536C513.53 76.8819 513.928 76.7461 514.438 76.7461C514.947 76.7461 515.338 76.8819 515.609 77.1536C515.881 77.4252 516.017 77.8242 516.017 78.3504V80.6677H518.716C519.123 80.6677 519.437 80.7696 519.658 80.9733C519.879 81.177 519.989 81.4741 519.989 81.8646C519.989 82.2381 519.879 82.5352 519.658 82.7559C519.437 82.9596 519.123 83.0614 518.716 83.0614H516.017V88.3072C516.017 89.1221 516.195 89.7333 516.551 90.1407C516.908 90.5482 517.485 90.7519 518.283 90.7519C518.572 90.7519 518.826 90.7264 519.047 90.6755C519.268 90.6245 519.463 90.5906 519.633 90.5736C519.836 90.5566 520.006 90.6245 520.142 90.7773C520.278 90.9132 520.346 91.2018 520.346 91.6431C520.346 91.9827 520.286 92.2883 520.167 92.5599C520.066 92.8145 519.87 92.9928 519.582 93.0947C519.361 93.1626 519.072 93.222 518.716 93.2729C518.359 93.3408 518.045 93.3748 517.774 93.3748Z" fill="white"/>
<path d="M458.018 36.0754C458.296 36.0888 458.523 35.8621 458.51 35.5843C458.407 33.4437 457.538 31.3331 455.904 29.6984C454.269 28.0636 452.158 27.1949 450.018 27.0923C449.74 27.079 449.513 27.3056 449.526 27.5835C449.629 29.724 450.498 31.8347 452.132 33.4694C453.767 35.1041 455.878 35.9728 458.018 36.0754Z" fill="#78BE20"/>
</svg>
