<svg width="67" height="46" viewBox="0 0 67 46" fill="none" xmlns="http://www.w3.org/2000/svg">
<path fill-rule="evenodd" clip-rule="evenodd" d="M34.9636 8.41296H42.6424L33.9502 18.0077L42.6294 32.4846H35.7302L29.7405 22.6027L27.6356 24.9002V32.4063H21.7108V29.7955C19.3274 31.8053 16.2984 32.8769 13.1875 32.8109C8.86082 32.8109 5.54762 31.5578 3.33882 29.0644C1.76422 27.2458 0.848365 24.9454 0.740234 22.5374H7.0548C7.0548 22.5374 7.24969 26.9236 13.1615 26.9236C15.4742 26.9236 18.9303 26.0751 19.0213 23.1118C19.1122 20.1485 15.929 19.535 12.6158 19.1042C8.41906 18.5559 2.70217 17.5638 1.32492 11.3762C1.09466 10.062 1.14959 8.71326 1.48596 7.4223C1.82232 6.13134 2.43219 4.92859 3.27386 3.89626C4.31207 2.63318 5.6285 1.63008 7.11906 0.966249C8.60963 0.302422 10.2335 -0.00392572 11.8622 0.0714288C13.5586 -0.0251935 15.2564 0.234888 16.8471 0.835044C18.4378 1.4352 19.8864 2.36223 21.1002 3.55686C21.3254 3.80053 21.5333 4.04856 21.7238 4.30094V0.384727H27.6486V16.4542L34.9636 8.41296ZM11.9791 5.6455C9.01673 5.6455 6.74297 7.68193 7.26269 9.97944C7.80269 12.3638 10.8062 12.7884 14.1121 13.2557C16.8515 13.643 19.7986 14.0596 21.7238 15.6449V9.97944H18.3067C17.2932 6.24599 14.5777 5.6455 11.9791 5.6455ZM7.25598 40.1382L4.44423 34.7315H2.73838L6.4392 41.8368L6.07056 42.5813C5.87299 42.9861 5.63446 43.2848 5.35497 43.4776C5.0803 43.6703 4.70203 43.7667 4.22015 43.7667C3.82502 43.7619 3.52866 43.7113 3.33109 43.6149V45.0244L3.45397 45.0678C3.54071 45.1063 3.67081 45.1449 3.84429 45.1834C4.01777 45.222 4.19365 45.2412 4.37195 45.2412C5.19114 45.2412 5.85372 45.0316 6.35969 44.6124C6.87048 44.1883 7.34272 43.5113 7.7764 42.5813L11.4772 34.7315H9.77137L7.25598 40.1382ZM16.4357 42.4295V45.0967H17.9103V37.9914H16.4357V41.0272L16.255 41.1718C16.1346 41.273 15.937 41.3742 15.6623 41.4754C15.3925 41.5718 15.1058 41.6199 14.8022 41.6199C14.3878 41.6199 14.036 41.473 13.7469 41.179C13.4626 40.8803 13.3204 40.5092 13.3204 40.0659V37.9914H11.8459V40.0659C11.8459 40.9525 12.0988 41.6561 12.6048 42.1765C13.1156 42.6921 13.7999 42.9499 14.6576 42.9499C15.3515 42.9499 15.9442 42.7764 16.4357 42.4295ZM24.206 45.0967H25.6878V40.5068C25.6878 39.7551 25.4107 39.1238 24.8565 38.613C24.3024 38.0974 23.5916 37.8396 22.7242 37.8396C22.3773 37.8396 22.04 37.8878 21.7123 37.9842C21.3894 38.0757 21.1292 38.1817 20.9316 38.3022C20.7341 38.4227 20.5461 38.56 20.3678 38.7142C20.1944 38.8636 20.0811 38.9696 20.0281 39.0323C19.9799 39.0901 19.9414 39.1383 19.9125 39.1768L20.8738 40.1382L21.069 39.8852C21.1846 39.7262 21.3942 39.5696 21.6978 39.4154C22.0062 39.2563 22.3484 39.1768 22.7242 39.1768C23.1579 39.1768 23.5121 39.3045 23.7868 39.5599C24.0662 39.8153 24.206 40.1309 24.206 40.5068L21.6111 40.9549C20.9702 41.061 20.4642 41.3115 20.0932 41.7067C19.7269 42.1018 19.5438 42.5909 19.5438 43.174C19.5438 43.7137 19.7824 44.1932 20.2594 44.6124C20.7365 45.0316 21.3364 45.2412 22.0592 45.2412C22.305 45.2412 22.5483 45.2099 22.7893 45.1473C23.0302 45.0846 23.2302 45.0148 23.3892 44.9377C23.5482 44.8557 23.6952 44.7666 23.8301 44.6702C23.9699 44.569 24.0614 44.4967 24.1048 44.4534C24.153 44.41 24.1867 44.3787 24.206 44.3594V45.0967ZM23.6928 43.3764C23.3555 43.733 22.8856 43.9113 22.2833 43.9113C21.8978 43.9113 21.5894 43.8221 21.3581 43.6438C21.1316 43.4655 21.0184 43.2583 21.0184 43.0222C21.0184 42.7668 21.1003 42.5548 21.2641 42.3861C21.428 42.2175 21.6424 42.109 21.9074 42.0609L24.206 41.6922V41.8368C24.206 42.5018 24.0349 43.015 23.6928 43.3764ZM27.3213 41.5477C27.3213 42.5403 27.6876 43.4053 28.42 44.1426C29.1573 44.875 30.0247 45.2412 31.0221 45.2412C31.3643 45.2412 31.704 45.1882 32.0413 45.0822C32.3786 44.9714 32.6533 44.8533 32.8653 44.728C33.0773 44.5979 33.2797 44.451 33.4725 44.2871C33.6652 44.1185 33.7905 44.0004 33.8483 43.9329C33.9062 43.8607 33.9495 43.8052 33.9785 43.7667L33.0171 42.8054L32.793 43.08C32.6485 43.2583 32.4099 43.4414 32.0774 43.6294C31.7498 43.8173 31.398 43.9113 31.0221 43.9113C30.4198 43.9113 29.897 43.6824 29.4536 43.2246C29.0151 42.7668 28.7959 42.2078 28.7959 41.5477C28.7959 40.8827 29.0151 40.3213 29.4536 39.8635C29.897 39.4057 30.4198 39.1768 31.0221 39.1768C31.398 39.1768 31.7498 39.2732 32.0774 39.466C32.4099 39.6587 32.6244 39.8129 32.7208 39.9286C32.8219 40.0394 32.8966 40.1334 32.9448 40.2104L33.9062 39.2491L33.5954 38.9094C33.3882 38.6733 33.046 38.4371 32.569 38.201C32.0919 37.9601 31.5763 37.8396 31.0221 37.8396C30.0247 37.8396 29.1573 38.2083 28.42 38.9455C27.6876 39.6828 27.3213 40.5502 27.3213 41.5477ZM34.7157 37.9914V39.3214H37.1588V45.0967H38.6334V39.3214H41.0765V37.9914H34.7157ZM43.8882 45.0967V42.1331H47.365V45.0967H48.8468V37.9914H47.365V40.8032H43.8882V37.9914H42.4065V45.0967H43.8882ZM57.4338 37.9914H56.1038L52.403 42.6536V37.9914H50.9212V45.0967H52.2512L55.952 40.4345V45.0967H57.4338V37.9914ZM63.0645 40.9549L65.804 37.9914H64.0259L60.9901 41.1718V37.9914H59.5083V45.0967H60.9901V43.1017L62.1032 41.9163L64.3945 45.0967H66.0209L63.0645 40.9549Z" fill="#53565A"/>
</svg>
