<svg width="328" height="54" viewBox="0 0 328 54" fill="none" xmlns="http://www.w3.org/2000/svg">
<path d="M6.45065 41.1052C5.4843 41.1052 4.74343 40.8475 4.22805 40.3321C3.71266 39.7846 3.45497 39.0115 3.45497 38.0129V19.7489C3.45497 18.7503 3.71266 17.9934 4.22805 17.478C4.74343 16.9626 5.4682 16.7049 6.40233 16.7049C7.33647 16.7049 8.06123 16.9626 8.57662 17.478C9.09201 17.9934 9.3497 18.7503 9.3497 19.7489V23.2761L8.81821 21.8266C9.46244 20.216 10.461 18.9436 11.8139 18.0095C13.1668 17.0753 14.7774 16.6083 16.6456 16.6083C18.5461 16.6083 20.1084 17.0592 21.3324 17.9612C22.5565 18.8631 23.4101 20.2482 23.8933 22.1165H23.2168C23.861 20.4092 24.924 19.0725 26.4058 18.1061C27.8875 17.1075 29.5947 16.6083 31.5274 16.6083C33.3313 16.6083 34.813 16.9626 35.9726 17.6713C37.1645 18.3799 38.0503 19.459 38.6301 20.9085C39.2099 22.3258 39.4998 24.1297 39.4998 26.3201V38.0129C39.4998 39.0115 39.226 39.7846 38.6784 40.3321C38.163 40.8475 37.4222 41.1052 36.4558 41.1052C35.4895 41.1052 34.7486 40.8475 34.2332 40.3321C33.7178 39.7846 33.4601 39.0115 33.4601 38.0129V26.5617C33.4601 24.7578 33.1541 23.4371 32.5421 22.5996C31.9623 21.7621 30.9637 21.3434 29.5464 21.3434C27.968 21.3434 26.7279 21.9071 25.826 23.0345C24.924 24.1297 24.4731 25.6597 24.4731 27.6247V38.0129C24.4731 39.0115 24.2154 39.7846 23.7 40.3321C23.1846 40.8475 22.4437 41.1052 21.4774 41.1052C20.511 41.1052 19.7541 40.8475 19.2065 40.3321C18.6911 39.7846 18.4334 39.0115 18.4334 38.0129V26.5617C18.4334 24.7578 18.1274 23.4371 17.5154 22.5996C16.9355 21.7621 15.9531 21.3434 14.568 21.3434C12.9896 21.3434 11.7495 21.9071 10.8475 23.0345C9.94562 24.1297 9.49465 25.6597 9.49465 27.6247V38.0129C9.49465 40.0745 8.47999 41.1052 6.45065 41.1052ZM52.0601 41.2019C50.3529 41.2019 48.8228 40.8797 47.4699 40.2355C46.1492 39.5591 45.1024 38.6571 44.3293 37.5297C43.5884 36.4023 43.218 35.13 43.218 33.7127C43.218 31.9732 43.6689 30.6042 44.5709 29.6057C45.4728 28.5749 46.9384 27.834 48.9678 27.3831C50.9971 26.9321 53.719 26.7066 57.1334 26.7066H59.5493V30.1855H57.1817C55.1846 30.1855 53.5901 30.2821 52.3983 30.4754C51.2065 30.6687 50.3529 31.0069 49.8375 31.4901C49.3543 31.941 49.1127 32.5852 49.1127 33.4227C49.1127 34.4857 49.4832 35.3554 50.224 36.0319C50.9649 36.7083 51.9957 37.0466 53.3163 37.0466C54.3793 37.0466 55.3135 36.805 56.1188 36.3218C56.9563 35.8064 57.6166 35.1139 58.0998 34.2441C58.5829 33.3744 58.8245 32.3759 58.8245 31.2485V25.692C58.8245 24.0814 58.4702 22.9218 57.7615 22.2131C57.0529 21.5044 55.8611 21.1501 54.1861 21.1501C53.2519 21.1501 52.2372 21.2629 51.1421 21.4883C50.0791 21.7138 48.9517 22.1004 47.7598 22.648C47.1478 22.9379 46.6002 23.0184 46.117 22.8895C45.6661 22.7607 45.3117 22.503 45.0541 22.1165C44.7964 21.6977 44.6675 21.2467 44.6675 20.7636C44.6675 20.2804 44.7964 19.8133 45.0541 19.3624C45.3117 18.8792 45.7466 18.5249 46.3586 18.2994C47.8404 17.6874 49.2577 17.2525 50.6106 16.9948C51.9957 16.7371 53.2519 16.6083 54.3793 16.6083C56.6986 16.6083 58.599 16.9626 60.0808 17.6713C61.5947 18.3799 62.7221 19.459 63.463 20.9085C64.2039 22.3258 64.5743 24.1619 64.5743 26.4167V38.0129C64.5743 39.0115 64.3327 39.7846 63.8495 40.3321C63.3664 40.8475 62.6738 41.1052 61.7719 41.1052C60.87 41.1052 60.1613 40.8475 59.6459 40.3321C59.1628 39.7846 58.9212 39.0115 58.9212 38.0129V35.6937H59.3077C59.0822 36.8211 58.6313 37.8035 57.9548 38.641C57.3106 39.4463 56.4892 40.0745 55.4906 40.5254C54.4921 40.9764 53.3486 41.2019 52.0601 41.2019ZM72.2507 41.1052C71.2844 41.1052 70.5435 40.8475 70.0281 40.3321C69.5128 39.7846 69.2551 39.0115 69.2551 38.0129V19.7489C69.2551 18.7503 69.5128 17.9934 70.0281 17.478C70.5435 16.9626 71.2683 16.7049 72.2024 16.7049C73.1366 16.7049 73.8613 16.9626 74.3767 17.478C74.8921 17.9934 75.1498 18.7503 75.1498 19.7489V23.0345L74.6183 21.8266C75.327 20.1193 76.4222 18.8309 77.9039 17.9612C79.4178 17.0592 81.1251 16.6083 83.0255 16.6083C84.926 16.6083 86.4883 16.9626 87.7123 17.6713C88.9364 18.3799 89.8544 19.459 90.4664 20.9085C91.0785 22.3258 91.3845 24.1297 91.3845 26.3201V38.0129C91.3845 39.0115 91.1268 39.7846 90.6114 40.3321C90.096 40.8475 89.3551 41.1052 88.3888 41.1052C87.4224 41.1052 86.6655 40.8475 86.1179 40.3321C85.6025 39.7846 85.3448 39.0115 85.3448 38.0129V26.61C85.3448 24.7739 84.9905 23.4371 84.2818 22.5996C83.6054 21.7621 82.5424 21.3434 81.0928 21.3434C79.3212 21.3434 77.9039 21.9071 76.8409 23.0345C75.8101 24.1297 75.2947 25.5953 75.2947 27.4314V38.0129C75.2947 40.0745 74.2801 41.1052 72.2507 41.1052ZM97.5189 40.7187C96.9069 40.7187 96.3915 40.5737 95.9727 40.2838C95.5862 39.9617 95.3285 39.5591 95.1997 39.0759C95.0708 38.5927 95.0708 38.0773 95.1997 37.5297C95.3607 36.9499 95.6667 36.4023 96.1177 35.8869L108.632 20.1838V21.6333H97.229C96.4881 21.6333 95.9083 21.44 95.4896 21.0535C95.103 20.6347 94.9098 20.071 94.9098 19.3624C94.9098 18.6215 95.103 18.0578 95.4896 17.6713C95.9083 17.2847 96.4881 17.0914 97.229 17.0914H111.531C112.24 17.0914 112.819 17.2525 113.27 17.5746C113.721 17.8645 114.011 18.2511 114.14 18.7342C114.301 19.2174 114.317 19.7328 114.188 20.2804C114.06 20.828 113.77 21.3434 113.319 21.8266L100.563 37.7713V36.1768H112.642C114.188 36.1768 114.962 36.9338 114.962 38.4478C114.962 39.1564 114.752 39.7201 114.333 40.1389C113.947 40.5254 113.383 40.7187 112.642 40.7187H97.5189ZM125.048 41.2019C123.341 41.2019 121.811 40.8797 120.458 40.2355C119.137 39.5591 118.09 38.6571 117.317 37.5297C116.576 36.4023 116.206 35.13 116.206 33.7127C116.206 31.9732 116.657 30.6042 117.559 29.6057C118.46 28.5749 119.926 27.834 121.955 27.3831C123.985 26.9321 126.707 26.7066 130.121 26.7066H132.537V30.1855H130.169C128.172 30.1855 126.578 30.2821 125.386 30.4754C124.194 30.6687 123.341 31.0069 122.825 31.4901C122.342 31.941 122.1 32.5852 122.1 33.4227C122.1 34.4857 122.471 35.3554 123.212 36.0319C123.953 36.7083 124.983 37.0466 126.304 37.0466C127.367 37.0466 128.301 36.805 129.106 36.3218C129.944 35.8064 130.604 35.1139 131.087 34.2441C131.571 33.3744 131.812 32.3759 131.812 31.2485V25.692C131.812 24.0814 131.458 22.9218 130.749 22.2131C130.041 21.5044 128.849 21.1501 127.174 21.1501C126.24 21.1501 125.225 21.2629 124.13 21.4883C123.067 21.7138 121.939 22.1004 120.748 22.648C120.136 22.9379 119.588 23.0184 119.105 22.8895C118.654 22.7607 118.299 22.503 118.042 22.1165C117.784 21.6977 117.655 21.2467 117.655 20.7636C117.655 20.2804 117.784 19.8133 118.042 19.3624C118.299 18.8792 118.734 18.5249 119.346 18.2994C120.828 17.6874 122.245 17.2525 123.598 16.9948C124.983 16.7371 126.24 16.6083 127.367 16.6083C129.686 16.6083 131.587 16.9626 133.068 17.6713C134.582 18.3799 135.71 19.459 136.451 20.9085C137.192 22.3258 137.562 24.1619 137.562 26.4167V38.0129C137.562 39.0115 137.32 39.7846 136.837 40.3321C136.354 40.8475 135.662 41.1052 134.76 41.1052C133.858 41.1052 133.149 40.8475 132.634 40.3321C132.15 39.7846 131.909 39.0115 131.909 38.0129V35.6937H132.295C132.07 36.8211 131.619 37.8035 130.943 38.641C130.298 39.4463 129.477 40.0745 128.478 40.5254C127.48 40.9764 126.336 41.2019 125.048 41.2019ZM145.238 41.1052C144.272 41.1052 143.531 40.8475 143.016 40.3321C142.5 39.7846 142.243 39.0115 142.243 38.0129V19.7489C142.243 18.7503 142.5 17.9934 143.016 17.478C143.531 16.9626 144.256 16.7049 145.19 16.7049C146.124 16.7049 146.849 16.9626 147.364 17.478C147.88 17.9934 148.137 18.7503 148.137 19.7489V23.0345L147.606 21.8266C148.315 20.1193 149.41 18.8309 150.892 17.9612C152.406 17.0592 154.113 16.6083 156.013 16.6083C157.914 16.6083 159.476 16.9626 160.7 17.6713C161.924 18.3799 162.842 19.459 163.454 20.9085C164.066 22.3258 164.372 24.1297 164.372 26.3201V38.0129C164.372 39.0115 164.114 39.7846 163.599 40.3321C163.084 40.8475 162.343 41.1052 161.376 41.1052C160.41 41.1052 159.653 40.8475 159.106 40.3321C158.59 39.7846 158.332 39.0115 158.332 38.0129V26.61C158.332 24.7739 157.978 23.4371 157.269 22.5996C156.593 21.7621 155.53 21.3434 154.081 21.3434C152.309 21.3434 150.892 21.9071 149.829 23.0345C148.798 24.1297 148.282 25.5953 148.282 27.4314V38.0129C148.282 40.0745 147.268 41.1052 145.238 41.1052ZM176.836 41.2019C175.129 41.2019 173.599 40.8797 172.246 40.2355C170.925 39.5591 169.878 38.6571 169.105 37.5297C168.365 36.4023 167.994 35.13 167.994 33.7127C167.994 31.9732 168.445 30.6042 169.347 29.6057C170.249 28.5749 171.715 27.834 173.744 27.3831C175.773 26.9321 178.495 26.7066 181.91 26.7066H184.325V30.1855H181.958C179.961 30.1855 178.366 30.2821 177.174 30.4754C175.983 30.6687 175.129 31.0069 174.614 31.4901C174.13 31.941 173.889 32.5852 173.889 33.4227C173.889 34.4857 174.259 35.3554 175 36.0319C175.741 36.7083 176.772 37.0466 178.092 37.0466C179.155 37.0466 180.09 36.805 180.895 36.3218C181.732 35.8064 182.393 35.1139 182.876 34.2441C183.359 33.3744 183.601 32.3759 183.601 31.2485V25.692C183.601 24.0814 183.246 22.9218 182.538 22.2131C181.829 21.5044 180.637 21.1501 178.962 21.1501C178.028 21.1501 177.013 21.2629 175.918 21.4883C174.855 21.7138 173.728 22.1004 172.536 22.648C171.924 22.9379 171.376 23.0184 170.893 22.8895C170.442 22.7607 170.088 22.503 169.83 22.1165C169.572 21.6977 169.444 21.2467 169.444 20.7636C169.444 20.2804 169.572 19.8133 169.83 19.3624C170.088 18.8792 170.523 18.5249 171.135 18.2994C172.616 17.6874 174.034 17.2525 175.387 16.9948C176.772 16.7371 178.028 16.6083 179.155 16.6083C181.475 16.6083 183.375 16.9626 184.857 17.6713C186.371 18.3799 187.498 19.459 188.239 20.9085C188.98 22.3258 189.35 24.1619 189.35 26.4167V38.0129C189.35 39.0115 189.109 39.7846 188.626 40.3321C188.142 40.8475 187.45 41.1052 186.548 41.1052C185.646 41.1052 184.937 40.8475 184.422 40.3321C183.939 39.7846 183.697 39.0115 183.697 38.0129V35.6937H184.084C183.858 36.8211 183.407 37.8035 182.731 38.641C182.087 39.4463 181.265 40.0745 180.267 40.5254C179.268 40.9764 178.125 41.2019 176.836 41.2019Z" fill="#78BE20"/>
<path d="M215.458 49.899C213.718 49.899 212.027 49.738 210.384 49.4158C208.774 49.0937 207.308 48.5944 205.987 47.918C205.375 47.5959 204.957 47.2093 204.731 46.7584C204.538 46.3074 204.474 45.8403 204.538 45.3572C204.635 44.9062 204.828 44.5036 205.118 44.1492C205.44 43.7949 205.826 43.5533 206.277 43.4245C206.728 43.2956 207.195 43.36 207.679 43.6177C209.096 44.3264 210.433 44.7774 211.689 44.9706C212.977 45.1961 214.073 45.3088 214.975 45.3088C217.133 45.3088 218.743 44.7774 219.806 43.7144C220.901 42.6836 221.449 41.1374 221.449 39.0759V34.7273H221.884C221.401 36.3701 220.386 37.6908 218.84 38.6894C217.326 39.6557 215.603 40.1389 213.67 40.1389C211.544 40.1389 209.692 39.6557 208.113 38.6894C206.535 37.6908 205.311 36.3057 204.441 34.5341C203.572 32.7624 203.137 30.7009 203.137 28.3494C203.137 26.5778 203.378 24.9833 203.862 23.566C204.377 22.1165 205.086 20.8763 205.987 19.8455C206.922 18.8148 208.033 18.0256 209.321 17.478C210.642 16.8982 212.092 16.6083 213.67 16.6083C215.667 16.6083 217.407 17.1075 218.888 18.1061C220.402 19.0725 221.385 20.3609 221.836 21.9715L221.352 23.1794V19.7489C221.352 18.7503 221.61 17.9934 222.126 17.478C222.673 16.9626 223.414 16.7049 224.348 16.7049C225.314 16.7049 226.055 16.9626 226.571 17.478C227.086 17.9934 227.344 18.7503 227.344 19.7489V38.3511C227.344 42.1843 226.329 45.0673 224.3 47C222.27 48.9327 219.323 49.899 215.458 49.899ZM215.313 35.5487C216.569 35.5487 217.648 35.2588 218.55 34.679C219.452 34.0992 220.144 33.2778 220.628 32.2148C221.143 31.1196 221.401 29.8312 221.401 28.3494C221.401 26.1268 220.853 24.3874 219.758 23.1311C218.663 21.8427 217.181 21.1984 215.313 21.1984C214.056 21.1984 212.977 21.4883 212.075 22.0681C211.174 22.648 210.465 23.4693 209.95 24.5323C209.466 25.5953 209.225 26.8677 209.225 28.3494C209.225 30.572 209.772 32.3276 210.868 33.616C211.963 34.9045 213.444 35.5487 215.313 35.5487ZM235.244 41.1052C234.246 41.1052 233.473 40.8475 232.925 40.3321C232.41 39.7846 232.152 39.0115 232.152 38.0129V19.7489C232.152 18.7503 232.41 17.9934 232.925 17.478C233.441 16.9626 234.165 16.7049 235.1 16.7049C236.034 16.7049 236.758 16.9626 237.274 17.478C237.789 17.9934 238.047 18.7503 238.047 19.7489V22.7929H237.564C238.015 20.8602 238.9 19.3946 240.221 18.396C241.542 17.3975 243.297 16.8015 245.488 16.6083C246.164 16.5438 246.696 16.721 247.082 17.1398C247.501 17.5263 247.743 18.1383 247.807 18.9758C247.871 19.7811 247.678 20.4415 247.227 20.9568C246.808 21.44 246.164 21.7299 245.294 21.8266L244.232 21.9232C242.267 22.1165 240.785 22.7285 239.786 23.7593C238.788 24.7578 238.288 26.1751 238.288 28.0112V38.0129C238.288 39.0115 238.031 39.7846 237.515 40.3321C237 40.8475 236.243 41.1052 235.244 41.1052ZM260.021 41.2019C257.573 41.2019 255.447 40.7026 253.643 39.704C251.839 38.7055 250.438 37.2881 249.44 35.4521C248.441 33.5838 247.942 31.3934 247.942 28.8809C247.942 26.9804 248.216 25.2893 248.763 23.8076C249.343 22.2936 250.164 21.0052 251.227 19.9422C252.29 18.847 253.563 18.0256 255.044 17.478C256.526 16.8982 258.185 16.6083 260.021 16.6083C262.469 16.6083 264.595 17.1075 266.399 18.1061C268.203 19.1047 269.604 20.522 270.603 22.358C271.601 24.1941 272.1 26.3684 272.1 28.8809C272.1 30.7814 271.811 32.4886 271.231 34.0026C270.683 35.5165 269.878 36.8211 268.815 37.9163C267.752 38.9793 266.48 39.8007 264.998 40.3805C263.516 40.9281 261.857 41.2019 260.021 41.2019ZM260.021 36.6117C261.213 36.6117 262.26 36.3218 263.162 35.742C264.064 35.1622 264.756 34.3086 265.239 33.1812C265.755 32.0215 266.012 30.5881 266.012 28.8809C266.012 26.304 265.465 24.3874 264.37 23.1311C263.275 21.8427 261.825 21.1984 260.021 21.1984C258.829 21.1984 257.782 21.4883 256.88 22.0681C255.979 22.6157 255.27 23.4693 254.755 24.629C254.271 25.7564 254.03 27.1737 254.03 28.8809C254.03 31.4256 254.577 33.3583 255.673 34.679C256.768 35.9675 258.217 36.6117 260.021 36.6117ZM284.188 41.2019C282.223 41.2019 280.597 40.8475 279.308 40.1389C278.02 39.398 277.053 38.3028 276.409 36.8533C275.797 35.4038 275.491 33.5999 275.491 31.4417V19.7489C275.491 18.7181 275.749 17.9612 276.264 17.478C276.779 16.9626 277.52 16.7049 278.487 16.7049C279.453 16.7049 280.194 16.9626 280.709 17.478C281.257 17.9612 281.531 18.7181 281.531 19.7489V31.5384C281.531 33.2134 281.869 34.4535 282.545 35.2588C283.222 36.0641 284.301 36.4668 285.783 36.4668C287.393 36.4668 288.714 35.9192 289.745 34.824C290.775 33.6965 291.291 32.2148 291.291 30.3787V19.7489C291.291 18.7181 291.549 17.9612 292.064 17.478C292.579 16.9626 293.32 16.7049 294.287 16.7049C295.253 16.7049 295.994 16.9626 296.509 17.478C297.057 17.9612 297.331 18.7181 297.331 19.7489V38.0129C297.331 40.0745 296.348 41.1052 294.383 41.1052C293.449 41.1052 292.724 40.8475 292.209 40.3321C291.693 39.7846 291.436 39.0115 291.436 38.0129V34.3408L292.112 35.7903C291.436 37.5297 290.405 38.8665 289.02 39.8007C287.667 40.7348 286.056 41.2019 284.188 41.2019ZM305.163 49.8024C304.197 49.8024 303.456 49.5447 302.94 49.0293C302.425 48.5139 302.167 47.7569 302.167 46.7584V19.7489C302.167 18.7503 302.425 17.9934 302.94 17.478C303.456 16.9626 304.18 16.7049 305.115 16.7049C306.081 16.7049 306.822 16.9626 307.337 17.478C307.853 17.9934 308.11 18.7503 308.11 19.7489V23.5177L307.579 22.0681C308.062 20.4253 309.044 19.1047 310.526 18.1061C312.04 17.1075 313.796 16.6083 315.793 16.6083C317.854 16.6083 319.658 17.1075 321.204 18.1061C322.783 19.1047 324.007 20.522 324.876 22.358C325.746 24.1619 326.181 26.3362 326.181 28.8809C326.181 31.3934 325.746 33.5838 324.876 35.4521C324.007 37.2881 322.799 38.7055 321.253 39.704C319.706 40.7026 317.886 41.2019 315.793 41.2019C313.828 41.2019 312.104 40.7187 310.623 39.7523C309.141 38.7538 308.142 37.4653 307.627 35.8869H308.207V46.7584C308.207 47.7569 307.933 48.5139 307.385 49.0293C306.87 49.5447 306.129 49.8024 305.163 49.8024ZM314.102 36.6117C315.293 36.6117 316.34 36.3218 317.242 35.742C318.144 35.1622 318.837 34.3086 319.32 33.1812C319.835 32.0215 320.093 30.5881 320.093 28.8809C320.093 26.304 319.545 24.3874 318.45 23.1311C317.355 21.8427 315.905 21.1984 314.102 21.1984C312.91 21.1984 311.863 21.4883 310.961 22.0681C310.059 22.6157 309.35 23.4693 308.835 24.629C308.352 25.7564 308.11 27.1737 308.11 28.8809C308.11 31.4256 308.658 33.3583 309.753 34.679C310.848 35.9675 312.298 36.6117 314.102 36.6117Z" fill="#676E7C"/>
<path d="M130.841 14.5436C131.093 14.5561 131.298 14.332 131.287 14.0572C131.194 11.834 130.369 9.64028 128.813 7.94257C127.257 6.24487 125.246 5.34547 123.208 5.24436C122.956 5.23186 122.751 5.45594 122.762 5.73076C122.855 7.954 123.679 10.1477 125.236 11.8454C126.792 13.5431 128.803 14.4425 130.841 14.5436Z" fill="#78BE20"/>
</svg>
