<svg width="359" height="60" viewBox="0 0 359 60" fill="none" xmlns="http://www.w3.org/2000/svg">
<path d="M7.06023 45.3633C6.00549 45.3633 5.19686 45.082 4.63433 44.5195C4.07181 43.9218 3.79054 43.078 3.79054 41.9881V22.0536C3.79054 20.9637 4.07181 20.1375 4.63433 19.575C5.19686 19.0124 5.98792 18.7312 7.0075 18.7312C8.02708 18.7312 8.81813 19.0124 9.38066 19.575C9.94318 20.1375 10.2244 20.9637 10.2244 22.0536V25.9034L9.64434 24.3213C10.3475 22.5634 11.4374 21.1746 12.914 20.1551C14.3907 19.1355 16.1486 18.6257 18.1877 18.6257C20.262 18.6257 21.9672 19.1179 23.3032 20.1023C24.6392 21.0867 25.5709 22.5985 26.0983 24.6377H25.3599C26.0631 22.7743 27.2233 21.3153 28.8406 20.2605C30.4578 19.1706 32.3212 18.6257 34.4307 18.6257C36.3995 18.6257 38.0168 19.0124 39.2825 19.7859C40.5833 20.5594 41.5502 21.7372 42.183 23.3193C42.8159 24.8662 43.1323 26.8351 43.1323 29.2258V41.9881C43.1323 43.078 42.8334 43.9218 42.2358 44.5195C41.6732 45.082 40.8646 45.3633 39.8099 45.3633C38.7551 45.3633 37.9465 45.082 37.384 44.5195C36.8214 43.9218 36.5402 43.078 36.5402 41.9881V29.4895C36.5402 27.5206 36.2062 26.0792 35.5382 25.1651C34.9053 24.251 33.8154 23.7939 32.2685 23.7939C30.5457 23.7939 29.1922 24.4092 28.2077 25.6397C27.2233 26.8351 26.7311 28.5051 26.7311 30.6497V41.9881C26.7311 43.078 26.4498 43.9218 25.8873 44.5195C25.3248 45.082 24.5161 45.3633 23.4614 45.3633C22.4067 45.3633 21.5805 45.082 20.9828 44.5195C20.4202 43.9218 20.139 43.078 20.139 41.9881V29.4895C20.139 27.5206 19.805 26.0792 19.137 25.1651C18.5041 24.251 17.4318 23.7939 15.92 23.7939C14.1973 23.7939 12.8437 24.4092 11.8593 25.6397C10.8749 26.8351 10.3827 28.5051 10.3827 30.6497V41.9881C10.3827 44.2382 9.27518 45.3633 7.06023 45.3633ZM56.8414 45.4688C54.978 45.4688 53.308 45.1172 51.8314 44.414C50.3899 43.6757 49.2473 42.6913 48.4035 41.4608C47.5949 40.2302 47.1905 38.8415 47.1905 37.2946C47.1905 35.396 47.6828 33.9018 48.6672 32.8119C49.6516 31.6869 51.2513 30.8782 53.4662 30.386C55.6812 29.8938 58.652 29.6477 62.3788 29.6477H65.0156V33.4448H62.4315C60.2517 33.4448 58.5114 33.5502 57.2106 33.7612C55.9097 33.9721 54.978 34.3413 54.4155 34.8687C53.8881 35.3609 53.6244 36.064 53.6244 36.9781C53.6244 38.1383 54.0288 39.0876 54.8374 39.8259C55.646 40.5642 56.7711 40.9334 58.2126 40.9334C59.3728 40.9334 60.3923 40.6697 61.2713 40.1423C62.1854 39.5798 62.9061 38.8239 63.4335 37.8747C63.9609 36.9254 64.2246 35.8355 64.2246 34.605V28.5402C64.2246 26.7823 63.8378 25.5166 63.0644 24.7432C62.2909 23.9697 60.99 23.583 59.1618 23.583C58.1422 23.583 57.0348 23.706 55.8394 23.9521C54.6792 24.1982 53.4487 24.6201 52.1478 25.2178C51.4798 25.5342 50.8821 25.6221 50.3548 25.4815C49.8625 25.3409 49.4758 25.0596 49.1945 24.6377C48.9133 24.1806 48.7726 23.6884 48.7726 23.1611C48.7726 22.6337 48.9133 22.1239 49.1945 21.6317C49.4758 21.1043 49.9504 20.7176 50.6184 20.4715C52.2357 19.8035 53.7827 19.3288 55.2593 19.0476C56.7711 18.7663 58.1422 18.6257 59.3728 18.6257C61.9041 18.6257 63.9785 19.0124 65.5957 19.7859C67.2481 20.5594 68.4787 21.7372 69.2873 23.3193C70.0959 24.8662 70.5003 26.8702 70.5003 29.3313V41.9881C70.5003 43.078 70.2366 43.9218 69.7092 44.5195C69.1818 45.082 68.4259 45.3633 67.4415 45.3633C66.4571 45.3633 65.6836 45.082 65.1211 44.5195C64.5937 43.9218 64.33 43.078 64.33 41.9881V39.4568H64.7519C64.5058 40.6873 64.0136 41.7596 63.2753 42.6737C62.5721 43.5527 61.6756 44.2382 60.5857 44.7305C59.4958 45.2227 58.2477 45.4688 56.8414 45.4688ZM78.8788 45.3633C77.8241 45.3633 77.0155 45.082 76.4529 44.5195C75.8904 43.9218 75.6091 43.078 75.6091 41.9881V22.0536C75.6091 20.9637 75.8904 20.1375 76.4529 19.575C77.0155 19.0124 77.8065 18.7312 78.8261 18.7312C79.8457 18.7312 80.6367 19.0124 81.1993 19.575C81.7618 20.1375 82.043 20.9637 82.043 22.0536V25.6397L81.4629 24.3213C82.2364 22.4579 83.4318 21.0516 85.049 20.1023C86.7015 19.1179 88.5648 18.6257 90.6392 18.6257C92.7135 18.6257 94.4186 19.0124 95.7546 19.7859C97.0906 20.5594 98.0926 21.7372 98.7606 23.3193C99.4286 24.8662 99.7626 26.8351 99.7626 29.2258V41.9881C99.7626 43.078 99.4814 43.9218 98.9189 44.5195C98.3563 45.082 97.5477 45.3633 96.493 45.3633C95.4382 45.3633 94.612 45.082 94.0143 44.5195C93.4518 43.9218 93.1705 43.078 93.1705 41.9881V29.5422C93.1705 27.5382 92.7838 26.0792 92.0103 25.1651C91.272 24.251 90.1118 23.7939 88.5297 23.7939C86.596 23.7939 85.049 24.4092 83.8888 25.6397C82.7638 26.8351 82.2013 28.4348 82.2013 30.4388V41.9881C82.2013 44.2382 81.0938 45.3633 78.8788 45.3633ZM106.458 44.9414C105.79 44.9414 105.228 44.7832 104.771 44.4668C104.349 44.1152 104.067 43.6757 103.927 43.1484C103.786 42.621 103.786 42.0585 103.927 41.4608C104.103 40.8279 104.437 40.2302 104.929 39.6677L118.588 22.5282V24.1103H106.142C105.333 24.1103 104.7 23.8994 104.243 23.4775C103.821 23.0204 103.61 22.4052 103.61 21.6317C103.61 20.8231 103.821 20.2078 104.243 19.7859C104.7 19.364 105.333 19.1531 106.142 19.1531H121.752C122.525 19.1531 123.158 19.3288 123.65 19.6804C124.143 19.9968 124.459 20.4187 124.6 20.9461C124.775 21.4735 124.793 22.036 124.652 22.6337C124.512 23.2314 124.195 23.7939 123.703 24.3213L109.781 41.7245V39.9841H122.965C124.652 39.9841 125.496 40.8103 125.496 42.4628C125.496 43.2362 125.268 43.8515 124.811 44.3086C124.389 44.7305 123.773 44.9414 122.965 44.9414H106.458ZM136.505 45.4688C134.642 45.4688 132.972 45.1172 131.495 44.414C130.054 43.6757 128.911 42.6913 128.067 41.4608C127.258 40.2302 126.854 38.8415 126.854 37.2946C126.854 35.396 127.346 33.9018 128.331 32.8119C129.315 31.6869 130.915 30.8782 133.13 30.386C135.345 29.8938 138.316 29.6477 142.042 29.6477H144.679V33.4448H142.095C139.915 33.4448 138.175 33.5502 136.874 33.7612C135.573 33.9721 134.642 34.3413 134.079 34.8687C133.552 35.3609 133.288 36.064 133.288 36.9781C133.288 38.1383 133.692 39.0876 134.501 39.8259C135.31 40.5642 136.435 40.9334 137.876 40.9334C139.036 40.9334 140.056 40.6697 140.935 40.1423C141.849 39.5798 142.57 38.8239 143.097 37.8747C143.625 36.9254 143.888 35.8355 143.888 34.605V28.5402C143.888 26.7823 143.501 25.5166 142.728 24.7432C141.955 23.9697 140.654 23.583 138.825 23.583C137.806 23.583 136.698 23.706 135.503 23.9521C134.343 24.1982 133.112 24.6201 131.811 25.2178C131.143 25.5342 130.546 25.6221 130.018 25.4815C129.526 25.3409 129.139 25.0596 128.858 24.6377C128.577 24.1806 128.436 23.6884 128.436 23.1611C128.436 22.6337 128.577 22.1239 128.858 21.6317C129.139 21.1043 129.614 20.7176 130.282 20.4715C131.899 19.8035 133.446 19.3288 134.923 19.0476C136.435 18.7663 137.806 18.6257 139.036 18.6257C141.568 18.6257 143.642 19.0124 145.259 19.7859C146.912 20.5594 148.142 21.7372 148.951 23.3193C149.76 24.8662 150.164 26.8702 150.164 29.3313V41.9881C150.164 43.078 149.9 43.9218 149.373 44.5195C148.845 45.082 148.09 45.3633 147.105 45.3633C146.121 45.3633 145.347 45.082 144.785 44.5195C144.257 43.9218 143.994 43.078 143.994 41.9881V39.4568H144.416C144.169 40.6873 143.677 41.7596 142.939 42.6737C142.236 43.5527 141.339 44.2382 140.249 44.7305C139.159 45.2227 137.911 45.4688 136.505 45.4688ZM158.542 45.3633C157.488 45.3633 156.679 45.082 156.117 44.5195C155.554 43.9218 155.273 43.078 155.273 41.9881V22.0536C155.273 20.9637 155.554 20.1375 156.117 19.575C156.679 19.0124 157.47 18.7312 158.49 18.7312C159.509 18.7312 160.3 19.0124 160.863 19.575C161.425 20.1375 161.707 20.9637 161.707 22.0536V25.6397L161.127 24.3213C161.9 22.4579 163.095 21.0516 164.713 20.1023C166.365 19.1179 168.228 18.6257 170.303 18.6257C172.377 18.6257 174.082 19.0124 175.418 19.7859C176.754 20.5594 177.756 21.7372 178.424 23.3193C179.092 24.8662 179.426 26.8351 179.426 29.2258V41.9881C179.426 43.078 179.145 43.9218 178.582 44.5195C178.02 45.082 177.211 45.3633 176.157 45.3633C175.102 45.3633 174.276 45.082 173.678 44.5195C173.115 43.9218 172.834 43.078 172.834 41.9881V29.5422C172.834 27.5382 172.447 26.0792 171.674 25.1651C170.936 24.251 169.775 23.7939 168.193 23.7939C166.26 23.7939 164.713 24.4092 163.552 25.6397C162.427 26.8351 161.865 28.4348 161.865 30.4388V41.9881C161.865 44.2382 160.757 45.3633 158.542 45.3633ZM193.03 45.4688C191.167 45.4688 189.497 45.1172 188.02 44.414C186.579 43.6757 185.436 42.6913 184.592 41.4608C183.784 40.2302 183.379 38.8415 183.379 37.2946C183.379 35.396 183.872 33.9018 184.856 32.8119C185.841 31.6869 187.44 30.8782 189.655 30.386C191.87 29.8938 194.841 29.6477 198.568 29.6477H201.205V33.4448H198.62C196.441 33.4448 194.7 33.5502 193.399 33.7612C192.099 33.9721 191.167 34.3413 190.604 34.8687C190.077 35.3609 189.813 36.064 189.813 36.9781C189.813 38.1383 190.218 39.0876 191.026 39.8259C191.835 40.5642 192.96 40.9334 194.401 40.9334C195.562 40.9334 196.581 40.6697 197.46 40.1423C198.374 39.5798 199.095 38.8239 199.622 37.8747C200.15 36.9254 200.413 35.8355 200.413 34.605V28.5402C200.413 26.7823 200.027 25.5166 199.253 24.7432C198.48 23.9697 197.179 23.583 195.351 23.583C194.331 23.583 193.224 23.706 192.028 23.9521C190.868 24.1982 189.638 24.6201 188.337 25.2178C187.669 25.5342 187.071 25.6221 186.544 25.4815C186.051 25.3409 185.665 25.0596 185.383 24.6377C185.102 24.1806 184.962 23.6884 184.962 23.1611C184.962 22.6337 185.102 22.1239 185.383 21.6317C185.665 21.1043 186.139 20.7176 186.807 20.4715C188.425 19.8035 189.972 19.3288 191.448 19.0476C192.96 18.7663 194.331 18.6257 195.562 18.6257C198.093 18.6257 200.167 19.0124 201.785 19.7859C203.437 20.5594 204.668 21.7372 205.476 23.3193C206.285 24.8662 206.689 26.8702 206.689 29.3313V41.9881C206.689 43.078 206.426 43.9218 205.898 44.5195C205.371 45.082 204.615 45.3633 203.63 45.3633C202.646 45.3633 201.873 45.082 201.31 44.5195C200.783 43.9218 200.519 43.078 200.519 41.9881V39.4568H200.941C200.695 40.6873 200.203 41.7596 199.464 42.6737C198.761 43.5527 197.865 44.2382 196.775 44.7305C195.685 45.2227 194.437 45.4688 193.03 45.4688Z" fill="#78BE20"/>
<path d="M235.185 54.9614C233.287 54.9614 231.441 54.7856 229.648 54.434C227.89 54.0825 226.29 53.5375 224.849 52.7992C224.181 52.4476 223.724 52.0257 223.477 51.5335C223.267 51.0413 223.196 50.5315 223.267 50.0041C223.372 49.5119 223.583 49.0725 223.899 48.6857C224.251 48.299 224.673 48.0353 225.165 47.8947C225.657 47.754 226.167 47.8244 226.694 48.1056C228.241 48.8791 229.7 49.3713 231.072 49.5823C232.478 49.8284 233.673 49.9514 234.658 49.9514C237.013 49.9514 238.771 49.3713 239.931 48.2111C241.127 47.086 241.724 45.3985 241.724 43.1484V38.402H242.199C241.672 40.1951 240.564 41.6366 238.877 42.7265C237.224 43.7812 235.343 44.3086 233.234 44.3086C230.913 44.3086 228.892 43.7812 227.169 42.7265C225.446 41.6366 224.11 40.1248 223.161 38.1911C222.212 36.2574 221.737 34.0073 221.737 31.4408C221.737 29.5071 222.001 27.7668 222.528 26.2198C223.091 24.6377 223.864 23.2841 224.849 22.1591C225.868 21.034 227.081 20.1726 228.487 19.575C229.929 18.9421 231.511 18.6257 233.234 18.6257C235.414 18.6257 237.312 19.1706 238.929 20.2605C240.582 21.3153 241.654 22.7216 242.146 24.4795L241.619 25.7979V22.0536C241.619 20.9637 241.9 20.1375 242.463 19.575C243.06 19.0124 243.869 18.7312 244.889 18.7312C245.943 18.7312 246.752 19.0124 247.315 19.575C247.877 20.1375 248.158 20.9637 248.158 22.0536V42.3573C248.158 46.5411 247.051 49.6877 244.836 51.7972C242.621 53.9067 239.404 54.9614 235.185 54.9614ZM235.027 39.2986C236.398 39.2986 237.576 38.9821 238.56 38.3493C239.545 37.7165 240.301 36.8199 240.828 35.6597C241.39 34.4643 241.672 33.058 241.672 31.4408C241.672 29.0149 241.074 27.1163 239.879 25.7452C238.683 24.3389 237.066 23.6357 235.027 23.6357C233.656 23.6357 232.478 23.9521 231.493 24.585C230.509 25.2178 229.736 26.1143 229.173 27.2745C228.646 28.4348 228.382 29.8235 228.382 31.4408C228.382 33.8667 228.98 35.7828 230.175 37.1891C231.37 38.5954 232.988 39.2986 235.027 39.2986ZM256.782 45.3633C255.692 45.3633 254.848 45.082 254.25 44.5195C253.688 43.9218 253.406 43.078 253.406 41.9881V22.0536C253.406 20.9637 253.688 20.1375 254.25 19.575C254.813 19.0124 255.604 18.7312 256.623 18.7312C257.643 18.7312 258.434 19.0124 258.997 19.575C259.559 20.1375 259.84 20.9637 259.84 22.0536V25.376H259.313C259.805 23.2665 260.772 21.6669 262.214 20.577C263.655 19.4871 265.571 18.8366 267.962 18.6257C268.7 18.5554 269.28 18.7487 269.702 19.2058C270.159 19.6277 270.423 20.2957 270.493 21.2098C270.564 22.0887 270.353 22.8095 269.86 23.372C269.403 23.8994 268.7 24.2158 267.751 24.3213L266.591 24.4267C264.446 24.6377 262.829 25.3057 261.739 26.4308C260.649 27.5206 260.104 29.0676 260.104 31.0716V41.9881C260.104 43.078 259.823 43.9218 259.26 44.5195C258.698 45.082 257.872 45.3633 256.782 45.3633ZM283.825 45.4688C281.153 45.4688 278.832 44.9238 276.863 43.8339C274.894 42.744 273.365 41.1971 272.275 39.1931C271.185 37.1539 270.64 34.7632 270.64 32.0209C270.64 29.9465 270.939 28.1008 271.537 26.4835C272.17 24.8311 273.066 23.4247 274.226 22.2645C275.387 21.0692 276.775 20.1726 278.393 19.575C280.01 18.9421 281.821 18.6257 283.825 18.6257C286.497 18.6257 288.817 19.1706 290.786 20.2605C292.755 21.3504 294.284 22.8974 295.374 24.9014C296.464 26.9054 297.009 29.2785 297.009 32.0209C297.009 34.0952 296.692 35.9586 296.06 37.611C295.462 39.2634 294.583 40.6873 293.423 41.8827C292.262 43.0429 290.874 43.9394 289.256 44.5722C287.639 45.1699 285.829 45.4688 283.825 45.4688ZM283.825 40.4588C285.125 40.4588 286.268 40.1423 287.252 39.5095C288.237 38.8767 288.993 37.945 289.52 36.7144C290.083 35.4488 290.364 33.8842 290.364 32.0209C290.364 29.2082 289.766 27.1163 288.571 25.7452C287.376 24.3389 285.793 23.6357 283.825 23.6357C282.524 23.6357 281.381 23.9521 280.397 24.585C279.412 25.1826 278.639 26.1143 278.076 27.38C277.549 28.6105 277.285 30.1575 277.285 32.0209C277.285 34.7983 277.883 36.9078 279.078 38.3493C280.274 39.7556 281.856 40.4588 283.825 40.4588ZM310.202 45.4688C308.057 45.4688 306.282 45.082 304.876 44.3086C303.469 43.4999 302.415 42.3046 301.711 40.7225C301.043 39.1403 300.709 37.1715 300.709 34.8159V22.0536C300.709 20.9285 300.991 20.1023 301.553 19.575C302.116 19.0124 302.924 18.7312 303.979 18.7312C305.034 18.7312 305.842 19.0124 306.405 19.575C307.003 20.1023 307.302 20.9285 307.302 22.0536V34.9214C307.302 36.7496 307.671 38.1032 308.409 38.9821C309.147 39.8611 310.325 40.3006 311.942 40.3006C313.7 40.3006 315.142 39.7029 316.267 38.5075C317.392 37.277 317.954 35.6597 317.954 33.6557V22.0536C317.954 20.9285 318.236 20.1023 318.798 19.575C319.361 19.0124 320.169 18.7312 321.224 18.7312C322.279 18.7312 323.087 19.0124 323.65 19.575C324.248 20.1023 324.547 20.9285 324.547 22.0536V41.9881C324.547 44.2382 323.474 45.3633 321.33 45.3633C320.31 45.3633 319.519 45.082 318.956 44.5195C318.394 43.9218 318.113 43.078 318.113 41.9881V37.9801L318.851 39.5622C318.113 41.4608 316.988 42.9198 315.476 43.9394C313.999 44.959 312.241 45.4688 310.202 45.4688ZM333.095 54.8559C332.041 54.8559 331.232 54.5747 330.669 54.0122C330.107 53.4496 329.826 52.6234 329.826 51.5335V22.0536C329.826 20.9637 330.107 20.1375 330.669 19.575C331.232 19.0124 332.023 18.7312 333.043 18.7312C334.097 18.7312 334.906 19.0124 335.468 19.575C336.031 20.1375 336.312 20.9637 336.312 22.0536V26.1671L335.732 24.585C336.259 22.7919 337.332 21.3504 338.949 20.2605C340.601 19.1706 342.518 18.6257 344.697 18.6257C346.947 18.6257 348.916 19.1706 350.604 20.2605C352.327 21.3504 353.663 22.8974 354.612 24.9014C355.561 26.8702 356.036 29.2434 356.036 32.0209C356.036 34.7632 355.561 37.1539 354.612 39.1931C353.663 41.1971 352.344 42.744 350.657 43.8339C348.969 44.9238 346.983 45.4688 344.697 45.4688C342.553 45.4688 340.672 44.9414 339.055 43.8867C337.437 42.7968 336.347 41.3905 335.785 39.6677H336.418V51.5335C336.418 52.6234 336.119 53.4496 335.521 54.0122C334.959 54.5747 334.15 54.8559 333.095 54.8559ZM342.852 40.4588C344.152 40.4588 345.295 40.1423 346.279 39.5095C347.264 38.8767 348.02 37.945 348.547 36.7144C349.11 35.4488 349.391 33.8842 349.391 32.0209C349.391 29.2082 348.793 27.1163 347.598 25.7452C346.403 24.3389 344.82 23.6357 342.852 23.6357C341.551 23.6357 340.408 23.9521 339.424 24.585C338.439 25.1826 337.666 26.1143 337.103 27.38C336.576 28.6105 336.312 30.1575 336.312 32.0209C336.312 34.7983 336.91 36.9078 338.105 38.3493C339.301 39.7556 340.883 40.4588 342.852 40.4588Z" fill="white"/>
<path d="M142.826 16.032C143.101 16.0457 143.325 15.8011 143.313 15.5012C143.211 13.0746 142.312 10.6802 140.613 8.82722C138.914 6.97424 136.72 5.99257 134.495 5.88221C134.22 5.86857 133.996 6.11314 134.009 6.4131C134.11 8.83969 135.01 11.2341 136.708 13.087C138.407 14.94 140.602 15.9217 142.826 16.032Z" fill="#78BE20"/>
</svg>
