<svg width="52" height="53" viewBox="0 0 52 53" fill="none" xmlns="http://www.w3.org/2000/svg">
<g clip-path="url(#clip0_829_229)">
<path d="M46.9136 40.7981V28.5894C46.9136 25.1416 44.4832 22.372 41.0353 22.372H28.2614V13.0459V12.9894C30.4658 12.0851 31.9918 9.93725 31.9918 7.45029C31.9918 4.17203 29.3353 1.45898 26.0005 1.45898C22.6658 1.45898 20.0092 4.17203 20.0092 7.45029C20.0092 9.93725 21.5918 12.0851 23.7397 12.9894V13.0459V22.372H10.9658C7.51793 22.372 5.0875 25.1981 5.0875 28.5894V40.7981C2.82663 41.7025 1.1875 43.8503 1.1875 46.3372C1.1875 49.6155 3.7875 52.3285 7.06576 52.3285C10.344 52.3285 13.1701 49.6155 13.1701 46.3372C13.1701 43.8503 11.2484 41.7025 9.55272 40.7981V28.5894C9.55272 27.6285 10.0049 26.8938 10.9092 26.8938H23.7397V40.7981C21.4788 41.7025 20.0092 43.8503 20.0092 46.3372C20.0092 49.6155 22.6658 52.3285 26.0005 52.3285C29.3353 52.3285 31.9918 49.6155 31.9918 46.3372C31.9918 43.8503 30.5223 41.7025 28.2614 40.7981V26.8938H41.0353C41.9962 26.8938 42.3918 27.6851 42.3918 28.5894V40.7981C40.6962 41.7025 38.831 43.8503 38.831 46.3372C38.831 49.6155 41.6005 52.3285 44.9353 52.3285C48.2701 52.3285 50.8136 49.6155 50.8136 46.3372C50.8136 43.8503 49.1745 41.7025 46.9136 40.7981ZM26.0005 4.85029C27.4136 4.85029 28.6005 6.03725 28.6005 7.45029C28.6005 8.86333 27.4136 10.0503 26.0005 10.0503C24.5875 10.0503 23.4005 8.86333 23.4005 7.45029C23.4005 6.03725 24.5875 4.85029 26.0005 4.85029ZM7.00924 48.9372C5.5962 48.9372 4.40924 47.7503 4.40924 46.3372C4.40924 44.9242 5.5962 43.7372 7.00924 43.7372C8.42228 43.7372 9.60924 44.9242 9.60924 46.3372C9.60924 47.7503 8.42228 48.9372 7.00924 48.9372ZM26.0005 48.9372C24.5875 48.9372 23.4005 47.7503 23.4005 46.3372C23.4005 44.9242 24.5875 43.7372 26.0005 43.7372C27.4136 43.7372 28.6005 44.9242 28.6005 46.3372C28.6005 47.7503 27.4136 48.9372 26.0005 48.9372ZM44.9918 48.9372C43.5788 48.9372 42.3918 47.7503 42.3918 46.3372C42.3918 44.9242 43.5788 43.7372 44.9918 43.7372C46.4049 43.7372 47.5918 44.9242 47.5918 46.3372C47.5918 47.7503 46.4049 48.9372 44.9918 48.9372Z" fill="black"/>
</g>
<defs>
<clipPath id="clip0_829_229">
<rect width="52" height="52" fill="white" transform="translate(0 0.894531)"/>
</clipPath>
</defs>
</svg>
