<svg style="width:0; height:0; visibility: hidden;" xmlns="http://www.w3.org/2000/svg">

    <!-- close -->
	<symbol id="svg-close" viewBox="0 0 27 27">
		<g>
		    <path d="M1 0.738281L26 25.7383M26 0.738281L1 25.7383" stroke="black" stroke-width="2" />
		</g>
	</symbol>

    <!-- prev -->
	<symbol id="svg-prev" viewBox="0 0 15 29">
		<g>
		    <path d="M14 1L1.66795 13.8064C1.29505 14.1936 1.29504 14.8064 1.66795 15.1936L14 28" stroke="white" stroke-width="2" stroke-linecap="round" />
		</g>
	</symbol>

    <!-- next -->
	<symbol id="svg-next" viewBox="0 0 15 29">
		<g>
			<path d="M1 1L13.332 13.8064C13.705 14.1936 13.705 14.8064 13.332 15.1936L1 28" stroke="white" stroke-width="2" stroke-linecap="round" />
		</g>
	</symbol>

    <!-- arrow -->
	<symbol id="svg-arrow" viewBox="0 0 22 23">
		<g>
			<path d="M2.00977 21.083L20.1504 2.21777M20.1504 2.21777H2.00977M20.1504 2.21777V21.083" stroke="white" stroke-width="3" />
		</g>
	</symbol>

    <!-- cdp -->
	<defs id="clip0_829_229">
		<clipPath>
		<rect width="52" height="52" fill="white" transform="translate(0 0.894531)" />
		</clipPath>
    </defs>
	<symbol id="svg-cdp" viewBox="0 0 52 53">
		<g clip-path="url(#clip0_829_229)">
			<path d="M46.9136 40.7981V28.5894C46.9136 25.1416 44.4832 22.372 41.0353 22.372H28.2614V13.0459V12.9894C30.4658 12.0851 31.9918 9.93725 31.9918 7.45029C31.9918 4.17203 29.3353 1.45898 26.0005 1.45898C22.6658 1.45898 20.0092 4.17203 20.0092 7.45029C20.0092 9.93725 21.5918 12.0851 23.7397 12.9894V13.0459V22.372H10.9658C7.51793 22.372 5.0875 25.1981 5.0875 28.5894V40.7981C2.82663 41.7025 1.1875 43.8503 1.1875 46.3372C1.1875 49.6155 3.7875 52.3285 7.06576 52.3285C10.344 52.3285 13.1701 49.6155 13.1701 46.3372C13.1701 43.8503 11.2484 41.7025 9.55272 40.7981V28.5894C9.55272 27.6285 10.0049 26.8938 10.9092 26.8938H23.7397V40.7981C21.4788 41.7025 20.0092 43.8503 20.0092 46.3372C20.0092 49.6155 22.6658 52.3285 26.0005 52.3285C29.3353 52.3285 31.9918 49.6155 31.9918 46.3372C31.9918 43.8503 30.5223 41.7025 28.2614 40.7981V26.8938H41.0353C41.9962 26.8938 42.3918 27.6851 42.3918 28.5894V40.7981C40.6962 41.7025 38.831 43.8503 38.831 46.3372C38.831 49.6155 41.6005 52.3285 44.9353 52.3285C48.2701 52.3285 50.8136 49.6155 50.8136 46.3372C50.8136 43.8503 49.1745 41.7025 46.9136 40.7981ZM26.0005 4.85029C27.4136 4.85029 28.6005 6.03725 28.6005 7.45029C28.6005 8.86333 27.4136 10.0503 26.0005 10.0503C24.5875 10.0503 23.4005 8.86333 23.4005 7.45029C23.4005 6.03725 24.5875 4.85029 26.0005 4.85029ZM7.00924 48.9372C5.5962 48.9372 4.40924 47.7503 4.40924 46.3372C4.40924 44.9242 5.5962 43.7372 7.00924 43.7372C8.42228 43.7372 9.60924 44.9242 9.60924 46.3372C9.60924 47.7503 8.42228 48.9372 7.00924 48.9372ZM26.0005 48.9372C24.5875 48.9372 23.4005 47.7503 23.4005 46.3372C23.4005 44.9242 24.5875 43.7372 26.0005 43.7372C27.4136 43.7372 28.6005 44.9242 28.6005 46.3372C28.6005 47.7503 27.4136 48.9372 26.0005 48.9372ZM44.9918 48.9372C43.5788 48.9372 42.3918 47.7503 42.3918 46.3372C42.3918 44.9242 43.5788 43.7372 44.9918 43.7372C46.4049 43.7372 47.5918 44.9242 47.5918 46.3372C47.5918 47.7503 46.4049 48.9372 44.9918 48.9372Z" fill="black" />
		</g>
	</symbol>

    <!-- web -->
	<symbol id="svg-web" viewBox="0 0 70 71">
		<g>
			<path d="M10.1788 14.7379V4.11438C10.1788 3.00981 11.0742 2.11438 12.1788 2.11438H65.306C66.4106 2.11438 67.306 3.00981 67.306 4.11438V38.6029C67.306 39.7075 66.4106 40.6029 65.306 40.6029H46.2506M31.3887 40.6029V22.8967C31.3887 21.7921 30.4932 20.8967 29.3887 20.8967H4.2832C3.17863 20.8967 2.2832 21.7921 2.2832 22.8967V66.7766C2.2832 67.8812 3.17863 68.7766 4.2832 68.7766H29.3887C30.4932 68.7766 31.3887 67.8812 31.3887 66.7766V47.5309M31.3887 40.6029H46.2506M31.3887 40.6029V47.5309M46.2506 40.6029V46.6071M59.5648 50.3021C55.3334 48.4546 43.7743 45.3139 31.3887 47.5309M12.1802 61.4614H20.8413M30.5129 14.7379C32.4376 14.514 36.5468 15.4321 37.5862 20.8967M31.3887 8.06123C35.2829 8.44403 43.1293 11.3629 43.3602 19.9758" fill="transparent" stroke="currentColor" stroke-width="4" stroke-linecap="round" />
		</g>
	</symbol>

	<!-- marketing -->
	<symbol id="svg-marketing" viewBox="0 0 83 86">
		<g>
			<path d="M2.60352 83.3731H7.72883M81.0263 83.3731H76.3699M76.3699 83.3731V41.4193C76.3699 39.8448 75.0935 38.5684 73.519 38.5684H66.9672C65.3927 38.5684 64.1163 39.8448 64.1163 41.4193V83.3731M76.3699 83.3731H64.1163M64.1163 83.3731H57.4537M57.4537 83.3731V50.0169C57.4537 48.4424 56.1773 47.166 54.6028 47.166H48.2049C46.6304 47.166 45.354 48.4424 45.354 50.0169V83.3731M57.4537 83.3731H45.354M45.354 83.3731H38.3925M38.3925 83.3731V56.9039C38.3925 55.3294 37.1161 54.053 35.5416 54.053H29.6409C28.0664 54.053 26.79 55.3294 26.79 56.9039V83.3731M38.3925 83.3731H26.79M26.79 83.3731H19.4971M19.4971 83.3731V65.3405C19.4971 63.766 18.2207 62.4896 16.6462 62.4896H10.5797C9.00522 62.4896 7.72883 63.766 7.72883 65.3405V83.3731M19.4971 83.3731H7.72883M7.72883 48.8878C19.0551 50.0356 47.2104 45.3754 69.2219 17.5519M69.2219 17.5519H56.5948M69.2219 17.5519V30.8302M17.1609 29.74C16.518 30.0884 15.8977 30.3616 15.3019 30.567M17.1609 29.74C18.3821 29.0781 19.516 28.5709 20.5654 28.1931M17.1609 29.74L12.9224 18.0845M15.3019 30.567C6.31107 33.6657 2.92258 21.2916 12.063 18.3701C12.3574 18.276 12.6438 18.1807 12.9224 18.0845M15.3019 30.567L18.8097 38.7708C19.2094 39.7056 20.2767 40.1573 21.226 39.7933V39.7933C22.0834 39.4647 22.5809 38.5677 22.4058 37.6663L20.5654 28.1931M20.5654 28.1931C26.6281 26.0102 31.6901 26.5998 32.6274 28.1931L30.3786 22.4396L26.9696 13.7179L24.5307 7.47814C24.5307 9.29069 21.8625 14.9938 12.9224 18.0845M33.2543 9.23444L37.5011 2.47655M36.9508 15.2648L45.354 11.8859M38.3925 22.4396L45.9825 24.898" stroke="black" fill="transparent" stroke-width="3.8012" stroke-linecap="round" />
		</g>
	</symbol>

	<!-- zoom -->
	<symbol id="svg-zoom" viewBox="0 0 22 23">
		<g>
			<path d="M16.4545 16.7551C18.1376 15.1157 19.1818 12.8312 19.1818 10.3043C19.1818 5.31562 15.1117 1.27148 10.0909 1.27148C5.07014 1.27148 1 5.31562 1 10.3043C1 15.293 5.07014 19.3372 10.0909 19.3372C12.5686 19.3372 14.8148 18.3523 16.4545 16.7551ZM16.4545 16.7551L21 21.2715" stroke="#78BE20" stroke-width="2" stroke-linecap="round" fill="transparent" />
           <path d="M10.1965 5.67188V10.4719M10.1965 10.4719V15.2719M10.1965 10.4719H5.39648M10.1965 10.4719H14.9965" stroke="#78BE20" stroke-width="2" stroke-linecap="round" fill="transparent" />
		</g>
	</symbol>
</svg>